<svg xmlns="http://www.w3.org/2000/svg" viewBox="0 0 155.42 46.07"><defs><style>.cls-1{fill:#fff;}.cls-2{fill:#72cd21;}.cls-3{fill:none;}</style></defs><g id="Layer_2" data-name="Layer 2"><g id="Layer_1-2" data-name="Layer 1"><path class="cls-1" d="M0,0C1.29.7,2.46,1.28,3.5,1.76L6.19,3c.86.4,1.65.75,2.32,1s1.63.55,2.74.89c.95.29,2.17.64,3.65,1s3.31.85,5.48,1.31a10.16,10.16,0,0,0-2.54.8,7.44,7.44,0,0,0-1.52,1,3.09,3.09,0,0,0-.94,1.21,14.91,14.91,0,0,0,.17,4c.09.84.23,1.87.43,3.1s.46,2.66.78,4.32S17.5,25.19,18,27.3s1.07,4.49,1.72,7.11c.78-1.9,1.43-3.56,1.93-5s.93-2.67,1.28-3.69.72-2.17,1-3,.6-2.11,1-3.54c.31-1.21.7-2.8,1.19-4.7s1.1-4.24,1.82-6.95c.88.32,1.32.49,2.2.8.24,2.3.5,4.31.75,6.06s.49,3.23.67,4.44c.2,1.39.37,2.63.55,3.64s.45,2,.8,3.23c.3,1,.7,2.28,1.17,3.76s1.1,3.12,1.87,4.93c.7-2.12,1.32-4,1.88-5.61s1-3.06,1.45-4.29.75-2.28,1-3.16.54-1.6.73-2.19a17.56,17.56,0,0,0,.74-2.84,3.63,3.63,0,0,0-.58-1.71,10.07,10.07,0,0,0-1.39-1.79A15.06,15.06,0,0,0,37,10.57c2.5.58,4.55,1,6.14,1.28s2.85.5,3.8.65l2.48.37c.9.13,1.34.19,2.24.3s1.91.24,3.26.38,3.08.29,5.2.43c-1.82.46-3.28.88-4.4,1.28s-2,.75-2.59,1a6.18,6.18,0,0,0-1.59.95A18.25,18.25,0,0,0,50,20.85c-.31.81-.67,1.82-1,3s-.85,2.69-1.37,4.41S46.48,32,45.82,34.36s-1.37,5-2.17,8.11c-4.25-.33-6.37-.5-10.61-.89-1.93-5.81-2.89-8.81-4.81-15-.64,2.64-1.15,4.82-1.53,6.49s-.66,3-.85,3.93a21.72,21.72,0,0,0-.38,2.5c0,.45-.06.9-.1,1.32s-.08.76-.13,1.19-.12.82-.19,1.18H14.21c-1.11-4.1-2.1-7.84-3-11.15S9.63,25.74,9,23.14s-1.23-4.84-1.7-6.71S6.37,13,6,11.67A52.46,52.46,0,0,0,4.25,5.93C4,5.52,3.62,5,3.19,4.43s-.81-1.1-1.34-1.84S.7,1,0,0Z"/><path class="cls-1" d="M53.59,24.55c4.56.38,6.84.53,11.4.74a34.69,34.69,0,0,0-1.42,4.12A25.28,25.28,0,0,0,63,32.28a7.73,7.73,0,0,0-.1,2.25,8.6,8.6,0,0,0,.63,1.82,12.5,12.5,0,0,0,1.13,1.86,11.9,11.9,0,0,0,2,2.09,13.8,13.8,0,0,0-1.6-.25c-.57-.06-1.1-.1-1.59-.13a16.45,16.45,0,0,0-1.72,0c-.57,0-1.21.05-1.9.11l-2.08.18q-1.23.11-2.58.3c.6-1.23,1.06-2.29,1.4-3.19a21.19,21.19,0,0,0,.74-2.23,9.46,9.46,0,0,0,.28-1.71c0-.52,0-1.16,0-1.86l0-2q0-1-.09-1.74a1.89,1.89,0,0,0-.26-1l-.62-.45c-.25-.15-.62-.37-1.09-.67S54.38,25,53.59,24.55Zm4.31-6a5.48,5.48,0,0,1,2.64,0,5.13,5.13,0,0,1,2.09.9,1.24,1.24,0,0,1,.55,1.36c-.14.5-.82,1-2,1.37a5.88,5.88,0,0,1-3.15.28,3.33,3.33,0,0,1-1.94-1,1.43,1.43,0,0,1-.21-1.56A2.86,2.86,0,0,1,57.9,18.57Z"/><path class="cls-1" d="M68,18.05l3.15.31,2.09.17c.62,0,1.13,0,1.49.06a14.3,14.3,0,0,0,1.5,0l2.12-.09c.88,0,2-.12,3.31-.25A8.78,8.78,0,0,0,81,19l-.44.54-.37.48-.25.47a2.15,2.15,0,0,0-.22.48,4.59,4.59,0,0,0-.16.59c3.84,0,5.76-.07,9.59-.24l-.9,3.26c-3.5,0-5.25,0-8.75-.14-.21,1.34-.36,2.38-.44,3.12a14.33,14.33,0,0,1-.25,1.61c-.05.29-.08.43-.13.71-.12,1-.24,2.09-.37,3.26a22.94,22.94,0,0,0-.12,3.25,8.15,8.15,0,0,0,.43,2.5,1.31,1.31,0,0,0,1.29,1,4.69,4.69,0,0,0,1.72-.32A5.67,5.67,0,0,0,83,38.78a4,4,0,0,0,.9-.89,1.51,1.51,0,0,0,.31-.7,1.09,1.09,0,0,0-.19-.55,8,8,0,0,0-1.1-1.49c1.19.17,2.24.35,3.14.52.45.1.87.21,1.23.31s.9.2,1.41.34l1.72.45c.7.18,1.51.39,2.45.65a5.57,5.57,0,0,0-2,.54,1.75,1.75,0,0,0-.55.37,13.35,13.35,0,0,0-1,1.19A6.53,6.53,0,0,1,87.64,41a11.54,11.54,0,0,1-3,1.28,19.82,19.82,0,0,1-5,.63,11.18,11.18,0,0,1-4.93-.71,6.15,6.15,0,0,1-2.46-1.84,4.34,4.34,0,0,1-.9-2.08c-.09-.68-.15-1.15-.19-1.38a10.25,10.25,0,0,1,0-1.78c0-1,.09-2,.17-3.15s.15-2.25.23-3.32.11-1.85.11-2.35c0-.26,0-.56.06-.83s0-.49,0-.77a7.3,7.3,0,0,0,0-.81c-3.6-.09-5.4-.16-9-.36l-.4-2.31c3.63.27,5.45.38,9.08.53a6.06,6.06,0,0,0-.28-.82,6.65,6.65,0,0,0-.28-.62,2.44,2.44,0,0,0-.38-.49c-.14-.13-.36-.3-.56-.45l-.82-.54C68.83,18.58,68.43,18.33,68,18.05Z"/><path class="cls-1" d="M124.81,26.27c-.49,0-1.09,0-1.8.08s-1.4.11-2.05.19-1.51.18-2.33.29-1.72.24-2.58.36l-2.49.34-2.68.39a3.48,3.48,0,0,0,.9-.56,6.76,6.76,0,0,0,.72-.67,4.87,4.87,0,0,0,.57-.8,2,2,0,0,0,0-1.59,3.59,3.59,0,0,0-1.3-1.58,6,6,0,0,0-2.38-1,7.05,7.05,0,0,0-3.17.15,16.86,16.86,0,0,0-3.33,1.19,7.69,7.69,0,0,0-2.43,1.78A6.33,6.33,0,0,0,99,27.44a10,10,0,0,0-.27,3.47,8.38,8.38,0,0,0,1.18,3.94A6.14,6.14,0,0,0,102.3,37a7.7,7.7,0,0,0,3.09.83,16.86,16.86,0,0,0,3.34-.07,5.76,5.76,0,0,0,2.16-.8,5.38,5.38,0,0,0,1.5-1.45,4.16,4.16,0,0,0,.66-2.58c3-.26,4.5-.4,7.49-.71a13.41,13.41,0,0,1-3.21,4.43,17.42,17.42,0,0,1-3.6,2.5,14.1,14.1,0,0,1-4.07,1.38,25,25,0,0,1-4.48.29,20.76,20.76,0,0,1-3.55-.36,20.41,20.41,0,0,1-2.93-.79c-.9-.31-1.75-.65-2.56-1a7.6,7.6,0,0,1-1.77-1.19,11,11,0,0,1-1.82-2,10.78,10.78,0,0,1-1.39-2.6,6.65,6.65,0,0,1-.41-3,7.23,7.23,0,0,1,1.15-3.14,11.84,11.84,0,0,1,3.19-3.18,22.1,22.1,0,0,1,7.08-3.43A29.4,29.4,0,0,1,109.26,19a19.92,19.92,0,0,1,5.89.58,7.39,7.39,0,0,1,3.58,1.82c.68.75,1.19,1.33,1.53,1.72L121,24a2.37,2.37,0,0,0,.48.45l.63.35c.2.12.45.28.73.43l.85.45Q124.21,26,124.81,26.27Z"/><path class="cls-1" d="M124,7.51c.94-.11,1.79-.24,2.57-.4l1.94-.4c.61-.13,1.15-.26,1.59-.39s1.32-.46,2.12-.76l2.52-1c1-.41,2.12-.91,3.41-1.52-.61.48-1.11.91-1.52,1.3a8.22,8.22,0,0,0-1,1.1,6.8,6.8,0,0,0-.68,1.07,17.55,17.55,0,0,0-.71,2.94c-.24,1.24-.58,3.08-1,5.48s-.87,5.61-1.46,9.61A31,31,0,0,1,136,21.08,30.55,30.55,0,0,1,139.5,19a13.47,13.47,0,0,1,3.27-1.18,9.44,9.44,0,0,1,3.82.23,16.71,16.71,0,0,1,3.65,1.4,13.54,13.54,0,0,1,3,2.16A9.11,9.11,0,0,1,155.06,24a4.52,4.52,0,0,1,.36,2,17.65,17.65,0,0,1-.25,2.76,30,30,0,0,1-.66,3.06c-.29,1-.56,2-.83,2.92s-.49,1.69-.7,2.36a12.15,12.15,0,0,0-.37,1.43,4.3,4.3,0,0,0,.12,1.72,5.1,5.1,0,0,0,.73,1.52,4.28,4.28,0,0,0,1.65,1.35c-.57-.08-1.17-.15-1.81-.21s-1.23-.11-1.8-.14-1.31-.06-2-.05h-2.2c-.7,0-1.49,0-2.39,0l-2.94.09a4.79,4.79,0,0,0,1.48-.75,9.09,9.09,0,0,0,1-.93A6.12,6.12,0,0,0,145.4,40,9.13,9.13,0,0,0,146,38.3a30.18,30.18,0,0,0,.69-3c.21-1.13.37-2.32.48-3.58a27.82,27.82,0,0,0,.09-3.62,10.54,10.54,0,0,0-.52-3,2.89,2.89,0,0,0-1.34-1.74,7.46,7.46,0,0,0-4.91-1,8.91,8.91,0,0,0-4.24,2.24L134.86,26c-.41.39-.86.85-1.35,1.37s-.95,1-1.37,1.54q0,.75,0,1.65c0,.59.07,1.18.1,1.74s.09,1.27.15,1.89c.08.94.18,1.92.32,2.84s.26,1.68.44,2.63a14.2,14.2,0,0,0,.76,2.6,9.94,9.94,0,0,0-1.65-.07l-1.66,0-1.77.06c-.52,0-1.09.08-1.66.16s-1,.12-1.6.17-1.12.12-1.65.22a15.19,15.19,0,0,0,1.26-2.17c.34-.72.62-1.35.83-1.9a17.68,17.68,0,0,0,.65-1.89A17.42,17.42,0,0,0,127,34.1q.12-2.06.24-4.74c.07-1.79.13-3.68.16-5.67s0-3.89,0-5.68,0-3.35-.13-4.68a17,17,0,0,0-.28-2.71,5.5,5.5,0,0,0-.65-1.37,4.08,4.08,0,0,0-1-1.06A3.45,3.45,0,0,0,124,7.51Z"/><path class="cls-2" d="M54.6,11.94l-3.09,2.59a14.17,14.17,0,0,1-1.42-.67l.55,1.41-1.24,1a6,6,0,0,1-1-1c0,.59,0,1.18,0,1.77a2.93,2.93,0,0,1-1.24-1c0,.71,0,1.42,0,2.13L14.49,45.64a1.85,1.85,0,0,1-2.59-.22L5.25,37.5a1.83,1.83,0,0,1,.22-2.59L9.2,31.77a9.94,9.94,0,0,1,1.71,1.41,1.1,1.1,0,0,1-.06-.48l.09-2.38.75-.64a1.41,1.41,0,0,0,.85.17l-.18-.68c.07.29.52.24.72,0s.29-.53.55-.69a1.19,1.19,0,0,0,.84.23c.1-.55.21-1.09.31-1.64L45.58,1.21a1.83,1.83,0,0,1,2.58.22l6.66,7.92A1.85,1.85,0,0,1,54.6,11.94Z"/><path class="cls-1" d="M14.11,40.83a2,2,0,0,1-.65.38,1,1,0,0,1-.65,0,1.71,1.71,0,0,1-.66-.53L8.82,36.71l.69-.58L12.75,40a.81.81,0,0,0,.36.28.47.47,0,0,0,.33,0,.92.92,0,0,0,.3-.18l1.74-1.46.53.63Z"/><path class="cls-1" d="M17.76,37.84a1.47,1.47,0,0,1-1,.39,1.5,1.5,0,0,1-1-.61l-2.16-2.57.69-.57,2,2.39a.87.87,0,0,0,.65.39,1.12,1.12,0,0,0,.65-.3,2.22,2.22,0,0,0,.45-.52,3.21,3.21,0,0,0,.29-.65L16,33l.68-.57,3.06,3.65-.54.45-.46-.27a5.61,5.61,0,0,1-.36.81A2.71,2.71,0,0,1,17.76,37.84Z"/><path class="cls-1" d="M22.06,34.22a2.58,2.58,0,0,1-.66.41,1.42,1.42,0,0,1-.71.1,1.73,1.73,0,0,1-.79-.3,4.58,4.58,0,0,1-.87-.82,4.38,4.38,0,0,1-.68-1,1.77,1.77,0,0,1-.19-.82,1.42,1.42,0,0,1,.23-.69,3.49,3.49,0,0,1,.56-.61q.29-.24.63-.48c.23-.16.46-.3.69-.43l.34.41-1,.86a1.74,1.74,0,0,0-.47.58.89.89,0,0,0,0,.68,3.55,3.55,0,0,0,.61.94,3.07,3.07,0,0,0,.81.74.92.92,0,0,0,.67.1,1.61,1.61,0,0,0,.64-.36l1.08-.9.32.38a3.09,3.09,0,0,1-.31.39,5.35,5.35,0,0,1-.41.42C22.38,33.94,22.22,34.08,22.06,34.22Z"/><path class="cls-1" d="M24,32.51l-4.37-5.2.69-.57,2.47,3,.5-.42L23.14,27l.71-.59.21,2.72L27,30l-.71.6-2.49-.7-.48.4,1.37,1.64Z"/><path class="cls-1" d="M30,30.28l-.92-2a1.54,1.54,0,0,1-.49.26,1.13,1.13,0,0,1-.58,0,1.8,1.8,0,0,1-.69-.31l-3.13-2.06.71-.61,2.93,2a1.42,1.42,0,0,0,.38.16.57.57,0,0,0,.26,0,.84.84,0,0,0,.18-.07l.08-.06L27,23.82l.7-.59,2.6,5.64.24.95Z"/><path class="cls-1" d="M34.64,23.64a2.06,2.06,0,0,1-.92.5,1.61,1.61,0,0,1-.89-.07,3.27,3.27,0,0,1-.92-.6,10.34,10.34,0,0,1-1-1,9.94,9.94,0,0,1-.85-1.17,3,3,0,0,1-.4-1,1.58,1.58,0,0,1,.13-.93,2.63,2.63,0,0,1,.73-.89c.2-.16.39-.32.6-.46a5.81,5.81,0,0,1,.61-.4,5.07,5.07,0,0,1,.59-.33l.44.52-.42.28-.57.42c-.21.15-.41.32-.62.49a1.54,1.54,0,0,0-.57.8,1.36,1.36,0,0,0,.16.91,7.4,7.4,0,0,0,.86,1.22,11,11,0,0,0,.84.89,2.19,2.19,0,0,0,.67.43.86.86,0,0,0,.59,0,1.64,1.64,0,0,0,.62-.37,2.91,2.91,0,0,0,.56-.6c.17-.22.3-.42.41-.59l-1.12-1.33L33,21.26l-.44-.52a4.16,4.16,0,0,1,.3-.31l.37-.36.41-.36.36-.29c.11-.08.21-.16.31-.22l2.27,2.71-.51.43-.39-.26a7.35,7.35,0,0,1-.4.75A3.22,3.22,0,0,1,34.64,23.64Z"/><path class="cls-1" d="M37.6,21.09l-3.07-3.64.53-.44.67.48a3.39,3.39,0,0,1,.12-.91,1.68,1.68,0,0,1,.51-.75l.18-.13.18-.1.59.7-.21.14a1.84,1.84,0,0,0-.22.17,1.71,1.71,0,0,0-.37.4,1.56,1.56,0,0,0-.22.47,3.88,3.88,0,0,0-.1.55l2.09,2.49Z"/><path class="cls-1" d="M41.9,17.55a2.76,2.76,0,0,1-1.06.6,1.28,1.28,0,0,1-1-.16,4.51,4.51,0,0,1-1.08-1A4.63,4.63,0,0,1,38,15.73a1.23,1.23,0,0,1,0-1,2.64,2.64,0,0,1,.78-.93,3.26,3.26,0,0,1,.9-.58,1,1,0,0,1,.77,0,2.07,2.07,0,0,1,.78.62,1.21,1.21,0,0,1,.31.65,1,1,0,0,1-.13.6,2.32,2.32,0,0,1-.5.57l-1.21,1a2.73,2.73,0,0,0,.62.56.77.77,0,0,0,.59.08,1.93,1.93,0,0,0,.74-.44l1.14-1,.35.41-.54.58A7.27,7.27,0,0,1,41.9,17.55Zm-2.59-1.29,1.15-1a.81.81,0,0,0,.32-.44.57.57,0,0,0-.19-.48,1.27,1.27,0,0,0-.43-.37.63.63,0,0,0-.45,0,2.2,2.2,0,0,0-.53.33,1.5,1.5,0,0,0-.44.55.77.77,0,0,0,0,.59A4.3,4.3,0,0,0,39.31,16.26Z"/><path class="cls-1" d="M45.58,14.45a2.67,2.67,0,0,1-1.06.61,1.33,1.33,0,0,1-1-.16,4.73,4.73,0,0,1-1.08-1,4.63,4.63,0,0,1-.81-1.26,1.23,1.23,0,0,1,0-1,2.64,2.64,0,0,1,.78-.93,3.26,3.26,0,0,1,.9-.58,1,1,0,0,1,.77,0,2,2,0,0,1,.78.62,1.26,1.26,0,0,1,.31.64,1,1,0,0,1-.13.61,2.18,2.18,0,0,1-.51.57l-1.2,1a2.65,2.65,0,0,0,.62.55.77.77,0,0,0,.59.09,2.06,2.06,0,0,0,.74-.44l1.14-1,.34.41-.53.58A6.14,6.14,0,0,1,45.58,14.45ZM43,13.17l1.15-1a.86.86,0,0,0,.32-.44.57.57,0,0,0-.19-.48,1.11,1.11,0,0,0-.44-.37.6.6,0,0,0-.44,0,2,2,0,0,0-.53.33,1.5,1.5,0,0,0-.44.55.77.77,0,0,0,0,.59A3.48,3.48,0,0,0,43,13.17Z"/><path class="cls-1" d="M47.79,12.53,44.73,8.88l.54-.45.47.28a3.78,3.78,0,0,1,.32-.81,2.4,2.4,0,0,1,.58-.73,1.42,1.42,0,0,1,.8-.37,1.23,1.23,0,0,1,.75.15,2.4,2.4,0,0,1,.63.53l2.06,2.46-.68.57-2-2.37a1,1,0,0,0-.4-.31.75.75,0,0,0-.44,0,.94.94,0,0,0-.45.22,1.92,1.92,0,0,0-.34.36,2.55,2.55,0,0,0-.24.39q-.09.2-.18.45L48.47,12Z"/><path class="cls-3" d="M10.91,33.18a3.07,3.07,0,0,1,.25.26A.36.36,0,0,1,10.91,33.18Z"/><path class="cls-3" d="M14.94,26.22c0,.29-.11.58-.16.87l-3.09,2.59a1.45,1.45,0,0,1-.7-.82c0,.49,0,1-.05,1.46L9.2,31.77C8.6,31.34,8,31,7.34,30.51a11.79,11.79,0,0,0,1.25-1.38C10.09,27.27,12.57,26.51,14.94,26.22Z"/></g></g></svg>