<svg xmlns="http://www.w3.org/2000/svg" viewBox="0 0 155.42 111.21"><defs><style>.cls-1{fill:#af49ff;}.cls-2{fill:#4a3d9b;}.cls-3,.cls-4{fill:#72cd21;}.cls-3{stroke:#000;stroke-miterlimit:10;}.cls-5{fill:none;}</style></defs><g id="Layer_2" data-name="Layer 2"><g id="Layer_1-2" data-name="Layer 1"><path d="M86.21,75.86a50.94,50.94,0,0,1-12.86-1.52,29.11,29.11,0,0,1-2.86-.9c-1.9.14-6.47.41-11.79.41-8,0-14.24-.61-18.54-1.82-5-1.41-8.81-3.13-11.19-5.12l-.15-.13,0,0c-2.67-2.3-3.19-4.67-3.15-6.26C25.69,58,27,55.82,29.58,53.9,34.85,50,43,48.72,50,47.9c.2-.3.39-.58.58-.84a5.48,5.48,0,0,0,1-1.75c.16-1.46.5-4.77,3.06-6.41.87-4.11,2.31-9,3.46-12.74C47.61,26,39.68,22.85,38.23,18.23A4.65,4.65,0,0,1,40,12.92c1.75-1.21,3.77-1.66,7.43-2.47l.18,0C50.37,9.81,53.49,9.1,57.74,8c5.19-1.39,7.17-3,8.91-4.35a11.42,11.42,0,0,1,7-3c1.08-.07,2-.19,2.89-.3A22.93,22.93,0,0,1,79.47,0,7.87,7.87,0,0,1,86.3,3.69l.55.77c2.6,3.64,7.44,10.42,9.84,15.83a49,49,0,0,1,2.11,6.1l.15.53h0a105.81,105.81,0,0,1,2.63,11.69c3,1.51,3.35,5.12,3.52,6.69a1.45,1.45,0,0,0,.15.45c3.15.3,7.06.59,10.44.59,3.7,0,5-.36,5.29-.47a11.35,11.35,0,0,1,3.81-.72,6,6,0,0,1,5.85,3.61c1.35,3.38-.57,7.56-5.7,12.43a54.42,54.42,0,0,1-19.85,11.46l-6.13,2-.28,0A73.85,73.85,0,0,1,86.21,75.86Z"/><polygon points="99.16 72 105.46 69.91 97.03 61.01 92.56 63.27 99.16 72"/><path class="cls-1" d="M124.72,58.8c-8.31,7.89-19.26,11.12-19.26,11.12l-8.22-4.73L99.16,72c-12.2,2.11-20.62.79-24.94-.34a20.65,20.65,0,0,1-3.39-1.14S50,72.22,39.32,69.24C34.7,68,31.13,66.38,29,64.64l0,0c-2.69-2.25-2.86-4.76.52-7.29,6-4.48,17.25-5.22,25.13-6.18l20.32-1,25.89-1.24s18.53,2.44,23.86.52S133,50.92,124.72,58.8Z"/><path d="M70.83,70.52S50,72.22,39.32,69.24C34.7,68,31.13,66.38,29,64.64l0,0c-.38-.42-3.43-4,5-5.58C42.93,57.31,56.13,65.19,70.83,70.52Z"/><path class="cls-1" d="M99.13,42.27a.34.34,0,0,1-.12.24c-18.69,12-42.17,0-42.17,0C57.41,38.11,59.48,30.93,61,26c1-3.15,1.72-5.38,1.72-5.38-17.89,1.28-24.43-5-22.36-6.39,1.2-.83,3-1.23,6.57-2,2.56-.56,6-1.34,10.83-2.62,11.35-3,10.71-7.34,16-7.66S81.12.17,83.51,3.53s8,11,10.54,16.78a50.08,50.08,0,0,1,2,5.91h0C97.93,32.6,99.54,40.72,99.13,42.27Z"/><path d="M78.42,17.92c-.14.3-2.67,5.1-17.4,8.08,1-3.15,1.72-5.38,1.72-5.38S71.76,21.1,78.42,17.92Z"/><path d="M96.08,26.22h0c-2,2.89-10.66,4.61-7,1.9s5-7.82,5-7.82Z"/><path class="cls-2" d="M105.47,52.26c-.64,1.92-9.82,6.52-27,6.52s-26.4-4.6-27-6.52,2.58-3.8,2.9-6.83.78-4.52,4.13-4,7.12,3,20,3,16.67-2.55,20-3,3.81,1,4.13,4a7,7,0,0,0,1.34,3.15C104.85,50,105.86,51.11,105.47,52.26Z"/><path d="M105.47,52.26c-.64,1.92-9.82,6.52-27,6.52s-26.4-4.6-27-6.52,2.58-3.8,2.9-6.83.78-4.52,4.13-4c0,0-2.49,1-1.43,4.62s7.08,8.91,24.7,9.37,23.55-3.67,22.22-6.81C104.85,50,105.86,51.11,105.47,52.26Z"/><path d="M100.81,49a6.36,6.36,0,0,0,.73-5.23,7.08,7.08,0,0,0-6.84-5,8.16,8.16,0,0,0-2.43.38,7.15,7.15,0,0,0-.46-4.44,7.53,7.53,0,0,0-6.76-4.49A6.25,6.25,0,0,0,81,31.68a6.49,6.49,0,0,0-3.44-1,6.8,6.8,0,0,0-6.15,4.09,7.62,7.62,0,0,0-.25,5.43,7.37,7.37,0,0,0-8.84,6,6.32,6.32,0,0,0,1.34,5.28,6.38,6.38,0,0,0-.74,5.24,7.06,7.06,0,0,0,6.84,5h0a8.15,8.15,0,0,0,2.51-.4,7.15,7.15,0,0,0,.45,4.53,7.53,7.53,0,0,0,6.75,4.48h0a6.2,6.2,0,0,0,4.08-1.48,6.53,6.53,0,0,0,3.43,1,6.79,6.79,0,0,0,6.15-4.1,7.62,7.62,0,0,0,.23-5.45,7.35,7.35,0,0,0,1.52.17h0a7.55,7.55,0,0,0,7.3-6.16A6.3,6.3,0,0,0,100.81,49Z"/><path class="cls-3" d="M66.54,51c-6.45,4,.17,12.63,7.23,6.3C78.54,53,82.24,50,82.24,50A40.19,40.19,0,0,1,73,43.86C66,37.52,59.28,48.21,66.54,51Z"/><path class="cls-3" d="M81.27,34.34c-4-6.45-12.62.19-6.28,7.24C79.26,46.34,82.24,50,82.24,50a39.66,39.66,0,0,1,6.16-9.28C94.72,33.82,84,27.08,81.27,34.34Z"/><path class="cls-3" d="M97.93,49c6.44-4-.21-12.62-7.25-6.27C85.93,47.05,82.24,50,82.24,50a39.74,39.74,0,0,1,9.29,6.14C98.48,62.49,105.2,51.77,97.93,49Z"/><path class="cls-3" d="M83.26,65.73c4.06,6.43,12.63-.24,6.26-7.27C85.23,53.72,82.24,50,82.24,50a39.89,39.89,0,0,1-6.13,9.29C69.81,66.3,80.54,73,83.26,65.73Z"/><path class="cls-1" d="M0,65.14c1.29.7,2.46,1.28,3.5,1.77l2.69,1.25c.86.4,1.65.76,2.32,1s1.63.56,2.74.89c.95.29,2.17.64,3.65,1s3.31.85,5.48,1.32a10.19,10.19,0,0,0-2.54.79,7.89,7.89,0,0,0-1.52,1,3.09,3.09,0,0,0-.94,1.21,14.91,14.91,0,0,0,.17,4c.09.84.23,1.87.43,3.1s.46,2.67.78,4.32.74,3.55,1.23,5.66,1.07,4.49,1.72,7.11c.78-1.9,1.43-3.55,1.93-5s.93-2.67,1.28-3.69.72-2.16,1-3,.6-2.11,1-3.54c.31-1.21.7-2.8,1.19-4.7s1.1-4.23,1.82-7c.88.33,1.32.49,2.2.8.24,2.3.5,4.32.75,6.06s.49,3.23.67,4.44c.2,1.39.37,2.63.55,3.64s.45,2,.8,3.23c.3,1,.7,2.28,1.17,3.76s1.1,3.13,1.87,4.93c.7-2.11,1.32-4,1.88-5.61s1-3,1.45-4.28.75-2.29,1-3.16.54-1.61.73-2.2a17.81,17.81,0,0,0,.74-2.83,3.62,3.62,0,0,0-.58-1.72,10.44,10.44,0,0,0-1.39-1.79A15.06,15.06,0,0,0,37,75.71c2.5.58,4.55,1,6.14,1.29s2.85.5,3.8.64,1.49.23,2.48.37l2.24.31c.83.1,1.91.23,3.26.37s3.08.3,5.2.43c-1.82.46-3.28.88-4.4,1.29a27.28,27.28,0,0,0-2.59,1,5.94,5.94,0,0,0-1.59.94A18.25,18.25,0,0,0,50,86c-.31.81-.67,1.82-1,3s-.85,2.68-1.37,4.4-1.11,3.74-1.77,6.08-1.37,5-2.17,8.1c-4.25-.33-6.37-.5-10.61-.88-1.93-5.82-2.89-8.82-4.81-15-.64,2.64-1.15,4.82-1.53,6.5s-.66,3-.85,3.93a21.31,21.31,0,0,0-.38,2.49c0,.45-.06.9-.1,1.33s-.08.75-.13,1.18-.12.82-.19,1.18H14.21c-1.11-4.1-2.1-7.84-3-11.15S9.63,90.88,9,88.29s-1.23-4.85-1.7-6.72S6.37,78.11,6,76.81a53.24,53.24,0,0,0-1.76-5.74c-.27-.41-.63-.9-1.06-1.5s-.81-1.09-1.34-1.84Z"/><path class="cls-1" d="M53.59,89.69c4.56.38,6.84.53,11.4.75a34.62,34.62,0,0,0-1.42,4.11A25.28,25.28,0,0,0,63,97.42a7.73,7.73,0,0,0-.1,2.25,8.24,8.24,0,0,0,.63,1.82,12,12,0,0,0,1.13,1.86,11.56,11.56,0,0,0,2,2.09,13.8,13.8,0,0,0-1.6-.25c-.57-.06-1.1-.1-1.59-.13s-1.15,0-1.72,0-1.21,0-1.9.11l-2.08.18q-1.23.11-2.58.3c.6-1.23,1.06-2.29,1.4-3.18a22,22,0,0,0,.74-2.24,9.37,9.37,0,0,0,.28-1.7c0-.52,0-1.17,0-1.86l0-2q0-1-.09-1.74a1.89,1.89,0,0,0-.26-1l-.62-.45L55.5,90.8C55,90.51,54.38,90.14,53.59,89.69Zm4.31-6a5.48,5.48,0,0,1,2.64,0,5.13,5.13,0,0,1,2.09.9,1.24,1.24,0,0,1,.55,1.36c-.14.5-.82,1-2,1.37a5.88,5.88,0,0,1-3.15.28,3.33,3.33,0,0,1-1.94-1A1.43,1.43,0,0,1,55.87,85,2.89,2.89,0,0,1,57.9,83.71Z"/><path class="cls-1" d="M68,83.19l3.15.31c.85.08,1.55.13,2.09.17s1.13,0,1.49.06.88,0,1.5,0l2.12-.1c.88,0,2-.12,3.31-.25-.29.27-.52.51-.69.7l-.44.54-.37.48c-.09.16-.17.33-.25.48a2.28,2.28,0,0,0-.22.47,4.59,4.59,0,0,0-.16.59c3.84,0,5.76-.07,9.59-.24l-.9,3.26c-3.5,0-5.25,0-8.75-.14-.21,1.34-.36,2.38-.44,3.12a14.6,14.6,0,0,1-.25,1.62c-.05.28-.08.42-.13.71-.12,1-.24,2.08-.37,3.25a22.94,22.94,0,0,0-.12,3.25,8.22,8.22,0,0,0,.43,2.51,1.31,1.31,0,0,0,1.29,1,4.69,4.69,0,0,0,1.72-.32,6,6,0,0,0,1.38-.75,4,4,0,0,0,.9-.9,1.48,1.48,0,0,0,.31-.69,1.1,1.1,0,0,0-.19-.56,8,8,0,0,0-1.1-1.49c1.19.18,2.24.35,3.14.52l1.23.31c.4.1.9.2,1.41.34s1,.28,1.72.45,1.51.39,2.45.65a5.34,5.34,0,0,0-2,.55,1.74,1.74,0,0,0-.55.36,15,15,0,0,0-1,1.19,6.34,6.34,0,0,1-1.67,1.46,11.54,11.54,0,0,1-3,1.28,20.22,20.22,0,0,1-5,.64,11.48,11.48,0,0,1-4.93-.71,6.24,6.24,0,0,1-2.46-1.84,4.38,4.38,0,0,1-.9-2.08c-.09-.69-.15-1.15-.19-1.39a10.25,10.25,0,0,1,0-1.78c0-.95.09-2,.17-3.14s.15-2.26.23-3.32.11-1.85.11-2.36c0-.26,0-.55.06-.82s0-.5,0-.78a7.3,7.3,0,0,0,0-.81c-3.6-.08-5.4-.16-9-.36l-.4-2.31c3.63.28,5.45.38,9.08.53a6.58,6.58,0,0,0-.28-.82,6.65,6.65,0,0,0-.28-.62,2.12,2.12,0,0,0-.38-.48,5.76,5.76,0,0,0-.56-.46L69.16,84Z"/><path class="cls-1" d="M124.81,91.42c-.49,0-1.09,0-1.8.07s-1.4.12-2.05.19-1.51.18-2.33.3l-2.58.35-2.49.35c-.93.12-1.82.25-2.68.38a3.74,3.74,0,0,0,.9-.55,8,8,0,0,0,.72-.68,4.48,4.48,0,0,0,.57-.8,2,2,0,0,0,0-1.59,3.59,3.59,0,0,0-1.3-1.58,6,6,0,0,0-2.38-1,7.2,7.2,0,0,0-3.17.15,17.52,17.52,0,0,0-3.33,1.19A7.69,7.69,0,0,0,100.43,90,6.33,6.33,0,0,0,99,92.58a10,10,0,0,0-.27,3.47A8.35,8.35,0,0,0,99.94,100a6.25,6.25,0,0,0,2.36,2.17,7.86,7.86,0,0,0,3.09.82,16.86,16.86,0,0,0,3.34-.07,5.76,5.76,0,0,0,2.16-.8,5.38,5.38,0,0,0,1.5-1.45,4.15,4.15,0,0,0,.66-2.57c3-.27,4.5-.41,7.49-.72a13.41,13.41,0,0,1-3.21,4.43,17.42,17.42,0,0,1-3.6,2.5,14.1,14.1,0,0,1-4.07,1.38,25,25,0,0,1-4.48.29,19.85,19.85,0,0,1-3.55-.35,21.8,21.8,0,0,1-2.93-.79c-.9-.32-1.75-.66-2.56-1a7.3,7.3,0,0,1-1.77-1.19,11,11,0,0,1-1.82-2A10.9,10.9,0,0,1,91.16,98a6.71,6.71,0,0,1-.41-3A7.23,7.23,0,0,1,91.9,91.9a12,12,0,0,1,3.19-3.18,22.1,22.1,0,0,1,7.08-3.43,29.4,29.4,0,0,1,7.09-1.16,19.92,19.92,0,0,1,5.89.58,7.48,7.48,0,0,1,3.58,1.82c.68.75,1.19,1.33,1.53,1.73l.78.9a2.37,2.37,0,0,0,.48.45c.14.09.37.2.63.36s.45.27.73.42l.85.45Z"/><path class="cls-1" d="M124,72.65c.94-.11,1.79-.24,2.57-.4s1.42-.28,1.94-.4,1.15-.26,1.59-.39,1.32-.45,2.12-.76l2.52-1c1-.41,2.12-.91,3.41-1.52-.61.48-1.11.91-1.52,1.3a8.22,8.22,0,0,0-1,1.1,6.8,6.8,0,0,0-.68,1.07,17.55,17.55,0,0,0-.71,2.94c-.24,1.24-.58,3.08-1,5.48s-.87,5.61-1.46,9.61A31,31,0,0,1,136,86.22a32.09,32.09,0,0,1,3.5-2.06A13.9,13.9,0,0,1,142.77,83a9.44,9.44,0,0,1,3.82.24,16.22,16.22,0,0,1,3.65,1.4,13.83,13.83,0,0,1,3,2.15,9.11,9.11,0,0,1,1.83,2.32,4.52,4.52,0,0,1,.36,2,17.65,17.65,0,0,1-.25,2.76,30.19,30.19,0,0,1-.66,3.07c-.29,1-.56,2-.83,2.91s-.49,1.69-.7,2.36a12.15,12.15,0,0,0-.37,1.43,4.28,4.28,0,0,0,.12,1.72,5.1,5.1,0,0,0,.73,1.52,4.19,4.19,0,0,0,1.65,1.35c-.57-.08-1.17-.15-1.81-.21s-1.23-.11-1.8-.14-1.31,0-2,0h-2.2c-.7,0-1.49,0-2.39,0l-2.94.09a4.79,4.79,0,0,0,1.48-.75,9.07,9.07,0,0,0,1-.92,6.57,6.57,0,0,0,.86-1.08,9.23,9.23,0,0,0,.63-1.73c.25-.86.48-1.85.69-3s.37-2.32.48-3.58a27.82,27.82,0,0,0,.09-3.62,10.6,10.6,0,0,0-.52-3,2.92,2.92,0,0,0-1.34-1.74,7.46,7.46,0,0,0-4.91-1,8.91,8.91,0,0,0-4.24,2.24l-1.42,1.34c-.41.4-.86.85-1.35,1.37s-.95,1-1.37,1.54q0,.75,0,1.65c0,.59.07,1.18.1,1.74s.09,1.28.15,1.89c.08.94.18,1.92.32,2.84s.26,1.68.44,2.63a14.2,14.2,0,0,0,.76,2.6,9.94,9.94,0,0,0-1.65-.07c-.58,0-1.14,0-1.66,0l-1.77.06c-.52,0-1.09.09-1.66.16s-1,.12-1.6.17-1.12.13-1.65.22a15.67,15.67,0,0,0,1.26-2.16c.34-.72.62-1.36.83-1.91a17.68,17.68,0,0,0,.65-1.89,17.09,17.09,0,0,0,.33-2.78q.12-2.05.24-4.74c.07-1.78.13-3.68.16-5.67s0-3.89,0-5.68,0-3.35-.13-4.67a16.67,16.67,0,0,0-.28-2.71,5.19,5.19,0,0,0-.65-1.37,4,4,0,0,0-1-1.07A3.56,3.56,0,0,0,124,72.65Z"/><path class="cls-4" d="M54.6,77.08l-3.09,2.59A14.17,14.17,0,0,1,50.09,79l.55,1.41-1.24,1a6,6,0,0,1-1-1c0,.59,0,1.18,0,1.77a2.93,2.93,0,0,1-1.24-1c0,.71,0,1.42,0,2.13L14.49,110.78a1.85,1.85,0,0,1-2.59-.22l-6.65-7.92a1.83,1.83,0,0,1,.22-2.59L9.2,96.91a9.94,9.94,0,0,1,1.71,1.41,1.1,1.1,0,0,1-.06-.48l.09-2.38.75-.64a1.41,1.41,0,0,0,.85.17l-.18-.68c.07.29.52.24.72,0s.29-.53.55-.69a1.19,1.19,0,0,0,.84.23c.1-.55.21-1.09.31-1.64l30.8-25.88a1.83,1.83,0,0,1,2.58.22l6.66,7.92A1.85,1.85,0,0,1,54.6,77.08Z"/><path d="M14.11,106a2,2,0,0,1-.65.37,1,1,0,0,1-.65,0,1.77,1.77,0,0,1-.66-.52l-3.33-4,.69-.58,3.24,3.86a.85.85,0,0,0,.36.27.47.47,0,0,0,.33,0,1.17,1.17,0,0,0,.3-.19l1.74-1.46.53.63Z"/><path d="M17.76,103a1.47,1.47,0,0,1-1,.39,1.5,1.5,0,0,1-1-.61l-2.16-2.57.69-.57,2,2.39a.87.87,0,0,0,.65.39,1.12,1.12,0,0,0,.65-.3,2.22,2.22,0,0,0,.45-.52,3.21,3.21,0,0,0,.29-.65L16,98.17l.68-.57,3.06,3.65-.54.45-.46-.27a5.61,5.61,0,0,1-.36.81A2.71,2.71,0,0,1,17.76,103Z"/><path d="M22.06,99.36a2.58,2.58,0,0,1-.66.41,1.42,1.42,0,0,1-.71.1,1.73,1.73,0,0,1-.79-.3,4.28,4.28,0,0,1-.87-.82,4.38,4.38,0,0,1-.68-1,1.77,1.77,0,0,1-.19-.82,1.42,1.42,0,0,1,.23-.69,3.49,3.49,0,0,1,.56-.61q.29-.24.63-.48c.23-.15.46-.3.69-.42l.34.4-1,.86a1.74,1.74,0,0,0-.47.58.89.89,0,0,0,0,.68,3.74,3.74,0,0,0,.61,1,3,3,0,0,0,.81.73.93.93,0,0,0,.67.11,1.78,1.78,0,0,0,.64-.37l1.08-.9.32.38a3.09,3.09,0,0,1-.31.39,5.35,5.35,0,0,1-.41.42A4.58,4.58,0,0,1,22.06,99.36Z"/><path d="M24,97.65l-4.37-5.2.69-.57,2.47,3,.5-.42-.16-2.25.71-.59.21,2.73,2.94.84-.71.6L23.8,95l-.48.4,1.37,1.64Z"/><path d="M30,95.42l-.92-2a1.37,1.37,0,0,1-.49.26,1.13,1.13,0,0,1-.58,0,1.8,1.8,0,0,1-.69-.31l-3.13-2.06.71-.6,2.93,2a1.15,1.15,0,0,0,.38.16.57.57,0,0,0,.26,0,.52.52,0,0,0,.18-.07l.08-.06L27,89l.7-.59L30.25,94l.24.95Z"/><path d="M34.64,88.78a2.06,2.06,0,0,1-.92.5,1.52,1.52,0,0,1-.89-.07,3.22,3.22,0,0,1-.92-.59,10.53,10.53,0,0,1-1-1.06,9.94,9.94,0,0,1-.85-1.17,3,3,0,0,1-.4-1,1.58,1.58,0,0,1,.13-.93,2.63,2.63,0,0,1,.73-.89c.2-.16.39-.32.6-.46a5.81,5.81,0,0,1,.61-.4l.59-.33.44.52-.42.28-.57.42-.62.49a1.54,1.54,0,0,0-.57.8,1.36,1.36,0,0,0,.16.91A7.4,7.4,0,0,0,31.59,87a11,11,0,0,0,.84.89,2,2,0,0,0,.67.43.86.86,0,0,0,.59,0,1.64,1.64,0,0,0,.62-.37,3.13,3.13,0,0,0,.56-.59c.17-.23.3-.43.41-.6l-1.12-1.33L33,86.4l-.44-.52.3-.31.37-.35c.13-.13.27-.25.41-.37l.36-.28.31-.23,2.27,2.71-.51.43-.39-.26a5.72,5.72,0,0,1-.4.75A3.06,3.06,0,0,1,34.64,88.78Z"/><path d="M37.6,86.23l-3.07-3.64.53-.44.67.48a3.32,3.32,0,0,1,.12-.9,1.66,1.66,0,0,1,.51-.76l.18-.13.18-.1.59.7-.21.14a1.84,1.84,0,0,0-.22.17,1.93,1.93,0,0,0-.37.4,1.56,1.56,0,0,0-.22.47,4,4,0,0,0-.1.56l2.09,2.48Z"/><path d="M41.9,82.69a2.76,2.76,0,0,1-1.06.6,1.28,1.28,0,0,1-1-.16,4.51,4.51,0,0,1-1.08-1A4.35,4.35,0,0,1,38,80.87a1.21,1.21,0,0,1,0-1,2.66,2.66,0,0,1,.78-.94,3.51,3.51,0,0,1,.9-.58,1,1,0,0,1,.77,0,2.18,2.18,0,0,1,.78.62,1.21,1.21,0,0,1,.31.65,1,1,0,0,1-.13.6,2.32,2.32,0,0,1-.5.57l-1.21,1a2.73,2.73,0,0,0,.62.56.77.77,0,0,0,.59.08,1.93,1.93,0,0,0,.74-.44l1.14-1,.35.41-.54.58A7.27,7.27,0,0,1,41.9,82.69ZM39.31,81.4l1.15-1a.81.81,0,0,0,.32-.44.57.57,0,0,0-.19-.48,1.23,1.23,0,0,0-.43-.36.58.58,0,0,0-.45,0,1.86,1.86,0,0,0-.53.32,1.5,1.5,0,0,0-.44.55.76.76,0,0,0,0,.59A4,4,0,0,0,39.31,81.4Z"/><path d="M45.58,79.6a2.76,2.76,0,0,1-1.06.6,1.28,1.28,0,0,1-1-.16,4.51,4.51,0,0,1-1.08-1,4.63,4.63,0,0,1-.81-1.26,1.23,1.23,0,0,1,0-1,2.64,2.64,0,0,1,.78-.93,3.26,3.26,0,0,1,.9-.58,1,1,0,0,1,.77,0,2.07,2.07,0,0,1,.78.62,1.29,1.29,0,0,1,.31.65,1,1,0,0,1-.13.6,2.18,2.18,0,0,1-.51.57l-1.2,1a2.73,2.73,0,0,0,.62.56.77.77,0,0,0,.59.08,1.93,1.93,0,0,0,.74-.44l1.14-1,.34.41-.53.58A7.27,7.27,0,0,1,45.58,79.6ZM43,78.31l1.15-1a.86.86,0,0,0,.32-.44.57.57,0,0,0-.19-.48,1.2,1.2,0,0,0-.44-.37.6.6,0,0,0-.44,0,2,2,0,0,0-.53.33,1.5,1.5,0,0,0-.44.55.77.77,0,0,0,0,.59A3.48,3.48,0,0,0,43,78.31Z"/><path d="M47.79,77.67,44.73,74l.54-.46.47.28a3.78,3.78,0,0,1,.32-.81,2.25,2.25,0,0,1,.58-.72,1.44,1.44,0,0,1,.8-.38,1.24,1.24,0,0,1,.75.16,2.36,2.36,0,0,1,.63.52l2.06,2.46-.68.57-2-2.37a1,1,0,0,0-.4-.31.84.84,0,0,0-.44,0,1,1,0,0,0-.45.22,2.81,2.81,0,0,0-.34.36,3.14,3.14,0,0,0-.24.39l-.18.45,2.32,2.76Z"/><path class="cls-5" d="M10.91,98.32a3.07,3.07,0,0,1,.25.26A.36.36,0,0,1,10.91,98.32Z"/><path class="cls-5" d="M14.94,91.36c0,.29-.11.58-.16.87l-3.09,2.59A1.45,1.45,0,0,1,11,94c0,.49,0,1-.05,1.46L9.2,96.91c-.6-.43-1.23-.82-1.86-1.26a11.79,11.79,0,0,0,1.25-1.38C10.09,92.41,12.57,91.65,14.94,91.36Z"/></g></g></svg>