<svg width="58" height="58" viewBox="0 0 58 58" fill="none" xmlns="http://www.w3.org/2000/svg">
<rect x="6.91541" y="7.57373" width="44" height="44" rx="22" fill="white"/>
<path d="M28.9154 36.2406V22.9072M23.0821 30.4072L28.9154 36.2406L34.7487 30.4072" stroke="#AD45FF" stroke-width="1.5" stroke-linecap="round" stroke-linejoin="round"/>
<path d="M57.5449 29.2193C57.5449 45.0309 44.7271 57.8488 28.9155 57.8488C13.1039 57.8488 0.286011 45.0309 0.286011 29.2193C0.286011 13.4077 13.1039 0.589844 28.9155 0.589844C44.7271 0.589844 57.5449 13.4077 57.5449 29.2193ZM3.14017 29.2193C3.14017 43.4546 14.6802 54.9946 28.9155 54.9946C43.1508 54.9946 54.6908 43.4546 54.6908 29.2193C54.6908 14.984 43.1508 3.444 28.9155 3.444C14.6802 3.444 3.14017 14.984 3.14017 29.2193Z" fill="white"/>
</svg>
