<svg width="61" height="47" viewBox="0 0 61 47" fill="none" xmlns="http://www.w3.org/2000/svg">
<g clip-path="url(#clip0_37_1231)">
<path d="M51.1109 4.57717C47.2867 2.82246 43.1858 1.52967 38.8981 0.789239C38.82 0.774949 38.742 0.810661 38.7018 0.882086C38.1744 1.82012 37.5902 3.04387 37.1811 4.00573C32.5694 3.31531 27.9813 3.31531 23.4642 4.00573C23.055 3.02249 22.4496 1.82012 21.9198 0.882086C21.8796 0.813044 21.8016 0.777332 21.7235 0.789239C17.4381 1.52731 13.3373 2.8201 9.51069 4.57717C9.47756 4.59145 9.44917 4.61528 9.43032 4.64621C1.65183 16.2671 -0.479024 27.6024 0.566302 38.7971C0.571032 38.8519 0.601776 38.9043 0.644347 38.9376C5.77637 42.7064 10.7476 44.9944 15.6265 46.511C15.7046 46.5348 15.7874 46.5063 15.8371 46.442C16.9912 44.8659 18.02 43.2041 18.902 41.4565C18.9541 41.3541 18.9044 41.2327 18.798 41.1922C17.1662 40.5732 15.6124 39.8185 14.1177 38.9614C13.9995 38.8924 13.99 38.7233 14.0987 38.6423C14.4133 38.4066 14.7279 38.1614 15.0282 37.9138C15.0826 37.8685 15.1583 37.859 15.2222 37.8876C25.0416 42.3707 35.6722 42.3707 45.3757 37.8876C45.4396 37.8566 45.5153 37.8662 45.572 37.9114C45.8725 38.159 46.187 38.4066 46.5039 38.6423C46.6127 38.7233 46.6056 38.8924 46.4873 38.9614C44.9927 39.8351 43.4388 40.5732 41.8046 41.1898C41.6982 41.2303 41.6509 41.3541 41.703 41.4565C42.604 43.2016 43.6328 44.8635 44.7656 46.4396C44.8129 46.5063 44.898 46.5348 44.9761 46.511C49.8787 44.9944 54.8499 42.7064 59.9819 38.9376C60.0269 38.9043 60.0553 38.8542 60.06 38.7995C61.3111 25.8571 57.9646 14.6148 51.1889 4.64857C51.1723 4.61528 51.144 4.59145 51.1109 4.57717ZM20.3684 31.9807C17.4121 31.9807 14.9762 29.2666 14.9762 25.9334C14.9762 22.6002 17.3649 19.886 20.3684 19.886C23.3955 19.886 25.8079 22.624 25.7605 25.9334C25.7605 29.2666 23.3719 31.9807 20.3684 31.9807ZM40.3052 31.9807C37.349 31.9807 34.9131 29.2666 34.9131 25.9334C34.9131 22.6002 37.3017 19.886 40.3052 19.886C43.3324 19.886 45.7447 22.624 45.6975 25.9334C45.6975 29.2666 43.3324 31.9807 40.3052 31.9807Z" fill="white"/>
</g>
<defs>
<clipPath id="clip0_37_1231">
<rect width="60" height="46.4789" fill="white" transform="translate(0.318352 0.438477)"/>
</clipPath>
</defs>
</svg>
