<svg width="54" height="54" viewBox="0 0 54 54" fill="none" xmlns="http://www.w3.org/2000/svg">
<g clip-path="url(#clip0_14_1036)">
<path d="M11.0825 25.4118C11.0824 25.1159 11.1408 24.8229 11.2544 24.5496C11.3679 24.2763 11.5343 24.0282 11.744 23.8194C11.9537 23.6107 12.2026 23.4454 12.4763 23.3331C12.7501 23.2208 13.0434 23.1637 13.3393 23.1651L17.0809 23.1773C17.6775 23.1773 18.2496 23.4143 18.6715 23.8362C19.0933 24.258 19.3303 24.8302 19.3303 25.4268V39.575C19.7518 39.4502 20.2924 39.317 20.8845 39.1781C21.2957 39.0813 21.6621 38.8485 21.9244 38.5174C22.1867 38.1863 22.3295 37.7763 22.3296 37.3539V19.8042C22.3295 19.2075 22.5665 18.6353 22.9883 18.2134C23.4102 17.7914 23.9824 17.5543 24.579 17.5542H28.3282C28.9248 17.5544 29.497 17.7915 29.9188 18.2134C30.3406 18.6353 30.5776 19.2076 30.5776 19.8042V36.0927C30.5776 36.0927 31.5158 35.7127 32.4304 35.3268C32.7701 35.1831 33.0599 34.9426 33.2637 34.6354C33.4675 34.3281 33.5764 33.9676 33.5767 33.5988V14.1796C33.5767 13.8843 33.6348 13.5918 33.7479 13.3189C33.8609 13.046 34.0265 12.798 34.2354 12.5891C34.4442 12.3802 34.6922 12.2145 34.965 12.1015C35.2379 11.9884 35.5304 11.9302 35.8258 11.9302H39.5749C40.1715 11.9302 40.7437 12.1672 41.1656 12.589C41.5875 13.0109 41.8245 13.583 41.8245 14.1796V30.1703C45.0748 27.8148 48.3689 24.9815 50.983 21.5747C51.3623 21.0802 51.6132 20.4995 51.7135 19.8845C51.8138 19.2694 51.7602 18.639 51.5577 18.0497C49.7889 12.895 46.4712 8.41246 42.0582 5.21496C37.6451 2.01746 32.3521 0.261086 26.903 0.185996C12.2089 -0.0113952 0.0650289 11.9834 0.0664724 26.6793C0.0520446 31.3296 1.26575 35.9012 3.58486 39.9319C3.90469 40.4832 4.3752 40.9318 4.94113 41.225C5.50707 41.5182 6.14491 41.6438 6.77974 41.587C7.48902 41.5246 8.37204 41.4363 9.42179 41.3131C9.87869 41.2611 10.3005 41.0429 10.6069 40.7C10.9133 40.3571 11.0829 39.9135 11.0834 39.4536V25.4118" fill="white"/>
<path d="M11.0009 48.1019C14.9527 50.9767 19.6227 52.7023 24.4943 53.0877C29.3659 53.4732 34.2492 52.5035 38.6039 50.2859C42.9586 48.0683 46.6149 44.6893 49.1684 40.5226C51.7219 36.356 53.073 31.5642 53.0722 26.6774C53.0722 26.0674 53.0439 25.4642 53.0031 24.8643C43.3245 39.2987 25.4539 46.0477 11.0007 48.1024" fill="#BFCFDA"/>
</g>
<defs>
<clipPath id="clip0_14_1036">
<rect width="53.0059" height="52.9864" fill="white" transform="translate(0.0662994 0.18457)"/>
</clipPath>
</defs>
</svg>
