<svg width="1498" height="835" viewBox="0 0 1498 835" fill="none" xmlns="http://www.w3.org/2000/svg">
<path d="M1427.4 854.516L1449.57 879.09C1447.55 879.826 1445.54 880.54 1443.56 881.234C1393.27 898.764 1338.39 902.564 1284.32 903.587C1217.71 904.835 1151.93 898.521 1085.6 892.155C1051.86 888.917 1017.97 885.665 983.771 883.388L960.512 849.689C960.512 849.689 960.512 849.688 960.511 849.688C959.613 848.385 958.325 846.945 956.537 845.911C954.712 844.856 951.852 843.986 948.691 845.07C945.527 846.157 943.802 848.605 943.01 850.568C942.235 852.489 942.108 854.422 942.201 856.005L942.202 856.017L942.203 856.029L943.758 881.207C938.02 880.973 932.268 880.781 926.5 880.631L898.877 823.752L898.87 823.739L898.864 823.726C897.356 820.649 893.72 816.61 888.027 817.231C882.351 817.852 879.667 822.561 878.845 825.879L878.838 825.909L878.83 825.94L865.918 879.916C777.525 880.266 689.214 886.378 601.196 892.469C589.439 893.283 577.687 894.096 565.941 894.896C464.044 901.829 362.494 907.706 260.883 903.703L260.882 903.703C213.274 901.838 165.722 896.691 120.068 884.541L130.479 859.277L130.484 859.265C131.769 856.131 132.424 850.717 128.178 846.85C123.904 842.958 118.55 844.159 115.55 845.773L115.547 845.775L72.5459 868.948C49.8515 859.537 28.5747 846.997 9.33434 831.688C9.01446 831.426 8.76433 831.087 8.60798 830.7C8.44922 830.308 8.39277 829.882 8.44417 829.462C8.49555 829.042 8.65297 828.642 8.90098 828.3C9.13432 827.979 9.4405 827.72 9.79301 827.543L11.191 826.94C84.4069 796.934 159.722 772.343 236.53 753.365L236.549 753.36L236.568 753.355C274.87 743.693 313.563 735.348 352.5 727.712L352.509 727.71C355.298 727.16 358.157 726.611 361.069 726.052C377.165 722.962 394.875 719.562 411.316 713.922L431.732 706.918L411.683 698.924C411.355 698.793 411.044 698.62 410.76 698.409C409.891 697.744 409.11 696.489 409.321 693.448C409.537 690.338 410.782 686.812 412.14 684.238L412.145 684.228C413.995 680.708 415.82 677.197 417.639 673.699C424.171 661.136 430.617 648.74 437.787 636.668L437.887 636.5L437.979 636.327C440.016 632.48 441.714 628.957 443.281 625.705C449.605 612.58 453.803 603.866 469.581 596.142L469.606 596.13L469.631 596.117C473.47 594.204 477.457 592.461 481.594 590.888L484.907 589.628L486.2 586.328C495.532 562.502 505.397 539.938 519.304 520.738L520.917 518.51L520.82 515.762C520.578 508.926 521.053 502.083 522.237 495.346C525.347 479.975 532.197 465.61 542.179 453.524L544.725 450.443L543.789 446.557C540.643 433.489 543.42 419.928 549.293 405.522L549.294 405.519C551.027 401.261 553.093 396.963 555.315 392.339C555.804 391.323 556.3 390.29 556.802 389.239C559.519 383.547 562.343 377.422 564.501 371.076L565.154 369.155L564.812 367.154C563.564 359.84 563.505 352.372 564.639 345.039L564.926 343.183L564.357 341.393C564.302 341.221 564.245 341.048 564.186 340.872C564.401 337.691 564.4 334.606 564.4 331.797V331.642V329.97L563.731 328.438C561.018 322.233 557.348 316.373 554.041 311.093C553.496 310.222 552.96 309.367 552.441 308.529C548.605 302.343 545.433 296.794 543.63 290.934L543.629 290.93C540.515 280.824 539.533 270.181 540.745 259.674L541.056 256.986L539.67 254.662C537.657 251.283 535.606 247.975 533.519 244.769L533.513 244.76L533.508 244.752C526.904 234.664 518.514 223.486 508.302 214.462C498.082 205.431 485.593 198.169 470.88 196.794L470.864 196.793L470.848 196.791C456.504 195.508 442.116 200.861 430.986 209.551C420.168 217.997 411.665 230.195 409.324 244.037C403.951 255.913 399.248 270.59 403.195 285.627C404.148 289.302 405.561 292.843 407.401 296.164L410.504 301.766L416.649 299.965C420.414 298.861 424.308 298.262 428.23 298.182C431.785 298.277 435.487 299.166 438.353 300.749C441.177 302.31 442.77 304.269 443.353 306.553L443.354 306.559C444.258 310.086 442.554 314.662 438.179 318.233L437.15 319.072L436.448 320.198C434.828 322.798 432.687 325.031 430.161 326.758L430.114 326.791L430.067 326.824C423.643 331.353 414.71 333.293 404.593 333.121C394.569 332.951 384.208 330.714 375.797 327.799C346.2 317.524 331.812 288.275 329.436 256.034C325.852 207.385 343.186 165.894 368.628 126.783C373.291 120.236 378.089 113.816 383.021 107.522C386.034 103.687 389.013 99.8097 391.987 95.9384C405.096 78.8725 418.111 61.9286 433.631 49.3048L433.639 49.2979L433.647 49.291C443.188 41.4877 454.793 36.6591 467.637 33.1655C477.174 30.5714 486.9 28.8239 496.781 27.0485C500.379 26.402 503.998 25.7518 507.636 25.0557C537.143 19.5414 566.796 14.9458 596.597 11.2691C622.402 8.15476 647.471 5.89748 671.167 12.0936C682.683 15.1082 692.172 21.0429 702.14 28.1128C703.85 29.3262 705.59 30.5854 707.363 31.8691C715.637 37.8588 724.647 44.3813 734.909 49.2677C736.083 49.8265 737.237 50.3744 738.374 50.9136C760.194 61.2666 775.249 68.41 786.856 88.0312C794.728 101.525 798.878 116.104 803.345 131.8C804.896 137.25 806.486 142.835 808.282 148.555L808.702 149.891L809.551 151.005C812.913 155.419 816.258 159.646 819.544 163.797C827.709 174.113 835.509 183.966 842.293 195.086C852.944 213.188 862.471 231.93 870.821 251.205L870.844 251.257L870.867 251.309C871.87 253.536 872.874 255.752 873.874 257.961C881.859 275.591 889.631 292.748 894.797 310.672L894.799 310.68C897.512 320.056 899.531 329.612 901.621 339.508C901.887 340.764 902.153 342.025 902.422 343.292C904.784 354.41 907.341 365.897 911.127 377.185C911.922 379.572 912.794 381.824 913.643 383.949L914.349 385.716L915.776 386.976C926.712 396.638 933.218 408.341 938.093 421.663C941.319 430.477 943.656 439.388 946.133 448.836C947.54 454.201 948.992 459.74 950.678 465.531C956.101 484.191 966.239 499.634 975.988 513.919C976.713 514.981 977.435 516.037 978.154 517.087C987.269 530.405 995.757 542.806 1001.21 557.067C1003.53 563.713 1005.26 570.554 1006.36 577.508L1007.06 581.899L1011.15 583.626L1012.15 584.045C1026.21 590.255 1032.53 599.498 1037.21 611.045L1037.22 611.057L1037.22 611.07C1038.27 613.629 1039.21 616.227 1040.16 618.951C1045.19 633.888 1052.91 649.034 1060.1 663.158C1061.86 666.608 1063.58 669.997 1065.23 673.307C1065.73 674.365 1066.37 675.62 1066.99 676.842C1067.19 677.228 1067.39 677.611 1067.58 677.983C1068.44 679.681 1069.3 681.433 1070.07 683.206C1071.72 687.031 1072.42 689.849 1072.32 691.537L1072.31 691.75L1072.3 691.964C1072.3 691.986 1072.3 692.008 1072.3 692.029C1072.29 692.056 1072.28 692.082 1072.27 692.107L1079.28 695.561L1072.27 692.107C1072.25 692.151 1072.22 692.188 1072.18 692.218L1065.56 697.365L1071.01 703.736L1071.68 704.513L1072.95 705.992L1074.75 706.724C1100.23 717.055 1128 724.557 1154.18 731.628C1167.03 735.099 1179.49 738.465 1191.11 742.012C1238.49 756.603 1285.55 772.063 1331.39 790.201L1331.39 790.202L1407.22 820.175C1407.23 820.177 1407.23 820.179 1407.24 820.181C1408.92 820.847 1413.59 822.46 1419.66 824.559C1426.14 826.795 1434.22 829.583 1441.97 832.367C1449.7 835.141 1457.29 837.968 1463.25 840.423C1466.24 841.655 1468.71 842.749 1470.54 843.66C1472.23 844.5 1472.81 844.918 1472.82 844.901C1472.82 844.898 1472.81 844.88 1472.77 844.848L1472.84 844.913C1474.42 846.411 1476.28 847.573 1478.32 848.327C1480.95 849.335 1483.43 850.697 1485.69 852.376C1485.88 852.518 1486.05 852.667 1486.22 852.823L1437.98 838.333C1436.49 837.852 1434.62 837.499 1432.6 837.752C1430.48 838.02 1427.67 839.082 1425.82 841.874C1424 844.643 1424.11 847.61 1424.66 849.627C1425.21 851.613 1426.27 853.216 1427.3 854.406L1427.35 854.462L1427.4 854.516ZM947.342 858.775L947.343 858.776L947.342 858.775ZM410.481 670.122C408.677 673.592 406.876 677.056 405.063 680.507L514.376 493.858C513.082 501.178 512.562 508.615 512.825 516.045C498.281 536.124 488.114 559.504 478.751 583.41C474.374 585.074 470.145 586.923 466.063 588.957C447.638 597.978 442.216 609.309 435.725 622.876C434.233 625.994 432.685 629.23 430.909 632.583C423.612 644.868 417.029 657.528 410.481 670.122Z" fill="#AF49FF" stroke="black" stroke-width="16"/>
</svg>
