<svg width="88" height="63" viewBox="0 0 88 63" fill="none" xmlns="http://www.w3.org/2000/svg">
<path d="M0.231723 61.9755C0.127616 61.7153 0.0755625 60.7783 0.0755625 59.1647C0.0755625 57.551 0.0755625 55.5209 0.0755625 53.0744C0.127616 50.6279 0.17967 47.8951 0.231723 44.8759C0.33583 41.8048 0.413911 38.7076 0.465964 35.5844C0.570071 32.4091 0.674179 29.338 0.778286 26.3709C0.882393 23.3518 0.960473 20.671 1.01253 18.3286C1.11663 15.9862 1.19471 14.0863 1.24677 12.6288C1.29882 11.1192 1.35088 10.3124 1.40293 10.2083C1.45498 10 1.68922 9.47951 2.10565 8.64666C2.52208 7.8138 2.99056 6.95492 3.5111 6.07C4.08369 5.13304 4.65628 4.32621 5.22887 3.64951C5.80146 2.92076 6.29596 2.58242 6.71239 2.63447C6.86855 2.68652 6.99869 3.72759 7.1028 5.75768C7.25896 7.73572 7.38909 10.2863 7.4932 13.4096C7.64936 16.5328 7.75346 19.9943 7.80552 23.7942C7.90963 27.5421 7.98771 31.2119 8.03976 34.8036C8.14387 38.3432 8.22195 41.5705 8.274 44.4855C8.32605 47.3485 8.37811 49.4567 8.43016 50.8101C10.0959 50.9662 11.7616 51.0963 13.4273 51.2005C15.1451 51.3046 16.6807 51.4347 18.034 51.5909C19.3874 51.695 20.4806 51.7991 21.3134 51.9032C22.1983 52.0073 22.6668 52.0854 22.7189 52.1374C22.875 52.3456 23.0832 52.8401 23.3435 53.6209C23.6558 54.3497 23.9421 55.1565 24.2024 56.0414C24.4627 56.8743 24.6449 57.6551 24.749 58.3838C24.9051 59.1126 24.8791 59.5551 24.6709 59.7112C18.6847 60.8043 14.0519 61.5331 10.7726 61.8975C7.4932 62.2618 5.07271 62.444 3.5111 62.444C1.68922 62.444 0.596098 62.2879 0.231723 61.9755ZM50.984 35.3501C51.2963 35.6104 51.5305 36.157 51.6867 36.9898C51.8428 37.8227 51.9209 38.7336 51.9209 39.7226C51.9209 40.7117 51.8428 41.6226 51.6867 42.4555C51.5305 43.2883 51.2963 43.7828 50.984 43.939C50.8278 44.0431 50.4374 44.0691 49.8128 44.0171C49.2402 43.965 48.5635 43.8609 47.7827 43.7047C47.8868 44.5897 47.9649 45.4746 48.0169 46.3595C48.069 47.2444 48.095 47.9731 48.095 48.5457C48.095 49.5347 47.8868 50.8101 47.4703 52.3717C47.106 53.9333 46.6115 55.4688 45.9868 56.9784C45.3622 58.4359 44.6855 59.6852 43.9567 60.7263C43.28 61.7673 42.6294 62.2618 42.0047 62.2098C41.5883 62.2098 40.9897 62.0276 40.2089 61.6632C39.4801 61.3509 38.6473 60.9345 37.7103 60.4139C36.7733 59.9455 35.7843 59.3989 34.7432 58.7743C33.7542 58.1496 32.8433 57.551 32.0104 56.9784C31.1776 56.3538 30.4488 55.7812 29.8242 55.2606C29.2516 54.7401 28.8872 54.3237 28.7311 54.0113C28.4708 53.5429 28.1324 52.4237 27.716 50.6539C27.2996 48.8841 26.8832 46.7238 26.4667 44.1732C26.0503 41.5705 25.6859 38.7336 25.3736 35.6625C25.0613 32.5392 24.9051 29.416 24.9051 26.2928C24.9051 23.1696 24.9572 20.0984 25.0613 17.0793C25.1654 14.0602 25.3476 11.3534 25.6078 8.95898C25.9202 6.51246 26.3106 4.56045 26.779 3.10295C27.2996 1.5934 27.9242 0.786567 28.653 0.68246C30.8392 0.474245 33.1816 0.786567 35.6802 1.61942C38.2308 2.45228 40.5993 3.51938 42.7855 4.82072C44.9718 6.12206 46.7936 7.47545 48.2511 8.8809C49.7086 10.2863 50.4895 11.4315 50.5936 12.3164C50.6456 13.2013 50.5415 14.1904 50.2812 15.2835C50.021 16.3246 49.7086 17.3656 49.3443 18.4067C48.9799 19.3957 48.5895 20.3067 48.1731 21.1395C47.8087 21.9203 47.5224 22.4669 47.3142 22.7792C47.0539 23.1436 46.7156 23.534 46.2991 23.9504C45.9348 24.3668 45.5444 24.7312 45.1279 25.0435C44.7636 25.3559 44.3732 25.5901 43.9567 25.7463C43.5924 25.8504 43.254 25.7983 42.9417 25.5901C42.7335 25.4339 42.5253 24.9394 42.317 24.1066C42.1609 23.2737 41.9787 22.2847 41.7705 21.1395C41.6143 19.9423 41.4582 18.693 41.302 17.3917C41.1458 16.0383 40.9897 14.789 40.8335 13.6438C40.7294 12.4986 40.6253 11.5356 40.5212 10.7548C40.4171 9.97402 40.339 9.53157 40.2869 9.42746C40.1828 9.2713 40.0007 9.11514 39.7404 8.95898C39.5322 8.80282 39.2719 8.67268 38.9596 8.56858C38.6473 8.46447 38.361 8.43844 38.1007 8.4905C37.8404 8.4905 37.6322 8.62063 37.4761 8.8809C37.3199 9.14117 37.0336 10.1042 36.6172 11.7699C36.2007 13.4356 35.7843 15.5177 35.3679 18.0163C35.0035 20.5149 34.6652 23.2997 34.3528 26.3709C34.0405 29.39 33.8844 32.4351 33.8844 35.5063C33.8844 37.6926 33.9364 39.9829 34.0405 42.3774C34.1967 44.7198 34.3789 46.88 34.5871 48.858C34.8474 50.784 35.1336 52.3977 35.446 53.699C35.8103 55.0004 36.1747 55.651 36.5391 55.651C36.9035 55.7031 37.398 55.3387 38.0226 54.5579C38.6473 53.7251 39.2459 52.7881 39.8185 51.747C40.3911 50.6539 40.9116 49.6128 41.3801 48.6238C41.9006 47.5827 42.239 46.854 42.3951 46.4376C42.6554 45.865 42.9157 45.2924 43.1759 44.7198C43.4882 44.0951 43.8266 43.4965 44.191 42.9239C43.3581 42.7157 42.5253 42.4815 41.6924 42.2212C40.9116 41.9609 40.1828 41.7267 39.5061 41.5185C38.8294 41.2582 38.2569 41.024 37.7884 40.8158C37.3719 40.5555 37.1117 40.3473 37.0076 40.1911C36.8514 39.9309 36.7473 39.5925 36.6953 39.1761C36.6432 38.7076 36.6172 38.2651 36.6172 37.8487C36.6692 37.3802 36.7213 36.9638 36.7733 36.5994C36.8774 36.183 36.9555 35.8446 37.0076 35.5844C37.1117 35.22 37.8144 34.9597 39.1157 34.8036C40.4691 34.6474 41.9527 34.5693 43.5663 34.5693C45.232 34.5693 46.7936 34.6474 48.2511 34.8036C49.7086 34.9077 50.6196 35.0899 50.984 35.3501ZM87.2132 1.3071C87.4215 1.51532 87.4735 2.55639 87.3694 4.43032C87.3174 6.25219 87.1352 8.5946 86.8228 11.4575C86.5105 14.3205 86.1201 17.5738 85.6516 21.2176C85.2352 24.8613 84.7667 28.5571 84.2462 32.305C83.7257 36.0529 83.1791 39.7226 82.6065 43.3143C82.086 46.854 81.5654 50.0292 81.0449 52.8401C80.5764 55.599 80.134 57.8373 79.7175 59.5551C79.3532 61.2208 79.0669 62.0536 78.8586 62.0536C78.4943 62.0536 78.0778 61.8454 77.6094 61.429C77.1409 61.0126 76.6724 60.492 76.2039 59.8674C75.7875 59.2948 75.3971 58.7222 75.0327 58.1496C74.7204 57.525 74.5382 57.0305 74.4861 56.6661C74.33 55.9894 74.0177 54.688 73.5492 52.7621C73.1328 50.8361 72.7163 48.4416 72.2999 45.5787C72.0396 43.7047 71.7794 41.7267 71.5191 39.6446C71.2588 37.8747 70.9725 35.9488 70.6602 33.8666C70.3999 31.7324 70.1397 29.5982 69.8794 27.464C69.6712 28.8174 69.4109 30.4311 69.0986 32.305C68.7863 34.1789 68.474 35.9748 68.1616 37.6926C67.7973 39.7226 67.4069 41.7788 66.9904 43.8609C66.6261 46.0472 66.2357 48.2074 65.8192 50.3416C65.4028 52.4237 64.9864 54.3237 64.5699 56.0414C64.1535 57.7072 63.7631 59.0605 63.3987 60.1016C63.0864 61.1427 62.8261 61.6893 62.6179 61.7413C62.2536 61.8454 61.8111 61.7153 61.2906 61.3509C60.77 61.0386 60.2495 60.5961 59.729 60.0235C59.2084 59.4509 58.7399 58.8523 58.3235 58.2277C57.9591 57.551 57.7249 56.9784 57.6208 56.5099C56.892 51.4087 56.2674 46.828 55.7469 42.7678C55.2784 38.7076 54.862 35.1159 54.4976 31.9927C54.1332 28.8174 53.8469 26.0846 53.6387 23.7942C53.4305 21.5039 53.2483 19.5259 53.0921 17.8601C52.7798 14.0082 52.6497 11.3274 52.7017 9.81786C52.8579 8.72474 53.2743 7.63161 53.951 6.53849C54.6277 5.39331 55.3825 4.37826 56.2153 3.49335C57.0482 2.60844 57.829 1.93175 58.5578 1.46326C59.3386 0.942727 59.8591 0.76054 60.1194 0.916701C60.2755 1.02081 60.4317 1.72353 60.5878 3.02487C60.744 4.27416 60.8741 5.93987 60.9782 8.02201C61.0824 10.0521 61.1865 12.3945 61.2906 15.0492C61.3947 17.704 61.4728 20.4888 61.5248 23.4038C61.6289 26.2668 61.707 29.1558 61.759 32.0708C61.8632 34.9858 61.9673 37.7186 62.0714 40.2692C62.2796 38.9679 62.4878 37.4843 62.696 35.8186C62.9563 34.1529 63.2165 32.4091 63.4768 30.5872C63.7891 28.7654 64.0754 26.9695 64.3357 25.1997C64.596 23.3778 64.8302 21.7121 65.0384 20.2026C65.2987 18.693 65.5329 17.3917 65.7411 16.2985C66.0014 15.2054 66.2096 14.4506 66.3658 14.0342C66.8863 12.837 67.4849 11.7959 68.1616 10.911C68.8904 10.0261 69.5671 9.29733 70.1917 8.72474C70.8684 8.15215 71.467 7.73572 71.9876 7.47545C72.5602 7.16313 72.9506 7.033 73.1588 7.08505C73.2108 7.08505 73.3149 7.63161 73.4711 8.72474C73.6273 9.76581 73.7834 11.1452 73.9396 12.863C74.1478 14.5808 74.356 16.5588 74.5642 18.7971C74.8245 20.9834 75.0848 23.2737 75.345 25.6682C75.6053 28.0106 75.8656 30.353 76.1258 32.6954C76.3861 34.9858 76.6724 37.0679 76.9847 38.9418C77.0888 37.2241 77.1929 35.3241 77.297 33.242C77.4011 31.1078 77.5053 28.9476 77.6094 26.7613C77.7655 24.5751 77.8957 22.4409 77.9998 20.3587C78.1559 18.2766 78.2861 16.3766 78.3902 14.6588C78.5463 12.9411 78.6765 11.4836 78.7806 10.2863C78.9367 9.03706 79.0929 8.2042 79.2491 7.78777C79.5614 6.7467 80.1079 5.78371 80.8887 4.8988C81.6695 3.96183 82.4764 3.20706 83.3092 2.63447C84.1941 2.00983 85.001 1.5934 85.7297 1.38518C86.5105 1.12491 87.005 1.09889 87.2132 1.3071Z" fill="white"/>
</svg>
