<svg xmlns="http://www.w3.org/2000/svg" viewBox="0 0 159.75 45.44"><defs><style>.cls-1{fill:none;stroke:#fff;}.cls-1,.cls-2{stroke-miterlimit:10;}.cls-2{fill:#af49ff;stroke:#000;}</style></defs><g id="Layer_2" data-name="Layer 2"><g id="Layer_1-2" data-name="Layer 1"><path class="cls-1" d="M1.66,1.46c1.29.7,2.46,1.29,3.5,1.77L7.85,4.48c.86.4,1.65.76,2.32,1s1.63.56,2.74.9c.95.29,2.17.63,3.65,1s3.31.84,5.48,1.31a10.19,10.19,0,0,0-2.54.79,7.89,7.89,0,0,0-1.52,1A3.05,3.05,0,0,0,17,11.72a14.91,14.91,0,0,0,.17,4c.09.83.23,1.87.43,3.09s.46,2.67.78,4.32.74,3.55,1.23,5.66,1.07,4.5,1.72,7.12c.78-1.9,1.43-3.56,1.93-5s.93-2.67,1.28-3.69.72-2.16,1-3,.6-2.11,1-3.54c.31-1.21.7-2.79,1.19-4.7s1.1-4.23,1.82-7l2.2.81c.24,2.29.5,4.31.75,6.05s.49,3.23.67,4.44c.2,1.39.37,2.63.55,3.64s.45,2,.8,3.23c.3,1,.7,2.29,1.17,3.76s1.1,3.13,1.87,4.94c.7-2.12,1.32-4,1.88-5.62s1-3.05,1.45-4.28.76-2.28,1-3.16.54-1.61.73-2.2a17.81,17.81,0,0,0,.74-2.83A3.62,3.62,0,0,0,42.81,16a10.44,10.44,0,0,0-1.39-1.79A15.5,15.5,0,0,0,38.68,12c2.5.58,4.55,1,6.14,1.29s2.85.5,3.8.65l2.48.36,2.24.31c.83.11,1.91.24,3.26.38s3.08.29,5.2.42c-1.82.46-3.28.88-4.4,1.29s-2,.75-2.58,1a5.87,5.87,0,0,0-1.6.94,18.55,18.55,0,0,0-1.55,3.6c-.31.81-.67,1.82-1.05,3s-.85,2.68-1.37,4.4-1.11,3.74-1.77,6.08-1.37,5-2.17,8.11c-4.25-.33-6.37-.51-10.61-.89-1.93-5.82-2.89-8.82-4.81-15-.64,2.64-1.15,4.82-1.53,6.5s-.66,3-.85,3.93a21.31,21.31,0,0,0-.38,2.49c0,.46-.06.91-.1,1.33S27,43,26.9,43.45s-.12.82-.19,1.18H15.87c-1.11-4.1-2.1-7.84-3-11.14s-1.62-6.29-2.29-8.88-1.23-4.85-1.7-6.72S8,14.44,7.67,13.14A53.7,53.7,0,0,0,5.91,7.39c-.27-.4-.63-.9-1.06-1.5S4.05,4.8,3.51,4.05,2.36,2.45,1.66,1.46Z"/><path class="cls-1" d="M55.25,26c4.56.38,6.84.53,11.4.75a32.64,32.64,0,0,0-1.41,4.11,23.54,23.54,0,0,0-.56,2.87,7.73,7.73,0,0,0-.1,2.25,8.24,8.24,0,0,0,.63,1.82,12,12,0,0,0,1.13,1.86,11.56,11.56,0,0,0,2,2.09c-.49-.1-1-.19-1.6-.25s-1.1-.1-1.59-.13-1.15,0-1.72,0-1.21.05-1.9.1l-2.08.18q-1.23.12-2.58.3c.6-1.23,1.06-2.29,1.4-3.18A22.84,22.84,0,0,0,59,36.54a9.59,9.59,0,0,0,.28-1.71c0-.52,0-1.17,0-1.86l0-2q0-1-.09-1.74a1.9,1.9,0,0,0-.26-1l-.62-.45-1.09-.66C56.68,26.83,56,26.46,55.25,26Zm4.31-6a5.36,5.36,0,0,1,2.64,0,5,5,0,0,1,2.09.91,1.22,1.22,0,0,1,.55,1.35c-.14.51-.82,1-2,1.38a6,6,0,0,1-3.15.28,3.34,3.34,0,0,1-1.94-1,1.42,1.42,0,0,1-.21-1.55A2.86,2.86,0,0,1,59.56,20Z"/><path class="cls-1" d="M69.64,19.51l3.15.31c.85.08,1.55.14,2.09.17s1.13.05,1.49.06.88,0,1.5,0L80,20c.88,0,2-.12,3.31-.24a7.37,7.37,0,0,0-.69.7l-.44.53-.37.48c-.09.16-.17.33-.25.48a2.28,2.28,0,0,0-.22.47,5.08,5.08,0,0,0-.16.59c3.84,0,5.76-.07,9.59-.24L89.86,26c-3.5,0-5.25,0-8.75-.14-.21,1.35-.36,2.39-.44,3.12a14.21,14.21,0,0,1-.25,1.62c0,.28-.08.42-.13.71-.12,1-.24,2.08-.37,3.25a23,23,0,0,0-.12,3.25,8.22,8.22,0,0,0,.43,2.51,1.31,1.31,0,0,0,1.29,1A4.5,4.5,0,0,0,83.24,41a6,6,0,0,0,1.38-.75,3.83,3.83,0,0,0,.9-.9,1.48,1.48,0,0,0,.31-.69,1.07,1.07,0,0,0-.19-.55,7.67,7.67,0,0,0-1.1-1.5c1.19.18,2.24.35,3.14.53l1.23.3c.4.11.9.21,1.41.34s1,.28,1.72.46,1.51.39,2.45.64a5.34,5.34,0,0,0-2,.55,1.6,1.6,0,0,0-.55.37A13,13,0,0,0,91,41a6.36,6.36,0,0,1-1.67,1.47,11.56,11.56,0,0,1-3,1.27,19.31,19.31,0,0,1-5,.64,11.48,11.48,0,0,1-4.93-.71,6.24,6.24,0,0,1-2.46-1.84,4.38,4.38,0,0,1-.9-2.08c-.09-.69-.15-1.15-.19-1.39a10.25,10.25,0,0,1,0-1.78c0-1,.09-2,.17-3.14s.15-2.26.23-3.32.11-1.85.11-2.35c0-.27,0-.56.06-.83s0-.5,0-.77a7.42,7.42,0,0,0,0-.81c-3.6-.09-5.4-.16-9-.36l-.4-2.32c3.63.28,5.45.38,9.08.53a5.91,5.91,0,0,0-.28-.81,4.87,4.87,0,0,0-.28-.62,2.19,2.19,0,0,0-.38-.49,5.76,5.76,0,0,0-.56-.45l-.82-.55Z"/><path class="cls-1" d="M126.47,27.74c-.48,0-1.09,0-1.8.07s-1.4.12-2,.19-1.51.18-2.33.3l-2.58.35-2.49.35-2.68.38a3.45,3.45,0,0,0,.9-.55,6.8,6.8,0,0,0,.72-.68,4.4,4.4,0,0,0,.57-.79,2,2,0,0,0,0-1.6,3.59,3.59,0,0,0-1.3-1.58,6.16,6.16,0,0,0-2.38-1,7.2,7.2,0,0,0-3.17.15,17.52,17.52,0,0,0-3.33,1.19,7.81,7.81,0,0,0-2.43,1.78,6.33,6.33,0,0,0-1.4,2.56,10.06,10.06,0,0,0-.27,3.48,8.34,8.34,0,0,0,1.18,3.93A6.17,6.17,0,0,0,104,38.48a7.86,7.86,0,0,0,3.09.82,16.86,16.86,0,0,0,3.34-.07,5.59,5.59,0,0,0,2.16-.8,5.38,5.38,0,0,0,1.5-1.45,4.15,4.15,0,0,0,.66-2.57c3-.27,4.5-.41,7.49-.72A13.31,13.31,0,0,1,119,38.12a17.42,17.42,0,0,1-3.6,2.5A14.45,14.45,0,0,1,111.32,42a27,27,0,0,1-4.48.29,20.76,20.76,0,0,1-3.55-.36,20.41,20.41,0,0,1-2.93-.79c-.9-.32-1.75-.66-2.56-1A7.52,7.52,0,0,1,96,38.94a11.46,11.46,0,0,1-1.82-2,10.71,10.71,0,0,1-1.39-2.59,6.67,6.67,0,0,1-.41-3,7.26,7.26,0,0,1,1.15-3.15A12,12,0,0,1,96.75,25a22.31,22.31,0,0,1,7.08-3.43,29.9,29.9,0,0,1,7.09-1.16,20.61,20.61,0,0,1,5.89.58,7.48,7.48,0,0,1,3.58,1.82c.68.75,1.19,1.33,1.53,1.73l.78.91a2.59,2.59,0,0,0,.48.44c.14.09.37.2.63.36s.45.27.73.42l.85.46C125.71,27.34,126.07,27.54,126.47,27.74Z"/><path class="cls-1" d="M125.61,9c.94-.11,1.79-.25,2.57-.4s1.42-.29,1.94-.41,1.15-.25,1.59-.39c.59-.18,1.32-.45,2.12-.76s1.53-.61,2.52-1,2.12-.91,3.41-1.52c-.61.48-1.11.92-1.52,1.3a7.67,7.67,0,0,0-1,1.11A6,6,0,0,0,136.59,8a17.09,17.09,0,0,0-.71,2.93c-.24,1.24-.58,3.09-1,5.48S134,22,133.45,26a31.94,31.94,0,0,1,4.21-3.45,30.3,30.3,0,0,1,3.5-2.05,13.06,13.06,0,0,1,3.27-1.18,9.26,9.26,0,0,1,3.82.23,16.22,16.22,0,0,1,3.65,1.4,13.83,13.83,0,0,1,3,2.15,9.11,9.11,0,0,1,1.83,2.32,4.54,4.54,0,0,1,.36,2,16.41,16.41,0,0,1-.25,2.75,30.19,30.19,0,0,1-.66,3.07c-.29,1-.56,2-.83,2.92s-.49,1.69-.7,2.36a12.14,12.14,0,0,0-.37,1.42,4.35,4.35,0,0,0,.12,1.73,5.18,5.18,0,0,0,.73,1.51,4.11,4.11,0,0,0,1.65,1.35c-.57-.08-1.17-.15-1.81-.21l-1.8-.14c-.65,0-1.31,0-2,0H149l-2.39,0-2.94.09a5,5,0,0,0,1.48-.74,10.13,10.13,0,0,0,1-.93,6.57,6.57,0,0,0,.86-1.08,9,9,0,0,0,.63-1.73q.38-1.29.69-3c.21-1.13.37-2.33.48-3.59A27.7,27.7,0,0,0,149,29.6a10.47,10.47,0,0,0-.52-3,2.86,2.86,0,0,0-1.34-1.74,7.47,7.47,0,0,0-4.91-1,8.85,8.85,0,0,0-4.24,2.25l-1.42,1.33c-.41.4-.86.86-1.35,1.37s-.95,1-1.37,1.55c0,.5,0,1,0,1.64s.07,1.18.1,1.74.09,1.28.15,1.89c.08.94.18,1.92.32,2.85s.26,1.67.44,2.62a14,14,0,0,0,.76,2.6,11.18,11.18,0,0,0-1.65-.06l-1.66,0-1.77.07c-.52,0-1.09.08-1.66.15s-1,.13-1.6.18-1.12.12-1.65.21a15.1,15.1,0,0,0,1.26-2.16c.34-.72.62-1.36.83-1.91a17.68,17.68,0,0,0,.65-1.89,17.09,17.09,0,0,0,.33-2.78q.12-2.06.24-4.74c.07-1.78.13-3.67.16-5.67s0-3.88,0-5.68,0-3.35-.13-4.67a16.67,16.67,0,0,0-.28-2.71,5.34,5.34,0,0,0-.65-1.37,4.28,4.28,0,0,0-.95-1.07A3.44,3.44,0,0,0,125.61,9Z"/><path class="cls-2" d="M52,41.84l-3.8-1.35A13.72,13.72,0,0,1,48,38.93l-.93,1.19-1.53-.54A6.43,6.43,0,0,1,46,38.25c-.51.3-1,.59-1.55.87a2.92,2.92,0,0,1,.23-1.57c-.63.34-1.24.7-1.86,1L2.57,24.46a1.84,1.84,0,0,1-1.13-2.34l3.43-9.75a1.84,1.84,0,0,1,2.35-1.13l4.6,1.61A10.41,10.41,0,0,1,11.47,15a1.19,1.19,0,0,1,.39-.3L14,13.61l.93.32a1.51,1.51,0,0,0,.29.82l.49-.5c-.21.2.06.57.35.63s.61,0,.88.12a1.16,1.16,0,0,0,.23.84c.52-.2,1-.38,1.57-.57l38,13.34a1.82,1.82,0,0,1,1.12,2.33l-3.43,9.77A1.86,1.86,0,0,1,52,41.84Z"/><path d="M6.51,21.68a1.93,1.93,0,0,1-.65-.36.9.9,0,0,1-.31-.57,1.77,1.77,0,0,1,.11-.84L7.37,15l.85.29L6.55,20.09a.79.79,0,0,0,0,.44.5.5,0,0,0,.17.29A1.29,1.29,0,0,0,7,21l2.14.75-.27.78Z"/><path d="M11,23.3a1.42,1.42,0,0,1-.86-.68,1.46,1.46,0,0,1,0-1.16l1.11-3.17.84.3-1,2.94a.87.87,0,0,0,0,.76,1.12,1.12,0,0,0,.59.4,2,2,0,0,0,.68.12,2.84,2.84,0,0,0,.7-.08l1.19-3.4.84.3-1.57,4.49-.68-.24v-.53a3.94,3.94,0,0,1-.88.1A2.54,2.54,0,0,1,11,23.3Z"/><path d="M16.26,25.17a2.79,2.79,0,0,1-.69-.36,1.51,1.51,0,0,1-.46-.57,1.75,1.75,0,0,1-.13-.83,4.1,4.1,0,0,1,.26-1.17,4.52,4.52,0,0,1,.53-1.1,1.84,1.84,0,0,1,.61-.58,1.42,1.42,0,0,1,.71-.15,2.87,2.87,0,0,1,.81.17c.23.08.47.18.73.3s.49.24.72.37l-.18.5-1.26-.45a1.87,1.87,0,0,0-.74-.11.86.86,0,0,0-.58.35,3.23,3.23,0,0,0-.51,1,2.93,2.93,0,0,0-.21,1.07.9.9,0,0,0,.24.63,1.63,1.63,0,0,0,.64.36l1.33.47-.17.48c-.14,0-.3,0-.49-.07l-.57-.14C16.65,25.3,16.45,25.23,16.26,25.17Z"/><path d="M18.72,26,21,19.57l.84.29L20.53,23.5l.61.21L23,22.43l.87.31-2.24,1.57.77,3L21.52,27l-.67-2.5-.58-.21-.71,2Z"/><path d="M23.66,30l1.25-1.8a1.66,1.66,0,0,1-.48-.29,1.21,1.21,0,0,1-.31-.5,1.9,1.9,0,0,1-.08-.75l.19-3.75.88.31-.23,3.54a1.4,1.4,0,0,0,.05.4.7.7,0,0,0,.14.23.49.49,0,0,0,.15.12l.09,0,2.38-3.42.87.31L25,29.49l-.7.69Z"/><path d="M31.77,30.61a2.06,2.06,0,0,1-.91-.54,1.63,1.63,0,0,1-.39-.8,3.21,3.21,0,0,1,0-1.1,10.68,10.68,0,0,1,.4-1.4,9,9,0,0,1,.57-1.33,2.78,2.78,0,0,1,.68-.86,1.54,1.54,0,0,1,.87-.36,2.53,2.53,0,0,1,1.13.17l.7.28a6.72,6.72,0,0,1,.66.32c.21.11.4.23.58.34l-.22.65-.46-.22-.65-.28L34,25.2a1.58,1.58,0,0,0-1-.09,1.3,1.3,0,0,0-.7.61,6.7,6.7,0,0,0-.62,1.35,8.86,8.86,0,0,0-.33,1.18,2,2,0,0,0,0,.8.89.89,0,0,0,.28.52,1.71,1.71,0,0,0,.63.35,3.7,3.7,0,0,0,.8.18,6.75,6.75,0,0,0,.72,0l.57-1.63L33,28l.22-.64.42.09.49.14.52.17.43.16.35.15-1.17,3.35-.63-.22,0-.48a5.11,5.11,0,0,1-.84,0A3.43,3.43,0,0,1,31.77,30.61Z"/><path d="M35.46,31.86,37,27.37l.64.22-.07.83a3.09,3.09,0,0,1,.84-.36,1.59,1.59,0,0,1,.91.06l.2.08a.78.78,0,0,1,.18.11l-.3.86-.23-.11L39,29a2.28,2.28,0,0,0-.53-.11,1.77,1.77,0,0,0-.51.05,3.16,3.16,0,0,0-.53.2L36.3,32.15Z"/><path d="M40.7,33.76a2.77,2.77,0,0,1-1.06-.61,1.28,1.28,0,0,1-.35-.92,4.19,4.19,0,0,1,.3-1.45,4.64,4.64,0,0,1,.67-1.33,1.24,1.24,0,0,1,.85-.49,2.68,2.68,0,0,1,1.2.2,3.05,3.05,0,0,1,1,.48,1,1,0,0,1,.4.66,2,2,0,0,1-.14,1,1.36,1.36,0,0,1-.39.6,1,1,0,0,1-.59.19,2.45,2.45,0,0,1-.75-.14l-1.48-.53a2.39,2.39,0,0,0-.16.82.71.71,0,0,0,.23.55,2,2,0,0,0,.75.42l1.4.49-.17.5L41.59,34A8.11,8.11,0,0,1,40.7,33.76Zm-.21-2.89,1.42.5a.82.82,0,0,0,.54.05.59.59,0,0,0,.32-.41,1.23,1.23,0,0,0,.09-.56.6.6,0,0,0-.22-.39,1.64,1.64,0,0,0-.55-.28,1.54,1.54,0,0,0-.69-.11.75.75,0,0,0-.49.33A3.52,3.52,0,0,0,40.49,30.87Z"/><path d="M45.24,35.35a2.69,2.69,0,0,1-1.07-.61,1.27,1.27,0,0,1-.35-.92,5.64,5.64,0,0,1,1-2.78,1.25,1.25,0,0,1,.84-.49,2.9,2.9,0,0,1,1.21.2,3.56,3.56,0,0,1,1,.48,1.1,1.1,0,0,1,.4.66,2.07,2.07,0,0,1-.15,1,1.13,1.13,0,0,1-.39.6.93.93,0,0,1-.59.19,2.13,2.13,0,0,1-.74-.14L44.85,33a2.66,2.66,0,0,0-.16.82.76.76,0,0,0,.23.55,2,2,0,0,0,.76.41l1.4.49-.18.51-.77-.17A6,6,0,0,1,45.24,35.35ZM45,32.47l1.42.5A.87.87,0,0,0,47,33a.59.59,0,0,0,.32-.4A1.26,1.26,0,0,0,47.4,32a.6.6,0,0,0-.22-.38,1.65,1.65,0,0,0-.55-.29,1.44,1.44,0,0,0-.7-.1.76.76,0,0,0-.49.32A3.31,3.31,0,0,0,45,32.47Z"/><path d="M48,36.27l1.58-4.49.67.24v.54a3.53,3.53,0,0,1,.85-.13,2.19,2.19,0,0,1,.92.13,1.46,1.46,0,0,1,.74.49,1.35,1.35,0,0,1,.24.73,2.16,2.16,0,0,1-.14.81l-1.06,3-.84-.3,1-2.92a1.11,1.11,0,0,0,.06-.5,1,1,0,0,0-.18-.41,1.09,1.09,0,0,0-.42-.27A2.34,2.34,0,0,0,51,33.1a1.77,1.77,0,0,0-.46,0,2.93,2.93,0,0,0-.48.07l-1.19,3.4Z"/></g></g></svg>