<svg xmlns="http://www.w3.org/2000/svg" viewBox="0 0 158.69 43.17"><defs><style>.cls-1{fill:#af49ff;}.cls-2{fill:#72cd21;}.cls-3{fill:none;}</style></defs><g id="Layer_2" data-name="Layer 2"><g id="Layer_1-2" data-name="Layer 1"><path class="cls-1" d="M3.28,0c1.29.7,2.46,1.28,3.5,1.76L9.47,3c.86.4,1.65.75,2.32,1s1.63.55,2.74.89c1,.29,2.17.64,3.65,1s3.3.85,5.48,1.31a10.16,10.16,0,0,0-2.54.8A7.17,7.17,0,0,0,19.6,9a3.13,3.13,0,0,0-1,1.21,15.07,15.07,0,0,0,.18,4c.09.84.23,1.87.43,3.1s.45,2.66.78,4.32.73,3.55,1.23,5.66,1.07,4.49,1.72,7.11c.78-1.9,1.42-3.56,1.93-5s.93-2.67,1.27-3.69.72-2.17,1-3,.6-2.11,1-3.54c.31-1.21.7-2.8,1.19-4.7s1.09-4.24,1.81-6.95c.88.32,1.32.49,2.2.8.25,2.3.5,4.31.76,6.06s.49,3.23.66,4.44c.2,1.39.37,2.63.56,3.64a32.7,32.7,0,0,0,.8,3.23c.3,1,.69,2.28,1.17,3.76s1.1,3.12,1.87,4.93c.7-2.12,1.32-4,1.88-5.61s1-3.06,1.45-4.29.75-2.28,1-3.16.53-1.6.73-2.19A17.56,17.56,0,0,0,45,16.26a3.54,3.54,0,0,0-.59-1.71A9.51,9.51,0,0,0,43,12.76a15.06,15.06,0,0,0-2.74-2.19c2.5.58,4.55,1,6.13,1.28s2.86.5,3.81.65l2.48.37c.89.13,1.34.19,2.24.3s1.91.24,3.26.38,3.08.29,5.2.43c-1.82.46-3.29.88-4.4,1.28s-2,.75-2.59,1a6.18,6.18,0,0,0-1.59.95,18.25,18.25,0,0,0-1.55,3.6c-.31.81-.67,1.82-1.06,3s-.84,2.69-1.37,4.41S49.75,32,49.1,34.36s-1.38,5-2.17,8.11c-4.25-.33-6.37-.5-10.62-.89-1.92-5.81-2.88-8.81-4.8-15-.65,2.64-1.16,4.82-1.53,6.49s-.66,3-.85,3.93a21.72,21.72,0,0,0-.38,2.5c0,.45-.06.9-.1,1.32s-.08.76-.13,1.19-.12.82-.2,1.18H17.48c-1.11-4.1-2.09-7.84-3-11.15s-1.63-6.28-2.29-8.88S11,18.3,10.54,16.43,9.65,13,9.28,11.67A51,51,0,0,0,7.53,5.93C7.25,5.52,6.9,5,6.46,4.43L5.13,2.59C4.6,1.84,4,1,3.28,0Z"/><path class="cls-1" d="M56.87,24.55c4.55.38,6.83.53,11.4.74a34.69,34.69,0,0,0-1.42,4.12,25.28,25.28,0,0,0-.55,2.87,7.73,7.73,0,0,0-.1,2.25,8.6,8.6,0,0,0,.63,1.82A12.5,12.5,0,0,0,68,38.21a11.2,11.2,0,0,0,2,2.09,14.15,14.15,0,0,0-1.6-.25c-.57-.06-1.11-.1-1.59-.13a16.48,16.48,0,0,0-1.72,0c-.58,0-1.22.05-1.9.11L61,40.19c-.81.07-1.67.17-2.57.3.6-1.23,1.06-2.29,1.4-3.19a20.8,20.8,0,0,0,.73-2.23,9.62,9.62,0,0,0,.29-1.71c0-.52,0-1.16,0-1.86l0-2c0-.65,0-1.23-.08-1.74a2,2,0,0,0-.26-1l-.63-.45-1.09-.67C58.3,25.36,57.66,25,56.87,24.55Zm4.31-6a5.48,5.48,0,0,1,2.64,0,5.13,5.13,0,0,1,2.09.9,1.25,1.25,0,0,1,.54,1.36c-.14.5-.81,1-2,1.37a5.92,5.92,0,0,1-3.16.28,3.3,3.3,0,0,1-1.93-1,1.43,1.43,0,0,1-.21-1.56A2.86,2.86,0,0,1,61.18,18.57Z"/><path class="cls-1" d="M71.25,18.05l3.15.31,2.09.17c.63,0,1.14,0,1.5.06a14.26,14.26,0,0,0,1.5,0l2.12-.09c.87,0,2-.12,3.31-.25a6.3,6.3,0,0,0-.69.7l-.44.54-.37.48-.25.47a2.15,2.15,0,0,0-.22.48,3.39,3.39,0,0,0-.16.59c3.84,0,5.75-.07,9.58-.24-.36,1.31-.54,2-.89,3.26-3.5,0-5.25,0-8.76-.14-.21,1.34-.35,2.38-.43,3.12s-.17,1.27-.25,1.61-.08.43-.13.71c-.12,1-.25,2.09-.37,3.26a22.94,22.94,0,0,0-.12,3.25,8.15,8.15,0,0,0,.43,2.5,1.31,1.31,0,0,0,1.28,1,4.62,4.62,0,0,0,1.72-.32,5.56,5.56,0,0,0,1.39-.76,3.74,3.74,0,0,0,.89-.89,1.41,1.41,0,0,0,.31-.7,1.17,1.17,0,0,0-.18-.55,8,8,0,0,0-1.1-1.49c1.19.17,2.24.35,3.14.52.45.1.86.21,1.23.31s.89.2,1.41.34l1.72.45c.69.18,1.51.39,2.45.65a5.57,5.57,0,0,0-2,.54,1.81,1.81,0,0,0-.56.37,11.92,11.92,0,0,0-1,1.19A6.53,6.53,0,0,1,90.92,41a11.54,11.54,0,0,1-3,1.28,19.82,19.82,0,0,1-5,.63A11.26,11.26,0,0,1,78,42.18a6.29,6.29,0,0,1-2.46-1.84,4.54,4.54,0,0,1-.9-2.08c-.08-.68-.14-1.15-.19-1.38a13,13,0,0,1,0-1.78c0-1,.1-2,.17-3.15s.16-2.25.24-3.32.11-1.85.11-2.35c0-.26,0-.56.06-.83s0-.49,0-.77,0-.54,0-.81c-3.6-.09-5.4-.16-9-.36l-.4-2.31c3.63.27,5.45.38,9.08.53a7.86,7.86,0,0,0-.28-.82,6.37,6.37,0,0,0-.29-.62,2.42,2.42,0,0,0-.37-.49c-.15-.13-.36-.3-.56-.45l-.82-.54C72.11,18.58,71.71,18.33,71.25,18.05Z"/><path class="cls-1" d="M128.09,26.27c-.49,0-1.09,0-1.8.08s-1.4.11-2.05.19-1.52.18-2.34.29-1.72.24-2.57.36l-2.5.34-2.67.39a3.48,3.48,0,0,0,.9-.56,6.76,6.76,0,0,0,.72-.67,4.28,4.28,0,0,0,.56-.8,1.88,1.88,0,0,0,0-1.59A3.49,3.49,0,0,0,115,22.72a6.07,6.07,0,0,0-2.38-1,7.1,7.1,0,0,0-3.18.15,17,17,0,0,0-3.32,1.19,7.74,7.74,0,0,0-2.44,1.78,6.31,6.31,0,0,0-1.39,2.56,9.74,9.74,0,0,0-.27,3.47,8.27,8.27,0,0,0,1.18,3.94A6.07,6.07,0,0,0,105.58,37a7.7,7.7,0,0,0,3.08.83,17,17,0,0,0,3.35-.07,5.82,5.82,0,0,0,2.16-.8,5.52,5.52,0,0,0,1.5-1.45,4.16,4.16,0,0,0,.66-2.58c3-.26,4.5-.4,7.49-.71a13.41,13.41,0,0,1-3.21,4.43,17.69,17.69,0,0,1-3.6,2.5,14.31,14.31,0,0,1-4.07,1.38,25,25,0,0,1-4.48.29,20.76,20.76,0,0,1-3.55-.36,20.41,20.41,0,0,1-2.93-.79c-.9-.31-1.75-.65-2.57-1a7.57,7.57,0,0,1-1.76-1.19,11,11,0,0,1-1.82-2,10.78,10.78,0,0,1-1.39-2.6,6.51,6.51,0,0,1-.41-3,7,7,0,0,1,1.15-3.14,11.84,11.84,0,0,1,3.19-3.18,22.1,22.1,0,0,1,7.08-3.43A29.4,29.4,0,0,1,112.54,19a19.92,19.92,0,0,1,5.89.58A7.39,7.39,0,0,1,122,21.39c.68.75,1.19,1.33,1.53,1.72l.78.91a2.37,2.37,0,0,0,.48.45l.63.35c.2.12.44.28.73.43l.84.45C127.32,25.88,127.69,26.07,128.09,26.27Z"/><path class="cls-1" d="M127.23,7.51c.94-.11,1.79-.24,2.56-.4l2-.4c.61-.13,1.15-.26,1.58-.39.6-.19,1.33-.46,2.13-.76S137,5,138,4.54s2.13-.91,3.42-1.52c-.61.48-1.11.91-1.52,1.3a8.36,8.36,0,0,0-1,1.1,7.45,7.45,0,0,0-.67,1.07,17.55,17.55,0,0,0-.71,2.94c-.25,1.24-.59,3.08-1,5.48s-.87,5.61-1.46,9.61a31,31,0,0,1,7.71-5.5,13.47,13.47,0,0,1,3.27-1.18,9.4,9.4,0,0,1,3.81.23,16.33,16.33,0,0,1,3.65,1.4,13.09,13.09,0,0,1,3,2.16A8.89,8.89,0,0,1,158.33,24a4.52,4.52,0,0,1,.36,2,17.57,17.57,0,0,1-.24,2.76,30,30,0,0,1-.66,3.06c-.29,1-.56,2-.83,2.92s-.5,1.69-.7,2.36a10.39,10.39,0,0,0-.37,1.43,4.12,4.12,0,0,0,.12,1.72,4.87,4.87,0,0,0,.73,1.52,4.21,4.21,0,0,0,1.65,1.35c-.57-.08-1.18-.15-1.81-.21s-1.24-.11-1.8-.14-1.31-.06-2-.05h-2.21c-.69,0-1.49,0-2.38,0l-2.94.09a4.63,4.63,0,0,0,1.47-.75,9.09,9.09,0,0,0,1.05-.93,5.75,5.75,0,0,0,.87-1.07,9.32,9.32,0,0,0,.62-1.74,30,30,0,0,0,.7-3c.21-1.13.37-2.32.48-3.58a27.82,27.82,0,0,0,.09-3.62,10.89,10.89,0,0,0-.52-3,2.87,2.87,0,0,0-1.35-1.74,7.43,7.43,0,0,0-4.9-1,8.91,8.91,0,0,0-4.24,2.24c-.49.46-1,.9-1.42,1.34s-.86.85-1.36,1.37-.95,1-1.36,1.54q0,.75,0,1.65c0,.59.07,1.18.1,1.74s.09,1.27.15,1.89c.08.94.18,1.92.32,2.84s.25,1.68.44,2.63a15,15,0,0,0,.75,2.6,9.94,9.94,0,0,0-1.65-.07l-1.65,0-1.78.06c-.51,0-1.09.08-1.65.16s-1,.12-1.6.17-1.12.12-1.66.22a14.38,14.38,0,0,0,1.27-2.17c.34-.72.62-1.35.83-1.9a17.68,17.68,0,0,0,.65-1.89,16.6,16.6,0,0,0,.32-2.78c.09-1.37.17-3,.25-4.74s.12-3.68.16-5.67.05-3.89,0-5.68,0-3.35-.12-4.68a16.6,16.6,0,0,0-.29-2.71,5.46,5.46,0,0,0-.64-1.37,4.08,4.08,0,0,0-.95-1.06A3.45,3.45,0,0,0,127.23,7.51Z"/><path class="cls-2" d="M50.44,41l-3.79-1.39c-.07-.52-.11-1-.13-1.56l-.94,1.18-1.52-.56a5.52,5.52,0,0,1,.37-1.32l-1.55.85a2.91,2.91,0,0,1,.24-1.57c-.63.33-1.25.68-1.87,1L1.21,23a1.84,1.84,0,0,1-1.1-2.35L3.65,11A1.83,1.83,0,0,1,6,9.87l4.59,1.66a9.74,9.74,0,0,1-.37,2.19,1.1,1.1,0,0,1,.38-.29l2.11-1.11.93.33a1.42,1.42,0,0,0,.28.82l.5-.5c-.22.21.05.57.34.64s.6,0,.87.13a1.21,1.21,0,0,0,.22.84L17.43,14l37.8,13.76a1.83,1.83,0,0,1,1.1,2.35l-3.54,9.72A1.85,1.85,0,0,1,50.44,41Z"/><path d="M5.18,20.31a2,2,0,0,1-.64-.37,1,1,0,0,1-.31-.58,1.62,1.62,0,0,1,.12-.83l1.77-4.86L7,14,5.24,18.71a1,1,0,0,0-.06.45.53.53,0,0,0,.17.28,1.17,1.17,0,0,0,.31.17l2.13.78-.27.77Z"/><path d="M9.6,22a1.43,1.43,0,0,1-.85-.69,1.47,1.47,0,0,1,0-1.16L9.93,17l.84.3L9.7,20.2a.87.87,0,0,0,0,.76,1.12,1.12,0,0,0,.59.41,2,2,0,0,0,.68.13,2.87,2.87,0,0,0,.7-.07L12.88,18l.84.31-1.63,4.47-.67-.24V22a4.84,4.84,0,0,1-.89.1A2.56,2.56,0,0,1,9.6,22Z"/><path d="M14.89,23.9a2.83,2.83,0,0,1-.69-.37,1.46,1.46,0,0,1-.44-.57,1.63,1.63,0,0,1-.13-.83A4.55,4.55,0,0,1,13.9,21a4.79,4.79,0,0,1,.54-1.09,1.81,1.81,0,0,1,.62-.57,1.44,1.44,0,0,1,.71-.15,3.12,3.12,0,0,1,.81.18c.23.09.48.19.73.31A5.33,5.33,0,0,1,18,20l-.18.49-1.26-.46a1.67,1.67,0,0,0-.73-.11.83.83,0,0,0-.59.34,3.36,3.36,0,0,0-.52,1,3,3,0,0,0-.22,1.07.82.82,0,0,0,.24.63,1.72,1.72,0,0,0,.63.37l1.32.48-.17.48a3.79,3.79,0,0,1-.49-.08c-.18,0-.37-.08-.57-.14Z"/><path d="M17.34,24.73l2.32-6.38.84.31-1.32,3.62.61.22,1.87-1.26.87.32L20.27,23.1l.74,3-.88-.32-.64-2.5L18.91,23l-.73,2Z"/><path d="M22.24,28.76,23.5,27a1.41,1.41,0,0,1-.46-.3,1.21,1.21,0,0,1-.31-.5,1.94,1.94,0,0,1-.07-.75l.22-3.75.88.32-.26,3.54a.93.93,0,0,0,.05.4.56.56,0,0,0,.13.23.4.4,0,0,0,.15.12l.09,0,2.42-3.39.86.32-3.59,5.06-.7.69Z"/><path d="M30.34,29.51a2.18,2.18,0,0,1-.9-.54,1.6,1.6,0,0,1-.38-.81,3.23,3.23,0,0,1,.05-1.1,10.87,10.87,0,0,1,.41-1.4,9.7,9.7,0,0,1,.59-1.31,3,3,0,0,1,.69-.86,1.46,1.46,0,0,1,.87-.35,2.68,2.68,0,0,1,1.13.18l.7.29a5.64,5.64,0,0,1,.65.33c.21.11.4.23.58.34l-.23.65-.45-.22-.65-.29-.73-.29a1.59,1.59,0,0,0-1-.1,1.37,1.37,0,0,0-.71.6A7.31,7.31,0,0,0,30.36,26,9.1,9.1,0,0,0,30,27.15a2.26,2.26,0,0,0,0,.8,1,1,0,0,0,.28.53,1.8,1.8,0,0,0,.62.35,3.59,3.59,0,0,0,.8.19,6.9,6.9,0,0,0,.71.05l.6-1.63-1.37-.5.23-.64a2.69,2.69,0,0,1,.41.1l.5.15.52.17.43.17L34,27l-1.21,3.33-.63-.23,0-.47a5.27,5.27,0,0,1-.84,0A3.18,3.18,0,0,1,30.34,29.51Z"/><path d="M34,30.8l1.63-4.47.64.23-.08.83a3.06,3.06,0,0,1,.84-.35,1.52,1.52,0,0,1,.91.07l.2.08.18.11-.31.86a1.75,1.75,0,0,0-.24-.11l-.25-.11a1.9,1.9,0,0,0-.53-.12,1.77,1.77,0,0,0-.51.05,2.7,2.7,0,0,0-.54.19l-1.11,3.05Z"/><path d="M39.24,32.76a2.77,2.77,0,0,1-1.06-.62,1.28,1.28,0,0,1-.34-.92,4.45,4.45,0,0,1,.32-1.44,4.61,4.61,0,0,1,.69-1.33A1.22,1.22,0,0,1,39.7,28a2.71,2.71,0,0,1,1.2.21,3.33,3.33,0,0,1,1,.49,1,1,0,0,1,.4.66,2.12,2.12,0,0,1-.16,1,1.21,1.21,0,0,1-.4.59,1,1,0,0,1-.59.18,2.16,2.16,0,0,1-.74-.15l-1.48-.54a2.72,2.72,0,0,0-.17.82.78.78,0,0,0,.22.56,2.12,2.12,0,0,0,.75.42l1.4.5-.18.51L40.13,33A7.74,7.74,0,0,1,39.24,32.76Zm-.18-2.88,1.41.51a.82.82,0,0,0,.54.05c.14,0,.25-.17.33-.4a1.41,1.41,0,0,0,.1-.56.6.6,0,0,0-.22-.39,1.59,1.59,0,0,0-.54-.29,1.46,1.46,0,0,0-.7-.11.7.7,0,0,0-.49.32A3.49,3.49,0,0,0,39.06,29.88Z"/><path d="M43.76,34.41a2.82,2.82,0,0,1-1.06-.62,1.28,1.28,0,0,1-.34-.93,4.2,4.2,0,0,1,.32-1.44,4.39,4.39,0,0,1,.68-1.33,1.24,1.24,0,0,1,.85-.48,2.93,2.93,0,0,1,1.21.21,3.61,3.61,0,0,1,.95.49,1,1,0,0,1,.39.67,2.07,2.07,0,0,1-.15,1,1.21,1.21,0,0,1-.4.59,1,1,0,0,1-.59.19,2.22,2.22,0,0,1-.75-.15l-1.48-.54a3,3,0,0,0-.17.81.77.77,0,0,0,.23.56,2.12,2.12,0,0,0,.75.42l1.4.51-.19.5-.77-.17A7.64,7.64,0,0,1,43.76,34.41Zm-.18-2.89L45,32a.9.9,0,0,0,.54.06.63.63,0,0,0,.33-.4,1.26,1.26,0,0,0,.09-.57.63.63,0,0,0-.21-.39,2.13,2.13,0,0,0-.55-.29,1.41,1.41,0,0,0-.69-.11.75.75,0,0,0-.5.32A3.52,3.52,0,0,0,43.58,31.52Z"/><path d="M46.53,35.36l1.63-4.48.66.25v.54a4.32,4.32,0,0,1,.86-.13,2.57,2.57,0,0,1,.92.14,1.54,1.54,0,0,1,.73.51,1.26,1.26,0,0,1,.23.73,2.16,2.16,0,0,1-.14.81l-1.09,3-.84-.31,1.06-2.91a1.11,1.11,0,0,0,.06-.5.84.84,0,0,0-.17-.41.9.9,0,0,0-.42-.27,2.25,2.25,0,0,0-.48-.12,2.36,2.36,0,0,0-.46,0,2.82,2.82,0,0,0-.47.07l-1.24,3.38Z"/><path class="cls-3" d="M14.19,33.18a3.07,3.07,0,0,1,.25.26A.36.36,0,0,1,14.19,33.18Z"/><path class="cls-3" d="M18.22,26.22c0,.29-.11.58-.16.87L15,29.68a1.45,1.45,0,0,1-.7-.82c0,.49,0,1,0,1.46l-1.74,1.45c-.6-.43-1.23-.82-1.86-1.26a11.79,11.79,0,0,0,1.25-1.38C13.37,27.27,15.85,26.51,18.22,26.22Z"/></g></g></svg>