<svg xmlns="http://www.w3.org/2000/svg" viewBox="0 0 157.67 108.31"><defs><style>.cls-1{fill:#af49ff;}.cls-2{fill:#4a3d9b;}.cls-3,.cls-4{fill:#72cd21;}.cls-3{stroke:#000;stroke-miterlimit:10;}.cls-5{fill:none;}</style></defs><g id="Layer_2" data-name="Layer 2"><g id="Layer_1-2" data-name="Layer 1"><path d="M88.47,75.86a50.94,50.94,0,0,1-12.86-1.52,29.11,29.11,0,0,1-2.86-.9c-1.9.14-6.48.41-11.79.41-8,0-14.24-.61-18.54-1.82-5.05-1.41-8.81-3.13-11.19-5.12l-.15-.13,0,0a7.89,7.89,0,0,1-3.14-6.26C28,58,29.28,55.82,31.83,53.9c5.27-3.95,13.41-5.18,20.45-6,.19-.3.39-.58.57-.84a5.35,5.35,0,0,0,1-1.75c.15-1.46.5-4.77,3.06-6.41.87-4.11,3.69-11.17,4.84-14.87-10.49-.17-17.56-3-20.94-6.52-1.48-1.54-.26-3.4,1.46-4.59s3.77-1.66,7.43-2.47l.18,0C52.62,9.81,55.75,9.1,60,8c5.2-1.39,7.17-3,8.92-4.35a11.42,11.42,0,0,1,7-3c1.08-.07,2-.19,2.88-.3A23.09,23.09,0,0,1,81.72,0a7.88,7.88,0,0,1,6.84,3.69l.55.77C91.7,8.1,96.54,14.88,99,20.29a50.75,50.75,0,0,1,2.11,6.1l.15.53h0a108.14,108.14,0,0,1,2.63,11.69c3,1.51,3.35,5.12,3.51,6.69a1.53,1.53,0,0,0,.16.45c3.15.3,7.06.59,10.44.59,3.7,0,5-.36,5.29-.47a11.35,11.35,0,0,1,3.81-.72,6,6,0,0,1,5.85,3.61c1.35,3.38-.57,7.56-5.7,12.43a54.5,54.5,0,0,1-19.85,11.46l-6.13,2-.29,0A73.65,73.65,0,0,1,88.47,75.86Z"/><polygon points="101.42 72 107.72 69.91 99.29 61.01 94.81 63.27 101.42 72"/><path class="cls-1" d="M127,58.8c-8.3,7.89-19.25,11.12-19.25,11.12L99.5,65.19,101.42,72c-12.21,2.11-20.63.79-25-.34a20.24,20.24,0,0,1-3.38-1.14s-20.87,1.7-31.52-1.28C37,68,33.38,66.38,31.3,64.64l0,0c-2.69-2.25-2.86-4.76.51-7.29,6-4.48,17.25-5.22,25.14-6.18l20.32-1,25.89-1.24s18.53,2.44,23.85.52S135.28,50.92,127,58.8Z"/><path d="M73.09,70.52s-20.87,1.7-31.52-1.28C37,68,33.38,66.38,31.3,64.64l0,0c-.38-.42-3.44-4,5-5.58C45.19,57.31,58.39,65.19,73.09,70.52Z"/><path class="cls-1" d="M101.39,42.27a.31.31,0,0,1-.13.24c-18.68,12-42.17,0-42.17,0,.58-4.4,2.65-11.58,4.18-16.51,1-3.15,1.73-5.38,1.73-5.38-18.53-.31-24.43-5-22.36-6.39,1.2-.83,3-1.23,6.56-2,2.57-.56,6-1.34,10.84-2.62,11.35-3,10.71-7.34,16-7.66S83.37.17,85.76,3.53s8,11,10.55,16.78a50.08,50.08,0,0,1,2,5.91h0C100.19,32.6,101.8,40.72,101.39,42.27Z"/><path d="M80.68,17.92C80.54,18.22,78,23,63.27,26c1-3.15,1.73-5.38,1.73-5.38S74,21.1,80.68,17.92Z"/><path d="M98.34,26.22h0c-2,2.89-10.66,4.61-7,1.9s5-7.82,5-7.82Z"/><path class="cls-2" d="M107.73,52.26c-.64,1.92-9.83,6.52-27,6.52s-26.4-4.6-27-6.52,2.58-3.8,2.9-6.83.78-4.52,4.13-4,7.12,3,20,3,16.66-2.55,20-3,3.81,1,4.13,4a6.87,6.87,0,0,0,1.34,3.15C107.1,50,108.11,51.11,107.73,52.26Z"/><path d="M107.73,52.26c-.64,1.92-9.83,6.52-27,6.52s-26.4-4.6-27-6.52,2.58-3.8,2.9-6.83.78-4.52,4.13-4c0,0-2.49,1-1.43,4.62s7.08,8.91,24.7,9.37,23.55-3.67,22.22-6.81C107.1,50,108.11,51.11,107.73,52.26Z"/><path d="M103.07,49a6.44,6.44,0,0,0,.73-5.23,7.08,7.08,0,0,0-6.84-5,8.16,8.16,0,0,0-2.43.38,7.23,7.23,0,0,0-.46-4.44,7.54,7.54,0,0,0-6.76-4.49,6.25,6.25,0,0,0-4.06,1.46,6.49,6.49,0,0,0-3.44-1,6.81,6.81,0,0,0-6.16,4.09,7.62,7.62,0,0,0-.24,5.43,7.37,7.37,0,0,0-8.84,6,6.29,6.29,0,0,0,1.34,5.28,6.42,6.42,0,0,0-.75,5.24,7.08,7.08,0,0,0,6.85,5h0a8.09,8.09,0,0,0,2.5-.4A7.22,7.22,0,0,0,75,65.83a7.53,7.53,0,0,0,6.75,4.48h0a6.2,6.2,0,0,0,4.08-1.48,6.52,6.52,0,0,0,3.42,1,6.8,6.8,0,0,0,6.16-4.1,7.68,7.68,0,0,0,.23-5.45,7.26,7.26,0,0,0,1.51.17h0a7.55,7.55,0,0,0,7.31-6.16A6.3,6.3,0,0,0,103.07,49Z"/><path class="cls-3" d="M68.8,51C62.34,55,69,63.6,76,57.27,80.79,53,84.5,50,84.5,50a40,40,0,0,1-9.27-6.18C68.3,37.52,61.54,48.21,68.8,51Z"/><path class="cls-3" d="M83.53,34.34c-4-6.45-12.62.19-6.29,7.24C81.52,46.34,84.5,50,84.5,50a39.66,39.66,0,0,1,6.16-9.28C97,33.82,86.27,27.08,83.53,34.34Z"/><path class="cls-3" d="M100.19,49c6.44-4-.22-12.62-7.25-6.27C88.19,47.05,84.5,50,84.5,50a39.57,39.57,0,0,1,9.28,6.14C100.74,62.49,107.46,51.77,100.19,49Z"/><path class="cls-3" d="M85.52,65.73c4.06,6.43,12.62-.24,6.26-7.27C87.49,53.72,84.5,50,84.5,50a39.89,39.89,0,0,1-6.13,9.29C72.07,66.3,82.8,73,85.52,65.73Z"/><path d="M2.26,65.14c1.29.7,2.46,1.28,3.5,1.77l2.69,1.25c.86.4,1.65.76,2.32,1s1.63.56,2.74.89c1,.29,2.17.64,3.65,1s3.3.85,5.48,1.32a10.42,10.42,0,0,0-2.55.79,7.77,7.77,0,0,0-1.51,1,3.13,3.13,0,0,0-.95,1.21,15.37,15.37,0,0,0,.17,4c.1.84.24,1.87.44,3.1s.45,2.67.78,4.32.73,3.55,1.23,5.66,1.07,4.49,1.71,7.11c.79-1.9,1.43-3.55,1.94-5s.93-2.67,1.27-3.69.72-2.16,1-3,.6-2.11,1-3.54c.31-1.21.7-2.8,1.19-4.7s1.09-4.23,1.81-7c.88.33,1.32.49,2.2.8q.38,3.45.76,6.06c.26,1.74.49,3.23.66,4.44.2,1.39.37,2.63.56,3.64a32.7,32.7,0,0,0,.8,3.23c.3,1,.69,2.28,1.17,3.76s1.1,3.13,1.87,4.93q1-3.17,1.88-5.61c.56-1.63,1-3,1.45-4.28s.75-2.29,1-3.16.53-1.61.73-2.2A17.81,17.81,0,0,0,44,81.41a3.65,3.65,0,0,0-.59-1.72A9.84,9.84,0,0,0,42,77.9a15.06,15.06,0,0,0-2.74-2.19c2.5.58,4.55,1,6.13,1.29s2.86.5,3.81.64,1.49.23,2.48.37l2.24.31c.82.1,1.91.23,3.26.37s3.08.3,5.2.43A45.61,45.61,0,0,0,58,80.41a27.28,27.28,0,0,0-2.59,1,5.94,5.94,0,0,0-1.59.94A18.25,18.25,0,0,0,52.27,86c-.32.81-.67,1.82-1.06,3s-.84,2.68-1.37,4.4-1.11,3.74-1.76,6.08-1.38,5-2.18,8.1c-4.24-.33-6.36-.5-10.61-.88-1.92-5.82-2.88-8.82-4.8-15-.65,2.64-1.16,4.82-1.53,6.5s-.66,3-.85,3.93a21.31,21.31,0,0,0-.38,2.49c0,.45-.06.9-.1,1.33s-.08.75-.13,1.18-.12.82-.2,1.18H16.46c-1.11-4.1-2.09-7.84-3-11.15s-1.63-6.28-2.29-8.87S10,83.44,9.52,81.57s-.89-3.46-1.26-4.76a51.71,51.71,0,0,0-1.75-5.74c-.28-.41-.63-.9-1.07-1.5s-.8-1.09-1.33-1.84Z"/><path d="M55.85,89.69c4.55.38,6.83.53,11.4.75a34.62,34.62,0,0,0-1.42,4.11,23.23,23.23,0,0,0-.55,2.87,5.57,5.57,0,0,0,.53,4.07,12,12,0,0,0,1.13,1.86,10.9,10.9,0,0,0,2,2.09,14.15,14.15,0,0,0-1.6-.25c-.57-.06-1.11-.1-1.6-.13s-1.14,0-1.71,0-1.22,0-1.9.11l-2.09.18c-.82.07-1.67.17-2.57.3.6-1.23,1.06-2.29,1.4-3.18a21.61,21.61,0,0,0,.73-2.24,9.54,9.54,0,0,0,.29-1.7c0-.52,0-1.17,0-1.86l0-2c0-.65,0-1.23-.08-1.74a2,2,0,0,0-.26-1l-.63-.45-1.09-.66C57.28,90.51,56.64,90.14,55.85,89.69Zm4.31-6a5.48,5.48,0,0,1,2.64,0,5.13,5.13,0,0,1,2.09.9,1.25,1.25,0,0,1,.54,1.36c-.14.5-.81,1-2,1.37a5.92,5.92,0,0,1-3.16.28,3.3,3.3,0,0,1-1.93-1A1.43,1.43,0,0,1,58.13,85,2.87,2.87,0,0,1,60.16,83.71Z"/><path d="M70.23,83.19l3.15.31c.85.08,1.55.13,2.09.17s1.14,0,1.5.06.88,0,1.5,0l2.12-.1c.87,0,2-.12,3.31-.25a7.3,7.3,0,0,0-.69.7c-.17.2-.32.38-.44.54l-.37.48c-.09.16-.17.33-.25.48a2.28,2.28,0,0,0-.22.47,3.39,3.39,0,0,0-.16.59c3.83,0,5.75-.07,9.58-.24-.36,1.31-.54,2-.89,3.26-3.5,0-5.25,0-8.76-.14-.21,1.34-.35,2.38-.43,3.12s-.17,1.28-.25,1.62-.08.42-.13.71c-.12,1-.25,2.08-.37,3.25a22.94,22.94,0,0,0-.12,3.25,8.56,8.56,0,0,0,.42,2.51,1.32,1.32,0,0,0,1.29,1,4.62,4.62,0,0,0,1.72-.32,5.89,5.89,0,0,0,1.39-.75,3.76,3.76,0,0,0,.89-.9,1.39,1.39,0,0,0,.31-.69,1.17,1.17,0,0,0-.18-.56,8,8,0,0,0-1.1-1.49c1.19.18,2.24.35,3.14.52l1.23.31c.4.1.89.2,1.41.34s1,.28,1.72.45,1.51.39,2.45.65a5.34,5.34,0,0,0-2,.55,1.8,1.8,0,0,0-.56.36,13.2,13.2,0,0,0-1,1.19,6.34,6.34,0,0,1-1.67,1.46,11.54,11.54,0,0,1-3,1.28,20.25,20.25,0,0,1-5,.64,11.54,11.54,0,0,1-4.93-.71,6.39,6.39,0,0,1-2.46-1.84,4.59,4.59,0,0,1-.9-2.08c-.08-.69-.15-1.15-.19-1.39a13,13,0,0,1,0-1.78c0-.95.1-2,.17-3.14s.16-2.26.24-3.32.11-1.85.11-2.36c0-.26,0-.55.06-.82s0-.5,0-.78,0-.54,0-.81c-3.6-.08-5.4-.16-9-.36l-.4-2.31c3.63.28,5.45.38,9.08.53-.08-.29-.18-.56-.28-.82a6.37,6.37,0,0,0-.29-.62A2.1,2.1,0,0,0,72.8,85a6,6,0,0,0-.57-.46c-.19-.14-.48-.31-.81-.54S70.69,83.47,70.23,83.19Z"/><path d="M127.07,91.42c-.49,0-1.09,0-1.8.07s-1.4.12-2,.19-1.52.18-2.34.3l-2.58.35-2.49.35c-.92.12-1.81.25-2.67.38a4,4,0,0,0,.9-.55,8,8,0,0,0,.72-.68,4,4,0,0,0,.56-.8,1.88,1.88,0,0,0,0-1.59A3.49,3.49,0,0,0,114,87.86a6.07,6.07,0,0,0-2.38-1,7.25,7.25,0,0,0-3.18.15,17.66,17.66,0,0,0-3.32,1.19A7.74,7.74,0,0,0,102.68,90a6.31,6.31,0,0,0-1.39,2.56,9.54,9.54,0,0,0-.27,3.47A8.13,8.13,0,0,0,102.2,100a6.18,6.18,0,0,0,2.36,2.17,7.86,7.86,0,0,0,3.08.82,17,17,0,0,0,3.35-.07,5.82,5.82,0,0,0,2.16-.8,5.52,5.52,0,0,0,1.5-1.45,4.15,4.15,0,0,0,.66-2.57c3-.27,4.5-.41,7.49-.72a13.41,13.41,0,0,1-3.21,4.43,17.69,17.69,0,0,1-3.6,2.5,14.31,14.31,0,0,1-4.07,1.38,25.08,25.08,0,0,1-4.48.29,19.85,19.85,0,0,1-3.55-.35,21.8,21.8,0,0,1-2.93-.79c-.9-.32-1.75-.66-2.57-1a7.08,7.08,0,0,1-1.76-1.19,11.46,11.46,0,0,1-1.83-2A11.67,11.67,0,0,1,93.41,98a6.7,6.7,0,0,1-.4-3,7.08,7.08,0,0,1,1.14-3.14,12.19,12.19,0,0,1,3.2-3.18,22.1,22.1,0,0,1,7.08-3.43,29.4,29.4,0,0,1,7.09-1.16,19.92,19.92,0,0,1,5.89.58A7.48,7.48,0,0,1,121,86.53c.68.75,1.19,1.33,1.53,1.73l.78.9a2.37,2.37,0,0,0,.48.45c.14.09.37.2.63.36s.44.27.73.42l.84.45Z"/><path d="M126.21,72.65c.94-.11,1.79-.24,2.56-.4s1.43-.28,1.95-.4,1.15-.26,1.58-.39c.6-.18,1.33-.45,2.13-.76s1.53-.61,2.51-1,2.13-.91,3.42-1.52a19.46,19.46,0,0,0-1.52,1.3,8.36,8.36,0,0,0-1,1.1,8.67,8.67,0,0,0-.68,1.07,17.84,17.84,0,0,0-.7,2.94c-.25,1.24-.59,3.08-1,5.48s-.87,5.61-1.46,9.61a30.42,30.42,0,0,1,4.21-3.44,32.09,32.09,0,0,1,3.5-2.06A13.9,13.9,0,0,1,145,83a9.41,9.41,0,0,1,3.81.24,15.86,15.86,0,0,1,3.65,1.4,13.36,13.36,0,0,1,3,2.15,8.89,8.89,0,0,1,1.83,2.32,4.52,4.52,0,0,1,.36,2,17.57,17.57,0,0,1-.24,2.76,27.79,27.79,0,0,1-.67,3.07c-.28,1-.55,2-.82,2.91s-.5,1.69-.7,2.36a10.39,10.39,0,0,0-.37,1.43,4.11,4.11,0,0,0,.12,1.72,4.87,4.87,0,0,0,.73,1.52,4.12,4.12,0,0,0,1.65,1.35c-.58-.08-1.18-.15-1.81-.21s-1.24-.11-1.8-.14-1.31,0-2,0h-2.21c-.69,0-1.49,0-2.38,0l-2.94.09a4.63,4.63,0,0,0,1.47-.75,9.07,9.07,0,0,0,1-.92,6.15,6.15,0,0,0,.87-1.08,9.43,9.43,0,0,0,.62-1.73c.25-.86.49-1.85.7-3s.37-2.32.48-3.58a27.82,27.82,0,0,0,.09-3.62,11,11,0,0,0-.52-3,2.93,2.93,0,0,0-1.35-1.74,7.43,7.43,0,0,0-4.9-1,8.91,8.91,0,0,0-4.24,2.24c-.5.46-1,.9-1.42,1.34s-.86.85-1.36,1.37-.95,1-1.36,1.54q0,.75,0,1.65c0,.59.07,1.18.09,1.74s.1,1.28.16,1.89c.08.94.18,1.92.31,2.84s.26,1.68.45,2.63a15,15,0,0,0,.75,2.6,9.94,9.94,0,0,0-1.65-.07c-.57,0-1.14,0-1.65,0l-1.78.06c-.51,0-1.09.09-1.65.16s-1,.12-1.6.17-1.12.13-1.66.22a14.81,14.81,0,0,0,1.27-2.16c.34-.72.61-1.36.83-1.91A17.68,17.68,0,0,0,129,102a16.31,16.31,0,0,0,.32-2.78q.14-2.05.24-4.74c.08-1.78.13-3.68.17-5.67s0-3.89,0-5.68-.05-3.35-.12-4.67a16.31,16.31,0,0,0-.29-2.71,5.16,5.16,0,0,0-.64-1.37,4.14,4.14,0,0,0-.95-1.07A3.56,3.56,0,0,0,126.21,72.65Z"/><path class="cls-4" d="M50.44,105.81l-3.79-1.39c-.07-.52-.11-1-.13-1.56L45.58,104l-1.52-.56a5.79,5.79,0,0,1,.37-1.32l-1.55.85a2.93,2.93,0,0,1,.24-1.57l-1.87,1-40-14.58a1.84,1.84,0,0,1-1.1-2.35l3.54-9.72A1.83,1.83,0,0,1,6,74.71l4.59,1.67a9.66,9.66,0,0,1-.37,2.18,1.05,1.05,0,0,1,.39-.29l2.1-1.11.93.33a1.42,1.42,0,0,0,.28.82l.5-.5c-.22.21.05.58.34.64a3.16,3.16,0,0,1,.87.13,1.21,1.21,0,0,0,.22.84l1.58-.55,37.8,13.76A1.83,1.83,0,0,1,56.33,95l-3.54,9.72A1.84,1.84,0,0,1,50.44,105.81Z"/><path d="M5.18,85.15a1.8,1.8,0,0,1-.64-.37.92.92,0,0,1-.31-.58,1.62,1.62,0,0,1,.12-.83l1.77-4.86.85.31L5.24,83.55a1,1,0,0,0-.06.45.61.61,0,0,0,.17.29,1.51,1.51,0,0,0,.31.16l2.13.78L7.52,86Z"/><path d="M9.6,86.82a1.48,1.48,0,0,1-.85-.7,1.47,1.47,0,0,1,0-1.16l1.15-3.15.84.31L9.7,85a.87.87,0,0,0,0,.76,1.19,1.19,0,0,0,.59.42,2,2,0,0,0,.68.12,2.87,2.87,0,0,0,.7-.07l1.23-3.38.84.3-1.63,4.47-.67-.24v-.54a4.11,4.11,0,0,1-.89.1A2.77,2.77,0,0,1,9.6,86.82Z"/><path d="M14.89,88.74a2.53,2.53,0,0,1-.69-.37,1.5,1.5,0,0,1-.44-.56,1.69,1.69,0,0,1-.13-.84,4.4,4.4,0,0,1,.27-1.16,4.69,4.69,0,0,1,.54-1.1,1.81,1.81,0,0,1,.62-.57,1.33,1.33,0,0,1,.71-.14,2.47,2.47,0,0,1,.81.18,7.06,7.06,0,0,1,.73.3,6.8,6.8,0,0,1,.71.38l-.18.5-1.26-.46a1.69,1.69,0,0,0-.73-.12.87.87,0,0,0-.59.34,3.36,3.36,0,0,0-.52,1,3,3,0,0,0-.22,1.07.82.82,0,0,0,.24.63,1.59,1.59,0,0,0,.63.37l1.32.49-.17.47a3.79,3.79,0,0,1-.49-.08c-.18,0-.37-.08-.57-.14A5.8,5.8,0,0,1,14.89,88.74Z"/><path d="M17.34,89.58l2.32-6.38.84.3-1.32,3.62.61.22,1.87-1.26.87.32L20.27,88l.74,3-.88-.32-.64-2.5-.58-.22-.73,2Z"/><path d="M22.24,93.6l1.26-1.78a1.41,1.41,0,0,1-.46-.3,1.15,1.15,0,0,1-.31-.5,1.92,1.92,0,0,1-.07-.75l.22-3.74.88.32-.26,3.53a.93.93,0,0,0,.05.4.6.6,0,0,0,.13.24.48.48,0,0,0,.15.11l.09,0,2.42-3.39.86.32-3.59,5.07-.7.68Z"/><path d="M30.34,94.36a2.19,2.19,0,0,1-.9-.55,1.6,1.6,0,0,1-.38-.81,3.17,3.17,0,0,1,.05-1.09,10,10,0,0,1,.41-1.4,9.33,9.33,0,0,1,.59-1.32,3,3,0,0,1,.69-.86,1.53,1.53,0,0,1,.87-.35,2.55,2.55,0,0,1,1.13.19c.24.08.47.18.7.28a5.64,5.64,0,0,1,.65.33,6.36,6.36,0,0,1,.58.35l-.23.64-.45-.22-.65-.29L32.67,89a1.58,1.58,0,0,0-1-.09,1.3,1.3,0,0,0-.71.59,7.31,7.31,0,0,0-.62,1.35A9.1,9.1,0,0,0,30,92a2.26,2.26,0,0,0,0,.8,1,1,0,0,0,.28.53,1.66,1.66,0,0,0,.62.35,3.11,3.11,0,0,0,.8.19,6.9,6.9,0,0,0,.71,0l.6-1.63-1.37-.5.23-.64.41.1.5.15.52.17.43.17.34.15-1.21,3.33L32.19,95l0-.47a5.27,5.27,0,0,1-.84,0A3.45,3.45,0,0,1,30.34,94.36Z"/><path d="M34,95.65l1.63-4.48.64.24-.08.82a3.06,3.06,0,0,1,.84-.35A1.51,1.51,0,0,1,38,92a.72.72,0,0,1,.2.09l.18.1L38,93l-.24-.12-.25-.11a1.9,1.9,0,0,0-.53-.12,1.77,1.77,0,0,0-.51,0,3.51,3.51,0,0,0-.54.19l-1.11,3Z"/><path d="M39.24,97.61A2.78,2.78,0,0,1,38.18,97a1.28,1.28,0,0,1-.34-.92,4.45,4.45,0,0,1,.32-1.44,4.61,4.61,0,0,1,.69-1.33,1.22,1.22,0,0,1,.85-.48,2.86,2.86,0,0,1,1.2.21,3.33,3.33,0,0,1,1,.49,1,1,0,0,1,.4.67,2.1,2.1,0,0,1-.16,1,1.21,1.21,0,0,1-.4.59,1.06,1.06,0,0,1-.59.19,2.16,2.16,0,0,1-.74-.15l-1.48-.54a2.61,2.61,0,0,0-.17.81.76.76,0,0,0,.22.56,2.12,2.12,0,0,0,.75.42l1.4.51-.18.5-.77-.17C39.87,97.82,39.57,97.72,39.24,97.61Zm-.18-2.89,1.41.51a.91.91,0,0,0,.54.06.6.6,0,0,0,.33-.41,1.41,1.41,0,0,0,.1-.56.6.6,0,0,0-.22-.39,1.79,1.79,0,0,0-.54-.29,1.46,1.46,0,0,0-.7-.11.7.7,0,0,0-.49.32A3.49,3.49,0,0,0,39.06,94.72Z"/><path d="M43.76,99.25a2.7,2.7,0,0,1-1.06-.62,1.24,1.24,0,0,1-.34-.93,4.3,4.3,0,0,1,.32-1.44,4.39,4.39,0,0,1,.68-1.33,1.32,1.32,0,0,1,.85-.48,2.93,2.93,0,0,1,1.21.21,3.32,3.32,0,0,1,.95.5,1,1,0,0,1,.39.66,2.07,2.07,0,0,1-.15,1,1.24,1.24,0,0,1-.4.6,1,1,0,0,1-.59.18,2.22,2.22,0,0,1-.75-.15l-1.48-.54a3.07,3.07,0,0,0-.17.82.76.76,0,0,0,.23.55,2.12,2.12,0,0,0,.75.42l1.4.51-.19.5-.77-.17A7.64,7.64,0,0,1,43.76,99.25Zm-.18-2.89,1.41.52a.88.88,0,0,0,.54.05.63.63,0,0,0,.33-.4A1.24,1.24,0,0,0,46,96a.58.58,0,0,0-.21-.39,1.86,1.86,0,0,0-.55-.3,1.54,1.54,0,0,0-.69-.11.79.79,0,0,0-.5.32A3.52,3.52,0,0,0,43.58,96.36Z"/><path d="M46.53,100.2l1.63-4.47.66.24v.55a3.23,3.23,0,0,1,.86-.13,2.19,2.19,0,0,1,.92.14,1.46,1.46,0,0,1,.73.5,1.26,1.26,0,0,1,.23.73,2.1,2.1,0,0,1-.14.81l-1.09,3-.84-.31,1.06-2.9a1.15,1.15,0,0,0,.06-.51.88.88,0,0,0-.17-.41,1,1,0,0,0-.42-.27,2.25,2.25,0,0,0-.48-.12,2.36,2.36,0,0,0-.46,0,4.47,4.47,0,0,0-.47.07l-1.24,3.38Z"/><path class="cls-5" d="M13.17,98.32a3.07,3.07,0,0,1,.25.26A.36.36,0,0,1,13.17,98.32Z"/><path class="cls-5" d="M17.2,91.36c-.05.29-.11.58-.16.87L14,94.82a1.45,1.45,0,0,1-.7-.82c0,.49,0,1-.05,1.46l-1.74,1.45c-.6-.43-1.23-.82-1.86-1.26a11.79,11.79,0,0,0,1.25-1.38C12.35,92.41,14.83,91.65,17.2,91.36Z"/></g></g></svg>