<?xml version="1.0" encoding="utf-8"?>
<!-- Generator: Adobe Illustrator 26.0.1, SVG Export Plug-In . SVG Version: 6.00 Build 0)  -->
<svg version="1.1" id="Layer_1" xmlns="http://www.w3.org/2000/svg" xmlns:xlink="http://www.w3.org/1999/xlink" x="0px" y="0px"
	 viewBox="0 0 260 395" style="enable-background:new 0 0 260 395;" xml:space="preserve">
<style type="text/css">
	.st0{fill:#AF49FF;}
	.st1{fill:#4A3D9B;}
	.st2{fill:#72CD21;stroke:#000000;stroke-miterlimit:10;}
	.st3{fill:#72CD21;}
	.st4{fill:none;}
	.st5{fill:none;stroke:#FFFFFF;stroke-miterlimit:10;}
	.st6{fill:#AF49FF;stroke:#000000;stroke-miterlimit:10;}
</style>
<rect x="-2.1" width="265.3" height="110.8"/>
<g>
	<g>
		<path class="st0" d="M53.7-99.6c1.3,0.7,2.5,1.3,3.5,1.8c1,0.5,1.9,0.9,2.7,1.3c0.9,0.4,1.7,0.8,2.3,1c0.7,0.3,1.6,0.6,2.7,0.9
			c1,0.3,2.2,0.6,3.7,1c1.5,0.4,3.3,0.8,5.5,1.3c-1,0.2-1.9,0.5-2.5,0.8c-0.7,0.3-1.2,0.7-1.5,1c-0.4,0.4-0.8,0.8-0.9,1.2
			c-0.2,0.5-0.1,2,0.2,4c0.1,0.8,0.2,1.9,0.4,3.1c0.2,1.2,0.5,2.7,0.8,4.3c0.3,1.7,0.7,3.5,1.2,5.7c0.5,2.1,1.1,4.5,1.7,7.1
			c0.8-1.9,1.4-3.6,1.9-5c0.5-1.4,0.9-2.7,1.3-3.7c0.4-1.1,0.7-2.2,1-3c0.3-0.9,0.6-2.1,1-3.5c0.3-1.2,0.7-2.8,1.2-4.7
			c0.5-1.9,1.1-4.2,1.8-7c0.9,0.3,1.3,0.5,2.2,0.8c0.2,2.3,0.5,4.3,0.8,6.1c0.3,1.7,0.5,3.2,0.7,4.4c0.2,1.4,0.4,2.6,0.6,3.6
			c0.2,0.9,0.4,2,0.8,3.2c0.3,1,0.7,2.3,1.2,3.8c0.5,1.5,1.1,3.1,1.9,4.9c0.7-2.1,1.3-4,1.9-5.6c0.6-1.6,1-3.1,1.4-4.3
			c0.4-1.2,0.8-2.3,1-3.2c0.3-0.9,0.5-1.6,0.7-2.2c0.4-1.4,0.7-2.4,0.7-2.8c0-0.5-0.2-1.1-0.6-1.7c-0.3-0.5-0.8-1.1-1.4-1.8
			c-0.6-0.7-1.5-1.4-2.7-2.2c2.5,0.6,4.5,1,6.1,1.3c1.6,0.3,2.9,0.5,3.8,0.6c1,0.2,1.5,0.2,2.5,0.4c0.9,0.1,1.3,0.2,2.2,0.3
			c0.8,0.1,1.9,0.2,3.3,0.4c1.3,0.1,3.1,0.3,5.2,0.4c-1.8,0.5-3.3,0.9-4.4,1.3c-1.1,0.4-2,0.7-2.6,1c-0.7,0.4-1.4,0.7-1.6,0.9
			c-0.3,0.4-0.8,1.7-1.5,3.6c-0.3,0.8-0.7,1.8-1.1,3c-0.4,1.2-0.8,2.7-1.4,4.4c-0.5,1.7-1.1,3.7-1.8,6.1c-0.7,2.3-1.4,5-2.2,8.1
			c-4.2-0.3-6.4-0.5-10.6-0.9c-1.9-5.8-2.9-8.8-4.8-15c-0.6,2.6-1.2,4.8-1.5,6.5c-0.4,1.7-0.7,3-0.8,3.9c-0.2,1.1-0.3,2-0.4,2.5
			c0,0.5-0.1,0.9-0.1,1.3c0,0.4-0.1,0.8-0.1,1.2c-0.1,0.4-0.1,0.8-0.2,1.2c-4.3,0-6.5,0-10.8,0c-1.1-4.1-2.1-7.8-3-11.1
			c-0.9-3.3-1.6-6.3-2.3-8.9c-0.7-2.6-1.2-4.8-1.7-6.7c-0.5-1.9-0.9-3.5-1.3-4.8c-0.8-3-1.4-5-1.8-5.7c-0.3-0.4-0.6-0.9-1.1-1.5
			c-0.4-0.5-0.8-1.1-1.3-1.8S54.5-98.7,53.7-99.6z"/>
		<path class="st0" d="M107.3-75.1c4.6,0.4,6.8,0.5,11.4,0.7c-0.6,1.6-1.1,3-1.4,4.1c-0.3,1.1-0.5,2.1-0.6,2.9
			c-0.1,0.9-0.2,1.7-0.1,2.2c0.1,0.5,0.3,1.2,0.6,1.8c0.2,0.5,0.6,1.2,1.1,1.9c0.5,0.7,1.2,1.4,2,2.1c-0.5-0.1-1-0.2-1.6-0.3
			c-0.6-0.1-1.1-0.1-1.6-0.1c-0.6,0-1.1,0-1.7,0c-0.6,0-1.2,0.1-1.9,0.1c-0.6,0-1.3,0.1-2.1,0.2c-0.8,0.1-1.7,0.2-2.6,0.3
			c0.6-1.2,1.1-2.3,1.4-3.2c0.3-0.9,0.6-1.6,0.7-2.2c0.2-0.7,0.3-1.3,0.3-1.7c0-0.5,0-1.2,0-1.9c0-0.7,0-1.4,0-2
			c0-0.7,0-1.2-0.1-1.7c0-0.5-0.1-0.8-0.3-1c-0.2-0.2-0.4-0.3-0.6-0.4c-0.2-0.2-0.6-0.4-1.1-0.7C108.8-74.3,108.1-74.6,107.3-75.1z
			 M111.7-81.1c0.9-0.2,1.7-0.2,2.6,0c0.9,0.2,1.6,0.5,2.1,0.9c0.5,0.4,0.7,0.9,0.5,1.4c-0.1,0.5-0.8,1-2,1.4
			c-1.2,0.4-2.2,0.5-3.2,0.3c-0.9-0.2-1.6-0.5-1.9-1c-0.4-0.5-0.4-1-0.2-1.6C109.9-80.3,110.5-80.8,111.7-81.1z"/>
		<path class="st0" d="M121.7-81.6c1.2,0.1,2.3,0.2,3.2,0.3c0.9,0.1,1.6,0.1,2.1,0.2c0.6,0,1.1,0,1.5,0.1c0.4,0,0.9,0,1.5,0
			c0.5,0,1.2-0.1,2.1-0.1c0.9,0,2-0.1,3.3-0.2c-0.3,0.3-0.5,0.5-0.7,0.7c-0.2,0.2-0.3,0.4-0.4,0.5c-0.1,0.2-0.2,0.3-0.4,0.5
			c-0.1,0.2-0.2,0.3-0.3,0.5c-0.1,0.1-0.2,0.3-0.2,0.5c-0.1,0.2-0.1,0.4-0.2,0.6c3.8,0,5.8-0.1,9.6-0.2c-0.4,1.3-0.5,2-0.9,3.3
			c-3.5,0-5.2,0-8.8-0.1c-0.2,1.3-0.4,2.4-0.4,3.1c-0.1,0.7-0.2,1.3-0.2,1.6c0,0.3-0.1,0.4-0.1,0.7c-0.1,1-0.2,2.1-0.4,3.3
			c-0.1,1.2-0.2,2.3-0.1,3.3c0,1,0.2,1.8,0.4,2.5c0.2,0.7,0.7,1,1.3,1s1.2-0.1,1.7-0.3c0.5-0.2,1-0.5,1.4-0.8
			c0.4-0.3,0.7-0.6,0.9-0.9c0.2-0.3,0.3-0.5,0.3-0.7c0-0.2-0.1-0.3-0.2-0.6c-0.2-0.4-0.6-0.9-1.1-1.5c1.2,0.2,2.2,0.4,3.1,0.5
			c0.5,0.1,0.9,0.2,1.2,0.3c0.4,0.1,0.9,0.2,1.4,0.3c0.4,0.1,1,0.3,1.7,0.5c0.7,0.2,1.5,0.4,2.5,0.6c-0.9,0.1-1.6,0.3-2,0.5
			c-0.2,0.1-0.4,0.2-0.6,0.4c-0.3,0.3-0.6,0.7-1,1.2c-0.4,0.5-0.9,1-1.7,1.5c-0.7,0.5-1.7,0.9-3,1.3c-1.2,0.4-2.9,0.6-5,0.6
			c-2.2,0.1-3.8-0.2-4.9-0.7c-1.1-0.5-1.9-1.1-2.5-1.8c-0.5-0.7-0.8-1.4-0.9-2.1c-0.1-0.7-0.1-1.1-0.2-1.4c0-0.2,0-0.8,0-1.8
			c0-0.9,0.1-2,0.2-3.1c0.1-1.1,0.2-2.3,0.2-3.3c0.1-1.1,0.1-1.8,0.1-2.4c0-0.3,0-0.6,0.1-0.8c0-0.2,0-0.5,0-0.8c0-0.3,0-0.5,0-0.8
			c-3.6-0.1-5.4-0.2-9-0.4c-0.2-0.9-0.2-1.4-0.4-2.3c3.6,0.3,5.4,0.4,9.1,0.5c-0.1-0.3-0.2-0.6-0.3-0.8c-0.1-0.3-0.2-0.5-0.3-0.6
			c-0.1-0.2-0.3-0.4-0.4-0.5c-0.1-0.1-0.4-0.3-0.6-0.5c-0.2-0.1-0.5-0.3-0.8-0.5C122.6-81.1,122.2-81.3,121.7-81.6z"/>
		<path class="st0" d="M178.6-73.4c-0.5,0-1.1,0-1.8,0.1c-0.7,0.1-1.4,0.1-2.1,0.2c-0.7,0.1-1.5,0.2-2.3,0.3
			c-0.9,0.1-1.7,0.2-2.6,0.4c-0.7,0.1-1.6,0.2-2.5,0.3c-0.9,0.1-1.8,0.3-2.7,0.4c0.3-0.1,0.6-0.3,0.9-0.6c0.3-0.2,0.5-0.5,0.7-0.7
			c0.2-0.2,0.4-0.5,0.6-0.8c0.2-0.4,0.2-1,0-1.6c-0.2-0.6-0.7-1.1-1.3-1.6c-0.6-0.4-1.4-0.8-2.4-1c-1-0.2-2-0.1-3.2,0.1
			c-1.2,0.3-2.3,0.7-3.3,1.2c-1,0.5-1.8,1.1-2.4,1.8c-0.6,0.7-1.1,1.6-1.4,2.6c-0.3,1-0.4,2.1-0.3,3.5c0.1,1.7,0.5,3,1.2,3.9
			c0.6,1,1.4,1.7,2.4,2.2c0.9,0.5,2,0.8,3.1,0.8c1.1,0.1,2.3,0.1,3.3-0.1c0.8-0.1,1.5-0.4,2.2-0.8c0.5-0.3,1-0.8,1.5-1.5
			c0.5-0.6,0.7-1.5,0.7-2.6c3-0.3,4.5-0.4,7.5-0.7c-0.9,1.9-2,3.3-3.2,4.4c-1.2,1.1-2.4,1.9-3.6,2.5c-1.4,0.7-2.7,1.2-4.1,1.4
			c-1.6,0.3-3.2,0.3-4.5,0.3c-1.3,0-2.5-0.1-3.5-0.4c-1.1-0.2-2-0.5-2.9-0.8c-0.9-0.3-1.8-0.7-2.6-1c-0.5-0.2-1.1-0.6-1.8-1.2
			c-0.6-0.6-1.3-1.2-1.8-2c-0.6-0.8-1-1.6-1.4-2.6s-0.5-1.9-0.4-3c0.1-1,0.5-2.1,1.1-3.1s1.7-2.1,3.2-3.2c2.2-1.6,4.6-2.7,7.1-3.4
			c2.5-0.7,4.9-1.1,7.1-1.2c2.2-0.1,4.2,0.1,5.9,0.6c1.7,0.5,2.9,1.1,3.6,1.8c0.7,0.7,1.2,1.3,1.5,1.7c0.3,0.4,0.6,0.7,0.8,0.9
			c0.2,0.2,0.3,0.4,0.5,0.4c0.1,0.1,0.4,0.2,0.6,0.4c0.2,0.1,0.4,0.3,0.7,0.4c0.2,0.1,0.5,0.3,0.8,0.5
			C177.8-73.8,178.2-73.6,178.6-73.4z"/>
		<path class="st0" d="M177.7-92.1c0.9-0.1,1.8-0.2,2.6-0.4c0.8-0.2,1.4-0.3,1.9-0.4c0.6-0.1,1.1-0.3,1.6-0.4
			c0.6-0.2,1.3-0.5,2.1-0.8c0.7-0.3,1.5-0.6,2.5-1c1-0.4,2.1-0.9,3.4-1.5c-0.6,0.5-1.1,0.9-1.5,1.3c-0.4,0.4-0.7,0.8-1,1.1
			c-0.3,0.4-0.5,0.8-0.7,1.1c-0.2,0.5-0.4,1.5-0.7,2.9c-0.2,1.2-0.6,3.1-1,5.5c-0.4,2.4-0.9,5.6-1.5,9.6c1.5-1.4,2.9-2.6,4.2-3.4
			c1.3-0.9,2.5-1.6,3.5-2.1c1.2-0.6,2.3-1,3.3-1.2c1.2-0.2,2.5-0.1,3.8,0.2c1.3,0.3,2.5,0.8,3.7,1.4c1.1,0.6,2.1,1.3,3,2.2
			c0.9,0.8,1.5,1.6,1.8,2.3c0.2,0.5,0.4,1.2,0.4,2c0,0.8-0.1,1.8-0.2,2.8c-0.2,1-0.4,2-0.7,3.1c-0.3,1-0.6,2-0.8,2.9
			c-0.3,0.9-0.5,1.7-0.7,2.4c-0.2,0.7-0.3,1.1-0.4,1.4c-0.1,0.6,0,1.2,0.1,1.7c0.1,0.5,0.4,1,0.7,1.5c0.4,0.5,0.9,1,1.7,1.4
			c-0.6-0.1-1.2-0.2-1.8-0.2c-0.6-0.1-1.2-0.1-1.8-0.1c-0.6,0-1.3-0.1-2-0.1c-0.9,0-1.3,0-2.2,0c-0.7,0-1.5,0-2.4,0
			c-0.9,0-1.9,0.1-2.9,0.1c0.6-0.2,1.1-0.4,1.5-0.7c0.4-0.3,0.8-0.6,1-0.9c0.3-0.3,0.6-0.7,0.9-1.1c0.2-0.3,0.4-0.9,0.6-1.7
			c0.3-0.9,0.5-1.8,0.7-3s0.4-2.3,0.5-3.6c0.1-1.3,0.1-2.5,0.1-3.6c-0.1-1.1-0.2-2.2-0.5-3c-0.3-0.9-0.7-1.4-1.3-1.7
			c-1.8-0.9-3.4-1.2-4.9-1c-1.5,0.3-2.9,1-4.2,2.2c-0.5,0.5-1,0.9-1.4,1.3c-0.4,0.4-0.9,0.9-1.4,1.4c-0.5,0.5-1,1-1.4,1.5
			c0,0.5,0,1,0,1.6c0,0.6,0.1,1.2,0.1,1.7c0,0.6,0.1,1.3,0.2,1.9c0.1,0.9,0.2,1.9,0.3,2.8c0.1,0.8,0.3,1.7,0.4,2.6
			c0.2,1,0.4,1.8,0.8,2.6c-0.5-0.1-1.1-0.1-1.7-0.1c-0.6,0-1.1,0-1.7,0c-0.6,0-1.2,0-1.8,0.1c-0.5,0-1.1,0.1-1.7,0.2
			c-0.5,0.1-1,0.1-1.6,0.2c-0.6,0.1-1.1,0.1-1.7,0.2c0.5-0.7,0.9-1.4,1.3-2.2c0.3-0.7,0.6-1.4,0.8-1.9c0.3-0.6,0.5-1.3,0.6-1.9
			c0.1-0.5,0.2-1.4,0.3-2.8c0.1-1.4,0.2-2.9,0.2-4.7c0.1-1.8,0.1-3.7,0.2-5.7s0.1-3.9,0-5.7c0-1.8,0-3.4-0.1-4.7
			c-0.1-1.3-0.2-2.3-0.3-2.7c-0.1-0.5-0.4-0.9-0.6-1.4c-0.2-0.4-0.6-0.7-1-1.1C178.8-91.8,178.3-92,177.7-92.1z"/>
	</g>
</g>
<g>
	<g>
		<path d="M140,209.3c-5.9,0-10.2-0.8-12.9-1.5c-1.2-0.3-2.2-0.6-2.9-0.9c-1.9,0.1-6.5,0.4-11.8,0.4c-8,0-14.2-0.6-18.5-1.8
			c-5-1.4-8.8-3.1-11.2-5.1l-0.2-0.1l0,0c-2.7-2.3-3.2-4.7-3.1-6.3c0.1-2.4,1.4-4.7,3.9-6.6c5.3-4,13.4-5.2,20.4-6
			c0.2-0.3,0.4-0.6,0.6-0.8c0.4-0.6,0.9-1.3,1-1.7c0.2-1.5,0.5-4.8,3.1-6.4c0.9-4.1,3.7-11.2,4.8-14.9c-10.5-0.2-17.6-3-20.9-6.5
			c-1.5-1.5-0.3-3.4,1.5-4.6c1.8-1.2,3.8-1.7,7.4-2.5l0.2,0c2.8-0.6,5.9-1.3,10.1-2.4c5.2-1.4,7.2-3,8.9-4.4c1.7-1.3,3.6-2.8,7-3.1
			c1.1-0.1,2-0.2,2.9-0.3c1-0.1,2-0.3,2.9-0.3c2.9,0,5,1.2,6.8,3.7l0.5,0.8c2.6,3.6,7.4,10.4,9.8,15.8c0.6,1.4,1.4,3.5,2.1,6.1
			l0.2,0.5v0c1,3.7,2.1,8.3,2.6,11.7c3,1.5,3.3,5.1,3.5,6.7c0,0.1,0.1,0.3,0.2,0.4c3.1,0.3,7.1,0.6,10.4,0.6c3.7,0,5-0.4,5.3-0.5
			c1.3-0.5,2.6-0.7,3.8-0.7c2.8,0,4.9,1.4,5.9,3.6c1.3,3.4-0.6,7.6-5.7,12.4c-8.5,8-19.4,11.3-19.8,11.5l-6.1,2l-0.3,0
			C148.1,208.9,143.9,209.3,140,209.3z"/>
		<polygon id="XMLID_387_" points="152.9,205.4 159.2,203.3 150.8,194.4 146.3,196.7 		"/>
		<path id="XMLID_521_" class="st0" d="M178.5,192.2c-8.3,7.9-19.3,11.1-19.3,11.1l-8.2-4.7l1.9,6.8c-12.2,2.1-20.6,0.8-24.9-0.3
			c-2.2-0.6-3.4-1.1-3.4-1.1s-20.9,1.7-31.5-1.3c-4.6-1.3-8.2-2.9-10.3-4.6c0,0,0,0,0,0c-2.7-2.2-2.9-4.8,0.5-7.3
			c6-4.5,17.3-5.2,25.1-6.2l20.3-1l25.9-1.2c0,0,18.5,2.4,23.9,0.5C183.8,180.9,186.8,184.3,178.5,192.2z"/>
		<path id="XMLID_495_" d="M124.6,203.9c0,0-20.9,1.7-31.5-1.3c-4.6-1.3-8.2-2.9-10.3-4.6c0,0,0,0,0,0c-0.4-0.4-3.4-4,5-5.6
			C96.7,190.7,109.9,198.6,124.6,203.9z"/>
		<path id="XMLID_508_" class="st0" d="M152.9,175.7c0,0.1-0.1,0.2-0.1,0.2c-18.7,12-42.2,0-42.2,0c0.6-4.4,2.6-11.6,4.2-16.5
			c1-3.1,1.7-5.4,1.7-5.4c-18.5-0.3-24.4-4.9-22.4-6.4c1.2-0.8,3-1.2,6.6-2c2.6-0.6,6-1.3,10.8-2.6c11.3-3,10.7-7.3,16-7.7
			c5.3-0.3,7.4-1.8,9.8,1.6c2.4,3.4,8,11,10.5,16.8c0.7,1.5,1.4,3.6,2,5.9v0C151.7,166,153.3,174.1,152.9,175.7z"/>
		<path id="XMLID_502_" d="M132.2,151.3c-0.1,0.3-2.7,5.1-17.4,8.1c1-3.1,1.7-5.4,1.7-5.4S125.5,154.5,132.2,151.3z"/>
		<path id="XMLID_496_" d="M149.8,159.6L149.8,159.6c-2,2.9-10.7,4.6-7,1.9s5-7.8,5-7.8L149.8,159.6z"/>
		<path id="XMLID_510_" class="st1" d="M159.2,185.7c-0.6,1.9-9.8,6.5-27,6.5c-17.2,0-26.4-4.6-27-6.5c-0.6-1.9,2.6-3.8,2.9-6.8
			c0.3-3,0.8-4.5,4.1-4c3.4,0.5,7.1,3,20,3c12.9,0,16.7-2.6,20-3c3.4-0.5,3.8,1,4.1,4c0.1,1.2,0.7,2.2,1.3,3.1
			C158.6,183.4,159.6,184.5,159.2,185.7z"/>
		<path id="XMLID_504_" d="M159.2,185.7c-0.6,1.9-9.8,6.5-27,6.5c-17.2,0-26.4-4.6-27-6.5c-0.6-1.9,2.6-3.8,2.9-6.8
			c0.3-3,0.8-4.5,4.1-4c0,0-2.5,1-1.4,4.6c1.1,3.6,7.1,8.9,24.7,9.4c17.6,0.5,23.6-3.7,22.2-6.8
			C158.6,183.4,159.6,184.5,159.2,185.7z"/>
		<g>
			<path d="M154.6,182.4c1-1.6,1.3-3.4,0.7-5.2c-0.8-2.9-3.7-5-6.8-5c-0.7,0-1.5,0.1-2.4,0.4c0.3-1.5,0.2-3-0.5-4.4
				c-1.2-2.7-3.9-4.5-6.8-4.5c-1.5,0-2.9,0.5-4.1,1.5c-1.1-0.6-2.2-1-3.4-1c-2.6,0-5,1.6-6.2,4.1c-0.8,1.7-0.8,3.6-0.2,5.4
				c-0.6-0.1-1.1-0.2-1.5-0.2c-3.5,0-6.7,2.6-7.3,6.1c-0.4,2,0.1,3.8,1.3,5.3c-1,1.6-1.3,3.4-0.7,5.2c0.8,2.9,3.7,5,6.8,5
				c0,0,0,0,0,0c0.7,0,1.5-0.1,2.5-0.4c-0.3,1.5-0.2,3.1,0.5,4.5c1.2,2.7,3.9,4.5,6.8,4.5c0,0,0,0,0,0c1.5,0,3-0.5,4.1-1.5
				c1,0.6,2.2,1,3.4,1c2.6,0,5-1.6,6.2-4.1c0.8-1.7,0.8-3.6,0.2-5.4c0.6,0.1,1.1,0.2,1.5,0.2c0,0,0,0,0,0c3.5,0,6.7-2.6,7.3-6.2
				C156.3,185.7,155.8,183.8,154.6,182.4z"/>
		</g>
		<g>
			<path class="st2" d="M120.3,184.4c-6.5,4,0.2,12.6,7.2,6.3c4.8-4.3,8.5-7.2,8.5-7.2s-5-2.2-9.3-6.2
				C119.8,170.9,113,181.6,120.3,184.4z"/>
			<path class="st2" d="M135,167.8c-4-6.4-12.6,0.2-6.3,7.2c4.3,4.8,7.3,8.5,7.3,8.5s2.2-5,6.2-9.3
				C148.5,167.2,137.8,160.5,135,167.8z"/>
			<path class="st2" d="M151.7,182.5c6.4-4-0.2-12.6-7.3-6.3c-4.7,4.3-8.4,7.3-8.4,7.3s5,2.2,9.3,6.1
				C152.2,195.9,158.9,185.2,151.7,182.5z"/>
			<path class="st2" d="M137,199.1c4.1,6.4,12.6-0.2,6.3-7.3c-4.3-4.7-7.3-8.4-7.3-8.4s-2.2,5-6.1,9.3
				C123.6,199.7,134.3,206.4,137,199.1z"/>
		</g>
	</g>
	<g>
		<g>
			<path class="st0" d="M53.7,198.6c1.3,0.7,2.5,1.3,3.5,1.8c1,0.5,1.9,0.9,2.7,1.3c0.9,0.4,1.7,0.8,2.3,1c0.7,0.3,1.6,0.6,2.7,0.9
				c1,0.3,2.2,0.6,3.7,1c1.5,0.4,3.3,0.8,5.5,1.3c-1,0.2-1.9,0.5-2.5,0.8c-0.7,0.3-1.2,0.7-1.5,1c-0.4,0.4-0.8,0.8-0.9,1.2
				c-0.2,0.5-0.1,2,0.2,4c0.1,0.8,0.2,1.9,0.4,3.1c0.2,1.2,0.5,2.7,0.8,4.3c0.3,1.7,0.7,3.5,1.2,5.7c0.5,2.1,1.1,4.5,1.7,7.1
				c0.8-1.9,1.4-3.6,1.9-5c0.5-1.4,0.9-2.7,1.3-3.7c0.4-1.1,0.7-2.2,1-3c0.3-0.9,0.6-2.1,1-3.5c0.3-1.2,0.7-2.8,1.2-4.7
				c0.5-1.9,1.1-4.2,1.8-7c0.9,0.3,1.3,0.5,2.2,0.8c0.2,2.3,0.5,4.3,0.8,6.1c0.3,1.7,0.5,3.2,0.7,4.4c0.2,1.4,0.4,2.6,0.6,3.6
				c0.2,0.9,0.4,2,0.8,3.2c0.3,1,0.7,2.3,1.2,3.8c0.5,1.5,1.1,3.1,1.9,4.9c0.7-2.1,1.3-4,1.9-5.6c0.6-1.6,1-3.1,1.4-4.3
				c0.4-1.2,0.8-2.3,1-3.2c0.3-0.9,0.5-1.6,0.7-2.2c0.4-1.4,0.7-2.4,0.7-2.8c0-0.5-0.2-1.1-0.6-1.7c-0.3-0.5-0.8-1.1-1.4-1.8
				c-0.6-0.7-1.5-1.4-2.7-2.2c2.5,0.6,4.5,1,6.1,1.3c1.6,0.3,2.9,0.5,3.8,0.6c1,0.2,1.5,0.2,2.5,0.4c0.9,0.1,1.3,0.2,2.2,0.3
				c0.8,0.1,1.9,0.2,3.3,0.4c1.3,0.1,3.1,0.3,5.2,0.4c-1.8,0.5-3.3,0.9-4.4,1.3c-1.1,0.4-2,0.7-2.6,1c-0.7,0.4-1.4,0.7-1.6,0.9
				c-0.3,0.4-0.8,1.7-1.5,3.6c-0.3,0.8-0.7,1.8-1.1,3c-0.4,1.2-0.8,2.7-1.4,4.4c-0.5,1.7-1.1,3.7-1.8,6.1c-0.7,2.3-1.4,5-2.2,8.1
				c-4.2-0.3-6.4-0.5-10.6-0.9c-1.9-5.8-2.9-8.8-4.8-15c-0.6,2.6-1.2,4.8-1.5,6.5c-0.4,1.7-0.7,3-0.8,3.9c-0.2,1.1-0.3,2-0.4,2.5
				c0,0.5-0.1,0.9-0.1,1.3c0,0.4-0.1,0.8-0.1,1.2c-0.1,0.4-0.1,0.8-0.2,1.2c-4.3,0-6.5,0-10.8,0c-1.1-4.1-2.1-7.8-3-11.1
				c-0.9-3.3-1.6-6.3-2.3-8.9c-0.7-2.6-1.2-4.8-1.7-6.7c-0.5-1.9-0.9-3.5-1.3-4.8c-0.8-3-1.4-5-1.8-5.7c-0.3-0.4-0.6-0.9-1.1-1.5
				c-0.4-0.5-0.8-1.1-1.3-1.8C55.1,200.4,54.5,199.5,53.7,198.6z"/>
			<path class="st0" d="M107.3,223.1c4.6,0.4,6.8,0.5,11.4,0.7c-0.6,1.6-1.1,3-1.4,4.1c-0.3,1.1-0.5,2.1-0.6,2.9
				c-0.1,0.9-0.2,1.7-0.1,2.2c0.1,0.5,0.3,1.2,0.6,1.8c0.2,0.5,0.6,1.2,1.1,1.9c0.5,0.7,1.2,1.4,2,2.1c-0.5-0.1-1-0.2-1.6-0.3
				c-0.6-0.1-1.1-0.1-1.6-0.1c-0.6,0-1.1,0-1.7,0c-0.6,0-1.2,0.1-1.9,0.1c-0.6,0-1.3,0.1-2.1,0.2c-0.8,0.1-1.7,0.2-2.6,0.3
				c0.6-1.2,1.1-2.3,1.4-3.2c0.3-0.9,0.6-1.6,0.7-2.2c0.2-0.7,0.3-1.3,0.3-1.7c0-0.5,0-1.2,0-1.9c0-0.7,0-1.4,0-2
				c0-0.7,0-1.2-0.1-1.7c0-0.5-0.1-0.8-0.3-1c-0.2-0.2-0.4-0.3-0.6-0.4c-0.2-0.2-0.6-0.4-1.1-0.7
				C108.8,223.9,108.1,223.6,107.3,223.1z M111.6,217.1c0.9-0.2,1.7-0.2,2.6,0c0.9,0.2,1.6,0.5,2.1,0.9c0.5,0.4,0.7,0.9,0.5,1.4
				c-0.1,0.5-0.8,1-2,1.4c-1.2,0.4-2.2,0.5-3.2,0.3c-0.9-0.2-1.6-0.5-1.9-1c-0.4-0.5-0.4-1-0.2-1.6
				C109.9,217.9,110.5,217.4,111.6,217.1z"/>
			<path class="st0" d="M121.7,216.6c1.2,0.1,2.3,0.2,3.2,0.3c0.9,0.1,1.6,0.1,2.1,0.2c0.6,0,1.1,0,1.5,0.1c0.4,0,0.9,0,1.5,0
				c0.5,0,1.2-0.1,2.1-0.1c0.9,0,2-0.1,3.3-0.2c-0.3,0.3-0.5,0.5-0.7,0.7c-0.2,0.2-0.3,0.4-0.4,0.5c-0.1,0.2-0.2,0.3-0.4,0.5
				c-0.1,0.2-0.2,0.3-0.3,0.5c-0.1,0.1-0.2,0.3-0.2,0.5c-0.1,0.2-0.1,0.4-0.2,0.6c3.8,0,5.8-0.1,9.6-0.2c-0.4,1.3-0.5,2-0.9,3.3
				c-3.5,0-5.2,0-8.8-0.1c-0.2,1.3-0.4,2.4-0.4,3.1c-0.1,0.7-0.2,1.3-0.2,1.6c0,0.3-0.1,0.4-0.1,0.7c-0.1,1-0.2,2.1-0.4,3.3
				c-0.1,1.2-0.2,2.3-0.1,3.3c0,1,0.2,1.8,0.4,2.5c0.2,0.7,0.7,1,1.3,1c0.6,0,1.2-0.1,1.7-0.3c0.5-0.2,1-0.5,1.4-0.8
				c0.4-0.3,0.7-0.6,0.9-0.9c0.2-0.3,0.3-0.5,0.3-0.7c0-0.2-0.1-0.3-0.2-0.6c-0.2-0.4-0.6-0.9-1.1-1.5c1.2,0.2,2.2,0.4,3.1,0.5
				c0.5,0.1,0.9,0.2,1.2,0.3c0.4,0.1,0.9,0.2,1.4,0.3c0.4,0.1,1,0.3,1.7,0.5c0.7,0.2,1.5,0.4,2.5,0.6c-0.9,0.1-1.6,0.3-2,0.5
				c-0.2,0.1-0.4,0.2-0.6,0.4c-0.3,0.3-0.6,0.7-1,1.2c-0.4,0.5-0.9,1-1.7,1.5c-0.7,0.5-1.7,0.9-3,1.3c-1.2,0.4-2.9,0.6-5,0.6
				c-2.2,0.1-3.8-0.2-4.9-0.7c-1.1-0.5-1.9-1.1-2.5-1.8c-0.5-0.7-0.8-1.4-0.9-2.1c-0.1-0.7-0.1-1.1-0.2-1.4c0-0.2,0-0.8,0-1.8
				c0-0.9,0.1-2,0.2-3.1c0.1-1.1,0.2-2.3,0.2-3.3c0.1-1.1,0.1-1.8,0.1-2.4c0-0.3,0-0.6,0.1-0.8c0-0.2,0-0.5,0-0.8c0-0.3,0-0.5,0-0.8
				c-3.6-0.1-5.4-0.2-9-0.4c-0.2-0.9-0.2-1.4-0.4-2.3c3.6,0.3,5.4,0.4,9.1,0.5c-0.1-0.3-0.2-0.6-0.3-0.8c-0.1-0.3-0.2-0.5-0.3-0.6
				c-0.1-0.2-0.3-0.4-0.4-0.5c-0.1-0.1-0.4-0.3-0.6-0.5c-0.2-0.1-0.5-0.3-0.8-0.5C122.6,217.1,122.2,216.9,121.7,216.6z"/>
			<path class="st0" d="M178.6,224.8c-0.5,0-1.1,0-1.8,0.1c-0.7,0.1-1.4,0.1-2.1,0.2c-0.7,0.1-1.5,0.2-2.3,0.3
				c-0.9,0.1-1.7,0.2-2.6,0.4c-0.7,0.1-1.6,0.2-2.5,0.3c-0.9,0.1-1.8,0.3-2.7,0.4c0.3-0.1,0.6-0.3,0.9-0.6c0.3-0.2,0.5-0.5,0.7-0.7
				c0.2-0.2,0.4-0.5,0.6-0.8c0.2-0.4,0.2-1,0-1.6c-0.2-0.6-0.7-1.1-1.3-1.6c-0.6-0.4-1.4-0.8-2.4-1c-1-0.2-2-0.1-3.2,0.1
				c-1.2,0.3-2.3,0.7-3.3,1.2c-1,0.5-1.8,1.1-2.4,1.8c-0.6,0.7-1.1,1.6-1.4,2.6c-0.3,1-0.4,2.1-0.3,3.5c0.1,1.7,0.5,3,1.2,3.9
				c0.6,1,1.4,1.7,2.4,2.2c0.9,0.5,2,0.8,3.1,0.8c1.1,0.1,2.3,0.1,3.3-0.1c0.8-0.1,1.5-0.4,2.2-0.8c0.5-0.3,1-0.8,1.5-1.5
				c0.5-0.6,0.7-1.5,0.7-2.6c3-0.3,4.5-0.4,7.5-0.7c-0.9,1.9-2,3.3-3.2,4.4c-1.2,1.1-2.4,1.9-3.6,2.5c-1.4,0.7-2.7,1.2-4.1,1.4
				c-1.6,0.3-3.2,0.3-4.5,0.3c-1.3,0-2.5-0.1-3.5-0.4c-1.1-0.2-2-0.5-2.9-0.8c-0.9-0.3-1.8-0.7-2.6-1c-0.5-0.2-1.1-0.6-1.8-1.2
				c-0.6-0.6-1.3-1.2-1.8-2c-0.6-0.8-1-1.6-1.4-2.6c-0.4-1-0.5-1.9-0.4-3c0.1-1,0.5-2.1,1.1-3.1c0.7-1.1,1.7-2.1,3.2-3.2
				c2.2-1.6,4.6-2.7,7.1-3.4c2.5-0.7,4.9-1.1,7.1-1.2c2.2-0.1,4.2,0.1,5.9,0.6c1.7,0.5,2.9,1.1,3.6,1.8c0.7,0.7,1.2,1.3,1.5,1.7
				c0.3,0.4,0.6,0.7,0.8,0.9c0.2,0.2,0.3,0.4,0.5,0.4c0.1,0.1,0.4,0.2,0.6,0.4c0.2,0.1,0.4,0.3,0.7,0.4c0.2,0.1,0.5,0.3,0.8,0.5
				C177.8,224.4,178.2,224.6,178.6,224.8z"/>
			<path class="st0" d="M177.7,206.1c0.9-0.1,1.8-0.2,2.6-0.4c0.8-0.2,1.4-0.3,1.9-0.4c0.6-0.1,1.1-0.3,1.6-0.4
				c0.6-0.2,1.3-0.5,2.1-0.8c0.7-0.3,1.5-0.6,2.5-1c1-0.4,2.1-0.9,3.4-1.5c-0.6,0.5-1.1,0.9-1.5,1.3c-0.4,0.4-0.7,0.8-1,1.1
				c-0.3,0.4-0.5,0.8-0.7,1.1c-0.2,0.5-0.4,1.5-0.7,2.9c-0.2,1.2-0.6,3.1-1,5.5c-0.4,2.4-0.9,5.6-1.5,9.6c1.5-1.4,2.9-2.6,4.2-3.4
				c1.3-0.9,2.5-1.6,3.5-2.1c1.2-0.6,2.3-1,3.3-1.2c1.2-0.2,2.5-0.1,3.8,0.2c1.3,0.3,2.5,0.8,3.7,1.4c1.1,0.6,2.1,1.3,3,2.2
				c0.9,0.8,1.5,1.6,1.8,2.3c0.2,0.5,0.4,1.2,0.4,2c0,0.8-0.1,1.8-0.2,2.8c-0.2,1-0.4,2-0.7,3.1c-0.3,1-0.6,2-0.8,2.9
				c-0.3,0.9-0.5,1.7-0.7,2.4c-0.2,0.7-0.3,1.1-0.4,1.4c-0.1,0.6,0,1.2,0.1,1.7c0.1,0.5,0.4,1,0.7,1.5c0.4,0.5,0.9,1,1.7,1.4
				c-0.6-0.1-1.2-0.2-1.8-0.2c-0.6-0.1-1.2-0.1-1.8-0.1c-0.6,0-1.3-0.1-2-0.1c-0.9,0-1.3,0-2.2,0c-0.7,0-1.5,0-2.4,0
				c-0.9,0-1.9,0.1-2.9,0.1c0.6-0.2,1.1-0.4,1.5-0.7c0.4-0.3,0.8-0.6,1-0.9c0.3-0.3,0.6-0.7,0.9-1.1c0.2-0.3,0.4-0.9,0.6-1.7
				c0.3-0.9,0.5-1.8,0.7-3c0.2-1.1,0.4-2.3,0.5-3.6c0.1-1.3,0.1-2.5,0.1-3.6c-0.1-1.1-0.2-2.2-0.5-3c-0.3-0.9-0.7-1.4-1.3-1.7
				c-1.8-0.9-3.4-1.2-4.9-1c-1.5,0.3-2.9,1-4.2,2.2c-0.5,0.5-1,0.9-1.4,1.3c-0.4,0.4-0.9,0.9-1.4,1.4s-1,1-1.4,1.5c0,0.5,0,1,0,1.6
				c0,0.6,0.1,1.2,0.1,1.7c0,0.6,0.1,1.3,0.2,1.9c0.1,0.9,0.2,1.9,0.3,2.8c0.1,0.8,0.3,1.7,0.4,2.6c0.2,1,0.4,1.8,0.8,2.6
				c-0.5-0.1-1.1-0.1-1.7-0.1c-0.6,0-1.1,0-1.7,0c-0.6,0-1.2,0-1.8,0.1c-0.5,0-1.1,0.1-1.7,0.2c-0.5,0.1-1,0.1-1.6,0.2
				c-0.6,0.1-1.1,0.1-1.7,0.2c0.5-0.7,0.9-1.4,1.3-2.2c0.3-0.7,0.6-1.4,0.8-1.9c0.3-0.6,0.5-1.3,0.6-1.9c0.1-0.5,0.2-1.4,0.3-2.8
				c0.1-1.4,0.2-2.9,0.2-4.7c0.1-1.8,0.1-3.7,0.2-5.7s0.1-3.9,0-5.7c0-1.8,0-3.4-0.1-4.7c-0.1-1.3-0.2-2.3-0.3-2.7
				c-0.1-0.5-0.4-0.9-0.6-1.4c-0.2-0.4-0.6-0.7-1-1.1C178.8,206.4,178.3,206.2,177.7,206.1z"/>
		</g>
	</g>
	<g>
		<path class="st3" d="M101.9,239.2l-3.8-1.4c-0.1-0.5-0.1-1-0.1-1.6c-0.3,0.4-0.6,0.8-0.9,1.2l-1.5-0.6c0.1-0.4,0.2-0.9,0.4-1.3
			c-0.5,0.3-1,0.6-1.6,0.8c-0.1-0.5,0-1.1,0.2-1.6c-0.6,0.3-1.2,0.7-1.9,1l-40-14.6c-1-0.4-1.4-1.4-1.1-2.4l3.5-9.7
			c0.3-1,1.4-1.5,2.4-1.1l4.6,1.7c-0.1,0.7-0.2,1.5-0.4,2.2c0.1-0.1,0.2-0.2,0.4-0.3c0.7-0.4,1.4-0.7,2.1-1.1l0.9,0.3
			c0,0.3,0.1,0.6,0.3,0.8c0.2-0.2,0.3-0.3,0.5-0.5c-0.2,0.2,0.1,0.6,0.3,0.6s0.6,0,0.9,0.1c0,0.3,0,0.6,0.2,0.8
			c0.5-0.2,1-0.4,1.6-0.6l37.8,13.8c1,0.3,1.4,1.4,1.1,2.3l-3.5,9.7C103.9,239.1,102.9,239.6,101.9,239.2z"/>
		<g>
			<path d="M56.7,218.6c-0.3-0.1-0.5-0.2-0.6-0.4s-0.3-0.3-0.3-0.6c0-0.2,0-0.5,0.1-0.8l1.8-4.9l0.8,0.3l-1.7,4.7
				c-0.1,0.2-0.1,0.3-0.1,0.4c0,0.1,0.1,0.2,0.2,0.3c0.1,0.1,0.2,0.1,0.3,0.2l2.1,0.8l-0.3,0.8L56.7,218.6z"/>
			<path d="M61.1,220.2c-0.4-0.2-0.7-0.4-0.9-0.7c-0.1-0.3-0.1-0.7,0-1.2l1.1-3.2l0.8,0.3l-1.1,2.9c-0.1,0.3-0.1,0.6,0,0.8
				c0.1,0.2,0.3,0.3,0.6,0.4c0.2,0.1,0.4,0.1,0.7,0.1c0.2,0,0.5,0,0.7-0.1l1.2-3.4l0.8,0.3l-1.6,4.5l-0.7-0.2l0-0.5
				c-0.3,0.1-0.6,0.1-0.9,0.1C61.7,220.4,61.4,220.3,61.1,220.2z"/>
			<path d="M66.4,222.2c-0.3-0.1-0.5-0.2-0.7-0.4c-0.2-0.1-0.3-0.3-0.4-0.6c-0.1-0.2-0.1-0.5-0.1-0.8c0-0.3,0.1-0.7,0.3-1.2
				c0.2-0.5,0.3-0.8,0.5-1.1c0.2-0.3,0.4-0.5,0.6-0.6c0.2-0.1,0.5-0.2,0.7-0.1c0.3,0,0.5,0.1,0.8,0.2c0.2,0.1,0.5,0.2,0.7,0.3
				c0.3,0.1,0.5,0.2,0.7,0.4l-0.2,0.5l-1.3-0.5c-0.3-0.1-0.5-0.1-0.7-0.1c-0.2,0-0.4,0.1-0.6,0.3c-0.2,0.2-0.3,0.5-0.5,1
				c-0.2,0.4-0.2,0.8-0.2,1.1c0,0.3,0.1,0.5,0.2,0.6c0.2,0.1,0.4,0.3,0.6,0.4l1.3,0.5l-0.2,0.5c-0.1,0-0.3,0-0.5-0.1
				c-0.2,0-0.4-0.1-0.6-0.1C66.8,222.3,66.6,222.2,66.4,222.2z"/>
			<path d="M68.8,223l2.3-6.4l0.8,0.3l-1.3,3.6l0.6,0.2l1.9-1.3l0.9,0.3l-2.3,1.5l0.7,3l-0.9-0.3l-0.6-2.5l-0.6-0.2l-0.7,2L68.8,223
				z"/>
			<path d="M73.7,227l1.3-1.8c-0.2-0.1-0.3-0.2-0.5-0.3c-0.1-0.1-0.2-0.3-0.3-0.5c-0.1-0.2-0.1-0.5-0.1-0.8l0.2-3.7l0.9,0.3
				l-0.3,3.5c0,0.2,0,0.3,0,0.4c0,0.1,0.1,0.2,0.1,0.2c0.1,0.1,0.1,0.1,0.2,0.1c0,0,0.1,0,0.1,0l2.4-3.4l0.9,0.3l-3.6,5.1l-0.7,0.7
				L73.7,227z"/>
			<path d="M81.8,227.8c-0.4-0.1-0.7-0.3-0.9-0.5c-0.2-0.2-0.3-0.5-0.4-0.8c0-0.3,0-0.7,0.1-1.1c0.1-0.4,0.2-0.9,0.4-1.4
				c0.2-0.5,0.4-1,0.6-1.3c0.2-0.4,0.4-0.7,0.7-0.9c0.3-0.2,0.5-0.3,0.9-0.4c0.3,0,0.7,0,1.1,0.2c0.2,0.1,0.5,0.2,0.7,0.3
				c0.2,0.1,0.4,0.2,0.7,0.3c0.2,0.1,0.4,0.2,0.6,0.3l-0.2,0.6c-0.1-0.1-0.3-0.1-0.5-0.2c-0.2-0.1-0.4-0.2-0.6-0.3
				c-0.2-0.1-0.5-0.2-0.7-0.3c-0.4-0.1-0.7-0.2-1-0.1c-0.3,0.1-0.5,0.3-0.7,0.6c-0.2,0.3-0.4,0.8-0.6,1.3c-0.2,0.5-0.3,0.9-0.4,1.2
				c-0.1,0.3-0.1,0.6,0,0.8c0,0.2,0.1,0.4,0.3,0.5c0.1,0.1,0.4,0.3,0.6,0.4c0.3,0.1,0.5,0.2,0.8,0.2c0.3,0,0.5,0,0.7,0.1l0.6-1.6
				l-1.4-0.5l0.2-0.6c0.1,0,0.3,0.1,0.4,0.1c0.2,0,0.3,0.1,0.5,0.1c0.2,0.1,0.3,0.1,0.5,0.2c0.2,0.1,0.3,0.1,0.4,0.2
				c0.1,0.1,0.2,0.1,0.3,0.2l-1.2,3.3l-0.6-0.2l0-0.5c-0.2,0-0.5,0-0.8,0C82.5,228,82.2,227.9,81.8,227.8z"/>
			<path d="M85.5,229.1l1.6-4.5l0.6,0.2l-0.1,0.8c0.3-0.2,0.6-0.3,0.8-0.3c0.3-0.1,0.6,0,0.9,0.1c0.1,0,0.1,0.1,0.2,0.1
				c0.1,0,0.1,0.1,0.2,0.1l-0.3,0.9c-0.1,0-0.2-0.1-0.2-0.1c-0.1,0-0.2-0.1-0.3-0.1c-0.2-0.1-0.4-0.1-0.5-0.1c-0.2,0-0.3,0-0.5,0
				c-0.2,0-0.3,0.1-0.5,0.2l-1.1,3.1L85.5,229.1z"/>
			<path d="M90.7,231c-0.5-0.2-0.8-0.4-1.1-0.6c-0.2-0.2-0.3-0.6-0.3-0.9s0.1-0.9,0.3-1.4c0.2-0.6,0.4-1,0.7-1.3
				c0.2-0.3,0.5-0.4,0.9-0.5c0.3,0,0.7,0,1.2,0.2c0.4,0.2,0.7,0.3,1,0.5c0.2,0.2,0.4,0.4,0.4,0.7c0,0.3,0,0.6-0.2,1
				c-0.1,0.3-0.2,0.5-0.4,0.6c-0.2,0.1-0.4,0.2-0.6,0.2c-0.2,0-0.5,0-0.7-0.1l-1.5-0.5c-0.1,0.3-0.2,0.6-0.2,0.8
				c0,0.2,0.1,0.4,0.2,0.6c0.1,0.2,0.4,0.3,0.8,0.4l1.4,0.5l-0.2,0.5c-0.3-0.1-0.5-0.1-0.8-0.2C91.4,231.2,91.1,231.1,90.7,231z
				 M90.6,228.1l1.4,0.5c0.2,0.1,0.4,0.1,0.5,0.1c0.1,0,0.2-0.2,0.3-0.4c0.1-0.2,0.1-0.4,0.1-0.6c0-0.2-0.1-0.3-0.2-0.4
				c-0.1-0.1-0.3-0.2-0.5-0.3c-0.3-0.1-0.5-0.1-0.7-0.1c-0.2,0-0.4,0.1-0.5,0.3C90.8,227.5,90.7,227.7,90.6,228.1z"/>
			<path d="M95.2,232.7c-0.5-0.2-0.8-0.4-1.1-0.6c-0.2-0.2-0.3-0.6-0.3-0.9c0-0.4,0.1-0.9,0.3-1.4c0.2-0.6,0.4-1,0.7-1.3
				c0.2-0.3,0.5-0.4,0.9-0.5c0.3,0,0.7,0,1.2,0.2c0.4,0.2,0.7,0.3,1,0.5c0.2,0.2,0.4,0.4,0.4,0.7c0,0.3,0,0.6-0.2,1
				c-0.1,0.3-0.2,0.5-0.4,0.6c-0.2,0.1-0.4,0.2-0.6,0.2c-0.2,0-0.5,0-0.7-0.1l-1.5-0.5c-0.1,0.3-0.2,0.6-0.2,0.8
				c0,0.2,0.1,0.4,0.2,0.6c0.1,0.2,0.4,0.3,0.8,0.4l1.4,0.5l-0.2,0.5c-0.3-0.1-0.5-0.1-0.8-0.2C95.9,232.9,95.6,232.8,95.2,232.7z
				 M95.1,229.8l1.4,0.5c0.2,0.1,0.4,0.1,0.5,0.1c0.1,0,0.2-0.2,0.3-0.4c0.1-0.2,0.1-0.4,0.1-0.6c0-0.2-0.1-0.3-0.2-0.4
				c-0.1-0.1-0.3-0.2-0.5-0.3c-0.3-0.1-0.5-0.1-0.7-0.1c-0.2,0-0.4,0.1-0.5,0.3C95.4,229.1,95.2,229.4,95.1,229.8z"/>
			<path d="M98,233.6l1.6-4.5l0.7,0.2l0,0.5c0.3-0.1,0.5-0.1,0.9-0.1c0.3,0,0.6,0,0.9,0.1c0.3,0.1,0.6,0.3,0.7,0.5
				c0.2,0.2,0.2,0.5,0.2,0.7c0,0.3,0,0.5-0.1,0.8l-1.1,3l-0.8-0.3l1.1-2.9c0.1-0.2,0.1-0.3,0.1-0.5c0-0.2-0.1-0.3-0.2-0.4
				c-0.1-0.1-0.2-0.2-0.4-0.3c-0.2-0.1-0.3-0.1-0.5-0.1c-0.2,0-0.3,0-0.5,0c-0.1,0-0.3,0-0.5,0.1l-1.2,3.4L98,233.6z"/>
		</g>
	</g>
	<path class="st4" d="M64.7,231.7c0.1,0.1,0.2,0.2,0.2,0.3C64.8,232,64.7,231.9,64.7,231.7z"/>
	<path class="st4" d="M68.7,224.8c0,0.3-0.1,0.6-0.2,0.9l-3.1,2.6c-0.3-0.2-0.6-0.5-0.7-0.8c0,0.5,0,1,0,1.5l-1.7,1.5
		c-0.6-0.4-1.2-0.8-1.9-1.3c0.5-0.4,0.8-0.9,1.2-1.4C63.8,225.8,66.3,225.1,68.7,224.8z"/>
</g>
<g>
	<g>
		<path d="M434.5,209.3c-5.9,0-10.2-0.8-12.9-1.5c-1.2-0.3-2.2-0.6-2.9-0.9c-1.9,0.1-6.5,0.4-11.8,0.4c-8,0-14.2-0.6-18.5-1.8
			c-5-1.4-8.8-3.1-11.2-5.1l-0.2-0.1l0,0c-2.7-2.3-3.2-4.7-3.1-6.3c0.1-2.4,1.4-4.7,3.9-6.6c5.3-4,13.4-5.2,20.4-6
			c0.2-0.3,0.4-0.6,0.6-0.8c0.4-0.6,0.9-1.3,1-1.7c0.2-1.5,0.5-4.8,3.1-6.4c0.9-4.1,3.7-11.2,4.8-14.9c-10.5-0.2-17.6-3-20.9-6.5
			c-1.5-1.5-0.3-3.4,1.5-4.6c1.8-1.2,3.8-1.7,7.4-2.5l0.2,0c2.8-0.6,5.9-1.3,10.1-2.4c5.2-1.4,7.2-3,8.9-4.4c1.7-1.3,3.6-2.8,7-3.1
			c1.1-0.1,2-0.2,2.9-0.3c1-0.1,2-0.3,2.9-0.3c2.9,0,5,1.2,6.8,3.7l0.5,0.8c2.6,3.6,7.4,10.4,9.8,15.8c0.6,1.4,1.4,3.5,2.1,6.1
			l0.2,0.5v0c1,3.7,2.1,8.3,2.6,11.7c3,1.5,3.3,5.1,3.5,6.7c0,0.1,0.1,0.3,0.2,0.4c3.1,0.3,7.1,0.6,10.4,0.6c3.7,0,5-0.4,5.3-0.5
			c1.3-0.5,2.6-0.7,3.8-0.7c2.8,0,4.9,1.4,5.9,3.6c1.3,3.4-0.6,7.6-5.7,12.4c-8.5,8-19.4,11.3-19.8,11.5l-6.1,2l-0.3,0
			C442.7,208.9,438.5,209.3,434.5,209.3z"/>
		<polygon id="XMLID_00000114792887137772313450000002151775482346670733_" points="447.5,205.4 453.8,203.3 445.3,194.4 
			440.9,196.7 		"/>
		<path id="XMLID_00000164506546681991309200000011666961533045336719_" class="st0" d="M473,192.2c-8.3,7.9-19.3,11.1-19.3,11.1
			l-8.2-4.7l1.9,6.8c-12.2,2.1-20.6,0.8-24.9-0.3c-2.2-0.6-3.4-1.1-3.4-1.1s-20.9,1.7-31.5-1.3c-4.6-1.3-8.2-2.9-10.3-4.6
			c0,0,0,0,0,0c-2.7-2.2-2.9-4.8,0.5-7.3c6-4.5,17.3-5.2,25.1-6.2l20.3-1l25.9-1.2c0,0,18.5,2.4,23.9,0.5
			C478.4,180.9,481.3,184.3,473,192.2z"/>
		<path id="XMLID_00000005235812652129040850000009643675011394063003_" d="M419.1,203.9c0,0-20.9,1.7-31.5-1.3
			c-4.6-1.3-8.2-2.9-10.3-4.6c0,0,0,0,0,0c-0.4-0.4-3.4-4,5-5.6C391.2,190.7,404.4,198.6,419.1,203.9z"/>
		<path id="XMLID_00000127755136424357941600000006021064300102322101_" class="st0" d="M447.4,175.7c0,0.1-0.1,0.2-0.1,0.2
			c-18.7,12-42.2,0-42.2,0c0.6-4.4,2.6-11.6,4.2-16.5c1-3.1,1.7-5.4,1.7-5.4c-18.5-0.3-24.4-4.9-22.4-6.4c1.2-0.8,3-1.2,6.6-2
			c2.6-0.6,6-1.3,10.8-2.6c11.3-3,10.7-7.3,16-7.7c5.3-0.3,7.4-1.8,9.8,1.6c2.4,3.4,8,11,10.5,16.8c0.7,1.5,1.4,3.6,2,5.9v0
			C446.2,166,447.9,174.1,447.4,175.7z"/>
		<path id="XMLID_00000067958691963698205770000000733362361891437204_" d="M426.7,151.3c-0.1,0.3-2.7,5.1-17.4,8.1
			c1-3.1,1.7-5.4,1.7-5.4S420.1,154.5,426.7,151.3z"/>
		<path id="XMLID_00000074443999150615607460000002341328329193763744_" d="M444.4,159.6L444.4,159.6c-2,2.9-10.7,4.6-7,1.9
			s5-7.8,5-7.8L444.4,159.6z"/>
		<path id="XMLID_00000083796332286134372330000009051685407487015843_" class="st1" d="M453.8,185.7c-0.6,1.9-9.8,6.5-27,6.5
			c-17.2,0-26.4-4.6-27-6.5c-0.6-1.9,2.6-3.8,2.9-6.8c0.3-3,0.8-4.5,4.1-4c3.4,0.5,7.1,3,20,3c12.9,0,16.7-2.6,20-3
			c3.4-0.5,3.8,1,4.1,4c0.1,1.2,0.7,2.2,1.3,3.1C453.2,183.4,454.2,184.5,453.8,185.7z"/>
		<path id="XMLID_00000042717772302451711070000002924615458140631708_" d="M453.8,185.7c-0.6,1.9-9.8,6.5-27,6.5
			c-17.2,0-26.4-4.6-27-6.5c-0.6-1.9,2.6-3.8,2.9-6.8c0.3-3,0.8-4.5,4.1-4c0,0-2.5,1-1.4,4.6c1.1,3.6,7.1,8.9,24.7,9.4
			c17.6,0.5,23.6-3.7,22.2-6.8C453.2,183.4,454.2,184.5,453.8,185.7z"/>
		<g>
			<path d="M449.1,182.4c1-1.6,1.3-3.4,0.7-5.2c-0.8-2.9-3.7-5-6.8-5c-0.7,0-1.5,0.1-2.4,0.4c0.3-1.5,0.2-3-0.5-4.4
				c-1.2-2.7-3.9-4.5-6.8-4.5c-1.5,0-2.9,0.5-4.1,1.5c-1.1-0.6-2.2-1-3.4-1c-2.6,0-5,1.6-6.2,4.1c-0.8,1.7-0.8,3.6-0.2,5.4
				c-0.6-0.1-1.1-0.2-1.5-0.2c-3.5,0-6.7,2.6-7.3,6.1c-0.4,2,0.1,3.8,1.3,5.3c-1,1.6-1.3,3.4-0.7,5.2c0.8,2.9,3.7,5,6.8,5
				c0,0,0,0,0,0c0.7,0,1.5-0.1,2.5-0.4c-0.3,1.5-0.2,3.1,0.5,4.5c1.2,2.7,3.9,4.5,6.8,4.5c0,0,0,0,0,0c1.5,0,3-0.5,4.1-1.5
				c1,0.6,2.2,1,3.4,1c2.6,0,5-1.6,6.2-4.1c0.8-1.7,0.8-3.6,0.2-5.4c0.6,0.1,1.1,0.2,1.5,0.2c0,0,0,0,0,0c3.5,0,6.7-2.6,7.3-6.2
				C450.8,185.7,450.3,183.8,449.1,182.4z"/>
		</g>
		<g>
			<path class="st2" d="M414.9,184.4c-6.5,4,0.2,12.6,7.2,6.3c4.8-4.3,8.5-7.2,8.5-7.2s-5-2.2-9.3-6.2
				C414.4,170.9,407.6,181.6,414.9,184.4z"/>
			<path class="st2" d="M429.6,167.8c-4-6.4-12.6,0.2-6.3,7.2c4.3,4.8,7.3,8.5,7.3,8.5s2.2-5,6.2-9.3
				C443,167.2,432.3,160.5,429.6,167.8z"/>
			<path class="st2" d="M446.2,182.5c6.4-4-0.2-12.6-7.3-6.3c-4.7,4.3-8.4,7.3-8.4,7.3s5,2.2,9.3,6.1
				C446.8,195.9,453.5,185.2,446.2,182.5z"/>
			<path class="st2" d="M431.6,199.1c4.1,6.4,12.6-0.2,6.3-7.3c-4.3-4.7-7.3-8.4-7.3-8.4s-2.2,5-6.1,9.3
				C418.1,199.7,428.9,206.4,431.6,199.1z"/>
		</g>
	</g>
	<g>
		<g>
			<path d="M348.3,198.6c1.3,0.7,2.5,1.3,3.5,1.8c1,0.5,1.9,0.9,2.7,1.3c0.9,0.4,1.7,0.8,2.3,1c0.7,0.3,1.6,0.6,2.7,0.9
				c1,0.3,2.2,0.6,3.7,1c1.5,0.4,3.3,0.8,5.5,1.3c-1,0.2-1.9,0.5-2.5,0.8c-0.7,0.3-1.2,0.7-1.5,1c-0.4,0.4-0.8,0.8-0.9,1.2
				c-0.2,0.5-0.1,2,0.2,4c0.1,0.8,0.2,1.9,0.4,3.1c0.2,1.2,0.5,2.7,0.8,4.3c0.3,1.7,0.7,3.5,1.2,5.7c0.5,2.1,1.1,4.5,1.7,7.1
				c0.8-1.9,1.4-3.6,1.9-5c0.5-1.4,0.9-2.7,1.3-3.7c0.4-1.1,0.7-2.2,1-3c0.3-0.9,0.6-2.1,1-3.5c0.3-1.2,0.7-2.8,1.2-4.7
				c0.5-1.9,1.1-4.2,1.8-7c0.9,0.3,1.3,0.5,2.2,0.8c0.2,2.3,0.5,4.3,0.8,6.1c0.3,1.7,0.5,3.2,0.7,4.4c0.2,1.4,0.4,2.6,0.6,3.6
				c0.2,0.9,0.4,2,0.8,3.2c0.3,1,0.7,2.3,1.2,3.8c0.5,1.5,1.1,3.1,1.9,4.9c0.7-2.1,1.3-4,1.9-5.6c0.6-1.6,1-3.1,1.4-4.3
				c0.4-1.2,0.8-2.3,1-3.2c0.3-0.9,0.5-1.6,0.7-2.2c0.4-1.4,0.7-2.4,0.7-2.8c0-0.5-0.2-1.1-0.6-1.7c-0.3-0.5-0.8-1.1-1.4-1.8
				c-0.6-0.7-1.5-1.4-2.7-2.2c2.5,0.6,4.5,1,6.1,1.3c1.6,0.3,2.9,0.5,3.8,0.6c1,0.2,1.5,0.2,2.5,0.4c0.9,0.1,1.3,0.2,2.2,0.3
				c0.8,0.1,1.9,0.2,3.3,0.4c1.3,0.1,3.1,0.3,5.2,0.4c-1.8,0.5-3.3,0.9-4.4,1.3c-1.1,0.4-2,0.7-2.6,1c-0.7,0.4-1.4,0.7-1.6,0.9
				c-0.3,0.4-0.8,1.7-1.5,3.6c-0.3,0.8-0.7,1.8-1.1,3c-0.4,1.2-0.8,2.7-1.4,4.4c-0.5,1.7-1.1,3.7-1.8,6.1c-0.7,2.3-1.4,5-2.2,8.1
				c-4.2-0.3-6.4-0.5-10.6-0.9c-1.9-5.8-2.9-8.8-4.8-15c-0.6,2.6-1.2,4.8-1.5,6.5c-0.4,1.7-0.7,3-0.8,3.9c-0.2,1.1-0.3,2-0.4,2.5
				c0,0.5-0.1,0.9-0.1,1.3c0,0.4-0.1,0.8-0.1,1.2c-0.1,0.4-0.1,0.8-0.2,1.2c-4.3,0-6.5,0-10.8,0c-1.1-4.1-2.1-7.8-3-11.1
				c-0.9-3.3-1.6-6.3-2.3-8.9c-0.7-2.6-1.2-4.8-1.7-6.7c-0.5-1.9-0.9-3.5-1.3-4.8c-0.8-3-1.4-5-1.8-5.7c-0.3-0.4-0.6-0.9-1.1-1.5
				c-0.4-0.5-0.8-1.1-1.3-1.8C349.6,200.4,349,199.5,348.3,198.6z"/>
			<path d="M401.9,223.1c4.6,0.4,6.8,0.5,11.4,0.7c-0.6,1.6-1.1,3-1.4,4.1c-0.3,1.1-0.5,2.1-0.6,2.9c-0.1,0.9-0.2,1.7-0.1,2.2
				c0.1,0.5,0.3,1.2,0.6,1.8c0.2,0.5,0.6,1.2,1.1,1.9c0.5,0.7,1.2,1.4,2,2.1c-0.5-0.1-1-0.2-1.6-0.3c-0.6-0.1-1.1-0.1-1.6-0.1
				c-0.6,0-1.1,0-1.7,0c-0.6,0-1.2,0.1-1.9,0.1c-0.6,0-1.3,0.1-2.1,0.2c-0.8,0.1-1.7,0.2-2.6,0.3c0.6-1.2,1.1-2.3,1.4-3.2
				c0.3-0.9,0.6-1.6,0.7-2.2c0.2-0.7,0.3-1.3,0.3-1.7c0-0.5,0-1.2,0-1.9c0-0.7,0-1.4,0-2c0-0.7,0-1.2-0.1-1.7c0-0.5-0.1-0.8-0.3-1
				c-0.2-0.2-0.4-0.3-0.6-0.4c-0.2-0.2-0.6-0.4-1.1-0.7C403.3,223.9,402.7,223.6,401.9,223.1z M406.2,217.1c0.9-0.2,1.7-0.2,2.6,0
				c0.9,0.2,1.6,0.5,2.1,0.9c0.5,0.4,0.7,0.9,0.5,1.4c-0.1,0.5-0.8,1-2,1.4c-1.2,0.4-2.2,0.5-3.2,0.3c-0.9-0.2-1.6-0.5-1.9-1
				c-0.4-0.5-0.4-1-0.2-1.6C404.4,217.9,405.1,217.4,406.2,217.1z"/>
			<path d="M416.3,216.6c1.2,0.1,2.3,0.2,3.2,0.3c0.9,0.1,1.6,0.1,2.1,0.2c0.6,0,1.1,0,1.5,0.1c0.4,0,0.9,0,1.5,0
				c0.5,0,1.2-0.1,2.1-0.1c0.9,0,2-0.1,3.3-0.2c-0.3,0.3-0.5,0.5-0.7,0.7c-0.2,0.2-0.3,0.4-0.4,0.5c-0.1,0.2-0.2,0.3-0.4,0.5
				c-0.1,0.2-0.2,0.3-0.3,0.5c-0.1,0.1-0.2,0.3-0.2,0.5c-0.1,0.2-0.1,0.4-0.2,0.6c3.8,0,5.8-0.1,9.6-0.2c-0.4,1.3-0.5,2-0.9,3.3
				c-3.5,0-5.2,0-8.8-0.1c-0.2,1.3-0.4,2.4-0.4,3.1c-0.1,0.7-0.2,1.3-0.2,1.6c0,0.3-0.1,0.4-0.1,0.7c-0.1,1-0.2,2.1-0.4,3.3
				c-0.1,1.2-0.2,2.3-0.1,3.3c0,1,0.2,1.8,0.4,2.5c0.2,0.7,0.7,1,1.3,1c0.6,0,1.2-0.1,1.7-0.3c0.5-0.2,1-0.5,1.4-0.8
				c0.4-0.3,0.7-0.6,0.9-0.9c0.2-0.3,0.3-0.5,0.3-0.7c0-0.2-0.1-0.3-0.2-0.6c-0.2-0.4-0.6-0.9-1.1-1.5c1.2,0.2,2.2,0.4,3.1,0.5
				c0.5,0.1,0.9,0.2,1.2,0.3c0.4,0.1,0.9,0.2,1.4,0.3c0.4,0.1,1,0.3,1.7,0.5c0.7,0.2,1.5,0.4,2.5,0.6c-0.9,0.1-1.6,0.3-2,0.5
				c-0.2,0.1-0.4,0.2-0.6,0.4c-0.3,0.3-0.6,0.7-1,1.2c-0.4,0.5-0.9,1-1.7,1.5c-0.7,0.5-1.7,0.9-3,1.3c-1.2,0.4-2.9,0.6-5,0.6
				c-2.2,0.1-3.8-0.2-4.9-0.7c-1.1-0.5-1.9-1.1-2.5-1.8c-0.5-0.7-0.8-1.4-0.9-2.1c-0.1-0.7-0.1-1.1-0.2-1.4c0-0.2,0-0.8,0-1.8
				c0-0.9,0.1-2,0.2-3.1c0.1-1.1,0.2-2.3,0.2-3.3c0.1-1.1,0.1-1.8,0.1-2.4c0-0.3,0-0.6,0.1-0.8c0-0.2,0-0.5,0-0.8c0-0.3,0-0.5,0-0.8
				c-3.6-0.1-5.4-0.2-9-0.4c-0.2-0.9-0.2-1.4-0.4-2.3c3.6,0.3,5.4,0.4,9.1,0.5c-0.1-0.3-0.2-0.6-0.3-0.8c-0.1-0.3-0.2-0.5-0.3-0.6
				c-0.1-0.2-0.3-0.4-0.4-0.5c-0.1-0.1-0.4-0.3-0.6-0.5c-0.2-0.1-0.5-0.3-0.8-0.5C417.1,217.1,416.7,216.9,416.3,216.6z"/>
			<path d="M473.1,224.8c-0.5,0-1.1,0-1.8,0.1c-0.7,0.1-1.4,0.1-2.1,0.2c-0.7,0.1-1.5,0.2-2.3,0.3c-0.9,0.1-1.7,0.2-2.6,0.4
				c-0.7,0.1-1.6,0.2-2.5,0.3c-0.9,0.1-1.8,0.3-2.7,0.4c0.3-0.1,0.6-0.3,0.9-0.6c0.3-0.2,0.5-0.5,0.7-0.7c0.2-0.2,0.4-0.5,0.6-0.8
				c0.2-0.4,0.2-1,0-1.6c-0.2-0.6-0.7-1.1-1.3-1.6c-0.6-0.4-1.4-0.8-2.4-1c-1-0.2-2-0.1-3.2,0.1c-1.2,0.3-2.3,0.7-3.3,1.2
				c-1,0.5-1.8,1.1-2.4,1.8c-0.6,0.7-1.1,1.6-1.4,2.6c-0.3,1-0.4,2.1-0.3,3.5c0.1,1.7,0.5,3,1.2,3.9c0.6,1,1.4,1.7,2.4,2.2
				c0.9,0.5,2,0.8,3.1,0.8c1.1,0.1,2.3,0.1,3.3-0.1c0.8-0.1,1.5-0.4,2.2-0.8c0.5-0.3,1-0.8,1.5-1.5c0.5-0.6,0.7-1.5,0.7-2.6
				c3-0.3,4.5-0.4,7.5-0.7c-0.9,1.9-2,3.3-3.2,4.4c-1.2,1.1-2.4,1.9-3.6,2.5c-1.4,0.7-2.7,1.2-4.1,1.4c-1.6,0.3-3.2,0.3-4.5,0.3
				c-1.3,0-2.5-0.1-3.5-0.4c-1.1-0.2-2-0.5-2.9-0.8c-0.9-0.3-1.8-0.7-2.6-1c-0.5-0.2-1.1-0.6-1.8-1.2c-0.6-0.6-1.3-1.2-1.8-2
				c-0.6-0.8-1-1.6-1.4-2.6s-0.5-1.9-0.4-3c0.1-1,0.5-2.1,1.1-3.1c0.7-1.1,1.7-2.1,3.2-3.2c2.2-1.6,4.6-2.7,7.1-3.4
				c2.5-0.7,4.9-1.1,7.1-1.2c2.2-0.1,4.2,0.1,5.9,0.6c1.7,0.5,2.9,1.1,3.6,1.8c0.7,0.7,1.2,1.3,1.5,1.7c0.3,0.4,0.6,0.7,0.8,0.9
				c0.2,0.2,0.3,0.4,0.5,0.4c0.1,0.1,0.4,0.2,0.6,0.4c0.2,0.1,0.4,0.3,0.7,0.4c0.2,0.1,0.5,0.3,0.8,0.5
				C472.4,224.4,472.7,224.6,473.1,224.8z"/>
			<path d="M472.3,206.1c0.9-0.1,1.8-0.2,2.6-0.4c0.8-0.2,1.4-0.3,1.9-0.4c0.6-0.1,1.1-0.3,1.6-0.4c0.6-0.2,1.3-0.5,2.1-0.8
				c0.7-0.3,1.5-0.6,2.5-1c1-0.4,2.1-0.9,3.4-1.5c-0.6,0.5-1.1,0.9-1.5,1.3c-0.4,0.4-0.7,0.8-1,1.1c-0.3,0.4-0.5,0.8-0.7,1.1
				c-0.2,0.5-0.4,1.5-0.7,2.9c-0.2,1.2-0.6,3.1-1,5.5c-0.4,2.4-0.9,5.6-1.5,9.6c1.5-1.4,2.9-2.6,4.2-3.4c1.3-0.9,2.5-1.6,3.5-2.1
				c1.2-0.6,2.3-1,3.3-1.2c1.2-0.2,2.5-0.1,3.8,0.2c1.3,0.3,2.5,0.8,3.7,1.4c1.1,0.6,2.1,1.3,3,2.2c0.9,0.8,1.5,1.6,1.8,2.3
				c0.2,0.5,0.4,1.2,0.4,2c0,0.8-0.1,1.8-0.2,2.8c-0.2,1-0.4,2-0.7,3.1c-0.3,1-0.6,2-0.8,2.9c-0.3,0.9-0.5,1.7-0.7,2.4
				c-0.2,0.7-0.3,1.1-0.4,1.4c-0.1,0.6,0,1.2,0.1,1.7c0.1,0.5,0.4,1,0.7,1.5c0.4,0.5,0.9,1,1.7,1.4c-0.6-0.1-1.2-0.2-1.8-0.2
				c-0.6-0.1-1.2-0.1-1.8-0.1c-0.6,0-1.3-0.1-2-0.1c-0.9,0-1.3,0-2.2,0c-0.7,0-1.5,0-2.4,0c-0.9,0-1.9,0.1-2.9,0.1
				c0.6-0.2,1.1-0.4,1.5-0.7c0.4-0.3,0.8-0.6,1-0.9c0.3-0.3,0.6-0.7,0.9-1.1c0.2-0.3,0.4-0.9,0.6-1.7c0.3-0.9,0.5-1.8,0.7-3
				c0.2-1.1,0.4-2.3,0.5-3.6c0.1-1.3,0.1-2.5,0.1-3.6c-0.1-1.1-0.2-2.2-0.5-3c-0.3-0.9-0.7-1.4-1.3-1.7c-1.8-0.9-3.4-1.2-4.9-1
				c-1.5,0.3-2.9,1-4.2,2.2c-0.5,0.5-1,0.9-1.4,1.3c-0.4,0.4-0.9,0.9-1.4,1.4s-1,1-1.4,1.5c0,0.5,0,1,0,1.6c0,0.6,0.1,1.2,0.1,1.7
				c0,0.6,0.1,1.3,0.2,1.9c0.1,0.9,0.2,1.9,0.3,2.8c0.1,0.8,0.3,1.7,0.4,2.6c0.2,1,0.4,1.8,0.8,2.6c-0.5-0.1-1.1-0.1-1.7-0.1
				c-0.6,0-1.1,0-1.7,0c-0.6,0-1.2,0-1.8,0.1c-0.5,0-1.1,0.1-1.7,0.2c-0.5,0.1-1,0.1-1.6,0.2c-0.6,0.1-1.1,0.1-1.7,0.2
				c0.5-0.7,0.9-1.4,1.3-2.2c0.3-0.7,0.6-1.4,0.8-1.9c0.3-0.6,0.5-1.3,0.6-1.9c0.1-0.5,0.2-1.4,0.3-2.8c0.1-1.4,0.2-2.9,0.2-4.7
				c0.1-1.8,0.1-3.7,0.2-5.7s0.1-3.9,0-5.7c0-1.8,0-3.4-0.1-4.7c-0.1-1.3-0.2-2.3-0.3-2.7c-0.1-0.5-0.4-0.9-0.6-1.4
				c-0.2-0.4-0.6-0.7-1-1.1C473.4,206.4,472.9,206.2,472.3,206.1z"/>
		</g>
	</g>
	<g>
		<path class="st3" d="M396.5,239.2l-3.8-1.4c-0.1-0.5-0.1-1-0.1-1.6c-0.3,0.4-0.6,0.8-0.9,1.2l-1.5-0.6c0.1-0.4,0.2-0.9,0.4-1.3
			c-0.5,0.3-1,0.6-1.6,0.8c-0.1-0.5,0-1.1,0.2-1.6c-0.6,0.3-1.2,0.7-1.9,1l-40-14.6c-1-0.4-1.4-1.4-1.1-2.4l3.5-9.7
			c0.3-1,1.4-1.5,2.4-1.1l4.6,1.7c-0.1,0.7-0.2,1.5-0.4,2.2c0.1-0.1,0.2-0.2,0.4-0.3c0.7-0.4,1.4-0.7,2.1-1.1l0.9,0.3
			c0,0.3,0.1,0.6,0.3,0.8c0.2-0.2,0.3-0.3,0.5-0.5c-0.2,0.2,0.1,0.6,0.3,0.6s0.6,0,0.9,0.1c0,0.3,0,0.6,0.2,0.8
			c0.5-0.2,1-0.4,1.6-0.6l37.8,13.8c1,0.3,1.4,1.4,1.1,2.3l-3.5,9.7C398.5,239.1,397.5,239.6,396.5,239.2z"/>
		<g>
			<path d="M351.2,218.6c-0.3-0.1-0.5-0.2-0.6-0.4c-0.2-0.2-0.3-0.3-0.3-0.6c0-0.2,0-0.5,0.1-0.8l1.8-4.9l0.8,0.3l-1.7,4.7
				c-0.1,0.2-0.1,0.3-0.1,0.4c0,0.1,0.1,0.2,0.2,0.3c0.1,0.1,0.2,0.1,0.3,0.2l2.1,0.8l-0.3,0.8L351.2,218.6z"/>
			<path d="M355.7,220.2c-0.4-0.2-0.7-0.4-0.9-0.7c-0.1-0.3-0.1-0.7,0-1.2l1.1-3.2l0.8,0.3l-1.1,2.9c-0.1,0.3-0.1,0.6,0,0.8
				c0.1,0.2,0.3,0.3,0.6,0.4c0.2,0.1,0.4,0.1,0.7,0.1c0.2,0,0.5,0,0.7-0.1l1.2-3.4l0.8,0.3l-1.6,4.5l-0.7-0.2l0-0.5
				c-0.3,0.1-0.6,0.1-0.9,0.1C356.3,220.4,356,220.3,355.7,220.2z"/>
			<path d="M360.9,222.2c-0.3-0.1-0.5-0.2-0.7-0.4c-0.2-0.1-0.3-0.3-0.4-0.6c-0.1-0.2-0.1-0.5-0.1-0.8c0-0.3,0.1-0.7,0.3-1.2
				c0.2-0.5,0.3-0.8,0.5-1.1c0.2-0.3,0.4-0.5,0.6-0.6c0.2-0.1,0.5-0.2,0.7-0.1c0.3,0,0.5,0.1,0.8,0.2c0.2,0.1,0.5,0.2,0.7,0.3
				c0.3,0.1,0.5,0.2,0.7,0.4l-0.2,0.5l-1.3-0.5c-0.3-0.1-0.5-0.1-0.7-0.1c-0.2,0-0.4,0.1-0.6,0.3c-0.2,0.2-0.3,0.5-0.5,1
				c-0.2,0.4-0.2,0.8-0.2,1.1c0,0.3,0.1,0.5,0.2,0.6c0.2,0.1,0.4,0.3,0.6,0.4l1.3,0.5l-0.2,0.5c-0.1,0-0.3,0-0.5-0.1
				c-0.2,0-0.4-0.1-0.6-0.1C361.3,222.3,361.1,222.2,360.9,222.2z"/>
			<path d="M363.4,223l2.3-6.4l0.8,0.3l-1.3,3.6l0.6,0.2l1.9-1.3l0.9,0.3l-2.3,1.5l0.7,3l-0.9-0.3l-0.6-2.5l-0.6-0.2l-0.7,2
				L363.4,223z"/>
			<path d="M368.3,227l1.3-1.8c-0.2-0.1-0.3-0.2-0.5-0.3c-0.1-0.1-0.2-0.3-0.3-0.5c-0.1-0.2-0.1-0.5-0.1-0.8l0.2-3.7l0.9,0.3
				l-0.3,3.5c0,0.2,0,0.3,0,0.4c0,0.1,0.1,0.2,0.1,0.2c0.1,0.1,0.1,0.1,0.2,0.1c0,0,0.1,0,0.1,0l2.4-3.4l0.9,0.3l-3.6,5.1l-0.7,0.7
				L368.3,227z"/>
			<path d="M376.4,227.8c-0.4-0.1-0.7-0.3-0.9-0.5c-0.2-0.2-0.3-0.5-0.4-0.8c0-0.3,0-0.7,0.1-1.1c0.1-0.4,0.2-0.9,0.4-1.4
				c0.2-0.5,0.4-1,0.6-1.3c0.2-0.4,0.4-0.7,0.7-0.9c0.3-0.2,0.5-0.3,0.9-0.4c0.3,0,0.7,0,1.1,0.2c0.2,0.1,0.5,0.2,0.7,0.3
				c0.2,0.1,0.4,0.2,0.7,0.3c0.2,0.1,0.4,0.2,0.6,0.3l-0.2,0.6c-0.1-0.1-0.3-0.1-0.5-0.2c-0.2-0.1-0.4-0.2-0.6-0.3
				c-0.2-0.1-0.5-0.2-0.7-0.3c-0.4-0.1-0.7-0.2-1-0.1c-0.3,0.1-0.5,0.3-0.7,0.6s-0.4,0.8-0.6,1.3c-0.2,0.5-0.3,0.9-0.4,1.2
				c-0.1,0.3-0.1,0.6,0,0.8c0,0.2,0.1,0.4,0.3,0.5c0.1,0.1,0.4,0.3,0.6,0.4c0.3,0.1,0.5,0.2,0.8,0.2c0.3,0,0.5,0,0.7,0.1l0.6-1.6
				l-1.4-0.5l0.2-0.6c0.1,0,0.3,0.1,0.4,0.1c0.2,0,0.3,0.1,0.5,0.1c0.2,0.1,0.3,0.1,0.5,0.2c0.2,0.1,0.3,0.1,0.4,0.2
				c0.1,0.1,0.2,0.1,0.3,0.2l-1.2,3.3l-0.6-0.2l0-0.5c-0.2,0-0.5,0-0.8,0C377.1,228,376.7,227.9,376.4,227.8z"/>
			<path d="M380.1,229.1l1.6-4.5l0.6,0.2l-0.1,0.8c0.3-0.2,0.6-0.3,0.8-0.3c0.3-0.1,0.6,0,0.9,0.1c0.1,0,0.1,0.1,0.2,0.1
				c0.1,0,0.1,0.1,0.2,0.1l-0.3,0.9c-0.1,0-0.2-0.1-0.2-0.1c-0.1,0-0.2-0.1-0.3-0.1c-0.2-0.1-0.4-0.1-0.5-0.1c-0.2,0-0.3,0-0.5,0
				c-0.2,0-0.3,0.1-0.5,0.2l-1.1,3.1L380.1,229.1z"/>
			<path d="M385.3,231c-0.5-0.2-0.8-0.4-1.1-0.6c-0.2-0.2-0.3-0.6-0.3-0.9c0-0.4,0.1-0.9,0.3-1.4c0.2-0.6,0.4-1,0.7-1.3
				c0.2-0.3,0.5-0.4,0.9-0.5c0.3,0,0.7,0,1.2,0.2c0.4,0.2,0.7,0.3,1,0.5c0.2,0.2,0.4,0.4,0.4,0.7c0,0.3,0,0.6-0.2,1
				c-0.1,0.3-0.2,0.5-0.4,0.6c-0.2,0.1-0.4,0.2-0.6,0.2c-0.2,0-0.5,0-0.7-0.1l-1.5-0.5c-0.1,0.3-0.2,0.6-0.2,0.8
				c0,0.2,0.1,0.4,0.2,0.6c0.1,0.2,0.4,0.3,0.8,0.4l1.4,0.5l-0.2,0.5c-0.3-0.1-0.5-0.1-0.8-0.2C385.9,231.2,385.6,231.1,385.3,231z
				 M385.1,228.1l1.4,0.5c0.2,0.1,0.4,0.1,0.5,0.1c0.1,0,0.2-0.2,0.3-0.4c0.1-0.2,0.1-0.4,0.1-0.6c0-0.2-0.1-0.3-0.2-0.4
				c-0.1-0.1-0.3-0.2-0.5-0.3c-0.3-0.1-0.5-0.1-0.7-0.1c-0.2,0-0.4,0.1-0.5,0.3C385.4,227.5,385.3,227.7,385.1,228.1z"/>
			<path d="M389.8,232.7c-0.5-0.2-0.8-0.4-1.1-0.6c-0.2-0.2-0.3-0.6-0.3-0.9c0-0.4,0.1-0.9,0.3-1.4c0.2-0.6,0.4-1,0.7-1.3
				c0.2-0.3,0.5-0.4,0.9-0.5c0.3,0,0.7,0,1.2,0.2c0.4,0.2,0.7,0.3,1,0.5c0.2,0.2,0.4,0.4,0.4,0.7c0,0.3,0,0.6-0.2,1
				c-0.1,0.3-0.2,0.5-0.4,0.6c-0.2,0.1-0.4,0.2-0.6,0.2c-0.2,0-0.5,0-0.7-0.1l-1.5-0.5c-0.1,0.3-0.2,0.6-0.2,0.8
				c0,0.2,0.1,0.4,0.2,0.6c0.1,0.2,0.4,0.3,0.8,0.4l1.4,0.5l-0.2,0.5c-0.3-0.1-0.5-0.1-0.8-0.2C390.4,232.9,390.1,232.8,389.8,232.7
				z M389.6,229.8l1.4,0.5c0.2,0.1,0.4,0.1,0.5,0.1c0.1,0,0.2-0.2,0.3-0.4c0.1-0.2,0.1-0.4,0.1-0.6c0-0.2-0.1-0.3-0.2-0.4
				c-0.1-0.1-0.3-0.2-0.5-0.3c-0.3-0.1-0.5-0.1-0.7-0.1c-0.2,0-0.4,0.1-0.5,0.3C389.9,229.1,389.8,229.4,389.6,229.8z"/>
			<path d="M392.6,233.6l1.6-4.5l0.7,0.2l0,0.5c0.3-0.1,0.5-0.1,0.9-0.1c0.3,0,0.6,0,0.9,0.1c0.3,0.1,0.6,0.3,0.7,0.5
				c0.2,0.2,0.2,0.5,0.2,0.7s0,0.5-0.1,0.8l-1.1,3l-0.8-0.3l1.1-2.9c0.1-0.2,0.1-0.3,0.1-0.5c0-0.2-0.1-0.3-0.2-0.4
				c-0.1-0.1-0.2-0.2-0.4-0.3c-0.2-0.1-0.3-0.1-0.5-0.1c-0.2,0-0.3,0-0.5,0c-0.1,0-0.3,0-0.5,0.1l-1.2,3.4L392.6,233.6z"/>
		</g>
	</g>
	<path class="st4" d="M359.2,231.7c0.1,0.1,0.2,0.2,0.2,0.3C359.3,232,359.3,231.9,359.2,231.7z"/>
	<path class="st4" d="M363.3,224.8c0,0.3-0.1,0.6-0.2,0.9l-3.1,2.6c-0.3-0.2-0.6-0.5-0.7-0.8c0,0.5,0,1,0,1.5l-1.7,1.5
		c-0.6-0.4-1.2-0.8-1.9-1.3c0.5-0.4,0.8-0.9,1.2-1.4C358.4,225.8,360.9,225.1,363.3,224.8z"/>
</g>
<g>
	<g>
		<g>
			<path class="st0" d="M53.7,306.3c1.3,0.7,2.5,1.3,3.5,1.8c1,0.5,1.9,0.9,2.7,1.3c0.9,0.4,1.7,0.8,2.3,1c0.7,0.3,1.6,0.6,2.7,0.9
				c1,0.3,2.2,0.6,3.7,1c1.5,0.4,3.3,0.8,5.5,1.3c-1,0.2-1.9,0.5-2.5,0.8c-0.7,0.3-1.2,0.7-1.5,1c-0.4,0.4-0.8,0.8-0.9,1.2
				c-0.2,0.5-0.1,2,0.2,4c0.1,0.8,0.2,1.9,0.4,3.1c0.2,1.2,0.5,2.7,0.8,4.3c0.3,1.7,0.7,3.5,1.2,5.7c0.5,2.1,1.1,4.5,1.7,7.1
				c0.8-1.9,1.4-3.6,1.9-5c0.5-1.4,0.9-2.7,1.3-3.7c0.4-1.1,0.7-2.2,1-3c0.3-0.9,0.6-2.1,1-3.5c0.3-1.2,0.7-2.8,1.2-4.7
				c0.5-1.9,1.1-4.2,1.8-7c0.9,0.3,1.3,0.5,2.2,0.8c0.2,2.3,0.5,4.3,0.8,6.1c0.3,1.7,0.5,3.2,0.7,4.4c0.2,1.4,0.4,2.6,0.6,3.6
				c0.2,0.9,0.4,2,0.8,3.2c0.3,1,0.7,2.3,1.2,3.8c0.5,1.5,1.1,3.1,1.9,4.9c0.7-2.1,1.3-4,1.9-5.6c0.6-1.6,1-3.1,1.4-4.3
				c0.4-1.2,0.8-2.3,1-3.2c0.3-0.9,0.5-1.6,0.7-2.2c0.4-1.4,0.7-2.4,0.7-2.8c0-0.5-0.2-1.1-0.6-1.7c-0.3-0.5-0.8-1.1-1.4-1.8
				c-0.6-0.7-1.5-1.4-2.7-2.2c2.5,0.6,4.5,1,6.1,1.3c1.6,0.3,2.9,0.5,3.8,0.6c1,0.2,1.5,0.2,2.5,0.4c0.9,0.1,1.3,0.2,2.2,0.3
				c0.8,0.1,1.9,0.2,3.3,0.4c1.3,0.1,3.1,0.3,5.2,0.4c-1.8,0.5-3.3,0.9-4.4,1.3c-1.1,0.4-2,0.7-2.6,1c-0.7,0.4-1.4,0.7-1.6,0.9
				c-0.3,0.4-0.8,1.7-1.5,3.6c-0.3,0.8-0.7,1.8-1.1,3c-0.4,1.2-0.8,2.7-1.4,4.4c-0.5,1.7-1.1,3.7-1.8,6.1c-0.7,2.3-1.4,5-2.2,8.1
				c-4.2-0.3-6.4-0.5-10.6-0.9c-1.9-5.8-2.9-8.8-4.8-15c-0.6,2.6-1.2,4.8-1.5,6.5c-0.4,1.7-0.7,3-0.8,3.9c-0.2,1.1-0.3,2-0.4,2.5
				c0,0.5-0.1,0.9-0.1,1.3c0,0.4-0.1,0.8-0.1,1.2c-0.1,0.4-0.1,0.8-0.2,1.2c-4.3,0-6.5,0-10.8,0c-1.1-4.1-2.1-7.8-3-11.1
				c-0.9-3.3-1.6-6.3-2.3-8.9c-0.7-2.6-1.2-4.8-1.7-6.7c-0.5-1.9-0.9-3.5-1.3-4.8c-0.8-3-1.4-5-1.8-5.7c-0.3-0.4-0.6-0.9-1.1-1.5
				c-0.4-0.5-0.8-1.1-1.3-1.8C55.1,308.1,54.5,307.3,53.7,306.3z"/>
			<path class="st0" d="M107.3,330.8c4.6,0.4,6.8,0.5,11.4,0.7c-0.6,1.6-1.1,3-1.4,4.1c-0.3,1.1-0.5,2.1-0.6,2.9
				c-0.1,0.9-0.2,1.7-0.1,2.2c0.1,0.5,0.3,1.2,0.6,1.8c0.2,0.5,0.6,1.2,1.1,1.9c0.5,0.7,1.2,1.4,2,2.1c-0.5-0.1-1-0.2-1.6-0.3
				c-0.6-0.1-1.1-0.1-1.6-0.1c-0.6,0-1.1,0-1.7,0c-0.6,0-1.2,0.1-1.9,0.1c-0.6,0-1.3,0.1-2.1,0.2c-0.8,0.1-1.7,0.2-2.6,0.3
				c0.6-1.2,1.1-2.3,1.4-3.2c0.3-0.9,0.6-1.6,0.7-2.2c0.2-0.7,0.3-1.3,0.3-1.7c0-0.5,0-1.2,0-1.9c0-0.7,0-1.4,0-2
				c0-0.7,0-1.2-0.1-1.7c0-0.5-0.1-0.8-0.3-1c-0.2-0.2-0.4-0.3-0.6-0.4c-0.2-0.2-0.6-0.4-1.1-0.7
				C108.8,331.6,108.1,331.3,107.3,330.8z M111.6,324.8c0.9-0.2,1.7-0.2,2.6,0c0.9,0.2,1.6,0.5,2.1,0.9c0.5,0.4,0.7,0.9,0.5,1.4
				c-0.1,0.5-0.8,1-2,1.4c-1.2,0.4-2.2,0.5-3.2,0.3c-0.9-0.2-1.6-0.5-1.9-1c-0.4-0.5-0.4-1-0.2-1.6
				C109.9,325.6,110.5,325.1,111.6,324.8z"/>
			<path class="st0" d="M121.7,324.3c1.2,0.1,2.3,0.2,3.2,0.3c0.9,0.1,1.6,0.1,2.1,0.2c0.6,0,1.1,0,1.5,0.1c0.4,0,0.9,0,1.5,0
				c0.5,0,1.2-0.1,2.1-0.1c0.9,0,2-0.1,3.3-0.2c-0.3,0.3-0.5,0.5-0.7,0.7c-0.2,0.2-0.3,0.4-0.4,0.5c-0.1,0.2-0.2,0.3-0.4,0.5
				c-0.1,0.2-0.2,0.3-0.3,0.5c-0.1,0.1-0.2,0.3-0.2,0.5c-0.1,0.2-0.1,0.4-0.2,0.6c3.8,0,5.8-0.1,9.6-0.2c-0.4,1.3-0.5,2-0.9,3.3
				c-3.5,0-5.2,0-8.8-0.1c-0.2,1.3-0.4,2.4-0.4,3.1c-0.1,0.7-0.2,1.3-0.2,1.6c0,0.3-0.1,0.4-0.1,0.7c-0.1,1-0.2,2.1-0.4,3.3
				c-0.1,1.2-0.2,2.3-0.1,3.3c0,1,0.2,1.8,0.4,2.5c0.2,0.7,0.7,1,1.3,1c0.6,0,1.2-0.1,1.7-0.3c0.5-0.2,1-0.5,1.4-0.8
				c0.4-0.3,0.7-0.6,0.9-0.9c0.2-0.3,0.3-0.5,0.3-0.7c0-0.2-0.1-0.3-0.2-0.6c-0.2-0.4-0.6-0.9-1.1-1.5c1.2,0.2,2.2,0.4,3.1,0.5
				c0.5,0.1,0.9,0.2,1.2,0.3c0.4,0.1,0.9,0.2,1.4,0.3c0.4,0.1,1,0.3,1.7,0.5c0.7,0.2,1.5,0.4,2.5,0.6c-0.9,0.1-1.6,0.3-2,0.5
				c-0.2,0.1-0.4,0.2-0.6,0.4c-0.3,0.3-0.6,0.7-1,1.2c-0.4,0.5-0.9,1-1.7,1.5c-0.7,0.5-1.7,0.9-3,1.3c-1.2,0.4-2.9,0.6-5,0.6
				c-2.2,0.1-3.8-0.2-4.9-0.7c-1.1-0.5-1.9-1.1-2.5-1.8c-0.5-0.7-0.8-1.4-0.9-2.1c-0.1-0.7-0.1-1.1-0.2-1.4c0-0.2,0-0.8,0-1.8
				c0-0.9,0.1-2,0.2-3.1c0.1-1.1,0.2-2.3,0.2-3.3c0.1-1.1,0.1-1.8,0.1-2.4c0-0.3,0-0.6,0.1-0.8c0-0.2,0-0.5,0-0.8c0-0.3,0-0.5,0-0.8
				c-3.6-0.1-5.4-0.2-9-0.4c-0.2-0.9-0.2-1.4-0.4-2.3c3.6,0.3,5.4,0.4,9.1,0.5c-0.1-0.3-0.2-0.6-0.3-0.8c-0.1-0.3-0.2-0.5-0.3-0.6
				c-0.1-0.2-0.3-0.4-0.4-0.5c-0.1-0.1-0.4-0.3-0.6-0.5c-0.2-0.1-0.5-0.3-0.8-0.5C122.6,324.9,122.2,324.6,121.7,324.3z"/>
			<path class="st0" d="M178.6,332.6c-0.5,0-1.1,0-1.8,0.1c-0.7,0.1-1.4,0.1-2.1,0.2c-0.7,0.1-1.5,0.2-2.3,0.3
				c-0.9,0.1-1.7,0.2-2.6,0.4c-0.7,0.1-1.6,0.2-2.5,0.3c-0.9,0.1-1.8,0.3-2.7,0.4c0.3-0.1,0.6-0.3,0.9-0.6c0.3-0.2,0.5-0.5,0.7-0.7
				c0.2-0.2,0.4-0.5,0.6-0.8c0.2-0.4,0.2-1,0-1.6c-0.2-0.6-0.7-1.1-1.3-1.6c-0.6-0.4-1.4-0.8-2.4-1c-1-0.2-2-0.1-3.2,0.1
				c-1.2,0.3-2.3,0.7-3.3,1.2c-1,0.5-1.8,1.1-2.4,1.8c-0.6,0.7-1.1,1.6-1.4,2.6c-0.3,1-0.4,2.1-0.3,3.5c0.1,1.7,0.5,3,1.2,3.9
				c0.6,1,1.4,1.7,2.4,2.2c0.9,0.5,2,0.8,3.1,0.8c1.1,0.1,2.3,0.1,3.3-0.1c0.8-0.1,1.5-0.4,2.2-0.8c0.5-0.3,1-0.8,1.5-1.5
				c0.5-0.6,0.7-1.5,0.7-2.6c3-0.3,4.5-0.4,7.5-0.7c-0.9,1.9-2,3.3-3.2,4.4c-1.2,1.1-2.4,1.9-3.6,2.5c-1.4,0.7-2.7,1.2-4.1,1.4
				c-1.6,0.3-3.2,0.3-4.5,0.3c-1.3,0-2.5-0.1-3.5-0.4c-1.1-0.2-2-0.5-2.9-0.8c-0.9-0.3-1.8-0.7-2.6-1c-0.5-0.2-1.1-0.6-1.8-1.2
				c-0.6-0.6-1.3-1.2-1.8-2c-0.6-0.8-1-1.6-1.4-2.6c-0.4-1-0.5-1.9-0.4-3c0.1-1,0.5-2.1,1.1-3.1c0.7-1.1,1.7-2.1,3.2-3.2
				c2.2-1.6,4.6-2.7,7.1-3.4c2.5-0.7,4.9-1.1,7.1-1.2c2.2-0.1,4.2,0.1,5.9,0.6c1.7,0.5,2.9,1.1,3.6,1.8c0.7,0.7,1.2,1.3,1.5,1.7
				c0.3,0.4,0.6,0.7,0.8,0.9c0.2,0.2,0.3,0.4,0.5,0.4c0.1,0.1,0.4,0.2,0.6,0.4c0.2,0.1,0.4,0.3,0.7,0.4c0.2,0.1,0.5,0.3,0.8,0.5
				C177.8,332.2,178.2,332.3,178.6,332.6z"/>
			<path class="st0" d="M177.7,313.8c0.9-0.1,1.8-0.2,2.6-0.4c0.8-0.2,1.4-0.3,1.9-0.4c0.6-0.1,1.1-0.3,1.6-0.4
				c0.6-0.2,1.3-0.5,2.1-0.8c0.7-0.3,1.5-0.6,2.5-1c1-0.4,2.1-0.9,3.4-1.5c-0.6,0.5-1.1,0.9-1.5,1.3c-0.4,0.4-0.7,0.8-1,1.1
				c-0.3,0.4-0.5,0.8-0.7,1.1c-0.2,0.5-0.4,1.5-0.7,2.9c-0.2,1.2-0.6,3.1-1,5.5c-0.4,2.4-0.9,5.6-1.5,9.6c1.5-1.4,2.9-2.6,4.2-3.4
				c1.3-0.9,2.5-1.6,3.5-2.1c1.2-0.6,2.3-1,3.3-1.2c1.2-0.2,2.5-0.1,3.8,0.2c1.3,0.3,2.5,0.8,3.7,1.4c1.1,0.6,2.1,1.3,3,2.2
				c0.9,0.8,1.5,1.6,1.8,2.3c0.2,0.5,0.4,1.2,0.4,2c0,0.8-0.1,1.8-0.2,2.8c-0.2,1-0.4,2-0.7,3.1c-0.3,1-0.6,2-0.8,2.9
				c-0.3,0.9-0.5,1.7-0.7,2.4c-0.2,0.7-0.3,1.1-0.4,1.4c-0.1,0.6,0,1.2,0.1,1.7c0.1,0.5,0.4,1,0.7,1.5c0.4,0.5,0.9,1,1.7,1.4
				c-0.6-0.1-1.2-0.2-1.8-0.2c-0.6-0.1-1.2-0.1-1.8-0.1c-0.6,0-1.3-0.1-2-0.1c-0.9,0-1.3,0-2.2,0c-0.7,0-1.5,0-2.4,0
				c-0.9,0-1.9,0.1-2.9,0.1c0.6-0.2,1.1-0.4,1.5-0.7c0.4-0.3,0.8-0.6,1-0.9c0.3-0.3,0.6-0.7,0.9-1.1c0.2-0.3,0.4-0.9,0.6-1.7
				c0.3-0.9,0.5-1.8,0.7-3c0.2-1.1,0.4-2.3,0.5-3.6c0.1-1.3,0.1-2.5,0.1-3.6c-0.1-1.1-0.2-2.2-0.5-3c-0.3-0.9-0.7-1.4-1.3-1.7
				c-1.8-0.9-3.4-1.2-4.9-1c-1.5,0.3-2.9,1-4.2,2.2c-0.5,0.5-1,0.9-1.4,1.3c-0.4,0.4-0.9,0.9-1.4,1.4c-0.5,0.5-1,1-1.4,1.5
				c0,0.5,0,1,0,1.6c0,0.6,0.1,1.2,0.1,1.7c0,0.6,0.1,1.3,0.2,1.9c0.1,0.9,0.2,1.9,0.3,2.8c0.1,0.8,0.3,1.7,0.4,2.6
				c0.2,1,0.4,1.8,0.8,2.6c-0.5-0.1-1.1-0.1-1.7-0.1c-0.6,0-1.1,0-1.7,0c-0.6,0-1.2,0-1.8,0.1c-0.5,0-1.1,0.1-1.7,0.2
				c-0.5,0.1-1,0.1-1.6,0.2c-0.6,0.1-1.1,0.1-1.7,0.2c0.5-0.7,0.9-1.4,1.3-2.2c0.3-0.7,0.6-1.4,0.8-1.9c0.3-0.6,0.5-1.3,0.6-1.9
				c0.1-0.5,0.2-1.4,0.3-2.8c0.1-1.4,0.2-2.9,0.2-4.7c0.1-1.8,0.1-3.7,0.2-5.7c0-2,0.1-3.9,0-5.7c0-1.8,0-3.4-0.1-4.7
				c-0.1-1.3-0.2-2.3-0.3-2.7c-0.1-0.5-0.4-0.9-0.6-1.4c-0.2-0.4-0.6-0.7-1-1.1C178.8,314.1,178.3,313.9,177.7,313.8z"/>
		</g>
	</g>
	<g>
		<path class="st3" d="M100.9,347.2l-3.8-1.4c-0.1-0.5-0.1-1-0.1-1.6c-0.3,0.4-0.6,0.8-0.9,1.2l-1.5-0.6c0.1-0.4,0.2-0.9,0.4-1.3
			c-0.5,0.3-1,0.6-1.6,0.8c-0.1-0.5,0-1.1,0.2-1.6c-0.6,0.3-1.2,0.7-1.9,1l-40-14.6c-1-0.4-1.4-1.4-1.1-2.4l3.5-9.7
			c0.3-1,1.4-1.5,2.4-1.1l4.6,1.7c-0.1,0.7-0.2,1.5-0.4,2.2c0.1-0.1,0.2-0.2,0.4-0.3c0.7-0.4,1.4-0.7,2.1-1.1l0.9,0.3
			c0,0.3,0.1,0.6,0.3,0.8c0.2-0.2,0.3-0.3,0.5-0.5c-0.2,0.2,0.1,0.6,0.3,0.6c0.3,0.1,0.6,0,0.9,0.1c0,0.3,0,0.6,0.2,0.8
			c0.5-0.2,1-0.4,1.6-0.6l37.8,13.8c1,0.3,1.4,1.4,1.1,2.3l-3.5,9.7C102.9,347.1,101.9,347.6,100.9,347.2z"/>
		<g>
			<path d="M55.7,326.6c-0.3-0.1-0.5-0.2-0.6-0.4c-0.2-0.2-0.3-0.3-0.3-0.6c0-0.2,0-0.5,0.1-0.8l1.8-4.9l0.8,0.3l-1.7,4.7
				c-0.1,0.2-0.1,0.3-0.1,0.4c0,0.1,0.1,0.2,0.2,0.3c0.1,0.1,0.2,0.1,0.3,0.2l2.1,0.8l-0.3,0.8L55.7,326.6z"/>
			<path d="M60.1,328.3c-0.4-0.2-0.7-0.4-0.9-0.7c-0.1-0.3-0.1-0.7,0-1.2l1.1-3.2l0.8,0.3l-1.1,2.9c-0.1,0.3-0.1,0.6,0,0.8
				c0.1,0.2,0.3,0.3,0.6,0.4c0.2,0.1,0.4,0.1,0.7,0.1c0.2,0,0.5,0,0.7-0.1l1.2-3.4l0.8,0.3l-1.6,4.5l-0.7-0.2l0-0.5
				c-0.3,0.1-0.6,0.1-0.9,0.1C60.7,328.4,60.4,328.4,60.1,328.3z"/>
			<path d="M65.4,330.2c-0.3-0.1-0.5-0.2-0.7-0.4c-0.2-0.1-0.3-0.3-0.4-0.6c-0.1-0.2-0.1-0.5-0.1-0.8c0-0.3,0.1-0.7,0.3-1.2
				c0.2-0.5,0.3-0.8,0.5-1.1c0.2-0.3,0.4-0.5,0.6-0.6c0.2-0.1,0.5-0.2,0.7-0.1c0.3,0,0.5,0.1,0.8,0.2c0.2,0.1,0.5,0.2,0.7,0.3
				c0.3,0.1,0.5,0.2,0.7,0.4l-0.2,0.5l-1.3-0.5c-0.3-0.1-0.5-0.1-0.7-0.1c-0.2,0-0.4,0.1-0.6,0.3c-0.2,0.2-0.3,0.5-0.5,1
				c-0.2,0.4-0.2,0.8-0.2,1.1c0,0.3,0.1,0.5,0.2,0.6c0.2,0.1,0.4,0.3,0.6,0.4l1.3,0.5l-0.2,0.5c-0.1,0-0.3,0-0.5-0.1
				c-0.2,0-0.4-0.1-0.6-0.1C65.8,330.3,65.6,330.2,65.4,330.2z"/>
			<path d="M67.8,331l2.3-6.4l0.8,0.3l-1.3,3.6l0.6,0.2l1.9-1.3l0.9,0.3l-2.3,1.5l0.7,3l-0.9-0.3l-0.6-2.5l-0.6-0.2l-0.7,2L67.8,331
				z"/>
			<path d="M72.7,335l1.3-1.8c-0.2-0.1-0.3-0.2-0.5-0.3c-0.1-0.1-0.2-0.3-0.3-0.5c-0.1-0.2-0.1-0.5-0.1-0.8l0.2-3.7l0.9,0.3
				l-0.3,3.5c0,0.2,0,0.3,0,0.4c0,0.1,0.1,0.2,0.1,0.2c0.1,0.1,0.1,0.1,0.2,0.1c0,0,0.1,0,0.1,0l2.4-3.4l0.9,0.3l-3.6,5.1l-0.7,0.7
				L72.7,335z"/>
			<path d="M80.8,335.8c-0.4-0.1-0.7-0.3-0.9-0.5c-0.2-0.2-0.3-0.5-0.4-0.8c0-0.3,0-0.7,0.1-1.1c0.1-0.4,0.2-0.9,0.4-1.4
				c0.2-0.5,0.4-1,0.6-1.3c0.2-0.4,0.4-0.7,0.7-0.9c0.3-0.2,0.5-0.3,0.9-0.4c0.3,0,0.7,0,1.1,0.2c0.2,0.1,0.5,0.2,0.7,0.3
				s0.4,0.2,0.7,0.3c0.2,0.1,0.4,0.2,0.6,0.3l-0.2,0.6c-0.1-0.1-0.3-0.1-0.5-0.2c-0.2-0.1-0.4-0.2-0.6-0.3c-0.2-0.1-0.5-0.2-0.7-0.3
				c-0.4-0.1-0.7-0.2-1-0.1c-0.3,0.1-0.5,0.3-0.7,0.6s-0.4,0.8-0.6,1.3c-0.2,0.5-0.3,0.9-0.4,1.2c-0.1,0.3-0.1,0.6,0,0.8
				c0,0.2,0.1,0.4,0.3,0.5c0.1,0.1,0.4,0.3,0.6,0.4c0.3,0.1,0.5,0.2,0.8,0.2c0.3,0,0.5,0,0.7,0.1l0.6-1.6l-1.4-0.5l0.2-0.6
				c0.1,0,0.3,0.1,0.4,0.1c0.2,0,0.3,0.1,0.5,0.1c0.2,0.1,0.3,0.1,0.5,0.2c0.2,0.1,0.3,0.1,0.4,0.2c0.1,0.1,0.2,0.1,0.3,0.2
				l-1.2,3.3l-0.6-0.2l0-0.5c-0.2,0-0.5,0-0.8,0C81.5,336,81.2,335.9,80.8,335.8z"/>
			<path d="M84.5,337.1l1.6-4.5l0.6,0.2l-0.1,0.8c0.3-0.2,0.6-0.3,0.8-0.3c0.3-0.1,0.6,0,0.9,0.1c0.1,0,0.1,0.1,0.2,0.1
				c0.1,0,0.1,0.1,0.2,0.1l-0.3,0.9c-0.1,0-0.2-0.1-0.2-0.1c-0.1,0-0.2-0.1-0.3-0.1c-0.2-0.1-0.4-0.1-0.5-0.1c-0.2,0-0.3,0-0.5,0
				c-0.2,0-0.3,0.1-0.5,0.2l-1.1,3.1L84.5,337.1z"/>
			<path d="M89.7,339c-0.5-0.2-0.8-0.4-1.1-0.6c-0.2-0.2-0.3-0.6-0.3-0.9c0-0.4,0.1-0.9,0.3-1.4c0.2-0.6,0.4-1,0.7-1.3
				c0.2-0.3,0.5-0.4,0.9-0.5c0.3,0,0.7,0,1.2,0.2c0.4,0.2,0.7,0.3,1,0.5c0.2,0.2,0.4,0.4,0.4,0.7c0,0.3,0,0.6-0.2,1
				c-0.1,0.3-0.2,0.5-0.4,0.6c-0.2,0.1-0.4,0.2-0.6,0.2c-0.2,0-0.5,0-0.7-0.1l-1.5-0.5c-0.1,0.3-0.2,0.6-0.2,0.8
				c0,0.2,0.1,0.4,0.2,0.6c0.1,0.2,0.4,0.3,0.8,0.4l1.4,0.5l-0.2,0.5c-0.3-0.1-0.5-0.1-0.8-0.2C90.3,339.3,90,339.2,89.7,339z
				 M89.5,336.2l1.4,0.5c0.2,0.1,0.4,0.1,0.5,0.1c0.1,0,0.2-0.2,0.3-0.4c0.1-0.2,0.1-0.4,0.1-0.6c0-0.2-0.1-0.3-0.2-0.4
				c-0.1-0.1-0.3-0.2-0.5-0.3c-0.3-0.1-0.5-0.1-0.7-0.1c-0.2,0-0.4,0.1-0.5,0.3C89.8,335.5,89.7,335.8,89.5,336.2z"/>
			<path d="M94.2,340.7c-0.5-0.2-0.8-0.4-1.1-0.6c-0.2-0.2-0.3-0.6-0.3-0.9c0-0.4,0.1-0.9,0.3-1.4c0.2-0.6,0.4-1,0.7-1.3
				c0.2-0.3,0.5-0.4,0.9-0.5c0.3,0,0.7,0,1.2,0.2c0.4,0.2,0.7,0.3,1,0.5c0.2,0.2,0.4,0.4,0.4,0.7c0,0.3,0,0.6-0.2,1
				c-0.1,0.3-0.2,0.5-0.4,0.6c-0.2,0.1-0.4,0.2-0.6,0.2c-0.2,0-0.5,0-0.7-0.1l-1.5-0.5c-0.1,0.3-0.2,0.6-0.2,0.8
				c0,0.2,0.1,0.4,0.2,0.6c0.1,0.2,0.4,0.3,0.8,0.4l1.4,0.5l-0.2,0.5c-0.3-0.1-0.5-0.1-0.8-0.2C94.9,340.9,94.6,340.8,94.2,340.7z
				 M94,337.8l1.4,0.5c0.2,0.1,0.4,0.1,0.5,0.1c0.1,0,0.2-0.2,0.3-0.4c0.1-0.2,0.1-0.4,0.1-0.6c0-0.2-0.1-0.3-0.2-0.4
				c-0.1-0.1-0.3-0.2-0.5-0.3c-0.3-0.1-0.5-0.1-0.7-0.1c-0.2,0-0.4,0.1-0.5,0.3C94.3,337.1,94.2,337.4,94,337.8z"/>
			<path d="M97,341.6l1.6-4.5l0.7,0.2l0,0.5c0.3-0.1,0.5-0.1,0.9-0.1c0.3,0,0.6,0,0.9,0.1c0.3,0.1,0.6,0.3,0.7,0.5
				c0.2,0.2,0.2,0.5,0.2,0.7c0,0.3,0,0.5-0.1,0.8l-1.1,3l-0.8-0.3l1.1-2.9c0.1-0.2,0.1-0.3,0.1-0.5c0-0.2-0.1-0.3-0.2-0.4
				c-0.1-0.1-0.2-0.2-0.4-0.3c-0.2-0.1-0.3-0.1-0.5-0.1c-0.2,0-0.3,0-0.5,0c-0.1,0-0.3,0-0.5,0.1l-1.2,3.4L97,341.6z"/>
		</g>
	</g>
	<path class="st4" d="M64.7,339.5c0.1,0.1,0.2,0.2,0.2,0.3C64.8,339.7,64.7,339.6,64.7,339.5z"/>
	<path class="st4" d="M68.7,332.5c0,0.3-0.1,0.6-0.2,0.9l-3.1,2.6c-0.3-0.2-0.6-0.5-0.7-0.8c0,0.5,0,1,0,1.5L63,338
		c-0.6-0.4-1.2-0.8-1.9-1.3c0.5-0.4,0.8-0.9,1.2-1.4C63.8,333.5,66.3,332.8,68.7,332.5z"/>
</g>
<g>
	<g>
		<g>
			<path class="st5" d="M53.7,23.7c1.3,0.7,2.5,1.3,3.5,1.8c1,0.5,1.9,0.9,2.7,1.3c0.9,0.4,1.7,0.8,2.3,1c0.7,0.3,1.6,0.6,2.7,0.9
				c1,0.3,2.2,0.6,3.7,1c1.5,0.4,3.3,0.8,5.5,1.3c-1,0.2-1.9,0.5-2.5,0.8c-0.7,0.3-1.2,0.7-1.5,1c-0.4,0.4-0.8,0.8-0.9,1.2
				c-0.2,0.5-0.1,2,0.2,4c0.1,0.8,0.2,1.9,0.4,3.1c0.2,1.2,0.5,2.7,0.8,4.3c0.3,1.7,0.7,3.5,1.2,5.7c0.5,2.1,1.1,4.5,1.7,7.1
				c0.8-1.9,1.4-3.6,1.9-5c0.5-1.4,0.9-2.7,1.3-3.7c0.4-1.1,0.7-2.2,1-3c0.3-0.9,0.6-2.1,1-3.5c0.3-1.2,0.7-2.8,1.2-4.7
				c0.5-1.9,1.1-4.2,1.8-7c0.9,0.3,1.3,0.5,2.2,0.8c0.2,2.3,0.5,4.3,0.8,6.1c0.3,1.7,0.5,3.2,0.7,4.4c0.2,1.4,0.4,2.6,0.6,3.6
				c0.2,0.9,0.4,2,0.8,3.2c0.3,1,0.7,2.3,1.2,3.8c0.5,1.5,1.1,3.1,1.9,4.9c0.7-2.1,1.3-4,1.9-5.6c0.6-1.6,1-3.1,1.4-4.3
				c0.4-1.2,0.8-2.3,1-3.2c0.3-0.9,0.5-1.6,0.7-2.2c0.4-1.4,0.7-2.4,0.7-2.8c0-0.5-0.2-1.1-0.6-1.7c-0.3-0.5-0.8-1.1-1.4-1.8
				c-0.6-0.7-1.5-1.4-2.7-2.2c2.5,0.6,4.5,1,6.1,1.3c1.6,0.3,2.9,0.5,3.8,0.6c1,0.2,1.5,0.2,2.5,0.4c0.9,0.1,1.3,0.2,2.2,0.3
				c0.8,0.1,1.9,0.2,3.3,0.4c1.3,0.1,3.1,0.3,5.2,0.4c-1.8,0.5-3.3,0.9-4.4,1.3c-1.1,0.4-2,0.7-2.6,1c-0.7,0.4-1.4,0.7-1.6,0.9
				c-0.3,0.4-0.8,1.7-1.5,3.6c-0.3,0.8-0.7,1.8-1.1,3c-0.4,1.2-0.8,2.7-1.4,4.4c-0.5,1.7-1.1,3.7-1.8,6.1c-0.7,2.3-1.4,5-2.2,8.1
				c-4.2-0.3-6.4-0.5-10.6-0.9c-1.9-5.8-2.9-8.8-4.8-15c-0.6,2.6-1.2,4.8-1.5,6.5c-0.4,1.7-0.7,3-0.8,3.9c-0.2,1.1-0.3,2-0.4,2.5
				c0,0.5-0.1,0.9-0.1,1.3c0,0.4-0.1,0.8-0.1,1.2c-0.1,0.4-0.1,0.8-0.2,1.2c-4.3,0-6.5,0-10.8,0c-1.1-4.1-2.1-7.8-3-11.1
				c-0.9-3.3-1.6-6.3-2.3-8.9C62,44.3,61.5,42,61,40.2c-0.5-1.9-0.9-3.5-1.3-4.8c-0.8-3-1.4-5-1.8-5.7c-0.3-0.4-0.6-0.9-1.1-1.5
				c-0.4-0.5-0.8-1.1-1.3-1.8C55.1,25.6,54.5,24.7,53.7,23.7z"/>
			<path class="st5" d="M107.3,48.3c4.6,0.4,6.8,0.5,11.4,0.7c-0.6,1.6-1.1,3-1.4,4.1c-0.3,1.1-0.5,2.1-0.6,2.9
				c-0.1,0.9-0.2,1.7-0.1,2.2c0.1,0.5,0.3,1.2,0.6,1.8c0.2,0.5,0.6,1.2,1.1,1.9c0.5,0.7,1.2,1.4,2,2.1c-0.5-0.1-1-0.2-1.6-0.3
				c-0.6-0.1-1.1-0.1-1.6-0.1c-0.6,0-1.1,0-1.7,0c-0.6,0-1.2,0.1-1.9,0.1c-0.6,0-1.3,0.1-2.1,0.2c-0.8,0.1-1.7,0.2-2.6,0.3
				c0.6-1.2,1.1-2.3,1.4-3.2c0.3-0.9,0.6-1.6,0.7-2.2c0.2-0.7,0.3-1.3,0.3-1.7c0-0.5,0-1.2,0-1.9c0-0.7,0-1.4,0-2
				c0-0.7,0-1.2-0.1-1.7c0-0.5-0.1-0.8-0.3-1c-0.2-0.2-0.4-0.3-0.6-0.4c-0.2-0.2-0.6-0.4-1.1-0.7C108.8,49.1,108.1,48.7,107.3,48.3z
				 M111.6,42.3c0.9-0.2,1.7-0.2,2.6,0c0.9,0.2,1.6,0.5,2.1,0.9c0.5,0.4,0.7,0.9,0.5,1.4c-0.1,0.5-0.8,1-2,1.4
				c-1.2,0.4-2.2,0.5-3.2,0.3c-0.9-0.2-1.6-0.5-1.9-1c-0.4-0.5-0.4-1-0.2-1.6C109.9,43.1,110.5,42.6,111.6,42.3z"/>
			<path class="st5" d="M121.7,41.8c1.2,0.1,2.3,0.2,3.2,0.3c0.9,0.1,1.6,0.1,2.1,0.2c0.6,0,1.1,0,1.5,0.1c0.4,0,0.9,0,1.5,0
				c0.5,0,1.2-0.1,2.1-0.1c0.9,0,2-0.1,3.3-0.2c-0.3,0.3-0.5,0.5-0.7,0.7c-0.2,0.2-0.3,0.4-0.4,0.5c-0.1,0.2-0.2,0.3-0.4,0.5
				c-0.1,0.2-0.2,0.3-0.3,0.5c-0.1,0.1-0.2,0.3-0.2,0.5c-0.1,0.2-0.1,0.4-0.2,0.6c3.8,0,5.8-0.1,9.6-0.2c-0.4,1.3-0.5,2-0.9,3.3
				c-3.5,0-5.2,0-8.8-0.1c-0.2,1.3-0.4,2.4-0.4,3.1c-0.1,0.7-0.2,1.3-0.2,1.6c0,0.3-0.1,0.4-0.1,0.7c-0.1,1-0.2,2.1-0.4,3.3
				c-0.1,1.2-0.2,2.3-0.1,3.3c0,1,0.2,1.8,0.4,2.5c0.2,0.7,0.7,1,1.3,1c0.6,0,1.2-0.1,1.7-0.3c0.5-0.2,1-0.5,1.4-0.8
				c0.4-0.3,0.7-0.6,0.9-0.9c0.2-0.3,0.3-0.5,0.3-0.7c0-0.2-0.1-0.3-0.2-0.6c-0.2-0.4-0.6-0.9-1.1-1.5c1.2,0.2,2.2,0.4,3.1,0.5
				c0.5,0.1,0.9,0.2,1.2,0.3c0.4,0.1,0.9,0.2,1.4,0.3c0.4,0.1,1,0.3,1.7,0.5c0.7,0.2,1.5,0.4,2.5,0.6c-0.9,0.1-1.6,0.3-2,0.5
				c-0.2,0.1-0.4,0.2-0.6,0.4c-0.3,0.3-0.6,0.7-1,1.2c-0.4,0.5-0.9,1-1.7,1.5c-0.7,0.5-1.7,0.9-3,1.3c-1.2,0.4-2.9,0.6-5,0.6
				c-2.2,0.1-3.8-0.2-4.9-0.7c-1.1-0.5-1.9-1.1-2.5-1.8c-0.5-0.7-0.8-1.4-0.9-2.1c-0.1-0.7-0.1-1.1-0.2-1.4c0-0.2,0-0.8,0-1.8
				c0-0.9,0.1-2,0.2-3.1c0.1-1.1,0.2-2.3,0.2-3.3c0.1-1.1,0.1-1.8,0.1-2.4c0-0.3,0-0.6,0.1-0.8c0-0.2,0-0.5,0-0.8c0-0.3,0-0.5,0-0.8
				c-3.6-0.1-5.4-0.2-9-0.4c-0.2-0.9-0.2-1.4-0.4-2.3c3.6,0.3,5.4,0.4,9.1,0.5c-0.1-0.3-0.2-0.6-0.3-0.8c-0.1-0.3-0.2-0.5-0.3-0.6
				c-0.1-0.2-0.3-0.4-0.4-0.5c-0.1-0.1-0.4-0.3-0.6-0.5c-0.2-0.1-0.5-0.3-0.8-0.5C122.6,42.3,122.2,42.1,121.7,41.8z"/>
			<path class="st5" d="M178.6,50c-0.5,0-1.1,0-1.8,0.1c-0.7,0.1-1.4,0.1-2.1,0.2c-0.7,0.1-1.5,0.2-2.3,0.3
				c-0.9,0.1-1.7,0.2-2.6,0.4c-0.7,0.1-1.6,0.2-2.5,0.3c-0.9,0.1-1.8,0.3-2.7,0.4c0.3-0.1,0.6-0.3,0.9-0.6c0.3-0.2,0.5-0.5,0.7-0.7
				c0.2-0.2,0.4-0.5,0.6-0.8c0.2-0.4,0.2-1,0-1.6c-0.2-0.6-0.7-1.1-1.3-1.6c-0.6-0.4-1.4-0.8-2.4-1c-1-0.2-2-0.1-3.2,0.1
				c-1.2,0.3-2.3,0.7-3.3,1.2c-1,0.5-1.8,1.1-2.4,1.8c-0.6,0.7-1.1,1.6-1.4,2.6c-0.3,1-0.4,2.1-0.3,3.5c0.1,1.7,0.5,3,1.2,3.9
				c0.6,1,1.4,1.7,2.4,2.2c0.9,0.5,2,0.8,3.1,0.8c1.1,0.1,2.3,0.1,3.3-0.1c0.8-0.1,1.5-0.4,2.2-0.8c0.5-0.3,1-0.8,1.5-1.5
				c0.5-0.6,0.7-1.5,0.7-2.6c3-0.3,4.5-0.4,7.5-0.7c-0.9,1.9-2,3.3-3.2,4.4c-1.2,1.1-2.4,1.9-3.6,2.5c-1.4,0.7-2.7,1.2-4.1,1.4
				c-1.6,0.3-3.2,0.3-4.5,0.3c-1.3,0-2.5-0.1-3.5-0.4c-1.1-0.2-2-0.5-2.9-0.8c-0.9-0.3-1.8-0.7-2.6-1c-0.5-0.2-1.1-0.6-1.8-1.2
				c-0.6-0.6-1.3-1.2-1.8-2c-0.6-0.8-1-1.6-1.4-2.6c-0.4-1-0.5-1.9-0.4-3c0.1-1,0.5-2.1,1.1-3.1c0.7-1.1,1.7-2.1,3.2-3.2
				c2.2-1.6,4.6-2.7,7.1-3.4c2.5-0.7,4.9-1.1,7.1-1.2c2.2-0.1,4.2,0.1,5.9,0.6c1.7,0.5,2.9,1.1,3.6,1.8c0.7,0.7,1.2,1.3,1.5,1.7
				c0.3,0.4,0.6,0.7,0.8,0.9c0.2,0.2,0.3,0.4,0.5,0.4c0.1,0.1,0.4,0.2,0.6,0.4c0.2,0.1,0.4,0.3,0.7,0.4c0.2,0.1,0.5,0.3,0.8,0.5
				C177.8,49.6,178.2,49.8,178.6,50z"/>
			<path class="st5" d="M177.7,31.2c0.9-0.1,1.8-0.2,2.6-0.4c0.8-0.2,1.4-0.3,1.9-0.4c0.6-0.1,1.1-0.3,1.6-0.4
				c0.6-0.2,1.3-0.5,2.1-0.8c0.7-0.3,1.5-0.6,2.5-1c1-0.4,2.1-0.9,3.4-1.5c-0.6,0.5-1.1,0.9-1.5,1.3c-0.4,0.4-0.7,0.8-1,1.1
				c-0.3,0.4-0.5,0.8-0.7,1.1c-0.2,0.5-0.4,1.5-0.7,2.9c-0.2,1.2-0.6,3.1-1,5.5c-0.4,2.4-0.9,5.6-1.5,9.6c1.5-1.4,2.9-2.6,4.2-3.4
				c1.3-0.9,2.5-1.6,3.5-2.1c1.2-0.6,2.3-1,3.3-1.2c1.2-0.2,2.5-0.1,3.8,0.2c1.3,0.3,2.5,0.8,3.7,1.4c1.1,0.6,2.1,1.3,3,2.2
				c0.9,0.8,1.5,1.6,1.8,2.3c0.2,0.5,0.4,1.2,0.4,2c0,0.8-0.1,1.8-0.2,2.8c-0.2,1-0.4,2-0.7,3.1c-0.3,1-0.6,2-0.8,2.9
				c-0.3,0.9-0.5,1.7-0.7,2.4c-0.2,0.7-0.3,1.1-0.4,1.4c-0.1,0.6,0,1.2,0.1,1.7c0.1,0.5,0.4,1,0.7,1.5c0.4,0.5,0.9,1,1.7,1.4
				c-0.6-0.1-1.2-0.2-1.8-0.2c-0.6-0.1-1.2-0.1-1.8-0.1c-0.6,0-1.3-0.1-2-0.1c-0.9,0-1.3,0-2.2,0c-0.7,0-1.5,0-2.4,0
				c-0.9,0-1.9,0.1-2.9,0.1c0.6-0.2,1.1-0.4,1.5-0.7c0.4-0.3,0.8-0.6,1-0.9c0.3-0.3,0.6-0.7,0.9-1.1c0.2-0.3,0.4-0.9,0.6-1.7
				c0.3-0.9,0.5-1.8,0.7-3c0.2-1.1,0.4-2.3,0.5-3.6c0.1-1.3,0.1-2.5,0.1-3.6c-0.1-1.1-0.2-2.2-0.5-3c-0.3-0.9-0.7-1.4-1.3-1.7
				c-1.8-0.9-3.4-1.2-4.9-1c-1.5,0.3-2.9,1-4.2,2.2c-0.5,0.5-1,0.9-1.4,1.3c-0.4,0.4-0.9,0.9-1.4,1.4s-1,1-1.4,1.5c0,0.5,0,1,0,1.6
				c0,0.6,0.1,1.2,0.1,1.7c0,0.6,0.1,1.3,0.2,1.9c0.1,0.9,0.2,1.9,0.3,2.8c0.1,0.8,0.3,1.7,0.4,2.6c0.2,1,0.4,1.8,0.8,2.6
				c-0.5-0.1-1.1-0.1-1.7-0.1c-0.6,0-1.1,0-1.7,0c-0.6,0-1.2,0-1.8,0.1c-0.5,0-1.1,0.1-1.7,0.2c-0.5,0.1-1,0.1-1.6,0.2
				c-0.6,0.1-1.1,0.1-1.7,0.2c0.5-0.7,0.9-1.4,1.3-2.2c0.3-0.7,0.6-1.4,0.8-1.9c0.3-0.6,0.5-1.3,0.6-1.9c0.1-0.5,0.2-1.4,0.3-2.8
				c0.1-1.4,0.2-2.9,0.2-4.7c0.1-1.8,0.1-3.7,0.2-5.7s0.1-3.9,0-5.7c0-1.8,0-3.4-0.1-4.7c-0.1-1.3-0.2-2.3-0.3-2.7
				c-0.1-0.5-0.4-0.9-0.6-1.4c-0.2-0.4-0.6-0.7-1-1.1C178.8,31.6,178.3,31.4,177.7,31.2z"/>
		</g>
	</g>
	<g>
		<path class="st6" d="M104.1,64.1l-3.8-1.3c-0.1-0.5-0.1-1-0.1-1.6c-0.3,0.4-0.6,0.8-0.9,1.2l-1.5-0.5c0.1-0.4,0.2-0.9,0.4-1.3
			c-0.5,0.3-1,0.6-1.5,0.9c-0.1-0.5,0-1.1,0.2-1.6c-0.6,0.3-1.2,0.7-1.9,1L54.7,46.7c-1-0.3-1.5-1.4-1.1-2.3l3.4-9.8
			c0.3-1,1.4-1.5,2.3-1.1l4.6,1.6c0,0.7-0.1,1.5-0.3,2.2c0.1-0.1,0.2-0.2,0.4-0.3c0.7-0.4,1.4-0.8,2.1-1.1l0.9,0.3
			c0,0.3,0.1,0.6,0.3,0.8c0.2-0.2,0.3-0.3,0.5-0.5c-0.2,0.2,0.1,0.6,0.3,0.6c0.3,0.1,0.6,0,0.9,0.1c0,0.3,0.1,0.6,0.2,0.8
			c0.5-0.2,1-0.4,1.6-0.6l38,13.3c1,0.3,1.5,1.4,1.1,2.3l-3.4,9.8C106.1,63.9,105,64.4,104.1,64.1z"/>
		<g>
			<path d="M58.6,44c-0.3-0.1-0.5-0.2-0.7-0.4c-0.2-0.2-0.3-0.3-0.3-0.6c0-0.2,0-0.5,0.1-0.8l1.7-4.9l0.8,0.3l-1.7,4.8
				c-0.1,0.2-0.1,0.3-0.1,0.4c0,0.1,0.1,0.2,0.2,0.3c0.1,0.1,0.2,0.1,0.3,0.2l2.1,0.8l-0.3,0.8L58.6,44z"/>
			<path d="M63,45.6c-0.4-0.1-0.7-0.4-0.9-0.7c-0.2-0.3-0.1-0.7,0-1.2l1.1-3.2l0.8,0.3l-1,2.9c-0.1,0.3-0.1,0.6,0,0.8
				c0.1,0.2,0.3,0.3,0.6,0.4c0.2,0.1,0.5,0.1,0.7,0.1c0.2,0,0.5,0,0.7-0.1l1.2-3.4l0.8,0.3l-1.6,4.5l-0.7-0.2l0-0.5
				c-0.3,0.1-0.6,0.1-0.9,0.1C63.7,45.7,63.3,45.7,63,45.6z"/>
			<path d="M68.3,47.4c-0.3-0.1-0.5-0.2-0.7-0.4c-0.2-0.1-0.3-0.3-0.5-0.6c-0.1-0.2-0.2-0.5-0.1-0.8c0-0.3,0.1-0.7,0.3-1.2
				c0.2-0.5,0.3-0.8,0.5-1.1c0.2-0.3,0.4-0.5,0.6-0.6c0.2-0.1,0.5-0.2,0.7-0.2c0.3,0,0.5,0.1,0.8,0.2c0.2,0.1,0.5,0.2,0.7,0.3
				c0.3,0.1,0.5,0.2,0.7,0.4L71.3,44L70,43.6c-0.3-0.1-0.5-0.1-0.7-0.1c-0.2,0-0.4,0.1-0.6,0.3c-0.2,0.2-0.3,0.5-0.5,1
				c-0.2,0.4-0.2,0.8-0.2,1.1c0,0.3,0.1,0.5,0.2,0.6c0.2,0.1,0.4,0.3,0.6,0.4l1.3,0.5L70,47.8c-0.1,0-0.3,0-0.5-0.1
				c-0.2,0-0.4-0.1-0.6-0.1C68.7,47.6,68.5,47.5,68.3,47.4z"/>
			<path d="M70.8,48.2l2.3-6.4l0.8,0.3l-1.3,3.6l0.6,0.2l1.9-1.3L76,45l-2.2,1.6l0.8,3l-0.9-0.3l-0.7-2.5l-0.6-0.2l-0.7,2L70.8,48.2
				z"/>
			<path d="M75.7,52.2l1.2-1.8c-0.2-0.1-0.3-0.2-0.5-0.3c-0.1-0.1-0.2-0.3-0.3-0.5c-0.1-0.2-0.1-0.5-0.1-0.8l0.2-3.7l0.9,0.3L77,49
				c0,0.2,0,0.3,0.1,0.4c0,0.1,0.1,0.2,0.1,0.2c0.1,0.1,0.1,0.1,0.2,0.1c0,0,0.1,0,0.1,0l2.4-3.4l0.9,0.3l-3.5,5.1l-0.7,0.7
				L75.7,52.2z"/>
			<path d="M83.9,52.9c-0.4-0.1-0.7-0.3-0.9-0.5c-0.2-0.2-0.3-0.5-0.4-0.8c-0.1-0.3,0-0.7,0-1.1c0.1-0.4,0.2-0.9,0.4-1.4
				c0.2-0.5,0.4-1,0.6-1.3c0.2-0.4,0.4-0.7,0.7-0.9c0.2-0.2,0.5-0.3,0.9-0.4c0.3,0,0.7,0,1.1,0.2c0.2,0.1,0.5,0.2,0.7,0.3
				c0.2,0.1,0.4,0.2,0.7,0.3c0.2,0.1,0.4,0.2,0.6,0.3L88,48.2c-0.1-0.1-0.3-0.1-0.5-0.2c-0.2-0.1-0.4-0.2-0.7-0.3
				c-0.2-0.1-0.5-0.2-0.7-0.3c-0.4-0.1-0.7-0.2-1-0.1c-0.3,0.1-0.5,0.3-0.7,0.6c-0.2,0.3-0.4,0.8-0.6,1.4c-0.2,0.5-0.3,0.9-0.3,1.2
				c-0.1,0.3-0.1,0.6,0,0.8c0,0.2,0.1,0.4,0.3,0.5c0.1,0.1,0.4,0.3,0.6,0.3c0.3,0.1,0.5,0.2,0.8,0.2c0.3,0,0.5,0,0.7,0l0.6-1.6
				l-1.4-0.5l0.2-0.6c0.1,0,0.3,0.1,0.4,0.1c0.2,0,0.3,0.1,0.5,0.1c0.2,0.1,0.3,0.1,0.5,0.2c0.2,0.1,0.3,0.1,0.4,0.2
				c0.1,0.1,0.2,0.1,0.3,0.2l-1.2,3.3l-0.6-0.2l0-0.5c-0.2,0-0.5,0-0.8,0C84.6,53.1,84.2,53,83.9,52.9z"/>
			<path d="M87.5,54.1l1.6-4.5l0.6,0.2l-0.1,0.8c0.3-0.2,0.6-0.3,0.8-0.4c0.3-0.1,0.6-0.1,0.9,0.1c0.1,0,0.1,0.1,0.2,0.1
				c0.1,0,0.1,0.1,0.2,0.1l-0.3,0.9c-0.1,0-0.2-0.1-0.2-0.1c-0.1,0-0.2-0.1-0.3-0.1c-0.2-0.1-0.4-0.1-0.5-0.1c-0.2,0-0.3,0-0.5,0.1
				c-0.2,0-0.3,0.1-0.5,0.2l-1.1,3.1L87.5,54.1z"/>
			<path d="M92.8,56c-0.5-0.2-0.8-0.4-1.1-0.6c-0.2-0.2-0.4-0.5-0.4-0.9c0-0.4,0.1-0.9,0.3-1.4c0.2-0.6,0.4-1,0.7-1.3
				c0.2-0.3,0.5-0.5,0.8-0.5c0.3,0,0.7,0,1.2,0.2c0.4,0.1,0.7,0.3,1,0.5c0.2,0.2,0.4,0.4,0.4,0.7c0,0.3,0,0.6-0.1,1
				c-0.1,0.3-0.2,0.5-0.4,0.6c-0.2,0.1-0.4,0.2-0.6,0.2c-0.2,0-0.5,0-0.7-0.1l-1.5-0.5c-0.1,0.3-0.2,0.6-0.2,0.8
				c0,0.2,0.1,0.4,0.2,0.6c0.2,0.2,0.4,0.3,0.8,0.4l1.4,0.5l-0.2,0.5c-0.3-0.1-0.5-0.1-0.8-0.2C93.4,56.2,93.1,56.1,92.8,56z
				 M92.6,53.1l1.4,0.5c0.2,0.1,0.4,0.1,0.5,0c0.1,0,0.2-0.2,0.3-0.4c0.1-0.2,0.1-0.4,0.1-0.6c0-0.2-0.1-0.3-0.2-0.4
				c-0.1-0.1-0.3-0.2-0.6-0.3c-0.3-0.1-0.5-0.1-0.7-0.1c-0.2,0-0.4,0.1-0.5,0.3C92.9,52.5,92.7,52.8,92.6,53.1z"/>
			<path d="M97.3,57.6c-0.5-0.2-0.8-0.4-1.1-0.6c-0.2-0.2-0.4-0.5-0.4-0.9c0-0.4,0.1-0.9,0.3-1.4c0.2-0.6,0.4-1,0.7-1.3
				c0.2-0.3,0.5-0.5,0.8-0.5c0.3,0,0.7,0,1.2,0.2c0.4,0.1,0.7,0.3,1,0.5c0.2,0.2,0.4,0.4,0.4,0.7c0,0.3,0,0.6-0.1,1
				c-0.1,0.3-0.2,0.5-0.4,0.6c-0.2,0.1-0.4,0.2-0.6,0.2c-0.2,0-0.5,0-0.7-0.1l-1.5-0.5c-0.1,0.3-0.2,0.6-0.2,0.8
				c0,0.2,0.1,0.4,0.2,0.6c0.2,0.2,0.4,0.3,0.8,0.4l1.4,0.5L99,58c-0.3-0.1-0.5-0.1-0.8-0.2C98,57.8,97.7,57.7,97.3,57.6z
				 M97.1,54.7l1.4,0.5c0.2,0.1,0.4,0.1,0.5,0c0.1,0,0.2-0.2,0.3-0.4c0.1-0.2,0.1-0.4,0.1-0.6c0-0.2-0.1-0.3-0.2-0.4
				c-0.1-0.1-0.3-0.2-0.5-0.3c-0.3-0.1-0.5-0.1-0.7-0.1c-0.2,0-0.4,0.1-0.5,0.3C97.4,54.1,97.3,54.3,97.1,54.7z"/>
			<path d="M100.1,58.5l1.6-4.5l0.7,0.2l0,0.5c0.3-0.1,0.5-0.1,0.9-0.1c0.3,0,0.6,0,0.9,0.1c0.3,0.1,0.6,0.3,0.7,0.5
				c0.2,0.2,0.2,0.5,0.2,0.7c0,0.3,0,0.5-0.1,0.8l-1.1,3l-0.8-0.3l1-2.9c0.1-0.2,0.1-0.3,0.1-0.5c0-0.2-0.1-0.3-0.2-0.4
				c-0.1-0.1-0.2-0.2-0.4-0.3c-0.2-0.1-0.3-0.1-0.5-0.1c-0.2,0-0.3,0-0.5,0c-0.1,0-0.3,0-0.5,0.1l-1.2,3.4L100.1,58.5z"/>
		</g>
	</g>
</g>
<path class="st4" d="M64.7,56.9c0.1,0.1,0.2,0.2,0.2,0.3C64.8,57.1,64.7,57,64.7,56.9z"/>
<path class="st4" d="M68.7,50c0,0.3-0.1,0.6-0.2,0.9l-3.1,2.6c-0.3-0.2-0.6-0.5-0.7-0.8c0,0.5,0,1,0,1.5L63,55.5
	c-0.6-0.4-1.2-0.8-1.9-1.3c0.5-0.4,0.8-0.9,1.2-1.4C63.8,51,66.3,50.2,68.7,50z"/>
</svg>
