<?xml version="1.0" encoding="utf-8"?>
<!-- Generator: Adobe Illustrator 26.0.1, SVG Export Plug-In . SVG Version: 6.00 Build 0)  -->
<svg version="1.1" id="Layer_1" xmlns="http://www.w3.org/2000/svg" xmlns:xlink="http://www.w3.org/1999/xlink" x="0px" y="0px"
	 viewBox="0 0 260 395" style="enable-background:new 0 0 260 395;" xml:space="preserve">
<style type="text/css">
	.st0{fill:#AF49FF;}
	.st1{fill:#4A3D9B;}
	.st2{fill:#72CD21;stroke:#000000;stroke-miterlimit:10;}
	.st3{fill:#72CD21;}
	.st4{font-family:'Exo-Medium';}
	.st5{font-size:8.8996px;}
	.st6{fill:none;}
</style>
<g>
	<g>
		<path class="st0" d="M53.7-99.6c1.3,0.7,2.5,1.3,3.5,1.8c1,0.5,1.9,0.9,2.7,1.3c0.9,0.4,1.7,0.8,2.3,1c0.7,0.3,1.6,0.6,2.7,0.9
			c1,0.3,2.2,0.6,3.7,1c1.5,0.4,3.3,0.8,5.5,1.3c-1,0.2-1.9,0.5-2.5,0.8c-0.7,0.3-1.2,0.7-1.5,1c-0.4,0.4-0.8,0.8-0.9,1.2
			c-0.2,0.5-0.1,2,0.2,4c0.1,0.8,0.2,1.9,0.4,3.1c0.2,1.2,0.5,2.7,0.8,4.3c0.3,1.7,0.7,3.5,1.2,5.7c0.5,2.1,1.1,4.5,1.7,7.1
			c0.8-1.9,1.4-3.6,1.9-5c0.5-1.4,0.9-2.7,1.3-3.7c0.4-1.1,0.7-2.2,1-3c0.3-0.9,0.6-2.1,1-3.5c0.3-1.2,0.7-2.8,1.2-4.7
			c0.5-1.9,1.1-4.2,1.8-7c0.9,0.3,1.3,0.5,2.2,0.8c0.2,2.3,0.5,4.3,0.8,6.1c0.3,1.7,0.5,3.2,0.7,4.4c0.2,1.4,0.4,2.6,0.6,3.6
			c0.2,0.9,0.4,2,0.8,3.2c0.3,1,0.7,2.3,1.2,3.8c0.5,1.5,1.1,3.1,1.9,4.9c0.7-2.1,1.3-4,1.9-5.6c0.6-1.6,1-3.1,1.4-4.3
			c0.4-1.2,0.8-2.3,1-3.2c0.3-0.9,0.5-1.6,0.7-2.2c0.4-1.4,0.7-2.4,0.7-2.8c0-0.5-0.2-1.1-0.6-1.7c-0.3-0.5-0.8-1.1-1.4-1.8
			c-0.6-0.7-1.5-1.4-2.7-2.2c2.5,0.6,4.5,1,6.1,1.3c1.6,0.3,2.9,0.5,3.8,0.6c1,0.2,1.5,0.2,2.5,0.4c0.9,0.1,1.3,0.2,2.2,0.3
			c0.8,0.1,1.9,0.2,3.3,0.4c1.3,0.1,3.1,0.3,5.2,0.4c-1.8,0.5-3.3,0.9-4.4,1.3c-1.1,0.4-2,0.7-2.6,1c-0.7,0.4-1.4,0.7-1.6,0.9
			c-0.3,0.4-0.8,1.7-1.5,3.6c-0.3,0.8-0.7,1.8-1.1,3c-0.4,1.2-0.8,2.7-1.4,4.4c-0.5,1.7-1.1,3.7-1.8,6.1c-0.7,2.3-1.4,5-2.2,8.1
			c-4.2-0.3-6.4-0.5-10.6-0.9c-1.9-5.8-2.9-8.8-4.8-15c-0.6,2.6-1.2,4.8-1.5,6.5c-0.4,1.7-0.7,3-0.8,3.9c-0.2,1.1-0.3,2-0.4,2.5
			c0,0.5-0.1,0.9-0.1,1.3c0,0.4-0.1,0.8-0.1,1.2c-0.1,0.4-0.1,0.8-0.2,1.2c-4.3,0-6.5,0-10.8,0c-1.1-4.1-2.1-7.8-3-11.1
			c-0.9-3.3-1.6-6.3-2.3-8.9c-0.7-2.6-1.2-4.8-1.7-6.7c-0.5-1.9-0.9-3.5-1.3-4.8c-0.8-3-1.4-5-1.8-5.7c-0.3-0.4-0.6-0.9-1.1-1.5
			c-0.4-0.5-0.8-1.1-1.3-1.8C55.1-97.8,54.5-98.7,53.7-99.6z"/>
		<path class="st0" d="M107.3-75.1c4.6,0.4,6.8,0.5,11.4,0.7c-0.6,1.6-1.1,3-1.4,4.1c-0.3,1.1-0.5,2.1-0.6,2.9
			c-0.1,0.9-0.2,1.7-0.1,2.2c0.1,0.5,0.3,1.2,0.6,1.8c0.2,0.5,0.6,1.2,1.1,1.9c0.5,0.7,1.2,1.4,2,2.1c-0.5-0.1-1-0.2-1.6-0.3
			c-0.6-0.1-1.1-0.1-1.6-0.1c-0.6,0-1.1,0-1.7,0c-0.6,0-1.2,0.1-1.9,0.1c-0.6,0-1.3,0.1-2.1,0.2c-0.8,0.1-1.7,0.2-2.6,0.3
			c0.6-1.2,1.1-2.3,1.4-3.2c0.3-0.9,0.6-1.6,0.7-2.2c0.2-0.7,0.3-1.3,0.3-1.7c0-0.5,0-1.2,0-1.9c0-0.7,0-1.4,0-2
			c0-0.7,0-1.2-0.1-1.7c0-0.5-0.1-0.8-0.3-1c-0.2-0.2-0.4-0.3-0.6-0.4c-0.2-0.2-0.6-0.4-1.1-0.7C108.8-74.3,108.1-74.6,107.3-75.1z
			 M111.6-81.1c0.9-0.2,1.7-0.2,2.6,0c0.9,0.2,1.6,0.5,2.1,0.9c0.5,0.4,0.7,0.9,0.5,1.4c-0.1,0.5-0.8,1-2,1.4
			c-1.2,0.4-2.2,0.5-3.2,0.3c-0.9-0.2-1.6-0.5-1.9-1c-0.4-0.5-0.4-1-0.2-1.6C109.9-80.3,110.5-80.8,111.6-81.1z"/>
		<path class="st0" d="M121.7-81.6c1.2,0.1,2.3,0.2,3.2,0.3c0.9,0.1,1.6,0.1,2.1,0.2c0.6,0,1.1,0,1.5,0.1c0.4,0,0.9,0,1.5,0
			c0.5,0,1.2-0.1,2.1-0.1c0.9,0,2-0.1,3.3-0.2c-0.3,0.3-0.5,0.5-0.7,0.7c-0.2,0.2-0.3,0.4-0.4,0.5c-0.1,0.2-0.2,0.3-0.4,0.5
			c-0.1,0.2-0.2,0.3-0.3,0.5c-0.1,0.1-0.2,0.3-0.2,0.5c-0.1,0.2-0.1,0.4-0.2,0.6c3.8,0,5.8-0.1,9.6-0.2c-0.4,1.3-0.5,2-0.9,3.3
			c-3.5,0-5.2,0-8.8-0.1c-0.2,1.3-0.4,2.4-0.4,3.1c-0.1,0.7-0.2,1.3-0.2,1.6c0,0.3-0.1,0.4-0.1,0.7c-0.1,1-0.2,2.1-0.4,3.3
			c-0.1,1.2-0.2,2.3-0.1,3.3c0,1,0.2,1.8,0.4,2.5c0.2,0.7,0.7,1,1.3,1c0.6,0,1.2-0.1,1.7-0.3c0.5-0.2,1-0.5,1.4-0.8
			c0.4-0.3,0.7-0.6,0.9-0.9c0.2-0.3,0.3-0.5,0.3-0.7c0-0.2-0.1-0.3-0.2-0.6c-0.2-0.4-0.6-0.9-1.1-1.5c1.2,0.2,2.2,0.4,3.1,0.5
			c0.5,0.1,0.9,0.2,1.2,0.3c0.4,0.1,0.9,0.2,1.4,0.3c0.4,0.1,1,0.3,1.7,0.5c0.7,0.2,1.5,0.4,2.5,0.6c-0.9,0.1-1.6,0.3-2,0.5
			c-0.2,0.1-0.4,0.2-0.6,0.4c-0.3,0.3-0.6,0.7-1,1.2c-0.4,0.5-0.9,1-1.7,1.5c-0.7,0.5-1.7,0.9-3,1.3c-1.2,0.4-2.9,0.6-5,0.6
			c-2.2,0.1-3.8-0.2-4.9-0.7c-1.1-0.5-1.9-1.1-2.5-1.8c-0.5-0.7-0.8-1.4-0.9-2.1c-0.1-0.7-0.1-1.1-0.2-1.4c0-0.2,0-0.8,0-1.8
			c0-0.9,0.1-2,0.2-3.1c0.1-1.1,0.2-2.3,0.2-3.3c0.1-1.1,0.1-1.8,0.1-2.4c0-0.3,0-0.6,0.1-0.8c0-0.2,0-0.5,0-0.8c0-0.3,0-0.5,0-0.8
			c-3.6-0.1-5.4-0.2-9-0.4c-0.2-0.9-0.2-1.4-0.4-2.3c3.6,0.3,5.4,0.4,9.1,0.5c-0.1-0.3-0.2-0.6-0.3-0.8c-0.1-0.3-0.2-0.5-0.3-0.6
			c-0.1-0.2-0.3-0.4-0.4-0.5c-0.1-0.1-0.4-0.3-0.6-0.5c-0.2-0.1-0.5-0.3-0.8-0.5C122.6-81.1,122.2-81.3,121.7-81.6z"/>
		<path class="st0" d="M178.6-73.4c-0.5,0-1.1,0-1.8,0.1c-0.7,0.1-1.4,0.1-2.1,0.2c-0.7,0.1-1.5,0.2-2.3,0.3
			c-0.9,0.1-1.7,0.2-2.6,0.4c-0.7,0.1-1.6,0.2-2.5,0.3c-0.9,0.1-1.8,0.3-2.7,0.4c0.3-0.1,0.6-0.3,0.9-0.6c0.3-0.2,0.5-0.5,0.7-0.7
			c0.2-0.2,0.4-0.5,0.6-0.8c0.2-0.4,0.2-1,0-1.6c-0.2-0.6-0.7-1.1-1.3-1.6c-0.6-0.4-1.4-0.8-2.4-1c-1-0.2-2-0.1-3.2,0.1
			c-1.2,0.3-2.3,0.7-3.3,1.2c-1,0.5-1.8,1.1-2.4,1.8c-0.6,0.7-1.1,1.6-1.4,2.6c-0.3,1-0.4,2.1-0.3,3.5c0.1,1.7,0.5,3,1.2,3.9
			c0.6,1,1.4,1.7,2.4,2.2c0.9,0.5,2,0.8,3.1,0.8c1.1,0.1,2.3,0.1,3.3-0.1c0.8-0.1,1.5-0.4,2.2-0.8c0.5-0.3,1-0.8,1.5-1.5
			c0.5-0.6,0.7-1.5,0.7-2.6c3-0.3,4.5-0.4,7.5-0.7c-0.9,1.9-2,3.3-3.2,4.4c-1.2,1.1-2.4,1.9-3.6,2.5c-1.4,0.7-2.7,1.2-4.1,1.4
			c-1.6,0.3-3.2,0.3-4.5,0.3c-1.3,0-2.5-0.1-3.5-0.4c-1.1-0.2-2-0.5-2.9-0.8c-0.9-0.3-1.8-0.7-2.6-1c-0.5-0.2-1.1-0.6-1.8-1.2
			c-0.6-0.6-1.3-1.2-1.8-2c-0.6-0.8-1-1.6-1.4-2.6c-0.4-1-0.5-1.9-0.4-3c0.1-1,0.5-2.1,1.1-3.1c0.7-1.1,1.7-2.1,3.2-3.2
			c2.2-1.6,4.6-2.7,7.1-3.4c2.5-0.7,4.9-1.1,7.1-1.2c2.2-0.1,4.2,0.1,5.9,0.6c1.7,0.5,2.9,1.1,3.6,1.8c0.7,0.7,1.2,1.3,1.5,1.7
			c0.3,0.4,0.6,0.7,0.8,0.9c0.2,0.2,0.3,0.4,0.5,0.4c0.1,0.1,0.4,0.2,0.6,0.4c0.2,0.1,0.4,0.3,0.7,0.4c0.2,0.1,0.5,0.3,0.8,0.5
			C177.8-73.8,178.2-73.6,178.6-73.4z"/>
		<path class="st0" d="M177.7-92.1c0.9-0.1,1.8-0.2,2.6-0.4c0.8-0.2,1.4-0.3,1.9-0.4c0.6-0.1,1.1-0.3,1.6-0.4
			c0.6-0.2,1.3-0.5,2.1-0.8c0.7-0.3,1.5-0.6,2.5-1c1-0.4,2.1-0.9,3.4-1.5c-0.6,0.5-1.1,0.9-1.5,1.3c-0.4,0.4-0.7,0.8-1,1.1
			c-0.3,0.4-0.5,0.8-0.7,1.1c-0.2,0.5-0.4,1.5-0.7,2.9c-0.2,1.2-0.6,3.1-1,5.5c-0.4,2.4-0.9,5.6-1.5,9.6c1.5-1.4,2.9-2.6,4.2-3.4
			c1.3-0.9,2.5-1.6,3.5-2.1c1.2-0.6,2.3-1,3.3-1.2c1.2-0.2,2.5-0.1,3.8,0.2c1.3,0.3,2.5,0.8,3.7,1.4c1.1,0.6,2.1,1.3,3,2.2
			c0.9,0.8,1.5,1.6,1.8,2.3c0.2,0.5,0.4,1.2,0.4,2c0,0.8-0.1,1.8-0.2,2.8c-0.2,1-0.4,2-0.7,3.1c-0.3,1-0.6,2-0.8,2.9
			c-0.3,0.9-0.5,1.7-0.7,2.4c-0.2,0.7-0.3,1.1-0.4,1.4c-0.1,0.6,0,1.2,0.1,1.7c0.1,0.5,0.4,1,0.7,1.5c0.4,0.5,0.9,1,1.7,1.4
			c-0.6-0.1-1.2-0.2-1.8-0.2c-0.6-0.1-1.2-0.1-1.8-0.1c-0.6,0-1.3-0.1-2-0.1c-0.9,0-1.3,0-2.2,0c-0.7,0-1.5,0-2.4,0
			c-0.9,0-1.9,0.1-2.9,0.1c0.6-0.2,1.1-0.4,1.5-0.7c0.4-0.3,0.8-0.6,1-0.9c0.3-0.3,0.6-0.7,0.9-1.1c0.2-0.3,0.4-0.9,0.6-1.7
			c0.3-0.9,0.5-1.8,0.7-3c0.2-1.1,0.4-2.3,0.5-3.6c0.1-1.3,0.1-2.5,0.1-3.6c-0.1-1.1-0.2-2.2-0.5-3c-0.3-0.9-0.7-1.4-1.3-1.7
			c-1.8-0.9-3.4-1.2-4.9-1c-1.5,0.3-2.9,1-4.2,2.2c-0.5,0.5-1,0.9-1.4,1.3c-0.4,0.4-0.9,0.9-1.4,1.4s-1,1-1.4,1.5c0,0.5,0,1,0,1.6
			c0,0.6,0.1,1.2,0.1,1.7c0,0.6,0.1,1.3,0.2,1.9c0.1,0.9,0.2,1.9,0.3,2.8c0.1,0.8,0.3,1.7,0.4,2.6c0.2,1,0.4,1.8,0.8,2.6
			c-0.5-0.1-1.1-0.1-1.7-0.1c-0.6,0-1.1,0-1.7,0c-0.6,0-1.2,0-1.8,0.1c-0.5,0-1.1,0.1-1.7,0.2c-0.5,0.1-1,0.1-1.6,0.2
			c-0.6,0.1-1.1,0.1-1.7,0.2c0.5-0.7,0.9-1.4,1.3-2.2c0.3-0.7,0.6-1.4,0.8-1.9c0.3-0.6,0.5-1.3,0.6-1.9c0.1-0.5,0.2-1.4,0.3-2.8
			c0.1-1.4,0.2-2.9,0.2-4.7c0.1-1.8,0.1-3.7,0.2-5.7s0.1-3.9,0-5.7c0-1.8,0-3.4-0.1-4.7c-0.1-1.3-0.2-2.3-0.3-2.7
			c-0.1-0.5-0.4-0.9-0.6-1.4c-0.2-0.4-0.6-0.7-1-1.1C178.8-91.8,178.3-92,177.7-92.1z"/>
	</g>
</g>
<g>
	<g>
		<path d="M140,209.3c-5.9,0-10.2-0.8-12.9-1.5c-1.2-0.3-2.2-0.6-2.9-0.9c-1.9,0.1-6.5,0.4-11.8,0.4c-8,0-14.2-0.6-18.5-1.8
			c-5-1.4-8.8-3.1-11.2-5.1l-0.2-0.1l0,0c-2.7-2.3-3.2-4.7-3.1-6.3c0.1-2.4,1.4-4.7,3.9-6.6c5.3-4,13.4-5.2,20.4-6
			c0.2-0.3,0.4-0.6,0.6-0.8c0.4-0.6,0.9-1.3,1-1.7c0.2-1.5,0.5-4.8,3.1-6.4c0.9-4.1,2.3-9,3.5-12.7c-10.5-0.2-18.4-3.3-19.9-7.9
			c-0.6-2,0.1-4.1,1.8-5.3c1.8-1.2,3.8-1.7,7.4-2.5l0.2,0c2.8-0.6,5.9-1.3,10.1-2.4c5.2-1.4,7.2-3,8.9-4.4c1.7-1.3,3.6-2.8,7-3.1
			c1.1-0.1,2-0.2,2.9-0.3c1-0.1,2-0.3,2.9-0.3c2.9,0,5,1.2,6.8,3.7l0.5,0.8c2.6,3.6,7.4,10.4,9.8,15.8c0.6,1.4,1.4,3.5,2.1,6.1
			l0.2,0.5v0c1,3.7,2.1,8.3,2.6,11.7c3,1.5,3.3,5.1,3.5,6.7c0,0.1,0.1,0.3,0.2,0.4c3.1,0.3,7.1,0.6,10.4,0.6c3.7,0,5-0.4,5.3-0.5
			c1.3-0.5,2.6-0.7,3.8-0.7c2.8,0,4.9,1.4,5.9,3.6c1.3,3.4-0.6,7.6-5.7,12.4c-8.5,8-19.4,11.3-19.8,11.5l-6.1,2l-0.3,0
			C148.1,208.9,143.9,209.3,140,209.3z"/>
		<polygon id="XMLID_387_" points="152.9,205.4 159.2,203.3 150.8,194.4 146.3,196.7 		"/>
		<path id="XMLID_521_" class="st0" d="M178.5,192.2c-8.3,7.9-19.3,11.1-19.3,11.1l-8.2-4.7l1.9,6.8c-12.2,2.1-20.6,0.8-24.9-0.3
			c-2.2-0.6-3.4-1.1-3.4-1.1s-20.9,1.7-31.5-1.3c-4.6-1.3-8.2-2.9-10.3-4.6c0,0,0,0,0,0c-2.7-2.2-2.9-4.8,0.5-7.3
			c6-4.5,17.3-5.2,25.1-6.2l20.3-1l25.9-1.2c0,0,18.5,2.4,23.9,0.5C183.8,180.9,186.8,184.3,178.5,192.2z"/>
		<path id="XMLID_495_" d="M124.6,203.9c0,0-20.9,1.7-31.5-1.3c-4.6-1.3-8.2-2.9-10.3-4.6c0,0,0,0,0,0c-0.4-0.4-3.4-4,5-5.6
			C96.7,190.7,109.9,198.6,124.6,203.9z"/>
		<path id="XMLID_508_" class="st0" d="M152.9,175.7c0,0.1-0.1,0.2-0.1,0.2c-18.7,12-42.2,0-42.2,0c0.6-4.4,2.6-11.6,4.2-16.5
			c1-3.1,1.7-5.4,1.7-5.4c-17.9,1.3-24.4-4.9-22.4-6.4c1.2-0.8,3-1.2,6.6-2c2.6-0.6,6-1.3,10.8-2.6c11.3-3,10.7-7.3,16-7.7
			c5.3-0.3,7.4-1.8,9.8,1.6c2.4,3.4,8,11,10.5,16.8c0.7,1.5,1.4,3.6,2,5.9v0C151.7,166,153.3,174.1,152.9,175.7z"/>
		<path id="XMLID_502_" d="M132.2,151.3c-0.1,0.3-2.7,5.1-17.4,8.1c1-3.1,1.7-5.4,1.7-5.4S125.5,154.5,132.2,151.3z"/>
		<path id="XMLID_496_" d="M149.8,159.6L149.8,159.6c-2,2.9-10.7,4.6-7,1.9s5-7.8,5-7.8L149.8,159.6z"/>
		<path id="XMLID_510_" class="st1" d="M159.2,185.7c-0.6,1.9-9.8,6.5-27,6.5c-17.2,0-26.4-4.6-27-6.5c-0.6-1.9,2.6-3.8,2.9-6.8
			c0.3-3,0.8-4.5,4.1-4c3.4,0.5,7.1,3,20,3c12.9,0,16.7-2.6,20-3c3.4-0.5,3.8,1,4.1,4c0.1,1.2,0.7,2.2,1.3,3.1
			C158.6,183.4,159.6,184.5,159.2,185.7z"/>
		<path id="XMLID_504_" d="M159.2,185.7c-0.6,1.9-9.8,6.5-27,6.5c-17.2,0-26.4-4.6-27-6.5c-0.6-1.9,2.6-3.8,2.9-6.8
			c0.3-3,0.8-4.5,4.1-4c0,0-2.5,1-1.4,4.6c1.1,3.6,7.1,8.9,24.7,9.4c17.6,0.5,23.6-3.7,22.2-6.8
			C158.6,183.4,159.6,184.5,159.2,185.7z"/>
		<g>
			<path d="M154.6,182.4c1-1.6,1.3-3.4,0.7-5.2c-0.8-2.9-3.7-5-6.8-5c-0.7,0-1.5,0.1-2.4,0.4c0.3-1.5,0.2-3-0.5-4.4
				c-1.2-2.7-3.9-4.5-6.8-4.5c-1.5,0-2.9,0.5-4.1,1.5c-1.1-0.6-2.2-1-3.4-1c-2.6,0-5,1.6-6.2,4.1c-0.8,1.7-0.8,3.6-0.2,5.4
				c-0.6-0.1-1.1-0.2-1.5-0.2c-3.5,0-6.7,2.6-7.3,6.1c-0.4,2,0.1,3.8,1.3,5.3c-1,1.6-1.3,3.4-0.7,5.2c0.8,2.9,3.7,5,6.8,5
				c0,0,0,0,0,0c0.7,0,1.5-0.1,2.5-0.4c-0.3,1.5-0.2,3.1,0.5,4.5c1.2,2.7,3.9,4.5,6.8,4.5c0,0,0,0,0,0c1.5,0,3-0.5,4.1-1.5
				c1,0.6,2.2,1,3.4,1c2.6,0,5-1.6,6.2-4.1c0.8-1.7,0.8-3.6,0.2-5.4c0.6,0.1,1.1,0.2,1.5,0.2c0,0,0,0,0,0c3.5,0,6.7-2.6,7.3-6.2
				C156.3,185.7,155.8,183.8,154.6,182.4z"/>
		</g>
		<g>
			<path class="st2" d="M120.3,184.4c-6.5,4,0.2,12.6,7.2,6.3c4.8-4.3,8.5-7.2,8.5-7.2s-5-2.2-9.3-6.2
				C119.8,170.9,113,181.6,120.3,184.4z"/>
			<path class="st2" d="M135,167.8c-4-6.4-12.6,0.2-6.3,7.2c4.3,4.8,7.3,8.5,7.3,8.5s2.2-5,6.2-9.3
				C148.5,167.2,137.8,160.5,135,167.8z"/>
			<path class="st2" d="M151.7,182.5c6.4-4-0.2-12.6-7.3-6.3c-4.7,4.3-8.4,7.3-8.4,7.3s5,2.2,9.3,6.1
				C152.2,195.9,158.9,185.2,151.7,182.5z"/>
			<path class="st2" d="M137,199.1c4.1,6.4,12.6-0.2,6.3-7.3c-4.3-4.7-7.3-8.4-7.3-8.4s-2.2,5-6.1,9.3
				C123.6,199.7,134.3,206.4,137,199.1z"/>
		</g>
	</g>
	<g>
		<g>
			<path class="st0" d="M53.7,198.6c1.3,0.7,2.5,1.3,3.5,1.8c1,0.5,1.9,0.9,2.7,1.3c0.9,0.4,1.7,0.8,2.3,1c0.7,0.3,1.6,0.6,2.7,0.9
				c1,0.3,2.2,0.6,3.7,1c1.5,0.4,3.3,0.8,5.5,1.3c-1,0.2-1.9,0.5-2.5,0.8c-0.7,0.3-1.2,0.7-1.5,1c-0.4,0.4-0.8,0.8-0.9,1.2
				c-0.2,0.5-0.1,2,0.2,4c0.1,0.8,0.2,1.9,0.4,3.1c0.2,1.2,0.5,2.7,0.8,4.3c0.3,1.7,0.7,3.5,1.2,5.7c0.5,2.1,1.1,4.5,1.7,7.1
				c0.8-1.9,1.4-3.6,1.9-5c0.5-1.4,0.9-2.7,1.3-3.7c0.4-1.1,0.7-2.2,1-3c0.3-0.9,0.6-2.1,1-3.5c0.3-1.2,0.7-2.8,1.2-4.7
				c0.5-1.9,1.1-4.2,1.8-7c0.9,0.3,1.3,0.5,2.2,0.8c0.2,2.3,0.5,4.3,0.8,6.1c0.3,1.7,0.5,3.2,0.7,4.4c0.2,1.4,0.4,2.6,0.6,3.6
				c0.2,0.9,0.4,2,0.8,3.2c0.3,1,0.7,2.3,1.2,3.8c0.5,1.5,1.1,3.1,1.9,4.9c0.7-2.1,1.3-4,1.9-5.6c0.6-1.6,1-3.1,1.4-4.3
				c0.4-1.2,0.8-2.3,1-3.2c0.3-0.9,0.5-1.6,0.7-2.2c0.4-1.4,0.7-2.4,0.7-2.8c0-0.5-0.2-1.1-0.6-1.7c-0.3-0.5-0.8-1.1-1.4-1.8
				c-0.6-0.7-1.5-1.4-2.7-2.2c2.5,0.6,4.5,1,6.1,1.3c1.6,0.3,2.9,0.5,3.8,0.6c1,0.2,1.5,0.2,2.5,0.4c0.9,0.1,1.3,0.2,2.2,0.3
				c0.8,0.1,1.9,0.2,3.3,0.4c1.3,0.1,3.1,0.3,5.2,0.4c-1.8,0.5-3.3,0.9-4.4,1.3c-1.1,0.4-2,0.7-2.6,1c-0.7,0.4-1.4,0.7-1.6,0.9
				c-0.3,0.4-0.8,1.7-1.5,3.6c-0.3,0.8-0.7,1.8-1.1,3c-0.4,1.2-0.8,2.7-1.4,4.4c-0.5,1.7-1.1,3.7-1.8,6.1c-0.7,2.3-1.4,5-2.2,8.1
				c-4.2-0.3-6.4-0.5-10.6-0.9c-1.9-5.8-2.9-8.8-4.8-15c-0.6,2.6-1.2,4.8-1.5,6.5c-0.4,1.7-0.7,3-0.8,3.9c-0.2,1.1-0.3,2-0.4,2.5
				c0,0.5-0.1,0.9-0.1,1.3c0,0.4-0.1,0.8-0.1,1.2c-0.1,0.4-0.1,0.8-0.2,1.2c-4.3,0-6.5,0-10.8,0c-1.1-4.1-2.1-7.8-3-11.1
				c-0.9-3.3-1.6-6.3-2.3-8.9c-0.7-2.6-1.2-4.8-1.7-6.7c-0.5-1.9-0.9-3.5-1.3-4.8c-0.8-3-1.4-5-1.8-5.7c-0.3-0.4-0.6-0.9-1.1-1.5
				c-0.4-0.5-0.8-1.1-1.3-1.8C55.1,200.4,54.5,199.5,53.7,198.6z"/>
			<path class="st0" d="M107.3,223.1c4.6,0.4,6.8,0.5,11.4,0.7c-0.6,1.6-1.1,3-1.4,4.1c-0.3,1.1-0.5,2.1-0.6,2.9
				c-0.1,0.9-0.2,1.7-0.1,2.2c0.1,0.5,0.3,1.2,0.6,1.8c0.2,0.5,0.6,1.2,1.1,1.9c0.5,0.7,1.2,1.4,2,2.1c-0.5-0.1-1-0.2-1.6-0.3
				c-0.6-0.1-1.1-0.1-1.6-0.1c-0.6,0-1.1,0-1.7,0c-0.6,0-1.2,0.1-1.9,0.1c-0.6,0-1.3,0.1-2.1,0.2c-0.8,0.1-1.7,0.2-2.6,0.3
				c0.6-1.2,1.1-2.3,1.4-3.2c0.3-0.9,0.6-1.6,0.7-2.2c0.2-0.7,0.3-1.3,0.3-1.7c0-0.5,0-1.2,0-1.9c0-0.7,0-1.4,0-2
				c0-0.7,0-1.2-0.1-1.7c0-0.5-0.1-0.8-0.3-1c-0.2-0.2-0.4-0.3-0.6-0.4c-0.2-0.2-0.6-0.4-1.1-0.7
				C108.8,223.9,108.1,223.6,107.3,223.1z M111.6,217.1c0.9-0.2,1.7-0.2,2.6,0c0.9,0.2,1.6,0.5,2.1,0.9c0.5,0.4,0.7,0.9,0.5,1.4
				c-0.1,0.5-0.8,1-2,1.4c-1.2,0.4-2.2,0.5-3.2,0.3c-0.9-0.2-1.6-0.5-1.9-1c-0.4-0.5-0.4-1-0.2-1.6
				C109.9,217.9,110.5,217.4,111.6,217.1z"/>
			<path class="st0" d="M121.7,216.6c1.2,0.1,2.3,0.2,3.2,0.3c0.9,0.1,1.6,0.1,2.1,0.2c0.6,0,1.1,0,1.5,0.1c0.4,0,0.9,0,1.5,0
				c0.5,0,1.2-0.1,2.1-0.1c0.9,0,2-0.1,3.3-0.2c-0.3,0.3-0.5,0.5-0.7,0.7c-0.2,0.2-0.3,0.4-0.4,0.5c-0.1,0.2-0.2,0.3-0.4,0.5
				c-0.1,0.2-0.2,0.3-0.3,0.5c-0.1,0.1-0.2,0.3-0.2,0.5c-0.1,0.2-0.1,0.4-0.2,0.6c3.8,0,5.8-0.1,9.6-0.2c-0.4,1.3-0.5,2-0.9,3.3
				c-3.5,0-5.2,0-8.8-0.1c-0.2,1.3-0.4,2.4-0.4,3.1c-0.1,0.7-0.2,1.3-0.2,1.6c0,0.3-0.1,0.4-0.1,0.7c-0.1,1-0.2,2.1-0.4,3.3
				c-0.1,1.2-0.2,2.3-0.1,3.3c0,1,0.2,1.8,0.4,2.5c0.2,0.7,0.7,1,1.3,1c0.6,0,1.2-0.1,1.7-0.3c0.5-0.2,1-0.5,1.4-0.8
				c0.4-0.3,0.7-0.6,0.9-0.9c0.2-0.3,0.3-0.5,0.3-0.7c0-0.2-0.1-0.3-0.2-0.6c-0.2-0.4-0.6-0.9-1.1-1.5c1.2,0.2,2.2,0.4,3.1,0.5
				c0.5,0.1,0.9,0.2,1.2,0.3c0.4,0.1,0.9,0.2,1.4,0.3c0.4,0.1,1,0.3,1.7,0.5c0.7,0.2,1.5,0.4,2.5,0.6c-0.9,0.1-1.6,0.3-2,0.5
				c-0.2,0.1-0.4,0.2-0.6,0.4c-0.3,0.3-0.6,0.7-1,1.2c-0.4,0.5-0.9,1-1.7,1.5c-0.7,0.5-1.7,0.9-3,1.3c-1.2,0.4-2.9,0.6-5,0.6
				c-2.2,0.1-3.8-0.2-4.9-0.7c-1.1-0.5-1.9-1.1-2.5-1.8c-0.5-0.7-0.8-1.4-0.9-2.1c-0.1-0.7-0.1-1.1-0.2-1.4c0-0.2,0-0.8,0-1.8
				c0-0.9,0.1-2,0.2-3.1c0.1-1.1,0.2-2.3,0.2-3.3c0.1-1.1,0.1-1.8,0.1-2.4c0-0.3,0-0.6,0.1-0.8c0-0.2,0-0.5,0-0.8c0-0.3,0-0.5,0-0.8
				c-3.6-0.1-5.4-0.2-9-0.4c-0.2-0.9-0.2-1.4-0.4-2.3c3.6,0.3,5.4,0.4,9.1,0.5c-0.1-0.3-0.2-0.6-0.3-0.8c-0.1-0.3-0.2-0.5-0.3-0.6
				c-0.1-0.2-0.3-0.4-0.4-0.5c-0.1-0.1-0.4-0.3-0.6-0.5c-0.2-0.1-0.5-0.3-0.8-0.5C122.6,217.1,122.2,216.9,121.7,216.6z"/>
			<path class="st0" d="M178.6,224.8c-0.5,0-1.1,0-1.8,0.1c-0.7,0.1-1.4,0.1-2.1,0.2c-0.7,0.1-1.5,0.2-2.3,0.3
				c-0.9,0.1-1.7,0.2-2.6,0.4c-0.7,0.1-1.6,0.2-2.5,0.3c-0.9,0.1-1.8,0.3-2.7,0.4c0.3-0.1,0.6-0.3,0.9-0.6c0.3-0.2,0.5-0.5,0.7-0.7
				c0.2-0.2,0.4-0.5,0.6-0.8c0.2-0.4,0.2-1,0-1.6c-0.2-0.6-0.7-1.1-1.3-1.6c-0.6-0.4-1.4-0.8-2.4-1c-1-0.2-2-0.1-3.2,0.1
				c-1.2,0.3-2.3,0.7-3.3,1.2c-1,0.5-1.8,1.1-2.4,1.8c-0.6,0.7-1.1,1.6-1.4,2.6c-0.3,1-0.4,2.1-0.3,3.5c0.1,1.7,0.5,3,1.2,3.9
				c0.6,1,1.4,1.7,2.4,2.2c0.9,0.5,2,0.8,3.1,0.8c1.1,0.1,2.3,0.1,3.3-0.1c0.8-0.1,1.5-0.4,2.2-0.8c0.5-0.3,1-0.8,1.5-1.5
				c0.5-0.6,0.7-1.5,0.7-2.6c3-0.3,4.5-0.4,7.5-0.7c-0.9,1.9-2,3.3-3.2,4.4c-1.2,1.1-2.4,1.9-3.6,2.5c-1.4,0.7-2.7,1.2-4.1,1.4
				c-1.6,0.3-3.2,0.3-4.5,0.3c-1.3,0-2.5-0.1-3.5-0.4c-1.1-0.2-2-0.5-2.9-0.8c-0.9-0.3-1.8-0.7-2.6-1c-0.5-0.2-1.1-0.6-1.8-1.2
				c-0.6-0.6-1.3-1.2-1.8-2c-0.6-0.8-1-1.6-1.4-2.6c-0.4-1-0.5-1.9-0.4-3c0.1-1,0.5-2.1,1.1-3.1c0.7-1.1,1.7-2.1,3.2-3.2
				c2.2-1.6,4.6-2.7,7.1-3.4c2.5-0.7,4.9-1.1,7.1-1.2c2.2-0.1,4.2,0.1,5.9,0.6c1.7,0.5,2.9,1.1,3.6,1.8c0.7,0.7,1.2,1.3,1.5,1.7
				c0.3,0.4,0.6,0.7,0.8,0.9c0.2,0.2,0.3,0.4,0.5,0.4c0.1,0.1,0.4,0.2,0.6,0.4c0.2,0.1,0.4,0.3,0.7,0.4c0.2,0.1,0.5,0.3,0.8,0.5
				C177.8,224.4,178.2,224.6,178.6,224.8z"/>
			<path class="st0" d="M177.7,206.1c0.9-0.1,1.8-0.2,2.6-0.4c0.8-0.2,1.4-0.3,1.9-0.4c0.6-0.1,1.1-0.3,1.6-0.4
				c0.6-0.2,1.3-0.5,2.1-0.8c0.7-0.3,1.5-0.6,2.5-1c1-0.4,2.1-0.9,3.4-1.5c-0.6,0.5-1.1,0.9-1.5,1.3c-0.4,0.4-0.7,0.8-1,1.1
				c-0.3,0.4-0.5,0.8-0.7,1.1c-0.2,0.5-0.4,1.5-0.7,2.9c-0.2,1.2-0.6,3.1-1,5.5c-0.4,2.4-0.9,5.6-1.5,9.6c1.5-1.4,2.9-2.6,4.2-3.4
				c1.3-0.9,2.5-1.6,3.5-2.1c1.2-0.6,2.3-1,3.3-1.2c1.2-0.2,2.5-0.1,3.8,0.2c1.3,0.3,2.5,0.8,3.7,1.4c1.1,0.6,2.1,1.3,3,2.2
				c0.9,0.8,1.5,1.6,1.8,2.3c0.2,0.5,0.4,1.2,0.4,2c0,0.8-0.1,1.8-0.2,2.8c-0.2,1-0.4,2-0.7,3.1c-0.3,1-0.6,2-0.8,2.9
				c-0.3,0.9-0.5,1.7-0.7,2.4c-0.2,0.7-0.3,1.1-0.4,1.4c-0.1,0.6,0,1.2,0.1,1.7c0.1,0.5,0.4,1,0.7,1.5c0.4,0.5,0.9,1,1.7,1.4
				c-0.6-0.1-1.2-0.2-1.8-0.2c-0.6-0.1-1.2-0.1-1.8-0.1c-0.6,0-1.3-0.1-2-0.1c-0.9,0-1.3,0-2.2,0c-0.7,0-1.5,0-2.4,0
				c-0.9,0-1.9,0.1-2.9,0.1c0.6-0.2,1.1-0.4,1.5-0.7c0.4-0.3,0.8-0.6,1-0.9c0.3-0.3,0.6-0.7,0.9-1.1c0.2-0.3,0.4-0.9,0.6-1.7
				c0.3-0.9,0.5-1.8,0.7-3c0.2-1.1,0.4-2.3,0.5-3.6c0.1-1.3,0.1-2.5,0.1-3.6c-0.1-1.1-0.2-2.2-0.5-3c-0.3-0.9-0.7-1.4-1.3-1.7
				c-1.8-0.9-3.4-1.2-4.9-1c-1.5,0.3-2.9,1-4.2,2.2c-0.5,0.5-1,0.9-1.4,1.3c-0.4,0.4-0.9,0.9-1.4,1.4s-1,1-1.4,1.5c0,0.5,0,1,0,1.6
				c0,0.6,0.1,1.2,0.1,1.7c0,0.6,0.1,1.3,0.2,1.9c0.1,0.9,0.2,1.9,0.3,2.8c0.1,0.8,0.3,1.7,0.4,2.6c0.2,1,0.4,1.8,0.8,2.6
				c-0.5-0.1-1.1-0.1-1.7-0.1c-0.6,0-1.1,0-1.7,0c-0.6,0-1.2,0-1.8,0.1c-0.5,0-1.1,0.1-1.7,0.2c-0.5,0.1-1,0.1-1.6,0.2
				c-0.6,0.1-1.1,0.1-1.7,0.2c0.5-0.7,0.9-1.4,1.3-2.2c0.3-0.7,0.6-1.4,0.8-1.9c0.3-0.6,0.5-1.3,0.6-1.9c0.1-0.5,0.2-1.4,0.3-2.8
				c0.1-1.4,0.2-2.9,0.2-4.7c0.1-1.8,0.1-3.7,0.2-5.7s0.1-3.9,0-5.7c0-1.8,0-3.4-0.1-4.7c-0.1-1.3-0.2-2.3-0.3-2.7
				c-0.1-0.5-0.4-0.9-0.6-1.4c-0.2-0.4-0.6-0.7-1-1.1C178.8,206.4,178.3,206.2,177.7,206.1z"/>
		</g>
	</g>
	<g>
		<path class="st3" d="M108.3,210.5l-3.1,2.6c-0.5-0.2-1-0.4-1.4-0.7c0.2,0.5,0.4,0.9,0.5,1.4l-1.2,1c-0.4-0.3-0.7-0.6-1-1
			c0,0.6,0,1.2,0,1.8c-0.5-0.2-0.9-0.6-1.2-1c0,0.7,0,1.4,0,2.1l-32.6,27.4c-0.8,0.6-1.9,0.5-2.6-0.2l-6.7-7.9
			c-0.7-0.8-0.6-1.9,0.2-2.6l3.7-3.1c0.6,0.4,1.2,0.9,1.7,1.4c-0.1-0.1-0.1-0.3-0.1-0.5c0-0.8,0.1-1.6,0.1-2.4l0.8-0.6
			c0.3,0.1,0.6,0.2,0.8,0.2c-0.1-0.2-0.1-0.4-0.2-0.7c0.1,0.3,0.5,0.2,0.7,0s0.3-0.5,0.5-0.7c0.2,0.2,0.5,0.3,0.8,0.2
			c0.1-0.5,0.2-1.1,0.3-1.6l30.8-25.9c0.8-0.7,1.9-0.6,2.6,0.2l6.7,7.9C109.2,208.7,109.1,209.8,108.3,210.5z"/>
		<text transform="matrix(0.7656 -0.6433 0.6433 0.7656 66.2931 240.7061)" class="st4 st5">Lucky Green </text>
	</g>
	<path class="st6" d="M64.7,231.7c0.1,0.1,0.2,0.2,0.2,0.3C64.8,232,64.7,231.9,64.7,231.7z"/>
	<path class="st6" d="M68.7,224.8c0,0.3-0.1,0.6-0.2,0.9l-3.1,2.6c-0.3-0.2-0.6-0.5-0.7-0.8c0,0.5,0,1,0,1.5l-1.7,1.5
		c-0.6-0.4-1.2-0.8-1.9-1.3c0.5-0.4,0.8-0.9,1.2-1.4C63.8,225.8,66.3,225.1,68.7,224.8z"/>
</g>
</svg>
