<?xml version="1.0" encoding="utf-8"?>
<!-- Generator: Adobe Illustrator 26.0.1, SVG Export Plug-In . SVG Version: 6.00 Build 0)  -->
<svg version="1.1" id="Layer_1" xmlns="http://www.w3.org/2000/svg" xmlns:xlink="http://www.w3.org/1999/xlink" x="0px" y="0px"
	 viewBox="0 0 179 177" style="enable-background:new 0 0 179 177;" xml:space="preserve">
<style type="text/css">
	.st0{clip-path:url(#SVGID_00000113322221932511786090000005376685217704077188_);}
	.st1{fill:#4C3376;}
	.st2{opacity:0.66;}
	.st3{fill:#FFFFFF;}
	.st4{fill:none;}
</style>
<g>
	<defs>
		<rect id="SVGID_1_" x="0.7" y="0.2" width="178" height="176"/>
	</defs>
	<clipPath id="SVGID_00000101075198661430836940000003370971436187530634_">
		<use xlink:href="#SVGID_1_"  style="overflow:visible;"/>
	</clipPath>
	<g style="clip-path:url(#SVGID_00000101075198661430836940000003370971436187530634_);">
		<path class="st1" d="M35.5,39.1L25.5,24.5l2.5-2.2l11.9,7.4l-5.9-12.8l2.5-2.2l13.2,11.9l-2.6,2.2l-9.7-8.7l0.4-0.3l5.9,12
			L41.3,34l-11.1-7.4l0.4-0.4L38,36.8L35.5,39.1z"/>
		<path class="st1" d="M45.4,12.6c-0.1,0-0.1,0.1-0.2,0.1c-0.1,0-0.1,0-0.2,0c-0.1,0-0.1,0-0.2-0.1c-0.1,0-0.1-0.1-0.1-0.2l-1.2-2
			c0-0.1-0.1-0.1-0.1-0.2c0-0.1,0-0.1,0-0.2c0-0.1,0-0.1,0.1-0.2c0-0.1,0.1-0.1,0.2-0.1l2.3-1.4c0.1,0,0.1,0,0.2,0
			c0.1,0,0.1,0,0.2,0c0.1,0.1,0.2,0.1,0.3,0.3l1.2,2c0,0,0.1,0.1,0.1,0.2c0,0.1,0,0.1,0,0.2c0,0.1,0,0.1-0.1,0.2
			c0,0-0.1,0.1-0.1,0.1L45.4,12.6z M52.4,25.5l-6.4-11l3-1.8l6.4,11L52.4,25.5z"/>
		<path class="st1" d="M58.3,22l-4.7-11.9l2.7-1.1l1.1,1c0.3-0.6,0.8-1.2,1.3-1.6c0.5-0.5,1.2-1,1.9-1.3c0.8-0.4,1.6-0.5,2.5-0.3
			C63.7,7,64.3,7.4,64.8,8c0.5,0.6,0.9,1.3,1.2,2l3.1,7.8l-3.3,1.3l-3-7.4c-0.1-0.3-0.3-0.6-0.6-0.9c-0.2-0.2-0.5-0.3-0.8-0.3
			c-0.3,0-0.7,0-1,0.2c-0.3,0.1-0.6,0.3-0.8,0.5c-0.3,0.2-0.5,0.4-0.7,0.6c-0.2,0.2-0.4,0.5-0.6,0.8l3.3,8.3L58.3,22z"/>
		<path class="st1" d="M76.8,16.1c-0.8,0.2-1.6,0.2-2.4,0c-0.6-0.2-1.2-0.6-1.6-1.1c-0.5-0.8-0.8-1.7-0.9-2.6l-1-5.3l-2,0.4
			l-0.4-2.2l1.9-1l-0.3-3.6l2.7-0.6l0.7,3.5l3-0.6l0.6,2.8l-3,0.6l1.1,5.3c0.1,0.3,0.1,0.6,0.3,0.8c0.1,0.2,0.2,0.4,0.4,0.5
			c0.1,0.1,0.3,0.2,0.5,0.2c0.2,0,0.3,0,0.5,0l1.6-0.2l0.5,2.6L76.8,16.1z"/>
		<path class="st1" d="M88.5,14.7L89.3,2l2.9,0.2l0.5,1.3c0.6-0.4,1.2-0.7,1.9-1c0.7-0.3,1.5-0.4,2.2-0.3c0.9,0,1.7,0.3,2.4,0.8
			c0.5,0.4,0.9,1,1.1,1.7c0.2,0.8,0.3,1.5,0.2,2.3l-0.5,8.4l-3.5-0.2l0.5-8c0-0.4,0-0.7-0.2-1c-0.1-0.3-0.3-0.5-0.6-0.7
			c-0.3-0.2-0.6-0.3-1-0.3c-0.3,0-0.6,0-1,0c-0.3,0.1-0.6,0.2-0.9,0.3c-0.3,0.1-0.6,0.3-0.8,0.4L92,15L88.5,14.7z"/>
		<path class="st1" d="M108.2,17.5c-0.9-0.2-1.7-0.5-2.5-1c-0.6-0.3-1.1-0.9-1.5-1.5c-0.3-0.7-0.5-1.4-0.5-2.2c0-1,0.2-2.1,0.5-3.1
			c0.3-1,0.6-2,1.1-3c0.3-0.7,0.8-1.3,1.5-1.7c0.6-0.4,1.3-0.5,2-0.5c0.9,0,1.8,0.2,2.7,0.4c0.9,0.2,1.7,0.6,2.5,1
			c0.6,0.3,1.1,0.9,1.5,1.5c0.3,0.7,0.5,1.4,0.5,2.2c0,1.1-0.2,2.1-0.5,3.2c-0.3,1-0.6,2-1.1,3c-0.3,0.7-0.9,1.3-1.5,1.7
			c-0.6,0.4-1.3,0.6-2,0.6C110,17.9,109.1,17.8,108.2,17.5z M108.9,14.8c0.3,0.1,0.7,0.2,1.1,0.2c0.3,0,0.6-0.1,0.8-0.3
			c0.3-0.3,0.5-0.6,0.7-1c0.3-0.6,0.5-1.2,0.7-1.9c0.2-0.6,0.3-1.3,0.4-2c0.1-0.4,0-0.8-0.1-1.2c-0.1-0.3-0.3-0.5-0.6-0.7
			c-0.3-0.2-0.7-0.3-1-0.4c-0.3-0.1-0.7-0.1-1.1-0.1c-0.3,0-0.6,0.1-0.8,0.3c-0.3,0.3-0.5,0.6-0.7,1c-0.3,0.6-0.5,1.3-0.6,1.9
			c-0.2,0.6-0.3,1.3-0.4,2c-0.1,0.4,0,0.8,0.1,1.2c0.1,0.3,0.3,0.5,0.6,0.7C108.3,14.6,108.6,14.7,108.9,14.8z"/>
		<path class="st1" d="M120.9,22.1c-0.8-0.3-1.4-0.8-2-1.4c-0.4-0.5-0.7-1.2-0.6-1.8c0.1-0.9,0.4-1.8,0.8-2.6l2.4-4.9l-1.8-0.8
			l0.9-2.1l2.2,0.4l1.9-3.1l2.5,1.2l-1.5,3.2l2.7,1.3l-1.2,2.6l-2.7-1.3l-2.2,4.9c-0.1,0.3-0.2,0.5-0.3,0.8c0,0.2,0,0.4,0,0.6
			c0,0.2,0.1,0.3,0.3,0.4c0.1,0.1,0.2,0.2,0.4,0.3l1.4,0.8l-1.1,2.4L120.9,22.1z"/>
		<path class="st1" d="M134.7,31c-0.3-0.3-0.6-0.5-1-0.8l-1-1c-0.3-0.3-0.6-0.6-0.9-1c-0.2-0.3-0.4-0.5-0.6-0.8l1.3-1.6l4.5,3.6
			c0.2,0.2,0.4,0.3,0.7,0.4c0.2,0.1,0.4,0.1,0.6,0c0.2-0.1,0.4-0.2,0.5-0.4l0.3-0.3c0.1-0.1,0.2-0.2,0.2-0.4c0-0.1,0.1-0.3,0-0.4
			c-0.1-0.4-0.4-0.7-0.7-0.9l-1.5-1.3c-0.5-0.4-1-0.9-1.3-1.5c-0.3-0.5-0.5-1.1-0.4-1.7c0.1-0.7,0.4-1.4,0.9-1.9l0.5-0.6
			c0.4-0.6,1-1,1.6-1.3c0.7-0.2,1.4-0.2,2,0c1,0.4,1.9,0.9,2.6,1.6c0.4,0.4,0.9,0.7,1.2,1.1c0.4,0.4,0.8,0.8,1.2,1.2
			c0.3,0.3,0.6,0.7,0.8,1l-1.3,1.6l-4.2-3.4c-0.3-0.2-0.6-0.4-0.9-0.5c-0.2,0-0.3,0-0.5,0.1c-0.1,0.1-0.3,0.2-0.3,0.3l-0.2,0.3
			c-0.2,0.2-0.3,0.4-0.3,0.6c0,0.2,0.1,0.4,0.2,0.5c0.2,0.2,0.4,0.4,0.6,0.6l1.6,1.3c0.8,0.6,1.4,1.5,1.6,2.5c0,0.4,0,0.9-0.2,1.3
			c-0.1,0.4-0.4,0.8-0.7,1.1l-0.7,0.9c-0.4,0.6-1,1-1.8,1.2c-0.7,0.1-1.4,0-2-0.3C136.3,32.1,135.5,31.6,134.7,31z"/>
		<path class="st1" d="M143.9,39.8c-0.6-0.6-1-1.3-1.3-2.1c-0.2-0.6-0.1-1.3,0.2-1.9c0.4-0.8,1-1.5,1.8-2.1l4.1-3.5l-1.3-1.5
			l1.7-1.5l1.8,1.2l3-2l1.9,2.1l-2.6,2.4l2,2.2l-2.1,1.9l-2-2.2l-4,3.6c-0.2,0.2-0.4,0.4-0.6,0.6c-0.1,0.2-0.2,0.4-0.2,0.6
			c0,0.2,0,0.3,0,0.5c0.1,0.2,0.1,0.3,0.2,0.4l1,1.3l-1.9,1.8L143.9,39.8z"/>
		<path class="st1" d="M148.5,45.9c-0.5-0.7-0.7-1.6-0.5-2.4c0.1-0.4,0.3-0.8,0.5-1.2c0.3-0.4,0.6-0.7,1-0.9l1-0.6
			c0.4-0.3,0.8-0.4,1.2-0.5c0.4-0.1,0.9-0.1,1.3,0.1c1.1,0.4,2,1.2,2.5,2.2l1.8,2.7l0.7-0.5c0.3-0.2,0.5-0.4,0.7-0.7
			c0.1-0.2,0.1-0.3,0.1-0.5c0-0.2,0-0.3-0.1-0.5c-0.2-0.6-0.5-1.1-0.8-1.6l-2.1-3.2l1.7-1.1c0.6,0.5,1.1,1,1.6,1.5
			c0.7,0.7,1.2,1.5,1.8,2.4c0.5,0.8,0.9,1.6,1.2,2.5c0.2,0.7,0.1,1.5-0.2,2.1c-0.4,0.8-1.1,1.4-1.8,1.9l-7.3,4.7l-1.5-2.3l0.8-1.2
			c-0.2-0.1-0.5-0.1-0.7-0.3c-0.3-0.2-0.6-0.4-0.9-0.6c-0.4-0.3-0.7-0.5-1.1-0.9C149,46.7,148.7,46.3,148.5,45.9z M151.5,46.1
			c0.1,0.2,0.2,0.3,0.3,0.4c0.1,0.1,0.3,0.3,0.4,0.4l0.5,0.4l0.4,0.3l0.2,0.1l2.5-1.6l-1.3-1.7c-0.3-0.4-0.7-0.7-1.1-0.9
			c-0.2,0-0.4-0.1-0.6,0c-0.2,0-0.4,0.1-0.6,0.2l-0.4,0.3c-0.2,0.1-0.4,0.3-0.5,0.6c-0.1,0.2-0.1,0.5-0.1,0.7
			C151.2,45.6,151.3,45.9,151.5,46.1L151.5,46.1z"/>
		<path class="st1" d="M154.1,55.2l11.7-5l1.1,2.5l-1.5,1.5c0.7,0.2,1.4,0.5,2,0.8c0.6,0.4,1.1,1,1.4,1.7c0.1,0.2,0.1,0.3,0.2,0.5
			c0.1,0.2,0.1,0.3,0.1,0.5l-3.3,1.5l-0.2-0.7c-0.1-0.2-0.2-0.5-0.3-0.7c-0.2-0.4-0.4-0.8-0.6-1.1c-0.2-0.3-0.5-0.6-0.8-0.8
			c-0.3-0.2-0.7-0.4-1.1-0.5l-7.3,3.1L154.1,55.2z"/>
		<path class="st1" d="M159.3,70.1c-0.2-0.8-0.3-1.6-0.2-2.4c0.1-0.3,0.2-0.6,0.4-0.9c0.2-0.3,0.4-0.5,0.7-0.7
			c0.8-0.5,1.6-0.9,2.5-1l5.2-1.2l-0.5-2l2.2-0.6l1.1,1.9l3.6-0.4l0.7,2.7l-3.4,0.9l0.7,3l-2.7,0.7l-0.8-3l-5.2,1.4
			c-0.3,0.1-0.5,0.2-0.8,0.3c-0.2,0.1-0.3,0.2-0.4,0.4c-0.1,0.1-0.2,0.3-0.2,0.5c0,0.2,0,0.3,0,0.5l0.3,1.6l-2.5,0.7L159.3,70.1z"/>
		<path class="st1" d="M160.8,80.2c-0.2-1.1-0.1-2.3,0.2-3.4c0.2-0.4,0.4-0.8,0.7-1.2c0.3-0.3,0.7-0.6,1.1-0.8
			c1.2-0.5,2.5-0.9,3.9-0.9c1.3-0.2,2.7-0.1,4,0.1c0.4,0.1,0.9,0.3,1.2,0.5c0.4,0.3,0.7,0.6,0.9,1c0.5,1,0.8,2.1,0.9,3.3
			c0.1,1,0.1,2.1-0.1,3.1c-0.1,0.7-0.6,1.4-1.2,1.8c-0.8,0.4-1.7,0.7-2.6,0.8c-0.7,0.1-1.4,0-2.1-0.3c-0.5-0.3-0.9-0.8-1.2-1.3
			c-0.3-0.7-0.5-1.4-0.5-2.1l-0.3-3.2c-0.5,0.1-1,0.2-1.5,0.4c-0.2,0.1-0.4,0.2-0.5,0.4c-0.1,0.2-0.2,0.4-0.3,0.6
			c-0.1,0.7-0.1,1.3,0,2l0.3,3.7l-2.1,0.2c-0.2-0.6-0.4-1.3-0.5-2C161.1,81.9,160.9,81.1,160.8,80.2z M167.9,77.3l0.3,3
			c0,0.4,0.1,0.7,0.4,1c0.1,0.1,0.3,0.2,0.5,0.2c0.2,0,0.4,0,0.6,0c0.4,0,0.7-0.1,1.1-0.3c0.3-0.2,0.5-0.4,0.5-0.7
			c0.1-0.4,0.1-0.8,0.1-1.2c0-0.4-0.2-0.9-0.4-1.3c-0.1-0.2-0.3-0.3-0.5-0.4c-0.2-0.1-0.4-0.2-0.6-0.2
			C169.2,77.2,168.6,77.2,167.9,77.3L167.9,77.3z"/>
		<path class="st1" d="M160.9,92.2c0.1-0.9,0.4-1.7,0.9-2.5c0.5-0.7,1.3-1.1,2.2-1.3c1.2-0.3,2.5-0.3,3.8-0.1
			c1.3,0.1,2.6,0.4,3.8,0.8c0.9,0.3,1.6,0.9,2,1.7c0.4,0.9,0.6,2,0.4,3c-0.1,0.6-0.2,1.2-0.3,1.7c-0.2,0.5-0.3,1-0.6,1.5l5.7,0.6
			l-0.3,3.5l-18-1.8l0.3-3l1.3-0.4c-0.2-0.3-0.4-0.7-0.6-1.1c-0.2-0.4-0.3-0.8-0.4-1.3C160.9,93.1,160.8,92.6,160.9,92.2z
			 M163.6,93.6c-0.1,0.4,0,0.9,0.1,1.3c0.1,0.3,0.2,0.7,0.4,1l6.4,0.6c0.1-0.3,0.3-0.6,0.4-1c0.1-0.4,0.2-0.7,0.3-1.1
			c0.1-0.5,0-1-0.2-1.5c-0.1-0.2-0.3-0.4-0.4-0.5c-0.2-0.2-0.4-0.3-0.6-0.3c-0.8-0.3-1.6-0.4-2.4-0.5c-0.8-0.1-1.5-0.1-2.3,0
			c-0.5,0-0.9,0.3-1.2,0.6C163.7,92.7,163.6,93.2,163.6,93.6L163.6,93.6z"/>
		<path class="st1" d="M159.4,102.7c0-0.1,0-0.1,0.1-0.2c0-0.1,0.1-0.1,0.1-0.1c0.1,0,0.1-0.1,0.2-0.1c0.1,0,0.1,0,0.2,0l2.3,0.6
			c0.3,0.1,0.5,0.3,0.4,0.6l-0.5,2c0,0.1,0,0.1-0.1,0.2c0,0.1-0.1,0.1-0.1,0.1c-0.1,0-0.1,0.1-0.2,0.1c-0.1,0-0.1,0-0.2,0l-2.4-0.6
			c-0.1,0-0.1,0-0.2-0.1c-0.1,0-0.1-0.1-0.1-0.2c0-0.1,0-0.3,0-0.4L159.4,102.7z"/>
		<path class="st1" d="M157.7,108.9c0-0.1,0-0.1,0.1-0.2c0-0.1,0.1-0.1,0.2-0.1c0.1,0,0.1,0,0.2,0s0.1,0,0.2,0l2.3,0.8
			c0.1,0,0.1,0,0.2,0.1c0.1,0,0.1,0.1,0.1,0.2c0,0.1,0,0.1,0.1,0.2c0,0.1,0,0.1,0,0.2l-0.7,1.9c0,0.1,0,0.1-0.1,0.2
			c0,0.1-0.1,0.1-0.2,0.1c-0.1,0-0.1,0-0.2,0c-0.1,0-0.1,0-0.2,0l-2.3-0.8c-0.2-0.1-0.3-0.1-0.3-0.3c0-0.1,0-0.3,0-0.4L157.7,108.9z
			"/>
		<path class="st1" d="M155.4,114.9c0-0.1,0-0.1,0.1-0.2c0,0,0.1-0.1,0.2-0.1c0.1,0,0.1,0,0.2,0c0.1,0,0.1,0,0.2,0.1l2.2,1
			c0.1,0,0.1,0,0.2,0.1c0,0,0.1,0.1,0.1,0.2c0,0.1,0,0.1,0,0.2c0,0.1,0,0.1-0.1,0.2l-0.8,1.9c0,0.1-0.1,0.1-0.1,0.2
			c0,0.1-0.1,0.1-0.2,0.1c-0.1,0-0.1,0-0.2,0c-0.1,0-0.1,0-0.2-0.1l-2.2-1c-0.2-0.1-0.3-0.2-0.3-0.3c0-0.1,0-0.3,0-0.4L155.4,114.9z
			"/>
		<path class="st1" d="M150.5,124.1c0.2-0.3,0.4-0.7,0.7-1.1c0.3-0.4,0.5-0.8,0.8-1.1c0.3-0.4,0.6-0.7,0.8-1
			c0.2-0.3,0.5-0.5,0.7-0.7l1.8,1.1l-3,4.8c-0.2,0.2-0.3,0.5-0.4,0.7c-0.1,0.2-0.1,0.4,0,0.6c0.1,0.2,0.3,0.4,0.5,0.5l0.4,0.2
			c0.1,0.1,0.2,0.1,0.4,0.2c0.1,0,0.3,0,0.4,0c0.4-0.2,0.6-0.5,0.8-0.8l1.1-1.7c0.3-0.6,0.8-1.1,1.3-1.5c0.5-0.4,1.1-0.6,1.7-0.6
			c0.7,0,1.4,0.2,2,0.6l0.6,0.4c0.6,0.4,1.1,0.9,1.5,1.5c0.3,0.6,0.4,1.3,0.2,2c-0.2,1-0.7,2-1.2,2.8c-0.3,0.4-0.6,0.9-1,1.4
			c-0.4,0.5-0.7,0.9-1.1,1.3c-0.3,0.3-0.6,0.6-0.9,0.9l-1.8-1.1l2.8-4.6c0.2-0.3,0.3-0.6,0.4-1c0-0.2-0.1-0.3-0.2-0.4
			c-0.1-0.1-0.2-0.2-0.4-0.3l-0.3-0.2c-0.2-0.1-0.4-0.2-0.6-0.2c-0.2,0-0.4,0.1-0.5,0.3c-0.2,0.2-0.4,0.4-0.5,0.7l-1.1,1.7
			c-0.2,0.5-0.5,0.9-0.9,1.2c-0.4,0.3-0.8,0.6-1.3,0.7c-0.4,0.1-0.9,0.1-1.3,0c-0.4-0.1-0.9-0.3-1.2-0.5l-1-0.6
			c-0.6-0.3-1.1-0.9-1.4-1.6c-0.2-0.7-0.2-1.4,0-2.1C149.6,125.7,150,124.9,150.5,124.1z"/>
		<path class="st1" d="M143,134.4c0.5-0.6,1.2-1.1,1.9-1.5c0.3-0.1,0.6-0.2,1-0.2c0.3,0,0.7,0,1,0.2c0.9,0.3,1.6,0.8,2.3,1.5l4,3.6
			l1.3-1.5l1.7,1.5l-1,2l2.4,2.7l-1.8,2.1l-2.7-2.3l-2,2.3l-2.1-1.8l1.9-2.3l-4.1-3.5c-0.2-0.2-0.4-0.4-0.7-0.5
			c-0.2-0.1-0.4-0.1-0.6-0.1c-0.2,0-0.3,0-0.5,0.1c-0.1,0.1-0.3,0.2-0.4,0.3l-1.2,1.1l-2-1.7L143,134.4z"/>
		<path class="st1" d="M137.6,139.7c0.6-0.6,1.5-0.9,2.3-0.9c0.4,0,0.9,0.2,1.2,0.4c0.4,0.2,0.7,0.5,1,0.9l0.7,0.9
			c0.3,0.3,0.5,0.7,0.7,1.2c0.1,0.4,0.2,0.9,0.1,1.3c-0.2,1.1-0.9,2.1-1.8,2.8l-2.5,2.1l0.6,0.7c0.2,0.3,0.5,0.5,0.8,0.6
			c0.2,0.1,0.3,0.1,0.5,0.1s0.4,0,0.5-0.1c0.5-0.3,1-0.6,1.5-1l3-2.5l1.3,1.6c-0.4,0.6-0.8,1.2-1.3,1.8c-0.7,0.7-1.4,1.4-2.1,2.1
			c-0.7,0.6-1.5,1.1-2.3,1.5c-0.7,0.3-1.4,0.3-2.2,0.1c-0.8-0.3-1.6-0.9-2.1-1.6l-5.6-6.7l2.1-1.8l1.3,0.7c0-0.2,0.1-0.5,0.2-0.7
			c0.1-0.3,0.3-0.7,0.4-1c0.2-0.4,0.4-0.8,0.7-1.2C136.9,140.5,137.2,140.1,137.6,139.7z M137.8,142.7c-0.1,0.1-0.3,0.2-0.4,0.4
			c-0.1,0.2-0.3,0.3-0.4,0.5l-0.3,0.5l-0.3,0.4l-0.1,0.2l1.9,2.3l1.5-1.5c0.4-0.3,0.6-0.8,0.7-1.2c0-0.2,0-0.4-0.1-0.6
			c-0.1-0.2-0.2-0.4-0.3-0.5l-0.3-0.4c-0.2-0.2-0.4-0.4-0.7-0.5c-0.2-0.1-0.5-0.1-0.7,0C138.2,142.4,138,142.5,137.8,142.7
			L137.8,142.7z"/>
		<path class="st1" d="M123,143.6l1.5,5.6c0.6-0.3,1.2-0.5,1.8-0.6c0.6,0,1.2,0.1,1.7,0.4c0.6,0.3,1.2,0.7,1.6,1.2l6.6,7l-3.2,1.8
			l-5.9-6.6c-0.2-0.2-0.4-0.4-0.6-0.5c-0.2-0.1-0.3-0.1-0.5-0.1c-0.1,0-0.3,0-0.4,0l-0.3,0.1l2.8,9.8l-3.1,1.7l-4.5-15.9l-0.1-2.6
			L123,143.6z"/>
		<path class="st1" d="M107.7,155.8c0.8-0.2,1.7-0.1,2.5,0.3c0.4,0.2,0.7,0.6,0.9,0.9c0.2,0.4,0.4,0.8,0.5,1.2l0.3,1.1
			c0.1,0.4,0.1,0.9,0,1.3c-0.1,0.4-0.3,0.9-0.5,1.2c-0.7,0.9-1.8,1.5-2.9,1.6l-3.2,0.7l0.2,0.9c0.1,0.3,0.2,0.6,0.4,0.9
			c0.1,0.1,0.3,0.2,0.4,0.3c0.2,0.1,0.3,0.1,0.5,0.1c0.6,0,1.2,0,1.8-0.2l3.7-0.8l0.4,2c-0.6,0.4-1.3,0.7-2,1
			c-0.9,0.4-1.9,0.6-2.9,0.8c-0.9,0.2-1.8,0.3-2.7,0.2c-0.7-0.1-1.4-0.4-2-0.9c-0.6-0.7-1-1.5-1.1-2.4l-1.9-8.5l2.7-0.6l0.8,1.2
			c0.1-0.2,0.3-0.4,0.5-0.6c0.3-0.2,0.5-0.5,0.8-0.7c0.4-0.3,0.8-0.5,1.2-0.7C106.8,156.1,107.2,155.9,107.7,155.8z M106.5,158.6
			l-0.5,0.2l-0.6,0.3l-0.5,0.3l-0.4,0.3l-0.2,0.1l0.6,3l2.1-0.6c0.5-0.1,0.9-0.4,1.2-0.8c0.1-0.2,0.2-0.4,0.2-0.6c0-0.2,0-0.4,0-0.6
			l-0.1-0.5c0-0.3-0.2-0.5-0.4-0.7c-0.2-0.2-0.4-0.3-0.6-0.3C107,158.6,106.8,158.6,106.5,158.6z"/>
		<path class="st1" d="M93.1,158.1c0.8-0.1,1.5,0,2.3,0.3c0.6,0.2,1.1,0.7,1.4,1.3c0.4,0.7,0.6,1.5,0.6,2.3l0.9,14l-3.5,0.2
			l-0.9-13.5c0-0.4-0.1-0.8-0.2-1.1c-0.1-0.2-0.3-0.4-0.5-0.6c-0.2-0.1-0.5-0.2-0.8-0.2l-1-0.1l-0.2-2.5L93.1,158.1z"/>
		<path class="st1" d="M83.7,157.8c1.2,0.1,2.3,0.3,3.3,0.8c0.4,0.2,0.8,0.5,1,0.9c0.3,0.4,0.5,0.8,0.6,1.2c0.3,1.3,0.4,2.7,0.2,4
			c-0.1,1.4-0.3,2.7-0.8,4c-0.2,0.4-0.4,0.8-0.8,1.1c-0.3,0.3-0.7,0.6-1.1,0.7c-1.1,0.3-2.2,0.4-3.4,0.3c-1,0-2-0.3-3-0.6
			c-0.7-0.3-1.2-0.8-1.5-1.5c-0.3-0.9-0.4-1.8-0.3-2.7c0-0.7,0.3-1.4,0.7-2c0.4-0.5,0.9-0.8,1.5-1c0.7-0.2,1.5-0.2,2.2-0.1l3.2,0.3
			c0-0.5,0-1.1-0.2-1.6c-0.1-0.2-0.2-0.4-0.3-0.5c-0.1-0.2-0.3-0.3-0.5-0.4c-0.6-0.2-1.3-0.4-1.9-0.4l-3.7-0.3L79,158
			c0.6-0.1,1.3-0.1,2-0.2C81.9,157.7,82.8,157.7,83.7,157.8z M85.4,165.3l-2.9-0.2c-0.4-0.1-0.7,0-1.1,0.2c-0.1,0.1-0.2,0.3-0.3,0.4
			c-0.1,0.2-0.1,0.4-0.1,0.5c0,0.4,0,0.8,0.1,1.1c0.1,0.3,0.3,0.5,0.6,0.6c0.4,0.2,0.8,0.3,1.2,0.3c0.4,0.1,0.9,0,1.3-0.2
			c0.4-0.2,0.6-0.5,0.8-0.9C85.2,166.6,85.3,166,85.4,165.3L85.4,165.3z"/>
		<path class="st1" d="M75.8,156.9l-3.1,12.4l-2.6-0.7l-0.3-2.1c-0.6,0.5-1.2,0.8-1.9,1.1c-0.7,0.3-1.4,0.3-2.1,0.1l-0.5-0.1
			c-0.2-0.1-0.3-0.1-0.5-0.2l0.9-3.5l0.7,0.3l0.7,0.2c0.4,0.1,0.8,0.2,1.2,0.1c0.4,0,0.7-0.1,1.1-0.2c0.4-0.1,0.7-0.3,1.1-0.5
			l1.9-7.7L75.8,156.9z"/>
		<path class="st1" d="M60.9,152.1c0.8,0.3,1.5,0.7,2,1.3c0.2,0.2,0.4,0.5,0.5,0.8c0.1,0.3,0.2,0.6,0.2,1c-0.1,0.9-0.3,1.8-0.7,2.6
			l-2.2,4.9l1.8,0.8l-0.9,2.1l-2.2-0.3l-1.8,3.1l-2.6-1.1l1.4-3.3l-2.8-1.2l1.1-2.6l2.8,1.2l2.1-5c0.1-0.3,0.2-0.5,0.2-0.8
			c0-0.2,0-0.4,0-0.6c-0.1-0.2-0.1-0.3-0.3-0.4c-0.1-0.1-0.2-0.2-0.4-0.3l-1.5-0.7l1-2.4L60.9,152.1z"/>
		<path class="st1" d="M56,149.6c0.1,0,0.1,0.1,0.2,0.1c0,0,0.1,0.1,0.1,0.2c0,0.1,0,0.1,0,0.2c0,0.1,0,0.1-0.1,0.2l-1.2,2.1
			c0,0.1-0.1,0.1-0.1,0.2c0,0-0.1,0.1-0.2,0.1c-0.1,0-0.1,0-0.2,0s-0.1,0-0.2-0.1l-1.8-1c-0.1,0-0.1-0.1-0.2-0.1
			c0-0.1-0.1-0.1-0.1-0.2c0-0.1,0-0.1,0-0.2c0-0.1,0-0.1,0.1-0.2l1.2-2.1c0.1-0.2,0.2-0.3,0.3-0.3c0.1,0,0.3,0,0.4,0.1L56,149.6z"/>
		<path class="st1" d="M50.5,146.4c0.1,0,0.1,0.1,0.1,0.1c0,0.1,0.1,0.1,0.1,0.2c0,0.1,0,0.1,0,0.2c0,0.1,0,0.1-0.1,0.2l-1.4,2
			c0,0.1-0.1,0.1-0.1,0.2c-0.1,0-0.1,0.1-0.2,0.1c-0.1,0-0.1,0-0.2,0c-0.1,0-0.1,0-0.2-0.1l-1.7-1.2c-0.1,0-0.1-0.1-0.2-0.1
			c0-0.1-0.1-0.1-0.1-0.2c0-0.1,0-0.1,0-0.2c0-0.1,0.1-0.1,0.1-0.2l1.4-2c0-0.1,0.1-0.1,0.1-0.2c0.1,0,0.1-0.1,0.2-0.1
			c0.1,0,0.2,0.1,0.4,0.1L50.5,146.4z"/>
		<path class="st1" d="M45.4,142.6c0.1,0,0.1,0.1,0.1,0.1c0,0.1,0,0.1,0,0.2c0,0.1,0,0.1,0,0.2c0,0.1-0.1,0.1-0.1,0.1l-1.5,1.9
			c0,0.1-0.1,0.1-0.1,0.1s-0.1,0.1-0.2,0.1c-0.1,0-0.1,0-0.2,0c-0.1,0-0.1-0.1-0.2-0.1l-1.6-1.3c-0.1,0-0.1-0.1-0.2-0.1
			c0-0.1-0.1-0.1-0.1-0.2c0-0.1,0-0.1,0-0.2c0-0.1,0.1-0.1,0.1-0.2l1.5-1.9c0-0.1,0.1-0.1,0.2-0.1s0.1-0.1,0.2,0
			c0.1,0,0.3,0.1,0.4,0.2L45.4,142.6z"/>
		<path class="st1" d="M37.2,134.7c0.6,0.7,1.2,1.4,1.6,2.2c0.4,0.7,0.5,1.6,0.4,2.4c-0.2,1-0.6,1.9-1.2,2.8
			c-0.9,1.3-1.9,2.4-3.1,3.4c-1.1,1.1-2.3,2-3.6,2.7c-0.9,0.5-1.8,0.8-2.9,0.9c-0.8,0-1.6-0.2-2.3-0.6c-0.8-0.5-1.5-1-2.1-1.7
			c-0.5-0.5-1-1.1-1.5-1.7c-0.4-0.6-0.8-1.1-1-1.6c-0.3-0.4-0.5-0.8-0.7-1.3l2-1.9c0.1,0.3,0.4,0.6,0.6,1c0.3,0.4,0.6,0.8,1,1.3
			c0.4,0.5,0.8,1,1.3,1.5c0.4,0.4,0.8,0.8,1.3,1.1c0.4,0.2,0.9,0.3,1.4,0.3c0.6-0.1,1.2-0.4,1.7-0.7c0.8-0.6,1.6-1.2,2.3-1.9
			c0.7-0.6,1.4-1.3,2-2.1c0.4-0.5,0.7-1,0.9-1.6c0.1-0.5,0.1-1-0.1-1.4c-0.3-0.6-0.6-1.1-1-1.5c-0.8-0.9-1.5-1.6-2-2.1
			c-0.5-0.5-1-0.9-1.4-1.2l2-1.8c0.4,0.2,0.9,0.5,1.3,0.8c0.5,0.4,1,0.8,1.5,1.2C36.1,133.6,36.6,134.2,37.2,134.7z"/>
		<path class="st1" d="M29.1,124c0.5,0.8,0.9,1.6,1.1,2.5c0.2,0.7,0.2,1.4,0,2.1c-0.2,0.7-0.6,1.4-1.2,1.9c-0.7,0.7-1.6,1.4-2.5,1.9
			c-0.9,0.6-1.9,1.1-3,1.4c-0.7,0.3-1.5,0.3-2.2,0.2c-0.7-0.2-1.3-0.5-1.8-1c-0.6-0.6-1.2-1.4-1.6-2.1c-0.5-0.8-0.9-1.6-1.2-2.5
			c-0.2-0.7-0.2-1.4-0.1-2.1c0.2-0.7,0.6-1.4,1.2-1.9c0.8-0.8,1.6-1.4,2.6-1.9c0.9-0.6,1.9-1,2.9-1.4c0.7-0.3,1.5-0.3,2.2-0.2
			c0.7,0.2,1.3,0.5,1.8,1C28,122.5,28.6,123.2,29.1,124z M26.7,125.5c-0.2-0.3-0.4-0.6-0.7-0.9c-0.2-0.2-0.5-0.3-0.8-0.4
			c-0.4,0-0.8,0.1-1.2,0.2c-0.6,0.3-1.2,0.6-1.8,0.9c-0.6,0.3-1.1,0.7-1.6,1.2c-0.3,0.3-0.6,0.6-0.7,0.9c-0.1,0.3-0.1,0.6,0,0.9
			c0.1,0.3,0.3,0.7,0.5,1c0.2,0.3,0.4,0.6,0.7,0.8c0.2,0.2,0.5,0.3,0.8,0.4c0.4,0,0.8-0.1,1.2-0.2c0.6-0.3,1.2-0.6,1.8-0.9
			c0.6-0.3,1.1-0.7,1.6-1.2c0.3-0.3,0.6-0.6,0.7-1c0.1-0.3,0.1-0.6,0-0.9C27,126.1,26.9,125.8,26.7,125.5L26.7,125.5z"/>
		<path class="st1" d="M24.5,117l-12.2,3.8l-0.9-2.8l1.1-1c-0.5-0.4-1-0.9-1.5-1.5c-0.5-0.6-0.9-1.4-1.1-2.2
			c-0.2-0.7-0.3-1.4-0.1-2.1c0.2-0.6,0.5-1.1,0.9-1.5c-0.4-0.3-0.8-0.6-1.2-1c-0.4-0.4-0.8-0.8-1.1-1.3c-0.3-0.5-0.6-1-0.8-1.5
			c-0.3-0.8-0.3-1.7-0.1-2.5c0.2-0.7,0.6-1.3,1.2-1.7c0.7-0.5,1.5-0.8,2.3-1.1l7.9-2.4l1,3.4l-7.6,2.4c-0.3,0.1-0.7,0.3-0.9,0.5
			c-0.2,0.2-0.4,0.5-0.4,0.8c-0.1,0.3,0,0.7,0.1,1c0.1,0.5,0.4,0.9,0.7,1.3c0.3,0.4,0.7,0.7,1.1,1c0.1-0.1,0.3-0.2,0.4-0.2
			c0.1-0.1,0.3-0.1,0.4-0.2l7.5-2.3l1,3.4l-7.6,2.4c-0.3,0.1-0.7,0.3-0.9,0.5c-0.2,0.2-0.3,0.5-0.4,0.8c-0.1,0.3,0,0.7,0.1,1
			c0.1,0.3,0.2,0.6,0.4,0.9c0.2,0.3,0.4,0.5,0.6,0.7c0.2,0.2,0.5,0.4,0.7,0.6l8.5-2.6L24.5,117z"/>
		<path class="st1" d="M4.3,96.2c0,0.1,0,0.1,0,0.2c0,0.1,0,0.1-0.1,0.2c0,0.1-0.1,0.1-0.2,0.1s-0.1,0-0.2,0l-2.3,0.2
			c-0.1,0-0.1,0-0.2,0c-0.1,0-0.1,0-0.2-0.1c-0.1,0-0.1-0.1-0.1-0.2c0-0.1,0-0.1,0-0.2l-0.3-2.7c0-0.1,0-0.1,0-0.2
			c0-0.1,0.1-0.1,0.1-0.2c0.1-0.1,0.2-0.1,0.3-0.1l2.3-0.2c0.1,0,0.1,0,0.2,0c0.1,0,0.1,0,0.2,0.1c0.1,0,0.1,0.1,0.1,0.1
			c0,0.1,0,0.1,0,0.2L4.3,96.2z M18.9,95.2L6.2,96.4l-0.3-3.5l12.7-1.2L18.9,95.2z"/>
		<path class="st1" d="M18.2,88.4L5.5,87.7l0.2-2.9L7,84.2c-0.4-0.6-0.7-1.2-1-1.8c-0.3-0.7-0.4-1.5-0.3-2.2c0-0.9,0.3-1.7,0.8-2.4
			c0.4-0.5,1-0.9,1.7-1.1c0.7-0.2,1.5-0.3,2.3-0.2l8.4,0.4l-0.2,3.5L10.7,80c-0.4,0-0.7,0-1,0.2c-0.3,0.1-0.5,0.3-0.6,0.6
			c-0.2,0.3-0.3,0.6-0.3,1c0,0.3,0,0.6,0,1C8.8,83,8.9,83.3,9,83.6c0.1,0.3,0.3,0.6,0.5,0.8l8.9,0.5L18.2,88.4z"/>
		<path class="st1" d="M25.8,72.2c-0.2,0.7-0.5,1.4-0.9,2c-0.3,0.5-0.8,0.9-1.4,1.2c-0.6,0.2-1.2,0.3-1.8,0.1l-0.4-0.1
			c-0.6-0.2-1.1-0.5-1.5-1c-0.4-0.5-0.6-1.1-0.7-1.8c-0.1-0.7,0-1.4,0.1-2l1.3-0.7c-0.1,0.3-0.1,0.6-0.1,0.9c0,0.3,0.1,0.5,0.3,0.7
			c0.2,0.2,0.4,0.4,0.7,0.4h0.3c0.2,0.1,0.4,0.1,0.6,0c0.2,0,0.4-0.1,0.5-0.2c0.4-0.3,0.6-0.8,0.7-1.2l0.6-2.4c0.1-0.5,0.1-1,0-1.5
			c-0.1-0.2-0.2-0.4-0.3-0.5c-0.2-0.1-0.3-0.2-0.5-0.3l-0.4-0.1c-0.2-0.1-0.5-0.1-0.7,0c-0.2,0.1-0.5,0.2-0.6,0.5
			c-0.2,0.3-0.4,0.6-0.4,1L20.6,70c-0.2,1.1-0.8,2.1-1.6,2.9c-0.3,0.3-0.6,0.4-1,0.5c-0.4,0.1-0.8,0.1-1.1,0c-0.6-0.1-1.1-0.5-1.5-1
			c-0.3-0.5-0.5-1.1-0.4-1.7c-0.3,0.4-0.8,0.7-1.3,0.9c-0.4,0.2-0.9,0.3-1.4,0.3c-0.5,0-1,0-1.5-0.2c-0.8-0.2-1.5-0.6-2.1-1.1
			c-0.5-0.6-0.8-1.3-0.9-2.1c-0.1-1,0-2,0.3-3l1.7-6.7l1.9,0.5l-0.1,2c0.2-0.1,0.4-0.2,0.6-0.3c0.3-0.1,0.6-0.1,0.9-0.1
			c0.4,0,0.9,0.1,1.3,0.2c0.7,0.2,1.3,0.5,1.8,0.9c0.5,0.5,0.9,1.1,1,1.8c0.2,0.9,0.1,1.8-0.2,2.7l-0.6,2.2c-0.1,0.4-0.1,0.7,0,1.1
			c0,0.1,0.1,0.3,0.2,0.4c0.1,0.1,0.2,0.2,0.4,0.2c0.1,0,0.2,0,0.3,0c0.1,0,0.2-0.1,0.3-0.2c0.2-0.2,0.3-0.5,0.3-0.7l0.9-3.4
			c0.2-0.8,0.5-1.6,1-2.3c0.4-0.6,0.9-1,1.6-1.2c0.7-0.2,1.5-0.2,2.3,0l0.3,0.1c0.5,0.1,1,0.3,1.5,0.7c0.4,0.3,0.8,0.7,1.1,1.2
			c0.5,1.2,0.6,2.6,0.1,3.8L25.8,72.2z M14.1,67.7l0.3-1.3c0.1-0.4,0.1-0.8,0.1-1.2c-0.1-0.3-0.2-0.5-0.5-0.7
			c-0.3-0.2-0.5-0.3-0.8-0.4c-0.4-0.1-0.7-0.1-1.1-0.1c-0.3,0-0.5,0.2-0.7,0.4c-0.2,0.3-0.3,0.6-0.4,0.9l-0.3,1.3
			c-0.2,0.5-0.2,1,0,1.5c0.1,0.2,0.3,0.4,0.5,0.5c0.2,0.1,0.4,0.2,0.7,0.3c0.2,0.1,0.5,0.2,0.7,0.2c0.3,0,0.5-0.1,0.7-0.2
			c0.2-0.1,0.4-0.3,0.5-0.6C14,68.2,14,68,14.1,67.7L14.1,67.7z"/>
		<path class="st1" d="M23.6,59.7c0,0.1-0.1,0.1-0.1,0.2c0,0-0.1,0.1-0.2,0.1s-0.1,0-0.2,0C23.1,60,23,60,23,60l-2.2-1
			c-0.3-0.1-0.4-0.3-0.3-0.6l0.8-1.9c0-0.1,0-0.1,0.1-0.2c0-0.1,0.1-0.1,0.2-0.1c0.1,0,0.1,0,0.2,0c0.1,0,0.1,0,0.2,0.1l2.2,1
			c0.2,0.1,0.3,0.2,0.3,0.3c0,0.1,0,0.3,0,0.4L23.6,59.7z"/>
		<path class="st1" d="M26.3,53.9c0,0.1-0.1,0.1-0.1,0.2c0,0-0.1,0.1-0.2,0.1c-0.1,0-0.1,0-0.2,0c-0.1,0-0.1,0-0.2-0.1l-2.1-1.1
			c-0.1,0-0.1-0.1-0.2-0.1c0,0-0.1-0.1-0.1-0.2c0-0.1,0-0.1,0-0.2c0-0.1,0-0.1,0.1-0.2l1-1.8c0-0.1,0.1-0.1,0.1-0.2
			c0.1,0,0.1-0.1,0.2-0.1c0.1,0,0.1,0,0.2,0c0.1,0,0.1,0,0.2,0.1l2.1,1.1c0.2,0.1,0.3,0.2,0.3,0.3c0,0.1,0,0.3-0.1,0.4L26.3,53.9z"
			/>
		<path class="st1" d="M29.4,48.4c0,0.1-0.1,0.1-0.1,0.2c-0.1,0-0.1,0.1-0.2,0.1c-0.1,0-0.1,0-0.2,0c-0.1,0-0.1,0-0.2-0.1l-2-1.3
			c-0.1,0-0.1-0.1-0.2-0.1c0-0.1-0.1-0.1-0.1-0.2c0-0.1,0-0.1,0-0.2c0-0.1,0-0.1,0.1-0.2l1.1-1.7c0-0.1,0.1-0.1,0.1-0.2
			c0.1,0,0.1-0.1,0.2-0.1c0.1,0,0.1,0,0.2,0s0.1,0,0.2,0.1l2,1.3c0.2,0.1,0.2,0.2,0.2,0.3c0,0.1-0.1,0.3-0.1,0.4L29.4,48.4z"/>
	</g>
</g>
<g class="st2">
	<path class="st1" d="M89.7,26.2L89.7,26.2c33.1,0,60,26.9,60,60l0,0c0,33.1-26.9,60-60,60l0,0c-33.1,0-60-26.9-60-60l0,0
		C29.7,53.1,56.6,26.2,89.7,26.2z"/>
	<path class="st3" d="M45.5,78.2l2.1-17.8h3.4L55,74.1l4.1-13.6h3.4l2.1,17.8h-3.4l-1.5-13.1l0.6,0l-3.5,13h-3.3l-3.5-13l0.6,0
		l-1.5,13.1H45.5z M67.4,63.4c-0.3,0-0.5-0.2-0.5-0.5v-2.4c0-0.3,0.2-0.5,0.5-0.5h2.7c0.1,0,0.3,0,0.3,0.1c0.1,0.1,0.1,0.2,0.1,0.4
		V63c0,0.3-0.2,0.5-0.5,0.5H67.4z M67,78.2V65.3h3.6v12.9H67z M73.3,78.2V65.3h2.9l0.6,1.3c0.5-0.4,1.1-0.8,1.8-1.1
		c0.7-0.3,1.5-0.5,2.3-0.5c1.1,0,1.9,0.2,2.4,0.6c0.6,0.4,1,1,1.2,1.7c0.2,0.7,0.4,1.5,0.4,2.3v8.5h-3.6v-8c0-0.4-0.1-0.8-0.2-1
		c-0.1-0.3-0.4-0.5-0.6-0.6c-0.3-0.1-0.6-0.2-1-0.2c-0.3,0-0.7,0-1,0.1c-0.3,0.1-0.6,0.2-0.9,0.3c-0.3,0.1-0.5,0.3-0.8,0.5v9H73.3z
		 M92.4,78.2c-1,0-1.8-0.1-2.4-0.4c-0.6-0.3-1-0.8-1.3-1.4c-0.3-0.7-0.4-1.6-0.4-2.7l0.1-5.4h-2v-2.3l2.1-0.6l0.5-3.6h2.8v3.6h3v2.9
		h-3v5.4c0,0.4,0,0.6,0.1,0.9c0.1,0.2,0.2,0.4,0.3,0.6c0.1,0.1,0.3,0.2,0.4,0.3c0.2,0.1,0.3,0.1,0.5,0.1l1.6,0.1v2.6H92.4z
		 M103.9,78.2v-10h-1.8v-2.3l1.8-0.6v-0.9c0-1.1,0.1-2,0.4-2.7c0.3-0.7,0.8-1.2,1.4-1.5c0.6-0.3,1.4-0.5,2.5-0.5
		c0.6,0,1.1,0,1.5,0.1c0.5,0.1,0.8,0.2,1.2,0.2v2.5h-2c-0.4,0-0.7,0.1-0.9,0.2s-0.4,0.3-0.4,0.5c-0.1,0.2-0.1,0.5-0.1,0.9v1.1h3.3
		v2.9h-3.3v10H103.9z M118,78.4c-1.1,0-2-0.1-2.7-0.3c-0.8-0.2-1.4-0.6-1.8-1.1c-0.5-0.5-0.8-1.2-1-2c-0.2-0.8-0.3-1.9-0.3-3.1
		c0-1.3,0.1-2.4,0.3-3.2c0.2-0.9,0.6-1.5,1-2c0.5-0.5,1.1-0.8,1.8-1c0.8-0.2,1.7-0.3,2.7-0.3c1.1,0,2,0.1,2.7,0.3s1.4,0.6,1.8,1.1
		c0.5,0.5,0.8,1.2,1,2c0.2,0.8,0.3,1.9,0.3,3.2c0,1.3-0.1,2.4-0.3,3.2c-0.2,0.8-0.5,1.5-1,2c-0.5,0.5-1.1,0.8-1.8,1.1
		C120,78.2,119.1,78.4,118,78.4z M118,75.5c0.4,0,0.8,0,1.1-0.1c0.3-0.1,0.5-0.2,0.7-0.5c0.2-0.3,0.3-0.6,0.4-1.2s0.1-1.2,0.1-2
		c0-0.8,0-1.5-0.1-2c-0.1-0.5-0.2-0.9-0.4-1.1c-0.2-0.3-0.4-0.4-0.7-0.5c-0.3-0.1-0.6-0.1-1.1-0.1c-0.4,0-0.8,0-1.1,0.1
		c-0.3,0.1-0.5,0.2-0.7,0.5c-0.2,0.2-0.3,0.6-0.4,1.1c-0.1,0.5-0.1,1.2-0.1,2c0,0.8,0,1.5,0.1,2c0.1,0.5,0.2,0.9,0.4,1.2
		c0.2,0.2,0.4,0.4,0.7,0.5C117.2,75.5,117.6,75.5,118,75.5z M126.3,78.2V65.3h2.7l0.8,2c0.5-0.6,1-1.1,1.6-1.5
		c0.6-0.4,1.3-0.6,2.1-0.6c0.2,0,0.4,0,0.5,0c0.2,0,0.4,0,0.5,0.1v3.6c-0.2,0-0.5-0.1-0.8-0.1c-0.3,0-0.5,0-0.7,0
		c-0.5,0-0.9,0.1-1.3,0.2c-0.4,0.1-0.7,0.2-1,0.5c-0.3,0.2-0.6,0.4-0.9,0.8v8H126.3z M66.4,110.2V96.5c0-0.8,0.1-1.4,0.4-2
		c0.2-0.5,0.6-0.9,1-1.2s0.8-0.5,1.3-0.6c0.5-0.1,1-0.2,1.4-0.2c0.6,0,1.3,0,2.1,0c0.9,0,1.8,0,2.7,0.1c1,0,1.9,0.1,2.8,0.2v3h-6.7
		c-0.5,0-0.9,0.1-1.1,0.4c-0.2,0.3-0.4,0.6-0.4,1v3l7,0.2v2.8l-7,0.2v6.8H66.4z M80,110.2V97.3h2.7l0.8,2c0.5-0.6,1-1.1,1.6-1.5
		c0.6-0.4,1.3-0.6,2.1-0.6c0.2,0,0.4,0,0.5,0c0.2,0,0.4,0,0.5,0.1v3.6c-0.2,0-0.5-0.1-0.8-0.1c-0.3,0-0.5,0-0.7,0
		c-0.5,0-0.9,0.1-1.3,0.2c-0.4,0.1-0.7,0.2-1,0.5c-0.3,0.2-0.6,0.4-0.9,0.8v8H80z M95.6,110.4c-1.4,0-2.6-0.2-3.4-0.6
		c-0.8-0.4-1.5-1.1-1.8-2c-0.4-1-0.6-2.3-0.6-4c0-1.7,0.2-3.1,0.5-4.1c0.4-1,0.9-1.6,1.8-2c0.8-0.4,2-0.6,3.4-0.6
		c1.3,0,2.3,0.1,3.1,0.4s1.3,0.7,1.7,1.3c0.4,0.6,0.5,1.5,0.5,2.7c0,0.9-0.2,1.6-0.5,2.1c-0.3,0.5-0.8,0.9-1.4,1.1
		c-0.6,0.2-1.4,0.3-2.2,0.3h-3.2c0,0.7,0.1,1.2,0.3,1.6c0.2,0.4,0.5,0.7,0.9,0.8c0.5,0.2,1.1,0.2,2,0.2h3.8v2.1
		c-0.6,0.1-1.3,0.3-2.1,0.4C97.5,110.3,96.6,110.4,95.6,110.4z M93.3,102.9h2.9c0.5,0,0.8-0.1,1.1-0.3c0.2-0.2,0.3-0.5,0.3-1
		c0-0.5-0.1-0.8-0.2-1.1c-0.1-0.3-0.4-0.5-0.7-0.6c-0.3-0.1-0.7-0.2-1.2-0.2c-0.5,0-1,0.1-1.3,0.3c-0.3,0.2-0.6,0.5-0.7,1
		C93.3,101.4,93.3,102.1,93.3,102.9z M108.5,110.4c-1.4,0-2.6-0.2-3.4-0.6c-0.8-0.4-1.5-1.1-1.8-2c-0.4-1-0.6-2.3-0.6-4
		c0-1.7,0.2-3.1,0.5-4.1c0.4-1,0.9-1.6,1.8-2c0.8-0.4,2-0.6,3.4-0.6c1.3,0,2.3,0.1,3.1,0.4s1.3,0.7,1.7,1.3c0.4,0.6,0.5,1.5,0.5,2.7
		c0,0.9-0.2,1.6-0.5,2.1c-0.3,0.5-0.8,0.9-1.4,1.1c-0.6,0.2-1.4,0.3-2.2,0.3h-3.2c0,0.7,0.1,1.2,0.3,1.6c0.2,0.4,0.5,0.7,0.9,0.8
		c0.5,0.2,1.1,0.2,2,0.2h3.8v2.1c-0.6,0.1-1.3,0.3-2.1,0.4C110.4,110.3,109.5,110.4,108.5,110.4z M106.1,102.9h2.9
		c0.5,0,0.8-0.1,1.1-0.3c0.2-0.2,0.3-0.5,0.3-1c0-0.5-0.1-0.8-0.2-1.1c-0.1-0.3-0.4-0.5-0.7-0.6c-0.3-0.1-0.7-0.2-1.2-0.2
		c-0.5,0-1,0.1-1.3,0.3c-0.3,0.2-0.6,0.5-0.7,1C106.2,101.4,106.1,102.1,106.1,102.9z"/>
</g>
<path id="SVGID_x5F_00000013875340934417320300000017147522790456778379_x5F_" class="st4" d="M159.9,85.9
	c0,38.9-31.6,70.5-70.5,70.5S19,124.8,19,85.9s31.6-70.5,70.5-70.5S159.9,47,159.9,85.9z"/>
<text><textPath  xlink:href="#SVGID_x5F_00000013875340934417320300000017147522790456778379_x5F_" startOffset="83.6156%">
<tspan  style="font-family:'Exo-Bold'; font-size:23.4389px; letter-spacing:50;">Mint started.Mint started.Mint started...</tspan></textPath>
</text>
</svg>
