<svg width="179" height="177" viewBox="0 0 179 177" fill="none" xmlns="http://www.w3.org/2000/svg">
<g clip-path="url(#clip0_6_367)">
<path d="M35.5412 39.0813L25.4619 24.494L28.0003 22.2612L39.8759 29.7037L33.9381 16.9026L36.4468 14.6848L49.6138 26.5927L47.0605 28.8404L37.3671 20.1029L37.8125 19.7754L43.7502 31.7727L41.2712 33.9608L30.123 26.5183L30.5535 26.1015L37.9757 36.8038L35.5412 39.0813Z" fill="white"/>
<path d="M45.4277 12.6455C45.376 12.6878 45.3153 12.7176 45.2502 12.7324C45.1852 12.7471 45.1177 12.7465 45.0529 12.7306C44.9881 12.7148 44.928 12.6841 44.8771 12.6409C44.8262 12.5977 44.786 12.5432 44.7596 12.4818L43.587 10.4723C43.5452 10.4182 43.5163 10.3554 43.5026 10.2884C43.4889 10.2214 43.4907 10.1521 43.5079 10.086C43.5252 10.0198 43.5573 9.95856 43.6019 9.90682C43.6465 9.85509 43.7023 9.81431 43.7651 9.78763L46.1105 8.41814C46.1655 8.38944 46.2266 8.37453 46.2887 8.37453C46.3507 8.37453 46.4118 8.38944 46.4668 8.41814C46.5864 8.46843 46.6857 8.5576 46.7488 8.67125L47.9215 10.6807C47.9612 10.73 47.9892 10.7877 48.0033 10.8494C48.0175 10.9111 48.0174 10.9754 48.0031 11.0371C47.9887 11.0988 47.9606 11.1564 47.9208 11.2055C47.8809 11.2547 47.8304 11.2941 47.7731 11.3207L45.4277 12.6455ZM52.4194 25.5359L46.0066 14.4912L48.9755 12.7199L55.4031 23.7646L52.4194 25.5359Z" fill="white"/>
<path d="M58.3126 22.0379L53.6366 10.1299L56.3234 9.07304L57.3774 10.0555C57.7267 9.44998 58.1617 8.8984 58.6689 8.4181C59.2067 7.87805 59.8481 7.45278 60.5542 7.16781C61.3268 6.80342 62.1947 6.69395 63.0332 6.85519C63.7142 7.01803 64.3208 7.40602 64.7552 7.95667C65.256 8.55562 65.6524 9.23502 65.9279 9.96619L69.0007 17.8105L65.7349 19.0907L62.766 11.6482C62.6378 11.3137 62.4346 11.0132 62.1722 10.7699C61.9411 10.5753 61.6563 10.4559 61.3557 10.4276C61.021 10.4065 60.6859 10.4625 60.376 10.5913C60.0759 10.7091 59.7916 10.8641 59.5299 11.0528C59.2735 11.2384 59.0393 11.4532 58.8322 11.6928C58.6208 11.9275 58.432 12.1817 58.2682 12.452L61.519 20.7131L58.3126 22.0379Z" fill="white"/>
<path d="M76.8089 16.1286C76.0068 16.304 75.1764 16.304 74.3744 16.1286C73.7247 15.9675 73.1615 15.5626 72.8008 14.9974C72.3341 14.2079 72.0311 13.3319 71.9101 12.4222L70.9304 7.10835L68.971 7.51018L68.5256 5.30723L70.4703 4.30997L70.2179 0.722634L72.9344 0.156998L73.6619 3.65502L76.6307 3.04469L77.2096 5.81327L74.2407 6.42361L75.3393 11.6929C75.3922 11.9763 75.482 12.2515 75.6065 12.5115C75.6889 12.6986 75.8165 12.8623 75.9776 12.9878C76.1179 13.0929 76.2804 13.1642 76.4526 13.1963C76.6102 13.2183 76.77 13.2183 76.9276 13.1963L78.5456 13.0027L79.08 15.5778L76.8089 16.1286Z" fill="white"/>
<path d="M88.5211 14.7443L89.3079 1.98791L92.2026 2.16652L92.737 3.50612C93.3046 3.09738 93.93 2.77624 94.5925 2.55346C95.3091 2.29016 96.0724 2.1787 96.8341 2.22603C97.6865 2.23187 98.5162 2.50229 99.2092 3.00008C99.7574 3.43639 100.144 4.04424 100.308 4.7267C100.5 5.47952 100.571 6.25859 100.515 7.03385L99.996 15.4588L96.4927 15.2355L96.9825 7.27206C97.0118 6.91665 96.9558 6.55935 96.8192 6.23009C96.6832 5.96254 96.4781 5.73639 96.2254 5.57515C95.9273 5.41591 95.5979 5.32444 95.2606 5.30723C94.94 5.26981 94.6162 5.26981 94.2956 5.30723C93.9879 5.36304 93.6887 5.45808 93.405 5.59005C93.1129 5.70898 92.8343 5.85865 92.5737 6.03658L92.0393 14.9676L88.5211 14.7443Z" fill="white"/>
<path d="M108.205 17.4832C107.326 17.2695 106.482 16.9338 105.696 16.4859C105.071 16.1406 104.556 15.6245 104.212 14.9974C103.866 14.3114 103.702 13.5475 103.737 12.7795C103.779 11.7319 103.943 10.6927 104.227 9.68344C104.487 8.6487 104.871 7.64917 105.37 6.70645C105.703 6.02517 106.217 5.44859 106.854 5.03934C107.469 4.67616 108.174 4.49545 108.888 4.51831C109.787 4.53639 110.68 4.67151 111.545 4.92023C112.431 5.13827 113.285 5.47362 114.083 5.9175C114.707 6.2647 115.222 6.7804 115.568 7.406C115.918 8.07979 116.082 8.83534 116.043 9.59414C116.001 10.6733 115.826 11.7432 115.523 12.7795C115.265 13.8108 114.892 14.8094 114.41 15.7565C114.069 16.4372 113.558 17.0168 112.925 17.4385C112.317 17.8064 111.618 17.9972 110.907 17.9893C109.988 17.9386 109.08 17.7684 108.205 17.4832ZM108.932 14.7741C109.281 14.8709 109.64 14.9258 110.001 14.9378C110.3 14.9386 110.589 14.8332 110.818 14.6402C111.12 14.3687 111.358 14.0331 111.515 13.6577C111.784 13.0464 112.002 12.4142 112.168 11.7673C112.351 11.1197 112.475 10.4573 112.54 9.78765C112.594 9.38687 112.553 8.97894 112.421 8.59687C112.319 8.3168 112.118 8.08383 111.857 7.94193C111.541 7.76092 111.201 7.62559 110.847 7.54C110.504 7.44546 110.15 7.39538 109.793 7.3911C109.497 7.38738 109.208 7.48738 108.977 7.67392C108.67 7.93521 108.43 8.26721 108.279 8.64148C108.019 9.26475 107.806 9.90655 107.641 10.5616C107.458 11.2048 107.329 11.862 107.255 12.5264C107.197 12.9261 107.233 13.3337 107.359 13.7172C107.47 13.9999 107.675 14.2361 107.938 14.3871C108.252 14.5578 108.586 14.6878 108.932 14.7741Z" fill="white"/>
<path d="M120.941 22.0826C120.183 21.7767 119.503 21.3035 118.952 20.6982C118.514 20.188 118.295 19.5243 118.344 18.8525C118.429 17.9402 118.697 17.0544 119.13 16.2477L121.491 11.3803L119.665 10.5616L120.615 8.49264L122.767 8.86476L124.682 5.81327L127.206 6.97434L125.721 10.2193L128.453 11.4696L127.265 14.0447L124.549 12.7943L122.322 17.6915C122.19 17.9486 122.1 18.2249 122.055 18.5102C122.009 18.706 122.009 18.9098 122.055 19.1056C122.103 19.2723 122.189 19.4253 122.307 19.5522C122.425 19.6688 122.555 19.7734 122.693 19.8647L124.103 20.6685L123.02 23.0501L120.941 22.0826Z" fill="white"/>
<path d="M134.687 31.0433C134.376 30.7903 134.049 30.5223 133.708 30.2098L132.713 29.2571C132.387 28.9296 132.09 28.6171 131.822 28.3045C131.604 28.0436 131.401 27.7702 131.214 27.4858L132.505 25.8783L136.959 29.4506C137.172 29.628 137.406 29.7781 137.656 29.8972C137.839 29.9619 138.038 29.9619 138.22 29.8972C138.431 29.813 138.612 29.6679 138.74 29.4804L138.992 29.1678C139.087 29.0676 139.157 28.9473 139.198 28.8158C139.24 28.6842 139.25 28.5451 139.23 28.4087C139.093 28.0303 138.838 27.7064 138.502 27.4858L137.018 26.2206C136.493 25.8072 136.045 25.3031 135.697 24.7321C135.384 24.2137 135.244 23.6091 135.296 23.0055C135.401 22.2924 135.711 21.6253 136.187 21.0853L136.662 20.5196C137.082 19.9445 137.652 19.4965 138.31 19.2246C138.966 18.9846 139.686 18.9846 140.343 19.2246C141.312 19.5915 142.208 20.1311 142.986 20.8173C143.423 21.1695 143.839 21.5473 144.232 21.9486C144.663 22.3654 145.049 22.7673 145.405 23.1841C145.699 23.5049 145.967 23.8483 146.207 24.2112L144.915 25.8187L140.759 22.4398C140.492 22.1964 140.163 22.0316 139.809 21.9635C139.646 21.9538 139.484 21.9889 139.34 22.065C139.197 22.1411 139.076 22.2553 138.992 22.3951L138.755 22.6929C138.599 22.8536 138.504 23.0645 138.488 23.2883C138.501 23.4865 138.58 23.6748 138.71 23.8241C138.888 24.0565 139.098 24.262 139.334 24.4344L140.922 25.7294C141.769 26.3123 142.355 27.2046 142.555 28.2152C142.589 28.6643 142.53 29.1155 142.381 29.5406C142.233 29.9658 141.999 30.3557 141.694 30.6861L140.981 31.5792C140.556 32.1734 139.936 32.5999 139.23 32.7849C138.539 32.9061 137.828 32.8072 137.196 32.5021C136.3 32.1278 135.457 31.6373 134.687 31.0433Z" fill="white"/>
<path d="M143.95 39.8404C143.379 39.2529 142.943 38.5466 142.674 37.7714C142.482 37.1275 142.546 36.4342 142.852 35.8363C143.29 35.035 143.886 34.3311 144.604 33.7673L148.686 30.2396L147.35 28.7511L149.027 27.2626L150.868 28.4534L153.837 26.4141L155.692 28.4832L153.05 30.8796L155.054 33.0975L152.946 35.0028L150.942 32.77L146.964 36.3722C146.742 36.5572 146.547 36.7727 146.385 37.0122C146.275 37.1834 146.204 37.3764 146.177 37.5779C146.132 37.7435 146.132 37.9184 146.177 38.084C146.23 38.2379 146.305 38.3833 146.4 38.5156L147.379 39.8255L145.435 41.5819L143.95 39.8404Z" fill="white"/>
<path d="M148.493 45.9283C147.999 45.2176 147.802 44.3416 147.944 43.4872C148.035 43.0601 148.214 42.6569 148.47 42.3032C148.725 41.9495 149.052 41.6532 149.428 41.4331L150.393 40.8079C150.763 40.5576 151.183 40.3895 151.623 40.3151C152.063 40.2406 152.514 40.2615 152.946 40.3762C154.025 40.7666 154.92 41.5469 155.455 42.5643L157.221 45.3032L157.949 44.8268C158.249 44.6611 158.496 44.4133 158.661 44.1124C158.727 43.9569 158.76 43.7899 158.76 43.6212C158.76 43.4524 158.727 43.2854 158.661 43.1299C158.46 42.5699 158.186 42.0393 157.845 41.5521L155.781 38.3221L157.503 37.2057C158.061 37.6708 158.591 38.1678 159.092 38.6942C159.745 39.4379 160.336 40.2345 160.858 41.0758C161.378 41.8401 161.769 42.685 162.016 43.5765C162.214 44.2894 162.151 45.0497 161.838 45.7199C161.412 46.51 160.775 47.1649 159.997 47.6103L152.694 52.2991L151.209 49.9622L152.041 48.7416C151.807 48.691 151.582 48.6058 151.373 48.4886C151.046 48.3255 150.734 48.1363 150.437 47.9229C150.055 47.67 149.701 47.3755 149.383 47.0447C149.045 46.7078 148.746 46.3333 148.493 45.9283ZM151.462 46.1069C151.561 46.2571 151.675 46.3968 151.803 46.5237C151.942 46.6726 152.09 46.8214 152.248 46.9703L152.709 47.3722L153.08 47.6699L153.288 47.8187L155.781 46.2111L154.505 44.4845C154.247 44.0617 153.847 43.745 153.377 43.5914C153.18 43.5452 152.975 43.5398 152.776 43.5756C152.577 43.6115 152.387 43.6878 152.219 43.7998L151.773 44.0826C151.539 44.2262 151.349 44.4324 151.224 44.678C151.127 44.8977 151.101 45.1423 151.15 45.3776C151.218 45.6455 151.344 45.8947 151.521 46.1069H151.462Z" fill="white"/>
<path d="M154.148 55.2165L165.876 50.2152L166.944 52.7159L165.46 54.2044C166.161 54.3883 166.831 54.6742 167.449 55.0528C168.068 55.4434 168.547 56.0223 168.815 56.705C168.889 56.8688 168.948 57.0474 169.008 57.2112C169.062 57.3751 169.097 57.5451 169.112 57.7173L165.801 59.2058L165.579 58.4912C165.508 58.2533 165.424 58.0197 165.326 57.7917C165.157 57.401 164.943 57.0314 164.688 56.6902C164.457 56.3962 164.181 56.14 163.872 55.9311C163.547 55.7077 163.192 55.5322 162.818 55.41L155.514 58.521L154.148 55.2165Z" fill="white"/>
<path d="M159.344 70.0569C159.106 69.2715 159.04 68.4439 159.151 67.6306C159.211 67.3017 159.335 66.9877 159.516 66.7068C159.696 66.4258 159.931 66.1834 160.205 65.9933C160.962 65.482 161.816 65.1323 162.714 64.9663L167.954 63.7308L167.449 61.7808L169.646 61.2152L170.73 63.1204L174.292 62.6888L174.99 65.383L171.546 66.2909L172.288 69.2679L169.557 69.9825L168.8 67.0055L163.604 68.36C163.325 68.4305 163.056 68.5355 162.803 68.6726C162.629 68.7748 162.477 68.9115 162.357 69.0744C162.257 69.2148 162.196 69.3791 162.179 69.5508C162.15 69.7131 162.15 69.8796 162.179 70.042L162.447 71.6496L159.923 72.3045L159.344 70.0569Z" fill="white"/>
<path d="M160.843 80.2381C160.685 79.0928 160.766 77.927 161.081 76.8146C161.232 76.3761 161.47 75.9731 161.781 75.6301C162.093 75.2871 162.471 75.0115 162.892 74.8201C164.116 74.2761 165.429 73.9632 166.766 73.8972C168.111 73.7134 169.477 73.7637 170.804 74.046C171.244 74.1354 171.662 74.3134 172.032 74.5692C172.402 74.8251 172.717 75.1534 172.956 75.5345C173.476 76.5569 173.775 77.678 173.832 78.8241C173.964 79.8501 173.929 80.8906 173.728 81.9053C173.587 82.6245 173.172 83.2599 172.57 83.6766C171.763 84.1242 170.865 84.3837 169.943 84.4357C169.233 84.5379 168.509 84.4238 167.865 84.1083C167.335 83.8018 166.919 83.3319 166.677 82.7686C166.38 82.0903 166.204 81.3647 166.158 80.6252L165.861 77.4249C165.346 77.4863 164.844 77.6321 164.376 77.8566C164.188 77.9593 164.024 78.1016 163.896 78.2738C163.768 78.4459 163.679 78.6438 163.634 78.8538C163.524 79.5091 163.524 80.1783 163.634 80.8336L163.976 84.5697L161.912 84.7483C161.734 84.1529 161.541 83.4831 161.363 82.7686C161.121 81.9409 160.947 81.0945 160.843 80.2381ZM167.924 77.2611L168.191 80.2381C168.198 80.6104 168.335 80.9686 168.577 81.2504C168.725 81.364 168.896 81.4441 169.078 81.4852C169.26 81.5264 169.449 81.5275 169.631 81.4885C170.007 81.4674 170.372 81.3605 170.7 81.1759C170.961 81.0129 171.151 80.7581 171.235 80.4614C171.332 80.0573 171.357 79.6389 171.309 79.226C171.28 78.7824 171.142 78.3529 170.908 77.9757C170.787 77.8113 170.634 77.6736 170.458 77.5711C170.281 77.4687 170.086 77.4037 169.884 77.3802C169.241 77.2399 168.58 77.1948 167.924 77.2463V77.2611Z" fill="white"/>
<path d="M160.888 92.1611C160.946 91.2765 161.249 90.4258 161.764 89.7051C162.312 89.0256 163.078 88.5575 163.931 88.3803C165.165 88.1171 166.435 88.0668 167.687 88.2315C168.98 88.3187 170.254 88.5893 171.472 89.0353C172.324 89.3374 173.036 89.9408 173.476 90.7322C173.912 91.6594 174.057 92.6975 173.892 93.7092C173.831 94.2891 173.717 94.8621 173.55 95.4209C173.399 95.9301 173.21 96.4276 172.986 96.9094L178.731 97.475L178.39 101.003L160.354 99.2463L160.636 96.2693L161.897 95.8228C161.658 95.4958 161.458 95.1409 161.304 94.7659C161.139 94.3587 161.019 93.9344 160.947 93.5008C160.856 93.0603 160.836 92.6079 160.888 92.1611ZM163.59 93.6496C163.532 94.0936 163.568 94.5448 163.694 94.9744C163.793 95.3175 163.922 95.6512 164.079 95.9716L170.463 96.5969C170.596 96.2843 170.745 95.9717 170.878 95.6293C171.028 95.2786 171.123 94.9072 171.16 94.5278C171.24 94.0247 171.178 93.5092 170.982 93.0393C170.872 92.8284 170.721 92.6419 170.537 92.491C170.353 92.3402 170.141 92.2279 169.913 92.1611C169.135 91.9026 168.327 91.7426 167.509 91.6847C166.745 91.585 165.971 91.585 165.208 91.6847C164.748 91.7277 164.323 91.9463 164.02 92.2951C163.742 92.6975 163.592 93.1749 163.59 93.6645V93.6496Z" fill="white"/>
<path d="M159.389 102.715C159.398 102.651 159.421 102.589 159.457 102.536C159.493 102.482 159.541 102.437 159.596 102.404C159.652 102.371 159.714 102.351 159.778 102.346C159.843 102.34 159.907 102.349 159.968 102.372L162.313 102.953C162.64 103.027 162.773 103.221 162.684 103.533L162.209 105.528C162.202 105.597 162.179 105.663 162.142 105.722C162.106 105.781 162.056 105.831 161.998 105.869C161.939 105.906 161.873 105.929 161.804 105.937C161.736 105.945 161.666 105.938 161.6 105.915L159.24 105.334C159.17 105.326 159.103 105.299 159.046 105.258C158.989 105.216 158.943 105.16 158.914 105.096C158.876 104.97 158.876 104.835 158.914 104.709L159.389 102.715Z" fill="white"/>
<path d="M157.681 108.877C157.695 108.813 157.723 108.753 157.763 108.702C157.804 108.65 157.855 108.608 157.914 108.58C157.972 108.551 158.037 108.536 158.102 108.536C158.167 108.536 158.231 108.551 158.29 108.579L160.576 109.368C160.642 109.383 160.703 109.411 160.756 109.452C160.81 109.493 160.853 109.545 160.884 109.605C160.916 109.664 160.933 109.73 160.936 109.797C160.94 109.864 160.928 109.931 160.903 109.993L160.235 111.928C160.223 111.997 160.196 112.063 160.155 112.119C160.114 112.176 160.06 112.222 159.998 112.254C159.936 112.286 159.867 112.302 159.797 112.303C159.728 112.303 159.659 112.287 159.596 112.256L157.296 111.467C157.117 111.407 157.013 111.318 156.984 111.199C156.956 111.071 156.956 110.939 156.984 110.812L157.681 108.877Z" fill="white"/>
<path d="M155.425 114.861C155.442 114.796 155.474 114.736 155.519 114.686C155.564 114.636 155.62 114.598 155.682 114.575C155.745 114.552 155.812 114.544 155.879 114.552C155.945 114.56 156.008 114.584 156.063 114.623L158.275 115.605C158.339 115.623 158.398 115.655 158.448 115.7C158.497 115.745 158.536 115.8 158.56 115.862C158.585 115.924 158.594 115.991 158.589 116.057C158.583 116.124 158.562 116.188 158.528 116.245L157.696 118.12C157.676 118.187 157.642 118.248 157.595 118.299C157.548 118.35 157.491 118.39 157.427 118.416C157.363 118.441 157.293 118.452 157.224 118.448C157.155 118.443 157.088 118.423 157.028 118.388L154.817 117.406C154.638 117.317 154.549 117.227 154.534 117.108C154.5 116.982 154.5 116.848 154.534 116.721L155.425 114.861Z" fill="white"/>
<path d="M150.512 124.06C150.719 123.732 150.957 123.36 151.209 122.988C151.462 122.616 151.744 122.229 152.026 121.871C152.308 121.514 152.59 121.172 152.857 120.874C153.077 120.609 153.32 120.365 153.584 120.145L155.351 121.231L152.382 126.054C152.229 126.284 152.109 126.535 152.026 126.798C151.952 126.98 151.952 127.183 152.026 127.364C152.131 127.568 152.297 127.734 152.501 127.84L152.857 128.064C152.97 128.143 153.1 128.196 153.236 128.216C153.373 128.237 153.512 128.225 153.644 128.183C153.998 127.999 154.284 127.707 154.46 127.349L155.514 125.652C155.856 125.081 156.299 124.576 156.821 124.164C157.3 123.796 157.88 123.583 158.483 123.554C159.199 123.569 159.895 123.791 160.487 124.194L161.125 124.581C161.739 124.942 162.25 125.454 162.61 126.069C162.924 126.695 163.008 127.412 162.847 128.093C162.599 129.106 162.177 130.068 161.6 130.936C161.318 131.368 161.007 131.83 160.65 132.321C160.294 132.812 159.938 133.229 159.582 133.646C159.298 133.975 158.99 134.284 158.661 134.568L156.895 133.482L159.715 128.927C159.921 128.627 160.044 128.278 160.071 127.915C160.05 127.754 159.991 127.601 159.898 127.469C159.805 127.337 159.681 127.229 159.537 127.156L159.21 126.962C159.029 126.832 158.81 126.764 158.587 126.769C158.393 126.806 158.216 126.905 158.082 127.051C157.88 127.265 157.701 127.5 157.548 127.751L156.479 129.493C156.253 129.953 155.936 130.363 155.549 130.698C155.161 131.033 154.71 131.286 154.223 131.443C153.783 131.531 153.33 131.53 152.891 131.437C152.452 131.345 152.037 131.165 151.67 130.907L150.705 130.311C150.062 129.963 149.563 129.399 149.294 128.719C149.071 128.052 149.071 127.331 149.294 126.664C149.583 125.746 149.992 124.87 150.512 124.06Z" fill="white"/>
<path d="M143.03 134.36C143.541 133.73 144.185 133.222 144.915 132.871C145.216 132.73 145.541 132.651 145.873 132.638C146.204 132.625 146.535 132.679 146.845 132.797C147.697 133.13 148.47 133.637 149.116 134.286L153.139 137.903L154.431 136.414L156.153 137.903L155.202 139.882L157.607 142.562L155.796 144.675L153.095 142.353L151.135 144.631L148.997 142.785L150.942 140.507L146.86 137.01C146.649 136.817 146.415 136.652 146.162 136.518C145.975 136.436 145.773 136.391 145.568 136.384C145.398 136.385 145.23 136.426 145.079 136.503C144.934 136.58 144.799 136.675 144.678 136.786L143.52 137.918L141.531 136.221L143.03 134.36Z" fill="white"/>
<path d="M137.582 139.689C138.219 139.101 139.062 138.79 139.927 138.825C140.362 138.863 140.784 138.992 141.166 139.205C141.547 139.418 141.879 139.71 142.139 140.061L142.882 140.939C143.18 141.274 143.402 141.669 143.533 142.099C143.664 142.528 143.7 142.98 143.639 143.425C143.395 144.551 142.738 145.545 141.798 146.208L139.319 148.307L139.883 148.977C140.097 149.246 140.372 149.46 140.685 149.602C140.849 149.674 141.027 149.71 141.206 149.707C141.385 149.704 141.561 149.664 141.724 149.587C142.265 149.33 142.765 148.994 143.208 148.59L146.177 146.119L147.498 147.682C147.094 148.299 146.653 148.89 146.177 149.453C145.525 150.202 144.815 150.899 144.054 151.537C143.361 152.154 142.574 152.657 141.724 153.026C141.04 153.311 140.279 153.348 139.571 153.13C138.739 152.806 138.014 152.254 137.478 151.537L131.897 144.884L134.019 143.083L135.326 143.752C135.345 143.517 135.4 143.286 135.489 143.068C135.614 142.72 135.762 142.382 135.934 142.056C136.139 141.646 136.383 141.257 136.662 140.894C136.918 140.456 137.227 140.051 137.582 139.689ZM137.79 142.666C137.655 142.784 137.531 142.913 137.419 143.053C137.285 143.217 137.166 143.38 137.033 143.574L136.691 144.08L136.439 144.482L136.335 144.705L138.25 146.982L139.734 145.494C140.11 145.17 140.366 144.73 140.462 144.244C140.489 144.043 140.471 143.838 140.409 143.645C140.347 143.452 140.244 143.275 140.106 143.127L139.764 142.725C139.592 142.512 139.367 142.348 139.111 142.249C138.878 142.182 138.631 142.182 138.399 142.249C138.175 142.373 137.97 142.528 137.79 142.71V142.666Z" fill="white"/>
<path d="M123.02 143.633L124.504 149.245C125.064 148.911 125.695 148.717 126.345 148.679C126.94 148.649 127.533 148.772 128.067 149.037C128.687 149.337 129.241 149.757 129.7 150.272L136.335 157.268L133.144 159.054L127.206 152.49C127.035 152.294 126.828 152.133 126.597 152.014C126.432 151.928 126.248 151.887 126.063 151.894C125.925 151.877 125.785 151.877 125.647 151.894L125.395 151.999L128.186 161.778L125.083 163.52L120.63 147.622L120.481 145.003L123.02 143.633Z" fill="white"/>
<path d="M107.73 155.824C108.565 155.595 109.457 155.707 110.209 156.137C110.578 156.376 110.893 156.691 111.133 157.06C111.373 157.429 111.534 157.845 111.604 158.28L111.857 159.397C111.965 159.831 111.978 160.284 111.893 160.724C111.808 161.163 111.629 161.579 111.367 161.942C110.637 162.826 109.605 163.404 108.472 163.564L105.295 164.264L105.488 165.127C105.544 165.462 105.687 165.775 105.904 166.035C106.019 166.16 106.159 166.259 106.315 166.326C106.471 166.393 106.64 166.425 106.809 166.422C107.405 166.444 108.001 166.374 108.576 166.214L112.302 165.38L112.747 167.39C112.103 167.745 111.439 168.063 110.758 168.342C109.832 168.701 108.879 168.985 107.908 169.191C107.016 169.419 106.093 169.494 105.177 169.414C104.438 169.35 103.745 169.029 103.217 168.506C102.635 167.83 102.25 167.006 102.104 166.125L100.219 157.64L102.935 157.03L103.781 158.235C103.914 158.031 104.074 157.846 104.256 157.685C104.522 157.437 104.804 157.208 105.102 157C105.478 156.733 105.875 156.499 106.29 156.3C106.75 156.086 107.233 155.927 107.73 155.824ZM106.513 158.593L106.008 158.771L105.444 159.039L104.895 159.337L104.494 159.59L104.286 159.724L104.924 162.701L106.988 162.091C107.47 161.98 107.903 161.713 108.22 161.332C108.329 161.161 108.402 160.971 108.436 160.771C108.469 160.571 108.461 160.367 108.413 160.171L108.294 159.65C108.251 159.377 108.121 159.126 107.923 158.935C107.761 158.757 107.539 158.645 107.299 158.623C107.042 158.561 106.774 158.551 106.513 158.593Z" fill="white"/>
<path d="M93.0635 158.087C93.8322 158.008 94.6085 158.105 95.3348 158.369C95.9306 158.619 96.4231 159.065 96.7301 159.635C97.0903 160.363 97.2927 161.159 97.324 161.972L98.2591 175.993L94.7558 176.231L93.8503 162.731C93.8405 162.349 93.7651 161.971 93.6276 161.614C93.5368 161.374 93.37 161.17 93.1527 161.034C92.9105 160.917 92.6487 160.846 92.3807 160.825L91.4009 160.751L91.2377 158.206L93.0635 158.087Z" fill="white"/>
<path d="M83.667 157.804C84.8196 157.857 85.95 158.141 86.9921 158.637C87.395 158.863 87.7485 159.168 88.0315 159.534C88.3146 159.9 88.5215 160.319 88.6399 160.766C88.9573 162.071 89.0378 163.422 88.8774 164.755C88.8219 166.117 88.541 167.46 88.0461 168.729C87.8683 169.151 87.6068 169.532 87.2776 169.849C86.9484 170.167 86.5584 170.414 86.1311 170.575C85.0367 170.913 83.8831 171.015 82.7466 170.873C81.73 170.825 80.7276 170.614 79.7778 170.248C79.1068 169.967 78.5734 169.432 78.2933 168.759C77.9845 167.887 77.8828 166.954 77.9964 166.035C78.0179 165.321 78.2562 164.63 78.6793 164.056C79.054 163.581 79.5766 163.245 80.1637 163.103C80.8791 162.939 81.617 162.899 82.3458 162.984L85.5522 163.237C85.5818 162.705 85.5216 162.171 85.3741 161.659C85.305 161.454 85.1922 161.267 85.0435 161.11C84.8948 160.953 84.7138 160.831 84.5131 160.751C83.8951 160.516 83.2437 160.38 82.5833 160.349L78.8722 160.051L79.0355 157.982C79.659 157.908 80.3418 157.834 81.0841 157.774C81.9446 157.72 82.8079 157.73 83.667 157.804ZM85.3741 165.336L82.4942 165.097C82.1246 165.04 81.7466 165.113 81.4255 165.306C81.289 165.429 81.1811 165.581 81.1093 165.751C81.0375 165.921 81.0035 166.104 81.0098 166.288C80.97 166.671 81.0157 167.057 81.1434 167.42C81.2594 167.702 81.4765 167.93 81.752 168.06C82.1323 168.226 82.5398 168.322 82.9544 168.342C83.3931 168.402 83.8397 168.34 84.2459 168.164C84.6109 167.973 84.8875 167.647 85.0178 167.256C85.2095 166.634 85.3096 165.987 85.3147 165.336H85.3741Z" fill="white"/>
<path d="M75.8439 156.926L72.7266 169.325L70.0991 168.655L69.7874 166.556C69.2201 167.008 68.59 167.374 67.917 167.643C67.2316 167.897 66.4836 167.929 65.7794 167.732L65.2598 167.583C65.0948 167.524 64.9357 167.449 64.7848 167.36L65.6755 163.847L66.3732 164.115L67.1005 164.338C67.5078 164.443 67.9271 164.493 68.3475 164.487C68.7218 164.484 69.0929 164.418 69.446 164.294C69.8205 164.172 70.1755 163.996 70.5 163.773L72.4297 156.062L75.8439 156.926Z" fill="white"/>
<path d="M60.9104 152.103C61.6754 152.386 62.3695 152.833 62.9441 153.413C63.17 153.659 63.3452 153.947 63.4598 154.262C63.5745 154.576 63.6263 154.909 63.6122 155.244C63.5601 156.155 63.3227 157.047 62.9144 157.863L60.7323 162.805L62.573 163.579L61.6972 165.663L59.5299 165.38L57.7189 168.491L55.1508 167.42L56.5313 164.13L53.7703 162.969L54.8539 160.349L57.615 161.51L59.6783 156.539C59.7985 156.279 59.8787 156.003 59.9159 155.72C59.9622 155.519 59.9622 155.31 59.9159 155.11C59.8593 154.948 59.7681 154.801 59.6487 154.678C59.5341 154.562 59.4043 154.462 59.2627 154.38L57.7783 153.636L58.7728 151.21L60.9104 152.103Z" fill="white"/>
<path d="M55.9672 149.587C56.0294 149.61 56.0852 149.648 56.1299 149.697C56.1747 149.746 56.2072 149.805 56.2246 149.869C56.2421 149.933 56.2439 150 56.2301 150.065C56.2164 150.13 56.1873 150.191 56.1453 150.242L54.9727 152.356C54.9486 152.419 54.9105 152.476 54.8614 152.522C54.8123 152.568 54.7534 152.603 54.6891 152.623C54.6248 152.643 54.5568 152.648 54.4902 152.638C54.4236 152.628 54.3602 152.603 54.3046 152.564L52.5233 151.567C52.4577 151.542 52.3989 151.501 52.3512 151.45C52.3035 151.398 52.2683 151.336 52.2482 151.268C52.2282 151.201 52.2238 151.13 52.2354 151.06C52.2471 150.991 52.2745 150.925 52.3155 150.867L53.4882 148.754C53.5921 148.59 53.6961 148.501 53.8148 148.501C53.945 148.489 54.0754 148.52 54.186 148.59L55.9672 149.587Z" fill="white"/>
<path d="M50.5192 146.372C50.5767 146.401 50.6267 146.443 50.6653 146.495C50.7039 146.546 50.7299 146.606 50.7414 146.67C50.7529 146.733 50.7496 146.799 50.7316 146.861C50.7137 146.923 50.6817 146.98 50.638 147.027L49.2871 149.037C49.2576 149.097 49.2148 149.15 49.1619 149.192C49.109 149.233 49.0474 149.262 48.9817 149.277C48.916 149.291 48.8479 149.29 48.7826 149.275C48.7172 149.259 48.6563 149.228 48.6043 149.185L46.912 148.024C46.8492 147.995 46.7939 147.952 46.7507 147.898C46.7075 147.843 46.6775 147.78 46.6631 147.712C46.6487 147.644 46.6502 147.574 46.6677 147.506C46.6851 147.439 46.718 147.377 46.7636 147.325L48.1293 145.315C48.1615 145.25 48.2097 145.194 48.2694 145.152C48.3291 145.111 48.3984 145.085 48.4707 145.077C48.5978 145.095 48.7194 145.141 48.827 145.211L50.5192 146.372Z" fill="white"/>
<path d="M45.3534 142.606C45.4056 142.645 45.448 142.696 45.4772 142.754C45.5064 142.812 45.5217 142.876 45.5217 142.941C45.5217 143.006 45.5064 143.071 45.4772 143.129C45.448 143.187 45.4056 143.237 45.3534 143.276L43.869 145.152C43.8341 145.208 43.7873 145.255 43.7319 145.291C43.6765 145.327 43.6139 145.35 43.5486 145.358C43.4833 145.367 43.4168 145.361 43.3542 145.34C43.2915 145.32 43.2341 145.286 43.1861 145.241L41.6126 143.931C41.5488 143.899 41.4939 143.852 41.4527 143.794C41.4116 143.736 41.3854 143.669 41.3766 143.598C41.3677 143.527 41.3765 143.455 41.4022 143.389C41.4278 143.322 41.4695 143.263 41.5235 143.217L43.008 141.341C43.0448 141.28 43.0973 141.23 43.1599 141.196C43.2225 141.162 43.293 141.145 43.3642 141.148C43.4977 141.161 43.623 141.219 43.7205 141.311L45.3534 142.606Z" fill="white"/>
<path d="M37.1593 134.702C37.7925 135.367 38.3275 136.118 38.7476 136.935C39.1025 137.67 39.2415 138.491 39.1485 139.302C38.9931 140.301 38.5955 141.246 37.9905 142.056C37.0918 143.313 36.0562 144.466 34.9029 145.494C33.8205 146.545 32.6141 147.46 31.3105 148.218C30.4438 148.739 29.4679 149.049 28.4604 149.126C27.6406 149.168 26.8261 148.971 26.115 148.56C25.331 148.098 24.6205 147.521 24.0071 146.849C23.4792 146.302 22.9836 145.726 22.5226 145.122C22.1218 144.556 21.7656 144.02 21.4835 143.529C21.2207 143.12 20.997 142.686 20.8155 142.234L22.8195 140.374C22.968 140.627 23.1758 140.954 23.4578 141.356C23.7399 141.758 24.0813 142.189 24.4673 142.681C24.8532 143.172 25.2837 143.648 25.7439 144.169C26.1254 144.598 26.5711 144.965 27.065 145.256C27.4769 145.498 27.9584 145.592 28.4307 145.524C29.044 145.394 29.6247 145.14 30.1379 144.779C30.9636 144.224 31.7386 143.597 32.4536 142.904C33.1773 142.26 33.8475 141.558 34.4576 140.805C34.8685 140.328 35.1767 139.77 35.363 139.168C35.4848 138.698 35.4483 138.201 35.2592 137.754C35.0056 137.202 34.6591 136.699 34.2349 136.265C33.4185 135.372 32.7504 134.673 32.2012 134.152C31.6519 133.631 31.1918 133.214 30.8355 132.916L32.8247 131.085C33.2714 131.329 33.6982 131.608 34.1013 131.919C34.6165 132.284 35.1121 132.677 35.5858 133.095C36.0756 133.616 36.61 134.152 37.1593 134.702Z" fill="white"/>
<path d="M29.069 124.03C29.5565 124.792 29.9362 125.619 30.1972 126.486C30.3968 127.176 30.3968 127.909 30.1972 128.6C29.975 129.333 29.5716 129.999 29.0245 130.535C28.2747 131.268 27.4428 131.913 26.5454 132.455C25.6122 133.037 24.6162 133.511 23.5765 133.869C22.8569 134.12 22.0852 134.181 21.3351 134.047C20.6446 133.878 20.0132 133.523 19.5092 133.02C18.8704 132.385 18.3165 131.67 17.8614 130.892C17.3622 130.127 16.9725 129.295 16.7036 128.421C16.4809 127.743 16.4551 127.015 16.6293 126.322C16.8378 125.59 17.2376 124.927 17.7872 124.402C18.5552 123.649 19.4127 122.994 20.3404 122.452C21.2369 121.874 22.1986 121.404 23.2054 121.053C23.9157 120.785 24.6846 120.713 25.4321 120.844C26.1275 120.995 26.7659 121.341 27.2729 121.842C27.9696 122.484 28.574 123.221 29.069 124.03ZM26.6791 125.518C26.4973 125.201 26.2724 124.91 26.011 124.655C25.7975 124.449 25.5197 124.323 25.2243 124.298C24.8208 124.291 24.4206 124.372 24.0516 124.536C23.4293 124.791 22.8329 125.105 22.2703 125.474C21.6897 125.812 21.1428 126.206 20.6374 126.65C20.328 126.904 20.0794 127.224 19.91 127.587C19.8065 127.866 19.8065 128.172 19.91 128.451C20.0192 128.797 20.174 129.128 20.3702 129.433C20.5557 129.739 20.7748 130.024 21.0233 130.282C21.2422 130.489 21.5249 130.615 21.8249 130.639C22.229 130.653 22.6309 130.571 22.9977 130.401C23.6134 130.142 24.2046 129.828 24.7642 129.463C25.3415 129.125 25.8879 128.736 26.397 128.302C26.7188 128.05 26.9738 127.723 27.1392 127.349C27.2354 127.069 27.2354 126.766 27.1392 126.486C27.034 126.138 26.879 125.807 26.6791 125.503V125.518Z" fill="white"/>
<path d="M24.4524 116.959L12.2651 120.725L11.4042 117.942L12.4729 116.974C11.9345 116.524 11.4377 116.026 10.9885 115.486C10.4573 114.84 10.0678 114.09 9.84545 113.283C9.61457 112.617 9.5786 111.899 9.74162 111.214C9.89315 110.644 10.2018 110.128 10.6322 109.725C10.2157 109.43 9.82362 109.101 9.45957 108.743C9.04676 108.355 8.67379 107.926 8.34623 107.463C8.01588 107.011 7.76024 106.508 7.58915 105.974C7.29599 105.173 7.24431 104.304 7.44065 103.474C7.63224 102.793 8.05163 102.199 8.62828 101.792C9.32501 101.318 10.0913 100.956 10.8994 100.72L18.7967 98.2788L19.8358 101.643L12.2355 103.995C11.8895 104.087 11.5728 104.266 11.3151 104.516C11.1048 104.732 10.965 105.007 10.9143 105.305C10.8583 105.639 10.8889 105.983 11.0034 106.302C11.1498 106.77 11.3868 107.205 11.701 107.582C12.0104 107.969 12.3642 108.319 12.755 108.624C12.8874 108.543 13.0265 108.473 13.1707 108.415C13.3157 108.352 13.4644 108.297 13.616 108.252L21.1422 105.93L22.1812 109.294L14.5808 111.646C14.2349 111.738 13.9182 111.917 13.6605 112.166C13.4528 112.379 13.3133 112.648 13.2597 112.941C13.2024 113.275 13.2331 113.619 13.3488 113.938C13.4348 114.252 13.5647 114.553 13.7348 114.831C13.9026 115.098 14.0965 115.347 14.3136 115.575C14.5335 115.798 14.7719 116.003 15.0262 116.185L23.4875 113.581L24.4524 116.959Z" fill="white"/>
<path d="M4.27871 96.1651C4.29478 96.2298 4.29574 96.2974 4.28143 96.3624C4.26712 96.4275 4.23796 96.4884 4.19626 96.5403C4.15456 96.5922 4.10144 96.6337 4.04106 96.6616C3.98068 96.6895 3.9147 96.7029 3.84825 96.701L1.53252 96.9243C1.46676 96.9408 1.39803 96.9416 1.33192 96.9264C1.26582 96.9113 1.20416 96.8808 1.15208 96.8372C1.09999 96.7937 1.05897 96.7384 1.03221 96.676C1.00545 96.6135 0.993762 96.5456 0.99814 96.4777L0.730951 93.7836C0.725493 93.719 0.733183 93.6541 0.753602 93.5927C0.77402 93.5313 0.806673 93.4747 0.849641 93.4263C0.941205 93.3361 1.06289 93.283 1.19113 93.2774L3.50686 93.0542C3.56815 93.0383 3.63222 93.0366 3.69423 93.0494C3.75623 93.0621 3.81454 93.0889 3.86465 93.1277C3.91477 93.1665 3.9554 93.2163 3.98343 93.2732C4.01147 93.3301 4.02613 93.3926 4.02638 93.456L4.27871 96.1651ZM18.8857 95.1976L6.1937 96.4182L5.85222 92.9053L18.5592 91.6847L18.8857 95.1976Z" fill="white"/>
<path d="M18.1881 88.3803L5.45154 87.6955L5.61481 84.793L6.95084 84.2422C6.54661 83.6741 6.22192 83.0531 5.98592 82.3965C5.72698 81.6768 5.61103 80.9132 5.64452 80.1489C5.63995 79.2902 5.90482 78.4518 6.40161 77.7524C6.83976 77.206 7.4447 76.819 8.12352 76.6509C8.87302 76.4503 9.65119 76.3798 10.4244 76.4425L18.8264 76.889L18.6334 80.402L10.6916 79.9851C10.3369 79.9481 9.9788 80.0045 9.65255 80.1489C9.38514 80.2788 9.1627 80.4862 9.01416 80.7443C8.8424 81.0379 8.75029 81.3715 8.74697 81.7118C8.70964 82.0333 8.70964 82.3579 8.74697 82.6793C8.81632 82.9843 8.91066 83.2831 9.02901 83.5725C9.15882 83.8628 9.31275 84.1416 9.48919 84.406L18.3959 84.8824L18.1881 88.3803Z" fill="white"/>
<path d="M25.8181 72.1854C25.6537 72.8996 25.3566 73.5763 24.9423 74.1801C24.5989 74.6921 24.1212 75.099 23.5618 75.3559C23.0094 75.5983 22.39 75.6404 21.8101 75.475L21.4389 75.3708C20.8461 75.2158 20.323 74.8643 19.9545 74.3735C19.5803 73.8565 19.3452 73.2516 19.2717 72.6171C19.1861 71.9457 19.2264 71.2642 19.3905 70.6076L20.7116 69.8783C20.6303 70.1838 20.6052 70.5015 20.6374 70.816C20.6735 71.083 20.7813 71.335 20.9491 71.5454C21.1448 71.7569 21.3974 71.9069 21.6765 71.977H21.9288C22.1185 72.0387 22.3202 72.0533 22.5167 72.0196C22.7132 71.9859 22.8986 71.9049 23.057 71.7835C23.4084 71.4599 23.6476 71.0323 23.7399 70.5629L24.3485 68.2112C24.4871 67.7247 24.4871 67.2091 24.3485 66.7227C24.2835 66.5262 24.1686 66.3501 24.015 66.2117C23.8614 66.0734 23.6745 65.9775 23.4727 65.9337L23.1016 65.8444C22.8611 65.7616 22.5999 65.7616 22.3594 65.8444C22.1158 65.9278 21.9068 66.0901 21.7656 66.3058C21.5533 66.5985 21.4065 66.9336 21.3351 67.2883L20.6225 70.0271C20.4209 71.1299 19.8689 72.1376 19.049 72.8999C18.758 73.1529 18.4101 73.3312 18.0351 73.4194C17.6602 73.5075 17.2694 73.503 16.8965 73.406C16.2999 73.2869 15.7699 72.9467 15.4121 72.4534C15.0735 71.9447 14.9166 71.3362 14.9668 70.7267C14.6211 71.126 14.1898 71.4415 13.705 71.6496C13.2713 71.8481 12.8013 71.9545 12.3245 71.9621C11.8233 71.9831 11.3221 71.9228 10.8401 71.7835C10.041 71.6157 9.30823 71.2174 8.73208 70.6374C8.22591 70.0645 7.9141 69.3453 7.84145 68.5833C7.76858 67.5803 7.87417 66.5723 8.15321 65.6063L9.88999 58.8932L11.7604 59.3844L11.6119 61.364C11.818 61.2554 12.0314 61.1609 12.2503 61.0812C12.5448 60.9942 12.849 60.9443 13.1558 60.9324C13.583 60.9275 14.0084 60.9877 14.4175 61.111C15.0853 61.2674 15.7031 61.5899 16.2137 62.0488C16.7207 62.5251 17.0637 63.1506 17.1934 63.835C17.3615 64.7427 17.3055 65.6779 17.0302 66.5589L16.4661 68.747C16.3884 69.1 16.3884 69.4657 16.4661 69.8187C16.4912 69.9595 16.5587 70.0892 16.6595 70.1904C16.7604 70.2915 16.8898 70.3592 17.0302 70.3843C17.1415 70.4187 17.2604 70.4186 17.3717 70.384C17.4829 70.3495 17.5812 70.2822 17.6536 70.1908C17.8139 69.9779 17.9301 69.735 17.9951 69.4764L18.8857 66.0677C19.0739 65.2396 19.4109 64.4527 19.8803 63.7457C20.2553 63.1751 20.8088 62.7457 21.4538 62.5251C22.2006 62.3092 22.9931 62.3092 23.7399 62.5251L24.0813 62.6144C24.6205 62.7288 25.1289 62.9581 25.572 63.2869C26.0151 63.6156 26.3825 64.036 26.6494 64.5196C27.1572 65.7366 27.1995 67.0988 26.7681 68.3451L25.8181 72.1854ZM14.1206 67.7199L14.4621 66.4101C14.586 66.0359 14.6116 65.636 14.5363 65.2491C14.4605 64.9771 14.2991 64.7369 14.0761 64.5643C13.8198 64.3882 13.5328 64.262 13.23 64.1922C12.8796 64.0827 12.5084 64.0572 12.1464 64.1178C11.8693 64.1623 11.6196 64.3113 11.4486 64.5345C11.2515 64.7937 11.1145 65.0938 11.0478 65.4128L10.7064 66.7078C10.5194 67.1862 10.5194 67.7178 10.7064 68.1963C10.8406 68.4034 11.0173 68.5796 11.2246 68.713C11.4319 68.8465 11.6651 68.9342 11.9088 68.9703C12.1434 69.071 12.3959 69.1229 12.651 69.1229C12.9062 69.1229 13.1587 69.071 13.3933 68.9703C13.588 68.8226 13.7486 68.6343 13.8639 68.4185C13.9792 68.2027 14.0465 67.9643 14.0613 67.7199H14.1206Z" fill="white"/>
<path d="M23.6063 59.7118C23.5878 59.7739 23.5557 59.8311 23.5122 59.879C23.4688 59.9269 23.4151 59.9644 23.3552 59.9887C23.2953 60.013 23.2308 60.0235 23.1663 60.0194C23.1018 60.0152 23.0391 59.9966 22.9828 59.9649L20.7562 59.0123C20.4395 58.8734 20.3504 58.6649 20.489 58.387L21.2757 56.4967C21.2921 56.4278 21.3243 56.3635 21.3695 56.309C21.4147 56.2545 21.4717 56.2112 21.5363 56.1824C21.601 56.1536 21.6713 56.1401 21.7419 56.1429C21.8126 56.1458 21.8816 56.165 21.9437 56.199L24.1704 57.1517C24.3485 57.2261 24.4376 57.3153 24.4673 57.4493C24.5023 57.5708 24.5023 57.6999 24.4673 57.8214L23.6063 59.7118Z" fill="white"/>
<path d="M26.2782 53.8769C26.256 53.9396 26.2196 53.9963 26.1719 54.0425C26.1242 54.0888 26.0665 54.1233 26.0033 54.1435C25.94 54.1636 25.873 54.1689 25.8074 54.1588C25.7418 54.1487 25.6794 54.1236 25.6251 54.0853L23.4875 52.9392C23.425 52.9168 23.3684 52.8803 23.3223 52.8325C23.2762 52.7847 23.2418 52.7267 23.2216 52.6633C23.2015 52.5999 23.1963 52.5327 23.2063 52.4669C23.2164 52.4011 23.2416 52.3386 23.2797 52.2842L24.2297 50.4682C24.2558 50.4031 24.2959 50.3446 24.3471 50.2969C24.3984 50.2491 24.4595 50.2133 24.5262 50.1919C24.5928 50.1706 24.6634 50.1642 24.7327 50.1734C24.8021 50.1826 24.8686 50.207 24.9274 50.245L27.065 51.3912C27.2283 51.4805 27.3174 51.5846 27.3174 51.7037C27.3293 51.8342 27.298 51.965 27.2283 52.0758L26.2782 53.8769Z" fill="white"/>
<path d="M29.4253 48.3695C29.3978 48.4283 29.357 48.4798 29.3061 48.52C29.2553 48.5602 29.1957 48.5879 29.1323 48.6009C29.0688 48.6139 29.0033 48.6119 28.9407 48.595C28.8782 48.5781 28.8204 48.5467 28.7721 48.5035L26.7384 47.1787C26.6784 47.1508 26.6256 47.1094 26.5841 47.0577C26.5425 47.006 26.5134 46.9454 26.4991 46.8806C26.4847 46.8158 26.4855 46.7485 26.5012 46.684C26.517 46.6195 26.5474 46.5596 26.59 46.5089L27.7034 44.797C27.7294 44.7316 27.7704 44.6733 27.8232 44.6269C27.8759 44.5804 27.9389 44.5472 28.0069 44.5298C28.0749 44.5123 28.1461 44.5113 28.2146 44.5267C28.2831 44.5421 28.3469 44.5735 28.401 44.6184L30.4348 45.9581C30.5981 46.0623 30.6723 46.1665 30.6723 46.2855C30.6635 46.4197 30.6172 46.5487 30.5386 46.6577L29.4253 48.3695Z" fill="white"/>
</g>
<g opacity="0.66">
<rect x="29.731" y="26.2314" width="120" height="120" rx="60" fill="#4C3376"/>
<path d="M45.4706 78.2314L47.5346 60.4714H50.9426L55.0226 74.0794L59.0786 60.4714H62.4626L64.5506 78.2314H61.1186L59.5826 65.1514L60.1346 65.1994L56.6546 78.2314H53.3186L49.7906 65.1994L50.3906 65.1754L48.9026 78.2314H45.4706ZM67.4021 63.4474C67.0661 63.4474 66.8981 63.2874 66.8981 62.9674V60.6154C66.8981 60.2794 67.0661 60.1114 67.4021 60.1114H70.1381C70.2821 60.1114 70.3941 60.1594 70.4741 60.2554C70.5541 60.3514 70.5941 60.4714 70.5941 60.6154V62.9674C70.5941 63.2874 70.4421 63.4474 70.1381 63.4474H67.4021ZM66.9701 78.2314V65.3434H70.5221V78.2314H66.9701ZM73.2513 78.2314V65.3434H76.1793L76.8033 66.6634C77.2833 66.2634 77.8833 65.9114 78.6033 65.6074C79.3393 65.2874 80.0913 65.1274 80.8593 65.1274C81.9153 65.1274 82.7313 65.3354 83.3073 65.7514C83.8833 66.1674 84.2833 66.7274 84.5073 67.4314C84.7473 68.1194 84.8673 68.8874 84.8673 69.7354V78.2314H81.3153V70.1914C81.3153 69.7754 81.2353 69.4314 81.0753 69.1594C80.9313 68.8874 80.7233 68.6794 80.4513 68.5354C80.1793 68.3914 79.8513 68.3194 79.4673 68.3194C79.1313 68.3194 78.8033 68.3594 78.4833 68.4394C78.1793 68.5194 77.8833 68.6314 77.5953 68.7754C77.3233 68.9194 77.0593 69.0874 76.8033 69.2794V78.2314H73.2513ZM92.4207 78.2314C91.4287 78.2314 90.6207 78.0874 89.9967 77.7994C89.3887 77.5114 88.9487 77.0314 88.6767 76.3594C88.4047 75.6874 88.2847 74.7834 88.3167 73.6474L88.4367 68.1994H86.4207V65.9194L88.5567 65.3434L89.0367 61.7434H91.8447V65.3434H94.8687V68.1994H91.8447V73.6234C91.8447 73.9754 91.8767 74.2634 91.9407 74.4874C92.0047 74.7114 92.0927 74.8954 92.2047 75.0394C92.3327 75.1674 92.4767 75.2634 92.6367 75.3274C92.7967 75.3914 92.9567 75.4314 93.1167 75.4474L94.7487 75.5914V78.2314H92.4207ZM103.928 78.2314V68.1994H102.104V65.9194L103.928 65.3434V64.4794C103.928 63.3914 104.072 62.5034 104.36 61.8154C104.664 61.1114 105.128 60.5994 105.752 60.2794C106.376 59.9434 107.2 59.7754 108.224 59.7754C108.784 59.7754 109.288 59.8154 109.736 59.8954C110.2 59.9754 110.584 60.0554 110.888 60.1354V62.6794H108.92C108.552 62.6794 108.264 62.7354 108.056 62.8474C107.848 62.9594 107.704 63.1354 107.624 63.3754C107.544 63.5994 107.504 63.9034 107.504 64.2874V65.3434H110.768V68.1994H107.504V78.2314H103.928ZM117.982 78.3514C116.926 78.3514 116.022 78.2474 115.27 78.0394C114.518 77.8154 113.902 77.4474 113.422 76.9354C112.958 76.4234 112.614 75.7434 112.39 74.8954C112.182 74.0474 112.078 72.9994 112.078 71.7514C112.078 70.4394 112.182 69.3594 112.39 68.5114C112.614 67.6474 112.958 66.9754 113.422 66.4954C113.902 65.9994 114.518 65.6554 115.27 65.4634C116.038 65.2554 116.942 65.1514 117.982 65.1514C119.054 65.1514 119.966 65.2554 120.718 65.4634C121.47 65.6714 122.078 66.0234 122.542 66.5194C123.022 66.9994 123.366 67.6714 123.574 68.5354C123.798 69.3834 123.91 70.4554 123.91 71.7514C123.91 73.0314 123.806 74.1034 123.598 74.9674C123.39 75.8154 123.054 76.4874 122.59 76.9834C122.126 77.4794 121.51 77.8314 120.742 78.0394C119.99 78.2474 119.07 78.3514 117.982 78.3514ZM117.982 75.5194C118.414 75.5194 118.774 75.4794 119.062 75.3994C119.366 75.3194 119.606 75.1594 119.782 74.9194C119.974 74.6634 120.118 74.2794 120.214 73.7674C120.31 73.2554 120.358 72.5834 120.358 71.7514C120.358 70.9034 120.31 70.2314 120.214 69.7354C120.118 69.2234 119.974 68.8474 119.782 68.6074C119.606 68.3514 119.366 68.1834 119.062 68.1034C118.774 68.0234 118.414 67.9834 117.982 67.9834C117.566 67.9834 117.206 68.0234 116.902 68.1034C116.614 68.1834 116.374 68.3514 116.182 68.6074C115.99 68.8474 115.846 69.2234 115.75 69.7354C115.67 70.2314 115.63 70.9034 115.63 71.7514C115.63 72.5834 115.67 73.2554 115.75 73.7674C115.846 74.2794 115.99 74.6634 116.182 74.9194C116.374 75.1594 116.614 75.3194 116.902 75.3994C117.206 75.4794 117.566 75.5194 117.982 75.5194ZM126.267 78.2314V65.3434H129.003L129.819 67.3114C130.283 66.7194 130.803 66.2154 131.379 65.7994C131.971 65.3834 132.667 65.1754 133.467 65.1754C133.643 65.1754 133.819 65.1834 133.995 65.1994C134.187 65.2154 134.363 65.2474 134.523 65.2954V68.9434C134.283 68.9114 134.027 68.8874 133.755 68.8714C133.499 68.8394 133.251 68.8234 133.011 68.8234C132.547 68.8234 132.123 68.8794 131.739 68.9914C131.371 69.0874 131.027 69.2394 130.707 69.4474C130.403 69.6394 130.107 69.8954 129.819 70.2154V78.2314H126.267ZM66.4232 110.231V96.5274C66.4232 95.7434 66.5432 95.0874 66.7832 94.5594C67.0232 94.0314 67.3432 93.6154 67.7432 93.3114C68.1432 93.0074 68.5832 92.7914 69.0632 92.6634C69.5432 92.5354 70.0152 92.4714 70.4792 92.4714C71.0552 92.4714 71.7672 92.4794 72.6152 92.4954C73.4792 92.4954 74.3912 92.5194 75.3512 92.5674C76.3272 92.6154 77.2632 92.6874 78.1592 92.7834V95.7594H71.4632C70.9672 95.7594 70.5912 95.8954 70.3352 96.1674C70.0952 96.4234 69.9752 96.7674 69.9752 97.1994V100.223L77.0072 100.415V103.223L69.9752 103.415V110.231H66.4232ZM80.013 110.231V97.3434H82.749L83.565 99.3114C84.029 98.7194 84.549 98.2154 85.125 97.7994C85.717 97.3834 86.413 97.1754 87.213 97.1754C87.389 97.1754 87.565 97.1834 87.741 97.1994C87.933 97.2154 88.109 97.2474 88.269 97.2954V100.943C88.029 100.911 87.773 100.887 87.501 100.871C87.245 100.839 86.997 100.823 86.757 100.823C86.293 100.823 85.869 100.879 85.485 100.991C85.117 101.087 84.773 101.239 84.453 101.447C84.149 101.639 83.853 101.895 83.565 102.215V110.231H80.013ZM95.5855 110.351C94.1615 110.351 93.0255 110.167 92.1775 109.799C91.3295 109.415 90.7135 108.743 90.3295 107.783C89.9615 106.823 89.7775 105.495 89.7775 103.799C89.7775 102.055 89.9535 100.703 90.3055 99.7434C90.6575 98.7834 91.2495 98.1114 92.0815 97.7274C92.9135 97.3434 94.0415 97.1514 95.4655 97.1514C96.7455 97.1514 97.7695 97.2794 98.5375 97.5354C99.3055 97.7914 99.8575 98.2394 100.193 98.8794C100.545 99.5194 100.721 100.423 100.721 101.591C100.721 102.455 100.545 103.143 100.193 103.655C99.8575 104.151 99.3775 104.511 98.7535 104.735C98.1295 104.943 97.3935 105.047 96.5455 105.047H93.3055C93.3375 105.703 93.4335 106.231 93.5935 106.631C93.7695 107.015 94.0815 107.295 94.5295 107.471C94.9935 107.631 95.6575 107.711 96.5215 107.711H100.289V109.799C99.6655 109.927 98.9775 110.055 98.2255 110.183C97.4895 110.295 96.6095 110.351 95.5855 110.351ZM93.2575 102.935H96.1855C96.6655 102.935 97.0175 102.839 97.2415 102.647C97.4655 102.455 97.5775 102.111 97.5775 101.615C97.5775 101.151 97.5055 100.783 97.3615 100.511C97.2175 100.223 96.9935 100.023 96.6895 99.9114C96.3855 99.7834 95.9775 99.7194 95.4655 99.7194C94.9215 99.7194 94.4895 99.8154 94.1695 100.007C93.8495 100.183 93.6175 100.503 93.4735 100.967C93.3295 101.431 93.2575 102.087 93.2575 102.935ZM108.476 110.351C107.052 110.351 105.916 110.167 105.068 109.799C104.22 109.415 103.604 108.743 103.22 107.783C102.852 106.823 102.668 105.495 102.668 103.799C102.668 102.055 102.844 100.703 103.196 99.7434C103.548 98.7834 104.14 98.1114 104.972 97.7274C105.804 97.3434 106.932 97.1514 108.356 97.1514C109.636 97.1514 110.66 97.2794 111.428 97.5354C112.196 97.7914 112.748 98.2394 113.084 98.8794C113.436 99.5194 113.612 100.423 113.612 101.591C113.612 102.455 113.436 103.143 113.084 103.655C112.748 104.151 112.268 104.511 111.644 104.735C111.02 104.943 110.284 105.047 109.436 105.047H106.196C106.228 105.703 106.324 106.231 106.484 106.631C106.66 107.015 106.972 107.295 107.42 107.471C107.884 107.631 108.548 107.711 109.412 107.711H113.18V109.799C112.556 109.927 111.868 110.055 111.116 110.183C110.38 110.295 109.5 110.351 108.476 110.351ZM106.148 102.935H109.076C109.556 102.935 109.908 102.839 110.132 102.647C110.356 102.455 110.468 102.111 110.468 101.615C110.468 101.151 110.396 100.783 110.252 100.511C110.108 100.223 109.884 100.023 109.58 99.9114C109.276 99.7834 108.868 99.7194 108.356 99.7194C107.812 99.7194 107.38 99.8154 107.06 100.007C106.74 100.183 106.508 100.503 106.364 100.967C106.22 101.431 106.148 102.087 106.148 102.935Z" fill="white"/>
</g>
<defs>
<clipPath id="clip0_6_367">
<rect width="178" height="176" fill="white" transform="translate(0.730957 0.231445)"/>
</clipPath>
</defs>
</svg>
