<svg width="54" height="54" viewBox="0 0 54 54" fill="none" xmlns="http://www.w3.org/2000/svg">
<g clip-path="url(#clip0_14_1034)">
<path d="M26.6923 0.174805C12.0574 0.174805 0.189364 12.0428 0.189364 26.6778C0.189364 41.3127 12.0574 53.1807 26.6923 53.1807C41.3273 53.1807 53.1953 41.3127 53.1953 26.6778C53.1953 12.0428 41.3326 0.174805 26.6923 0.174805ZM13.2659 27.5683L13.3772 27.388L20.2733 16.6013C20.374 16.4476 20.6125 16.4635 20.6868 16.6331C21.837 19.2145 22.8335 22.4267 22.367 24.425C22.1709 25.2466 21.625 26.3597 21.0101 27.388C20.9306 27.5365 20.8458 27.6849 20.7504 27.828C20.708 27.8916 20.6337 27.9287 20.5542 27.9287H13.4673C13.2765 27.9287 13.1652 27.722 13.2659 27.5683ZM43.9935 31.2787C43.9935 31.3794 43.9352 31.4642 43.8503 31.5013C43.315 31.7292 41.4863 32.572 40.7283 33.6268C38.7883 36.3248 37.3094 40.1837 33.9965 40.1837H20.1832C15.2855 40.1837 11.3206 36.2029 11.3206 31.2893V31.1303C11.3206 31.003 11.4266 30.897 11.5591 30.897H19.2556C19.4093 30.897 19.5206 31.0349 19.51 31.1886C19.4517 31.6868 19.5471 32.201 19.7857 32.6674C20.2415 33.595 21.1903 34.1728 22.2133 34.1728H26.0245V31.1992H22.2557C22.0649 31.1992 21.9483 30.9765 22.0596 30.8175C22.102 30.7539 22.1444 30.6903 22.1974 30.6161C22.5526 30.1072 23.0614 29.3228 23.5703 28.427C23.9148 27.8227 24.2488 27.176 24.5191 26.5294C24.5721 26.4127 24.6145 26.2908 24.6622 26.1742C24.7364 25.9675 24.8106 25.7714 24.8636 25.5805C24.9166 25.4162 24.9643 25.2466 25.0067 25.0876C25.134 24.5363 25.187 23.9533 25.187 23.349C25.187 23.1105 25.1764 22.8613 25.1552 22.6281C25.1446 22.3684 25.1127 22.1087 25.0809 21.8489C25.0597 21.621 25.0173 21.3931 24.9749 21.1598C24.9166 20.8153 24.8424 20.4708 24.7576 20.1262L24.7258 19.9937C24.6622 19.7552 24.6039 19.5326 24.5297 19.294C24.3124 18.552 24.0685 17.8258 23.8035 17.1473C23.7081 16.877 23.6021 16.6172 23.4908 16.3628C23.3317 15.9706 23.1674 15.6154 23.019 15.2815C22.9395 15.1278 22.8759 14.99 22.8123 14.8468C22.7381 14.6878 22.6639 14.5288 22.5844 14.3751C22.5314 14.2585 22.4678 14.1472 22.4253 14.0412L21.9589 13.1825C21.8953 13.0658 22.0013 12.9227 22.1285 12.9598L25.0438 13.7496H25.0544H25.065L25.4467 13.8609L25.8707 13.9775L26.0245 14.02V12.292C26.0245 11.4545 26.6923 10.776 27.5245 10.776C27.938 10.776 28.3143 10.9456 28.5793 11.2212C28.8497 11.4969 29.0193 11.8732 29.0193 12.292V14.8627L29.332 14.9476C29.3532 14.9582 29.3797 14.9688 29.4009 14.9847C29.4751 15.0377 29.5864 15.1225 29.7243 15.2285C29.8356 15.3133 29.9522 15.4193 30.09 15.5306C30.3709 15.7585 30.7102 16.0501 31.0759 16.384C31.1713 16.4688 31.2667 16.5536 31.3568 16.6437C31.8286 17.0837 32.3587 17.5979 32.8675 18.1703C33.0106 18.3346 33.1484 18.4937 33.2916 18.6686C33.4294 18.8435 33.5831 19.0131 33.7103 19.1827C33.8852 19.4107 34.0654 19.6492 34.2298 19.8983C34.304 20.0149 34.3941 20.1368 34.463 20.2534C34.675 20.5662 34.8552 20.8895 35.0302 21.2129C35.1044 21.3613 35.1786 21.5256 35.2422 21.6846C35.4383 22.1193 35.592 22.5592 35.6874 23.0045C35.7192 23.0999 35.7404 23.2006 35.751 23.296V23.3172C35.7828 23.4444 35.7934 23.5822 35.804 23.7253C35.8464 24.1759 35.8252 24.6317 35.7298 25.0876C35.6874 25.2784 35.6344 25.4586 35.5708 25.6548C35.5019 25.8403 35.4383 26.0311 35.3535 26.2166C35.1892 26.593 34.9984 26.9746 34.7704 27.3244C34.6962 27.457 34.6061 27.5948 34.5213 27.7273C34.4259 27.8651 34.3252 27.9976 34.2404 28.1248C34.1185 28.2891 33.9912 28.4588 33.8587 28.6125C33.7421 28.7715 33.6255 28.9305 33.493 29.0736C33.3128 29.291 33.1378 29.4924 32.9523 29.6885C32.8463 29.8157 32.7297 29.9482 32.6078 30.0648C32.4912 30.1974 32.3693 30.314 32.2632 30.42C32.0777 30.6055 31.9293 30.7433 31.8021 30.8652L31.5 31.1356C31.4576 31.178 31.3993 31.1992 31.3409 31.1992H29.0193V34.1728H31.9399C32.5919 34.1728 33.2121 33.9449 33.7156 33.5155C33.8852 33.3671 34.6326 32.7204 35.5178 31.7451C35.5496 31.708 35.5867 31.6868 35.6291 31.6762L43.6913 29.344C43.845 29.3016 43.9935 29.4129 43.9935 29.5719V31.2787Z" fill="white"/>
</g>
<defs>
<clipPath id="clip0_14_1034">
<rect width="53.0059" height="53.0059" fill="white" transform="translate(0.189362 0.174805)"/>
</clipPath>
</defs>
</svg>
