<svg width="54" height="45" viewBox="0 0 54 45" fill="none" xmlns="http://www.w3.org/2000/svg">
<g clip-path="url(#clip0_14_1025)">
<path d="M47.8796 11.8396C47.9116 12.3034 47.9116 12.7672 47.9116 13.2353C47.9116 27.4977 37.054 43.9467 17.2003 43.9467V43.9381C11.3354 43.9467 5.5924 42.2667 0.655151 39.0992C1.50795 39.2018 2.36502 39.2531 3.22423 39.2552C8.08453 39.2595 12.8059 37.6287 16.6296 34.6258C12.0108 34.5381 7.96056 31.5266 6.54565 27.1301C8.16361 27.4422 9.83073 27.378 11.4188 26.9442C6.38321 25.9268 2.76043 21.5025 2.76043 16.3644C2.76043 16.3173 2.76043 16.2725 2.76043 16.2276C4.26084 17.0633 5.94078 17.5271 7.6592 17.5784C2.91645 14.4087 1.45451 8.09928 4.31854 3.16631C9.79867 9.90961 17.8842 14.009 26.5639 14.4429C25.694 10.694 26.8824 6.76559 29.6866 4.13025C34.0339 0.0436653 40.8713 0.253124 44.9578 4.59833C47.3752 4.1217 49.692 3.23471 51.8123 1.97795C51.0065 4.4765 49.3201 6.59887 47.0674 7.94753C49.2069 7.69533 51.2972 7.12252 53.2657 6.24835C51.8166 8.41988 49.9913 10.3114 47.8796 11.8396Z" fill="white"/>
</g>
<defs>
<clipPath id="clip0_14_1025">
<rect width="53.0059" height="43.6016" fill="white" transform="translate(0.441422 0.876953)"/>
</clipPath>
</defs>
</svg>
